  0
SECTION
  2
HEADER
  9
$ACADVER
  1
AC1027
  9
$ACADMAINTVER
 70
   125
  9
$DWGCODEPAGE
  3
ANSI_1252
  9
$LASTSAVEDBY
  1
sabades
  9
$REQUIREDVERSIONS
160
                 0
  9
$INSBASE
 10
0.0
 20
0.0
 30
0.0
  9
$EXTMIN
 10
0.0
 20
0.0
 30
0.0
  9
$EXTMAX
 10
420.0
 20
297.0
 30
36.5
  9
$LIMMIN
 10
0.0
 20
0.0
  9
$LIMMAX
 10
420.0
 20
297.0
  9
$ORTHOMODE
 70
     0
  9
$REGENMODE
 70
     1
  9
$FILLMODE
 70
     1
  9
$QTEXTMODE
 70
     0
  9
$MIRRTEXT
 70
     0
  9
$LTSCALE
 40
0.75
  9
$ATTMODE
 70
     1
  9
$TEXTSIZE
 40
3.5
  9
$TRACEWID
 40
1.0
  9
$TEXTSTYLE
  7
Standard
  9
$CLAYER
  8
0
  9
$CELTYPE
  6
ByLayer
  9
$CECOLOR
 62
   256
  9
$CELTSCALE
 40
1.0
  9
$DISPSILH
 70
     0
  9
$DIMSCALE
 40
1.0
  9
$DIMASZ
 40
3.5
  9
$DIMEXO
 40
2.0
  9
$DIMDLI
 40
9.899495
  9
$DIMRND
 40
0.0
  9
$DIMDLE
 40
0.0
  9
$DIMEXE
 40
2.0
  9
$DIMTP
 40
0.1
  9
$DIMTM
 40
0.1
  9
$DIMTXT
 40
3.5
  9
$DIMCEN
 40
0.0
  9
$DIMTSZ
 40
0.0
  9
$DIMTOL
 70
     0
  9
$DIMLIM
 70
     0
  9
$DIMTIH
 70
     0
  9
$DIMTOH
 70
     0
  9
$DIMSE1
 70
     0
  9
$DIMSE2
 70
     0
  9
$DIMTAD
 70
     1
  9
$DIMZIN
 70
    12
  9
$DIMBLK
  1

  9
$DIMASO
 70
     1
  9
$DIMSHO
 70
     1
  9
$DIMPOST
  1

  9
$DIMAPOST
  1
in
  9
$DIMALT
 70
     0
  9
$DIMALTD
 70
     4
  9
$DIMALTF
 40
0.03937
  9
$DIMLFAC
 40
1.0
  9
$DIMTOFL
 70
     1
  9
$DIMTVP
 40
0.0
  9
$DIMTIX
 70
     0
  9
$DIMSOXD
 70
     0
  9
$DIMSAH
 70
     0
  9
$DIMBLK1
  1

  9
$DIMBLK2
  1

  9
$DIMSTYLE
  2
ISO-25
  9
$DIMCLRD
 70
   256
  9
$DIMCLRE
 70
   256
  9
$DIMCLRT
 70
   256
  9
$DIMTFAC
 40
0.714
  9
$DIMGAP
 40
1.5
  9
$DIMJUST
 70
     0
  9
$DIMSD1
 70
     0
  9
$DIMSD2
 70
     0
  9
$DIMTOLJ
 70
     0
  9
$DIMTZIN
 70
    12
  9
$DIMALTZ
 70
    12
  9
$DIMALTTZ
 70
    12
  9
$DIMUPT
 70
     0
  9
$DIMDEC
 70
     2
  9
$DIMTDEC
 70
     2
  9
$DIMALTU
 70
     2
  9
$DIMALTTD
 70
     4
  9
$DIMTXSTY
  7
Standard
  9
$DIMAUNIT
 70
     0
  9
$DIMADEC
 70
     2
  9
$DIMALTRND
 40
0.0
  9
$DIMAZIN
 70
     3
  9
$DIMDSEP
 70
    46
  9
$DIMATFIT
 70
     3
  9
$DIMFRAC
 70
     0
  9
$DIMLDRBLK
  1

  9
$DIMLUNIT
 70
     2
  9
$DIMLWD
 70
    -2
  9
$DIMLWE
 70
    -2
  9
$DIMTMOVE
 70
     1
  9
$DIMFXL
 40
1.0
  9
$DIMFXLON
 70
     0
  9
$DIMJOGANG
 40
0.785398
  9
$DIMTFILL
 70
     0
  9
$DIMTFILLCLR
 70
     0
  9
$DIMARCSYM
 70
     0
  9
$DIMLTYPE
  6

  9
$DIMLTEX1
  6

  9
$DIMLTEX2
  6

  9
$DIMTXTDIRECTION
 70
     0
  9
$LUNITS
 70
     2
  9
$LUPREC
 70
     4
  9
$SKETCHINC
 40
1.0
  9
$FILLETRAD
 40
0.0
  9
$AUNITS
 70
     0
  9
$AUPREC
 70
     0
  9
$MENU
  1
.
  9
$ELEVATION
 40
0.0
  9
$PELEVATION
 40
0.0
  9
$THICKNESS
 40
0.0
  9
$LIMCHECK
 70
     0
  9
$CHAMFERA
 40
0.0
  9
$CHAMFERB
 40
0.0
  9
$CHAMFERC
 40
0.0
  9
$CHAMFERD
 40
0.0
  9
$SKPOLY
 70
     0
  9
$TDCREATE
 40
2459206.599004630
  9
$TDUCREATE
 40
2459206.599004630
  9
$TDUPDATE
 40
2459206.599004630
  9
$TDUUPDATE
 40
2459206.599004630
  9
$TDINDWG
 40
0.0000115741
  9
$TDUSRTIMER
 40
0.0000115741
  9
$USRTIMER
 70
     1
  9
$ANGBASE
 50
0.0
  9
$ANGDIR
 70
     0
  9
$PDMODE
 70
     0
  9
$PDSIZE
 40
0.0
  9
$PLINEWID
 40
0.0
  9
$SPLFRAME
 70
     0
  9
$SPLINETYPE
 70
     6
  9
$SPLINESEGS
 70
     8
  9
$HANDSEED
  5
5BA
  9
$SURFTAB1
 70
     6
  9
$SURFTAB2
 70
     6
  9
$SURFTYPE
 70
     6
  9
$SURFU
 70
     6
  9
$SURFV
 70
     6
  9
$UCSBASE
  2

  9
$UCSNAME
  2

  9
$UCSORG
 10
0.0
 20
0.0
 30
0.0
  9
$UCSXDIR
 10
1.0
 20
0.0
 30
0.0
  9
$UCSYDIR
 10
0.0
 20
1.0
 30
0.0
  9
$UCSORTHOREF
  2

  9
$UCSORTHOVIEW
 70
     0
  9
$UCSORGTOP
 10
0.0
 20
0.0
 30
0.0
  9
$UCSORGBOTTOM
 10
0.0
 20
0.0
 30
0.0
  9
$UCSORGLEFT
 10
0.0
 20
0.0
 30
0.0
  9
$UCSORGRIGHT
 10
0.0
 20
0.0
 30
0.0
  9
$UCSORGFRONT
 10
0.0
 20
0.0
 30
0.0
  9
$UCSORGBACK
 10
0.0
 20
0.0
 30
0.0
  9
$PUCSBASE
  2

  9
$PUCSNAME
  2

  9
$PUCSORG
 10
0.0
 20
0.0
 30
0.0
  9
$PUCSXDIR
 10
1.0
 20
0.0
 30
0.0
  9
$PUCSYDIR
 10
0.0
 20
1.0
 30
0.0
  9
$PUCSORTHOREF
  2

  9
$PUCSORTHOVIEW
 70
     0
  9
$PUCSORGTOP
 10
0.0
 20
0.0
 30
0.0
  9
$PUCSORGBOTTOM
 10
0.0
 20
0.0
 30
0.0
  9
$PUCSORGLEFT
 10
0.0
 20
0.0
 30
0.0
  9
$PUCSORGRIGHT
 10
0.0
 20
0.0
 30
0.0
  9
$PUCSORGFRONT
 10
0.0
 20
0.0
 30
0.0
  9
$PUCSORGBACK
 10
0.0
 20
0.0
 30
0.0
  9
$USERI1
 70
     0
  9
$USERI2
 70
     0
  9
$USERI3
 70
     0
  9
$USERI4
 70
     0
  9
$USERI5
 70
     0
  9
$USERR1
 40
0.0
  9
$USERR2
 40
0.0
  9
$USERR3
 40
0.0
  9
$USERR4
 40
0.0
  9
$USERR5
 40
0.0
  9
$WORLDVIEW
 70
     1
  9
$SHADEDGE
 70
     3
  9
$SHADEDIF
 70
    70
  9
$TILEMODE
 70
     1
  9
$MAXACTVP
 70
    64
  9
$PINSBASE
 10
0.0
 20
0.0
 30
0.0
  9
$PLIMCHECK
 70
     0
  9
$PEXTMIN
 10
1.000000E+20
 20
1.000000E+20
 30
1.000000E+20
  9
$PEXTMAX
 10
-1.000000E+20
 20
-1.000000E+20
 30
-1.000000E+20
  9
$PLIMMIN
 10
0.0
 20
0.0
  9
$PLIMMAX
 10
12.0
 20
9.0
  9
$UNITMODE
 70
     0
  9
$VISRETAIN
 70
     1
  9
$PLINEGEN
 70
     0
  9
$PSLTSCALE
 70
     1
  9
$TREEDEPTH
 70
  3020
  9
$CMLSTYLE
  2
Standard
  9
$CMLJUST
 70
     0
  9
$CMLSCALE
 40
20.0
  9
$PROXYGRAPHICS
 70
     1
  9
$MEASUREMENT
 70
     1
  9
$CELWEIGHT
370
    -1
  9
$ENDCAPS
280
     0
  9
$JOINSTYLE
280
     0
  9
$LWDISPLAY
290
     0
  9
$INSUNITS
 70
     4
  9
$HYPERLINKBASE
  1

  9
$STYLESHEET
  1

  9
$XEDIT
290
     1
  9
$CEPSNTYPE
380
     0
  9
$PSTYLEMODE
290
     1
  9
$FINGERPRINTGUID
  2
{F9F6E3B8-EE85-A249-8750-86000ACE722A}
  9
$VERSIONGUID
  2
{6357F73C-8261-4A46-B61E-D85993FCFA36}
  9
$EXTNAMES
290
     1
  9
$PSVPSCALE
 40
0.0
  9
$OLESTARTUP
290
     0
  9
$SORTENTS
280
   127
  9
$INDEXCTL
280
     0
  9
$HIDETEXT
280
     1
  9
$XCLIPFRAME
280
     2
  9
$HALOGAP
280
     0
  9
$OBSCOLOR
 70
   257
  9
$OBSLTYPE
280
     0
  9
$INTERSECTIONDISPLAY
280
     0
  9
$INTERSECTIONCOLOR
 70
   257
  9
$DIMASSOC
280
     2
  9
$PROJECTNAME
  1

  9
$CAMERADISPLAY
290
     0
  9
$LENSLENGTH
 40
50.0
  9
$CAMERAHEIGHT
 40
0.0
  9
$STEPSPERSEC
 40
2.0
  9
$STEPSIZE
 40
6.0
  9
$3DDWFPREC
 40
2.0
  9
$PSOLWIDTH
 40
5.0
  9
$PSOLHEIGHT
 40
80.0
  9
$LOFTANG1
 40
1.570796
  9
$LOFTANG2
 40
1.570796
  9
$LOFTMAG1
 40
0.0
  9
$LOFTMAG2
 40
0.0
  9
$LOFTPARAM
 70
     7
  9
$LOFTNORMALS
280
     1
  9
$LATITUDE
 40
37.795
  9
$LONGITUDE
 40
-122.394
  9
$NORTHDIRECTION
 40
0.0
  9
$TIMEZONE
 70
 -8000
  9
$LIGHTGLYPHDISPLAY
280
     1
  9
$TILEMODELIGHTSYNCH
280
     1
  9
$CMATERIAL
347
11
  9
$SOLIDHIST
280
     0
  9
$SHOWHIST
280
     1
  9
$DWFFRAME
280
     2
  9
$DGNFRAME
280
     0
  9
$REALWORLDSCALE
290
     1
  9
$INTERFERECOLOR
 62
     1
  9
$INTERFEREOBJVS
345
33
  9
$INTERFEREVPVS
346
30
  9
$CSHADOW
280
     0
  9
$SHADOWPLANELOCATION
 40
0.0
  0
ENDSEC
  0
SECTION
  2
CLASSES
  0
CLASS
  1
ACDBDICTIONARYWDFLT
  2
AcDbDictionaryWithDefault
  3
ObjectDBX Classes
 90
        0
 91
        1
280
     0
281
     0
  0
CLASS
  1
MATERIAL
  2
AcDbMaterial
  3
ObjectDBX Classes
 90
     1153
 91
        3
280
     0
281
     0
  0
CLASS
  1
VISUALSTYLE
  2
AcDbVisualStyle
  3
ObjectDBX Classes
 90
     4095
 91
       24
280
     0
281
     0
  0
CLASS
  1
SCALE
  2
AcDbScale
  3
ObjectDBX Classes
 90
     1153
 91
       18
280
     0
281
     0
  0
CLASS
  1
TABLESTYLE
  2
AcDbTableStyle
  3
ObjectDBX Classes
 90
     4095
 91
        1
280
     0
281
     0
  0
CLASS
  1
MLEADERSTYLE
  2
AcDbMLeaderStyle
  3
ACDB_MLEADERSTYLE_CLASS
 90
     4095
 91
        1
280
     0
281
     0
  0
CLASS
  1
ACDBSECTIONVIEWSTYLE
  2
AcDbSectionViewStyle
  3
ObjectDBX Classes
 90
     1025
 91
        1
280
     0
281
     0
  0
CLASS
  1
ACDBDETAILVIEWSTYLE
  2
AcDbDetailViewStyle
  3
ObjectDBX Classes
 90
     1025
 91
        1
280
     0
281
     0
  0
CLASS
  1
ACMESCOPE
  2
AcMeScope
  3
AcMeServices
 90
     1024
 91
        1
280
     0
281
     0
  0
CLASS
  1
ACMECOMMANDHISTORY
  2
AcMeCommandHistory
  3
AcMeServices
 90
     1024
 91
        1
280
     0
281
     0
  0
CLASS
  1
ACIMSYSVARMAN
  2
AcImSysVarManager
  3
AcMeServices
 90
     1024
 91
        1
280
     0
281
     0
  0
CLASS
  1
ACIMINTSYSVAR
  2
AcImIntSysVar
  3
AcMeServices
 90
     1024
 91
        1
280
     0
281
     0
  0
CLASS
  1
ACMESTATEMGR
  2
AcMeStateMgr
  3
AcMeServices
 90
     1024
 91
        1
280
     0
281
     0
  0
CLASS
  1
ACGREFMASTER
  2
AcGrefMaster
  3
AcAttribServices
 90
     1024
 91
        1
280
     0
281
     0
  0
CLASS
  1
SORTENTSTABLE
  2
AcDbSortentsTable
  3
ObjectDBX Classes
 90
        0
 91
        3
280
     0
281
     0
  0
CLASS
  1
DICTIONARYVAR
  2
AcDbDictionaryVar
  3
ObjectDBX Classes
 90
        0
 91
        6
280
     0
281
     0
  0
CLASS
  1
CELLSTYLEMAP
  2
AcDbCellStyleMap
  3
ObjectDBX Classes
 90
     1152
 91
        1
280
     0
281
     0
  0
ENDSEC
  0
SECTION
  2
TABLES
  0
TABLE
  2
VPORT
  5
8
330
0
100
AcDbSymbolTable
 70
     1
1001
ACAD
1000
DbSaveVer
1071
      223
  0
VPORT
  5
57
330
8
100
AcDbSymbolTableRecord
100
AcDbViewportTableRecord
  2
*Active
 70
     0
 10
0.0
 20
0.0
 11
1.0
 21
1.0
 12
210.0
 22
148.5
 13
0.0
 23
0.0
 14
10.0
 24
10.0
 15
0.0
 25
0.0
 16
0.0
 26
0.0
 36
1.0
 17
0.0
 27
0.0
 37
0.0
 40
297.0
 41
1.779601
 42
50.0
 43
0.0
 44
0.0
 50
0.0
 51
0.0
 71
     0
 72
 20000
 73
     1
 74
     0
 75
     0
 76
     0
 77
     0
 78
     0
281
     0
 65
     1
110
0.0
120
0.0
130
0.0
111
1.0
121
0.0
131
0.0
112
0.0
122
1.0
132
0.0
 79
     0
146
0.0
348
2F
 60
     3
 61
     5
292
     1
282
     1
141
0.0
142
0.0
 63
   250
421
  3355443
  0
ENDTAB
  0
TABLE
  2
LTYPE
  5
5
330
0
100
AcDbSymbolTable
 70
    15
  0
LTYPE
  5
5B
330
5
100
AcDbSymbolTableRecord
100
AcDbLinetypeTableRecord
  2
ByBlock
 70
     0
  3

 72
    65
 73
     0
 40
0.0
  0
LTYPE
  5
5C
330
5
100
AcDbSymbolTableRecord
100
AcDbLinetypeTableRecord
  2
ByLayer
 70
     0
  3

 72
    65
 73
     0
 40
0.0
  0
LTYPE
  5
5D
330
5
100
AcDbSymbolTableRecord
100
AcDbLinetypeTableRecord
  2
Continuous
 70
     0
  3
Solid line
 72
    65
 73
     0
 40
0.0
  0
LTYPE
  5
81
330
5
100
AcDbSymbolTableRecord
100
AcDbLinetypeTableRecord
  2
HIDDEN
 70
     0
  3
Hidden __ __ __ __ __ __ __ __ __ __ __ __ __ _
 72
    65
 73
     2
 40
9.525
 49
6.35
 74
     0
 49
-3.175
 74
     0
  0
LTYPE
  5
82
330
5
100
AcDbSymbolTableRecord
100
AcDbLinetypeTableRecord
  2
PHANTOM2
 70
     0
  3
Phantom (.5x) ___ _ _ ___ _ _ ___ _ _ ___ _ _
 72
    65
 73
     6
 40
31.75
 49
15.875
 74
     0
 49
-3.175
 74
     0
 49
3.175
 74
     0
 49
-3.175
 74
     0
 49
3.175
 74
     0
 49
-3.175
 74
     0
  0
LTYPE
  5
83
330
5
100
AcDbSymbolTableRecord
100
AcDbLinetypeTableRecord
  2
CENTER
 70
     0
  3
Center ____ _ ____ _ ____ _ ____ _ ____ _ ____
 72
    65
 73
     4
 40
50.8
 49
31.75
 74
     0
 49
-6.35
 74
     0
 49
6.35
 74
     0
 49
-6.35
 74
     0
  0
LTYPE
  5
9B
330
5
100
AcDbSymbolTableRecord
100
AcDbLinetypeTableRecord
  2
AM_ISO02W050
 70
     0
  3
__ __ __ __ __ __ __ __ __ __ __ __ __ __ __
 72
    65
 73
     2
 40
7.5
 49
6.0
 74
     0
 49
-1.5
 74
     0
  0
LTYPE
  5
9C
330
5
100
AcDbSymbolTableRecord
100
AcDbLinetypeTableRecord
  2
AM_ISO08W050
 70
     0
  3
____ . ____ . ____ . ____ . ____ . ____ . ____
 72
    65
 73
     4
 40
18.0
 49
12.0
 74
     0
 49
-1.5
 74
     0
 49
3.0
 74
     0
 49
-1.5
 74
     0
  0
LTYPE
  5
9D
330
5
100
AcDbSymbolTableRecord
100
AcDbLinetypeTableRecord
  2
AM_ISO09W050
 70
     0
  3
_____ . . _____ . . _____ . . ____ .. ____
 72
    65
 73
     6
 40
22.5
 49
12.0
 74
     0
 49
-1.5
 74
     0
 49
3.0
 74
     0
 49
-1.5
 74
     0
 49
3.0
 74
     0
 49
-1.5
 74
     0
  0
LTYPE
  5
9E
330
5
100
AcDbSymbolTableRecord
100
AcDbLinetypeTableRecord
  2
Amconstr
 70
     0
  3
_______________________
 72
    65
 73
     2
 40
9999.0
 49
9999.0
 74
     0
 49
0.0
 74
     0
  0
LTYPE
  5
9F
330
5
100
AcDbSymbolTableRecord
100
AcDbLinetypeTableRecord
  2
AM_ISO08W050x2
 70
     0
  3
__ . __ . __ . __ . __ . __
 72
    65
 73
     4
 40
9.0
 49
6.0
 74
     0
 49
-0.75
 74
     0
 49
1.5
 74
     0
 49
-0.75
 74
     0
  0
LTYPE
  5
A0
330
5
100
AcDbSymbolTableRecord
100
AcDbLinetypeTableRecord
  2
AM_ISO02W050x2
 70
     0
  3
 _ _ _ _ _ _ _ _ _ _ _ _
 72
    65
 73
     2
 40
3.75
 49
3.0
 74
     0
 49
-0.75
 74
     0
  0
LTYPE
  5
A1
330
5
100
AcDbSymbolTableRecord
100
AcDbLinetypeTableRecord
  2
Amzigzag
 70
     0
  3
/\/-/\/-/\/-/\/-/\/-/\/
 72
    65
 73
     2
 40
11.0001
 49
0.0001
 74
     4
 75
   136
340
98
 46
0.04
 50
0.0
 44
0.0
 45
0.0
 49
-11.0
 74
     0
  0
LTYPE
  5
A2
330
5
100
AcDbSymbolTableRecord
100
AcDbLinetypeTableRecord
  2
ACISOWELD
 70
     0
  3
_ _ _ _ _
 72
    65
 73
     2
 40
2.0
 49
2.0
 74
     0
 49
-1.0
 74
     0
  0
LTYPE
  5
A3
330
5
100
AcDbSymbolTableRecord
100
AcDbLinetypeTableRecord
  2
ACISOTGL
 70
     0
  3
_ _ _ _ _
 72
    65
 73
     2
 40
3.0
 49
2.0
 74
     0
 49
-1.0
 74
     0
  0
LTYPE
  5
A4
330
5
100
AcDbSymbolTableRecord
100
AcDbLinetypeTableRecord
  2
ACISOTGB
 70
     0
  3
__ . . __ . .
 72
    65
 73
     6
 40
9.0
 49
4.0
 74
     0
 49
-1.0
 74
     0
 49
1.0
 74
     0
 49
-1.0
 74
     0
 49
1.0
 74
     0
 49
-1.0
 74
     0
  0
LTYPE
  5
A5
330
5
100
AcDbSymbolTableRecord
100
AcDbLinetypeTableRecord
  2
ACAD_VIEWBORDER_LINETYPE
 70
     0
  3
Dashed line in view border
 72
    83
 73
     2
 40
10.0
 49
1.59
 74
     0
 49
-6.35
 74
     0
1001
ACAD_EXEMPT_FROM_CAD_STANDARDS
1070
     1
  0
ENDTAB
  0
TABLE
  2
LAYER
  5
2
330
0
100
AcDbSymbolTable
 70
     8
  0
LAYER
  5
54
330
2
100
AcDbSymbolTableRecord
100
AcDbLayerTableRecord
  2
0
 70
     0
 62
     7
  6
Continuous
370
    -3
390
F
347
21
348
0
1001
AcAecLayerStandard
1000

1000

  0
LAYER
  5
79
330
2
100
AcDbSymbolTableRecord
100
AcDbLayerTableRecord
  2
Defpoints
 70
     0
 62
     7
  6
Continuous
290
     0
370
    -3
390
F
347
21
348
0
1001
AcAecLayerStandard
1000

1000

  0
LAYER
  5
B1
330
2
100
AcDbSymbolTableRecord
100
AcDbLayerTableRecord
  2
Visible
 70
     0
 62
     7
  6
Continuous
370
    50
390
F
347
21
348
0
  0
LAYER
  5
CE
330
2
100
AcDbSymbolTableRecord
100
AcDbLayerTableRecord
  2
Border
 70
     0
 62
     7
  6
Continuous
370
    25
390
F
347
21
348
0
1001
AcAecLayerStandard
1000

1000

1001
AcCmTransparency
1071
        0
  0
LAYER
  5
114
330
2
100
AcDbSymbolTableRecord
100
AcDbLayerTableRecord
  2
TitleBlock
 70
     0
 62
     7
  6
Continuous
370
    35
390
F
347
21
348
0
1001
AcAecLayerStandard
1000

1000

1001
AcCmTransparency
1071
        0
  0
LAYER
  5
160
330
2
100
AcDbSymbolTableRecord
100
AcDbLayerTableRecord
  2
Dimensions
 70
     0
 62
     7
  6
Continuous
370
    25
390
F
347
21
348
0
  0
ENDTAB
  0
TABLE
  2
STYLE
  5
3
330
0
100
AcDbSymbolTable
 70
     5
  0
STYLE
  5
55
330
3
100
AcDbSymbolTableRecord
100
AcDbTextStyleTableRecord
  2
Standard
 70
     0
 40
0.0
 41
1.0
 50
0.0
 71
     0
 42
3.5
  3
arial.ttf
  4

1001
ACAD
1000
Arial
1071
       34
  0
STYLE
  5
5A
330
3
100
AcDbSymbolTableRecord
100
AcDbTextStyleTableRecord
  2
Annotative
 70
     0
 40
0.0
 41
1.0
 50
0.0
 71
     0
 42
0.2
  3
txt
  4

1001
AcadAnnotative
1000
AnnotativeData
1002
{
1070
     1
1070
     1
1002
}
  0
STYLE
  5
97
330
3
100
AcDbSymbolTableRecord
100
AcDbTextStyleTableRecord
  2
FusionTitle
 70
     0
 40
0.0
 41
1.0
 50
0.0
 71
     0
 42
2.5
  3
arial.ttf
  4

1001
ACAD
1000
Arial
1071
       34
  0
STYLE
  5
98
330
3
100
AcDbSymbolTableRecord
100
AcDbTextStyleTableRecord
  2

 70
     1
 40
0.0
 41
1.0
 50
0.0
 71
     0
 42
10.0
  3
genltshp.shx
  4

  0
STYLE
  5
99
330
3
100
AcDbSymbolTableRecord
100
AcDbTextStyleTableRecord
  2
ACISOGDT
 70
     0
 40
0.0
 41
1.0
 50
0.0
 71
     0
 42
10.0
  3
amgdt.shx
  4

  0
ENDTAB
  0
TABLE
  2
VIEW
  5
6
330
0
100
AcDbSymbolTable
 70
     0
  0
ENDTAB
  0
TABLE
  2
UCS
  5
7
330
0
100
AcDbSymbolTable
 70
     0
  0
ENDTAB
  0
TABLE
  2
APPID
  5
9
330
0
100
AcDbSymbolTable
 70
    24
  0
APPID
  5
56
330
9
100
AcDbSymbolTableRecord
100
AcDbRegAppTableRecord
  2
ACAD
 70
     0
  0
APPID
  5
5E
330
9
100
AcDbSymbolTableRecord
100
AcDbRegAppTableRecord
  2
AcadAnnotative
 70
     0
  0
APPID
  5
78
330
9
100
AcDbSymbolTableRecord
100
AcDbRegAppTableRecord
  2
ACAD_PSEXT
 70
     0
  0
APPID
  5
7A
330
9
100
AcDbSymbolTableRecord
100
AcDbRegAppTableRecord
  2
MCAD_NO_VIS
 70
     0
  0
APPID
  5
7B
330
9
100
AcDbSymbolTableRecord
100
AcDbRegAppTableRecord
  2
ACAD_TEMP_GRAPHIC
 70
     0
  0
APPID
  5
84
330
9
100
AcDbSymbolTableRecord
100
AcDbRegAppTableRecord
  2
ACAD_DSTYLE_DIMJAG
 70
     0
  0
APPID
  5
85
330
9
100
AcDbSymbolTableRecord
100
AcDbRegAppTableRecord
  2
ACAD_DSTYLE_DIMTALN
 70
     0
  0
APPID
  5
86
330
9
100
AcDbSymbolTableRecord
100
AcDbRegAppTableRecord
  2
ACAD_NAV_VCDISPLAY
 70
     0
  0
APPID
  5
87
330
9
100
AcDbSymbolTableRecord
100
AcDbRegAppTableRecord
  2
AcAecLayerStandard
 70
     0
  0
APPID
  5
88
330
9
100
AcDbSymbolTableRecord
100
AcDbRegAppTableRecord
  2
AcCmTransparency
 70
     0
  0
APPID
  5
89
330
9
100
AcDbSymbolTableRecord
100
AcDbRegAppTableRecord
  2
AcDbDynamicBlockGUID
 70
     0
  0
APPID
  5
8A
330
9
100
AcDbSymbolTableRecord
100
AcDbRegAppTableRecord
  2
ACAD_EXEMPT_FROM_CAD_STANDARDS
 70
     0
  0
APPID
  5
8B
330
9
100
AcDbSymbolTableRecord
100
AcDbRegAppTableRecord
  2
ACAD_DSTYLE_DIMBREAK
 70
     0
  0
APPID
  5
8C
330
9
100
AcDbSymbolTableRecord
100
AcDbRegAppTableRecord
  2
ACAD_DSTYLE_DIMRADIAL_EXTENSION
 70
     0
  0
APPID
  5
8D
330
9
100
AcDbSymbolTableRecord
100
AcDbRegAppTableRecord
  2
FUSIONTITLEBLOCK
 70
     0
  0
APPID
  5
8E
330
9
100
AcDbSymbolTableRecord
100
AcDbRegAppTableRecord
  2
FUSIONCURRENTTITLEBLOCK
 70
     0
  0
APPID
  5
8F
330
9
100
AcDbSymbolTableRecord
100
AcDbRegAppTableRecord
  2
AcSynergy
 70
     0
  0
APPID
  5
90
330
9
100
AcDbSymbolTableRecord
100
AcDbRegAppTableRecord
  2
GENIUS_GENSCREG_15
 70
     0
  0
APPID
  5
91
330
9
100
AcDbSymbolTableRecord
100
AcDbRegAppTableRecord
  2
GENIUS_GENOBJ-N-SDF_13
 70
     0
  0
APPID
  5
92
330
9
100
AcDbSymbolTableRecord
100
AcDbRegAppTableRecord
  2
GENIUS_GENODEF_13
 70
     0
  0
APPID
  5
93
330
9
100
AcDbSymbolTableRecord
100
AcDbRegAppTableRecord
  2
ACAD_DIMASSOC_CALC_DIMLFAC
 70
     0
  0
APPID
  5
94
330
9
100
AcDbSymbolTableRecord
100
AcDbRegAppTableRecord
  2
ACAD_DIMASSOC_DIMLFAC
 70
     0
  0
APPID
  5
95
330
9
100
AcDbSymbolTableRecord
100
AcDbRegAppTableRecord
  2
ACAD_DIMASSOC_OVERRIDDEN_DIMLFAC
 70
     0
  0
APPID
  5
96
330
9
100
AcDbSymbolTableRecord
100
AcDbRegAppTableRecord
  2
ACATTRIBSERVICES
 70
     0
  0
ENDTAB
  0
TABLE
  2
DIMSTYLE
  5
A
330
0
100
AcDbSymbolTable
 70
     3
100
AcDbDimStyleTable
 71
     1
340
A8
  0
DIMSTYLE
105
58
330
A
100
AcDbSymbolTableRecord
100
AcDbDimStyleTableRecord
  2
Standard
 70
     0
  4
in
 43
9.899495
 78
    12
 79
     3
140
3.5
143
0.03937
179
     2
271
     2
272
     2
279
     1
284
    12
285
    12
286
    12
340
55
  0
DIMSTYLE
105
59
330
A
100
AcDbSymbolTableRecord
100
AcDbDimStyleTableRecord
  2
Annotative
 70
     0
  4
in
 40
0.0
 41
2.5
 42
0.625
 43
9.899495
 44
1.25
 73
     0
 74
     0
 77
     1
 78
    12
 79
     3
140
3.5
141
2.5
143
0.03937
147
0.625
171
     3
172
     1
179
     2
271
     2
272
     2
274
     3
278
    44
279
     1
283
     0
284
    12
285
    12
286
    12
340
55
1001
AcadAnnotative
1000
AnnotativeData
1002
{
1070
     1
1070
     1
1002
}
  0
DIMSTYLE
105
A8
102
{ACAD_REACTORS
330
15F
330
16D
330
17F
330
189
330
195
330
1A1
330
1B2
330
1BF
330
1CB
330
1DD
330
1EF
330
1FC
330
209
102
}
330
A
100
AcDbSymbolTableRecord
100
AcDbDimStyleTableRecord
  2
ISO-25
 70
     0
  4
in
 41
3.5
 42
2.0
 43
9.899495
 44
2.0
 47
0.1
 48
0.1
 73
     0
 74
     0
 77
     1
 78
    12
 79
     3
140
3.5
141
0.0
143
0.03937
146
0.714
147
1.5
171
     4
172
     1
176
   256
177
   256
178
   256
179
     2
271
     2
272
     2
274
     4
279
     1
283
     0
284
    12
285
    12
286
    12
340
55
1001
ACAD_DSTYLE_DIMBREAK
1070
   391
1040
3.5
1001
ACAD_DSTYLE_DIMJAG
1070
   388
1040
1.5
1001
ACAD_DSTYLE_DIMTALN
1070
   392
1070
     1
  0
ENDTAB
  0
TABLE
  2
BLOCK_RECORD
  5
1
330
0
100
AcDbSymbolTable
 70
    31
  0
BLOCK_RECORD
  5
70
102
{ACAD_XDICTIONARY
360
AA
102
}
330
1
100
AcDbSymbolTableRecord
100
AcDbBlockTableRecord
  2
*Model_Space
340
73
 70
     0
280
     1
281
     0
  0
BLOCK_RECORD
  5
6C
330
1
100
AcDbSymbolTableRecord
100
AcDbBlockTableRecord
  2
*Paper_Space
340
6F
 70
     0
280
     1
281
     0
  0
BLOCK_RECORD
  5
74
330
1
100
AcDbSymbolTableRecord
100
AcDbBlockTableRecord
  2
*Paper_Space0
340
77
 70
     0
280
     1
281
     0
  0
BLOCK_RECORD
  5
CF
102
{ACAD_XDICTIONARY
360
D0
102
}
330
1
100
AcDbSymbolTableRecord
100
AcDbBlockTableRecord
  2
ISO_A3_SHEET
340
0
310
2800000020000000200000000100080000000000000400000000000000000000000000000000000000000000000080000080000000808000800000008000800080800000C0C0C000C0DCC000F0CAA6000020400000206000002080000020A0000020C0000020E00000400000004020000040400000406000004080000040A0
310
000040C0000040E00000600000006020000060400000606000006080000060A0000060C0000060E00000800000008020000080400000806000008080000080A0000080C0000080E00000A0000000A0200000A0400000A0600000A0800000A0A00000A0C00000A0E00000C0000000C0200000C0400000C0600000C0800000C0
310
A00000C0C00000C0E00000E0000000E0200000E0400000E0600000E0800000E0A00000E0C00000E0E00040000000400020004000400040006000400080004000A0004000C0004000E00040200000402020004020400040206000402080004020A0004020C0004020E000404000004040200040404000404060004040800040
310
40A0004040C0004040E00040600000406020004060400040606000406080004060A0004060C0004060E00040800000408020004080400040806000408080004080A0004080C0004080E00040A0000040A0200040A0400040A0600040A0800040A0A00040A0C00040A0E00040C0000040C0200040C0400040C0600040C08000
310
40C0A00040C0C00040C0E00040E0000040E0200040E0400040E0600040E0800040E0A00040E0C00040E0E00080000000800020008000400080006000800080008000A0008000C0008000E00080200000802020008020400080206000802080008020A0008020C0008020E00080400000804020008040400080406000804080
310
008040A0008040C0008040E00080600000806020008060400080606000806080008060A0008060C0008060E00080800000808020008080400080806000808080008080A0008080C0008080E00080A0000080A0200080A0400080A0600080A0800080A0A00080A0C00080A0E00080C0000080C0200080C0400080C0600080C0
310
800080C0A00080C0C00080C0E00080E0000080E0200080E0400080E0600080E0800080E0A00080E0C00080E0E000C0000000C0002000C0004000C0006000C0008000C000A000C000C000C000E000C0200000C0202000C0204000C0206000C0208000C020A000C020C000C020E000C0400000C0402000C0404000C0406000C0
310
408000C040A000C040C000C040E000C0600000C0602000C0604000C0606000C0608000C060A000C060C000C060E000C0800000C0802000C0804000C0806000C0808000C080A000C080C000C080E000C0A00000C0A02000C0A04000C0A06000C0A08000C0A0A000C0A0C000C0A0E000C0C00000C0C02000C0C04000C0C06000
310
C0C08000C0C0A000F0FBFF00A4A0A000808080000000FF0000FF000000FFFF00FF000000FF00FF00FFFF0000FFFFFF0049494949494949494949494949494949494949494949494949494949494949494949494949494949494949494949494949494949494949494949494949494949494949494949494949494949494949
310
494949494949494949494949494949494949494949494949494949494949494949494949494949494949494949494949494949494949494949494949494949494949494949494949494949494949494949494949494949494949494949494949494949494949494949494949494949494949FFFFFFFFFFFFFFFFFFFFFFFFFF
310
FFFFFFFFFFFFFFFFFFFFFFFFFFFFFFFFFF4949FF49FF494949494949494949494949FF494949494949494949494949FFFF49494949FF49494949494949494949494949494949494949494949494949FF49494949FFFF49494949494949494949494949494949494949494949494949FF4949494949FF494949494949494949
310
49494949494949494949494949494949FF4949494949FF49494949494949494949494949494949494949494949494949FF49494949FFFF49494949494949494949494949494949494949494949494949FF4949494949FF49494949494949494949494949494949494949494949494949FF4949494949FF4949494949494949
310
4949494949494949494949494949494949FF4949494949FF49494949494949494949494949494949494949494949494949FF49494949FFFF49494949494949494949494949494949494949494949494949FF4949494949FF49494949494949494949494949494949494949494949494949FF4949494949FF49494949494949
310
494949494949494949494949494949494949FF49494949FFFF49494949494949494949494949494949494949494949494949FF4949494949FF49494949494949494949494949494949494949494949494949FF4949494949FF49494949494949494949494949494949494949494949494949FF49494949FFFF494949494949
310
49494949494949494949494949494949494949FF4949494949FF49494949494949494949494949494949494949494949494949FF494949FF49FF494949494949494949494949FF494949494949494949494949FFFF4949FFFFFFFFFFFFFFFFFFFFFFFFFFFFFFFFFFFFFFFFFFFFFFFFFFFFFFFFFFFF49494949494949494949
310
49494949494949494949494949494949494949494949494949494949494949494949494949494949494949494949494949494949494949494949494949494949494949494949494949494949494949494949494949494949494949494949494949494949494949494949494949494949494949494949494949494949494949
310
4949494949494949494949494949494949494949494949494949494949494949494949494949494949494949494949494949494949494949
102
{BLKREFS
331
CD
102
}
 70
     4
280
     1
281
     0
1001
AcDbDynamicBlockGUID
1000
{B4874B5E-8040-BF49-A9B6-B81412F7B0AC}
  0
BLOCK_RECORD
  5
115
102
{ACAD_XDICTIONARY
360
116
102
}
330
1
100
AcDbSymbolTableRecord
100
AcDbBlockTableRecord
  2
ISO_TITLEBLOCK
340
0
310
2800000020000000200000000100080000000000000400000000000000000000000000000000000000000000000080000080000000808000800000008000800080800000C0C0C000C0DCC000F0CAA6000020400000206000002080000020A0000020C0000020E00000400000004020000040400000406000004080000040A0
310
000040C0000040E00000600000006020000060400000606000006080000060A0000060C0000060E00000800000008020000080400000806000008080000080A0000080C0000080E00000A0000000A0200000A0400000A0600000A0800000A0A00000A0C00000A0E00000C0000000C0200000C0400000C0600000C0800000C0
310
A00000C0C00000C0E00000E0000000E0200000E0400000E0600000E0800000E0A00000E0C00000E0E00040000000400020004000400040006000400080004000A0004000C0004000E00040200000402020004020400040206000402080004020A0004020C0004020E000404000004040200040404000404060004040800040
310
40A0004040C0004040E00040600000406020004060400040606000406080004060A0004060C0004060E00040800000408020004080400040806000408080004080A0004080C0004080E00040A0000040A0200040A0400040A0600040A0800040A0A00040A0C00040A0E00040C0000040C0200040C0400040C0600040C08000
310
40C0A00040C0C00040C0E00040E0000040E0200040E0400040E0600040E0800040E0A00040E0C00040E0E00080000000800020008000400080006000800080008000A0008000C0008000E00080200000802020008020400080206000802080008020A0008020C0008020E00080400000804020008040400080406000804080
310
008040A0008040C0008040E00080600000806020008060400080606000806080008060A0008060C0008060E00080800000808020008080400080806000808080008080A0008080C0008080E00080A0000080A0200080A0400080A0600080A0800080A0A00080A0C00080A0E00080C0000080C0200080C0400080C0600080C0
310
800080C0A00080C0C00080C0E00080E0000080E0200080E0400080E0600080E0800080E0A00080E0C00080E0E000C0000000C0002000C0004000C0006000C0008000C000A000C000C000C000E000C0200000C0202000C0204000C0206000C0208000C020A000C020C000C020E000C0400000C0402000C0404000C0406000C0
310
408000C040A000C040C000C040E000C0600000C0602000C0604000C0606000C0608000C060A000C060C000C060E000C0800000C0802000C0804000C0806000C0808000C080A000C080C000C080E000C0A00000C0A02000C0A04000C0A06000C0A08000C0A0A000C0A0C000C0A0E000C0C00000C0C02000C0C04000C0C06000
310
C0C08000C0C0A000F0FBFF00A4A0A000808080000000FF0000FF000000FFFF00FF000000FF00FF00FFFF0000FFFFFF0049494949494949494949494949494949494949494949494949494949494949494949494949494949494949494949494949494949494949494949494949494949494949494949494949494949494949
310
49494949494949494949494949494949494949494949494949494949494949494949494949494949494949494949494949494949494949494949494949494949494949494949494949494949494949494949494949494949494949494949494949494949494949494949494949494949494949494949494949494949494949
310
49494949494949494949494949494949494949494949494949494949494949494949494949494949494949494949494949494949494949494949494949494949494949494949494949494949494949494949494949494949494949494949494949494949494949494949494949494949494949494949494949494949494949
310
49494949494949494949494949494949494949494949494949494949494949494949494949494949494949494949494949494949FFFFFFFFFFFFFFFFFFFFFFFFFFFFFFFFFFFFFFFFFFFFFFFFFFFFFF4949494949FF4949494949494949FFFFFFFFFF49494949FFFFFFFFFFFFFFFFFFFF49494949FF4949494949494949FFFF
310
FFFFFF494949FFFFFFFFFFFFFFFFFFFF4949494949FF4949494949494949FFFFFFFFFF494949FFFFFFFFFFFFFFFFFFFF4949494949FF4949494949494949FFFFFFFFFFFFFFFFFFFFFFFFFFFFFFFFFFFF4949494949FFFFFFFFFFFFFFFFFFFFFFFFFFFFFFFFFFFFFFFFFFFFFFFFFFFFFF4949494949FFFFFF49FFFFFFFFFFFF
310
FFFFFFFFFFFFFFFFFFFFFFFFFFFFFFFFFFFFFFFF4949FFFFFFFFFFFFFFFFFFFFFFFFFFFFFFFFFFFFFFFFFFFFFFFFFFFFFF494949494949494949494949494949494949494949494949494949494949494949494949494949494949494949494949494949494949494949494949494949494949494949494949494949494949
310
49494949494949494949494949494949494949494949494949494949494949494949494949494949494949494949494949494949494949494949494949494949494949494949494949494949494949494949494949494949494949494949494949494949494949494949494949494949494949494949494949494949494949
310
49494949494949494949494949494949494949494949494949494949494949494949494949494949494949494949494949494949494949494949494949494949494949494949494949494949494949494949494949494949494949494949494949494949494949494949494949494949494949494949494949494949494949
310
4949494949494949494949494949494949494949494949494949494949494949494949494949494949494949494949494949494949494949
102
{BLKREFS
331
113
102
}
 70
     4
280
     1
281
     0
1001
AcDbDynamicBlockGUID
1000
{4E801ACD-8F25-234B-AE99-A1285D258BA6}
1001
FUSIONTITLEBLOCK
1000
TitleBlock
  0
BLOCK_RECORD
  5
161
330
1
100
AcDbSymbolTableRecord
100
AcDbBlockTableRecord
  2
*D5
340
0
 70
     0
280
     1
281
     0
  0
BLOCK_RECORD
  5
16E
330
1
100
AcDbSymbolTableRecord
100
AcDbBlockTableRecord
  2
*D6
340
0
 70
     0
280
     1
281
     0
  0
BLOCK_RECORD
  5
180
330
1
100
AcDbSymbolTableRecord
100
AcDbBlockTableRecord
  2
*D7
340
0
 70
     0
280
     1
281
     0
  0
BLOCK_RECORD
  5
18A
330
1
100
AcDbSymbolTableRecord
100
AcDbBlockTableRecord
  2
*D8
340
0
 70
     0
280
     1
281
     0
  0
BLOCK_RECORD
  5
196
330
1
100
AcDbSymbolTableRecord
100
AcDbBlockTableRecord
  2
*D9
340
0
 70
     0
280
     1
281
     0
  0
BLOCK_RECORD
  5
1A2
330
1
100
AcDbSymbolTableRecord
100
AcDbBlockTableRecord
  2
*D10
340
0
 70
     0
280
     1
281
     0
  0
BLOCK_RECORD
  5
1B3
330
1
100
AcDbSymbolTableRecord
100
AcDbBlockTableRecord
  2
*D11
340
0
 70
     0
280
     1
281
     0
  0
BLOCK_RECORD
  5
1C0
330
1
100
AcDbSymbolTableRecord
100
AcDbBlockTableRecord
  2
*D12
340
0
 70
     0
280
     1
281
     0
  0
BLOCK_RECORD
  5
1CC
330
1
100
AcDbSymbolTableRecord
100
AcDbBlockTableRecord
  2
*D13
340
0
 70
     0
280
     1
281
     0
  0
BLOCK_RECORD
  5
1DE
330
1
100
AcDbSymbolTableRecord
100
AcDbBlockTableRecord
  2
*D14
340
0
 70
     0
280
     1
281
     0
  0
BLOCK_RECORD
  5
1F0
330
1
100
AcDbSymbolTableRecord
100
AcDbBlockTableRecord
  2
*D15
340
0
 70
     0
280
     1
281
     0
  0
BLOCK_RECORD
  5
1FD
330
1
100
AcDbSymbolTableRecord
100
AcDbBlockTableRecord
  2
*D16
340
0
 70
     0
280
     1
281
     0
  0
BLOCK_RECORD
  5
20A
330
1
100
AcDbSymbolTableRecord
100
AcDbBlockTableRecord
  2
*D17
340
0
 70
     0
280
     1
281
     0
  0
BLOCK_RECORD
  5
217
330
1
100
AcDbSymbolTableRecord
100
AcDbBlockTableRecord
  2
*D18
340
0
 70
     0
280
     1
281
     0
  0
BLOCK_RECORD
  5
223
330
1
100
AcDbSymbolTableRecord
100
AcDbBlockTableRecord
  2
*D19
340
0
 70
     0
280
     1
281
     0
  0
BLOCK_RECORD
  5
234
330
1
100
AcDbSymbolTableRecord
100
AcDbBlockTableRecord
  2
*D20
340
0
 70
     0
280
     1
281
     0
  0
BLOCK_RECORD
  5
23D
330
1
100
AcDbSymbolTableRecord
100
AcDbBlockTableRecord
  2
*D21
340
0
 70
     0
280
     1
281
     0
  0
BLOCK_RECORD
  5
248
330
1
100
AcDbSymbolTableRecord
100
AcDbBlockTableRecord
  2
*D22
340
0
 70
     0
280
     1
281
     0
  0
BLOCK_RECORD
  5
253
330
1
100
AcDbSymbolTableRecord
100
AcDbBlockTableRecord
  2
*D23
340
0
 70
     0
280
     1
281
     0
  0
BLOCK_RECORD
  5
263
330
1
100
AcDbSymbolTableRecord
100
AcDbBlockTableRecord
  2
*D24
340
0
 70
     0
280
     1
281
     0
  0
BLOCK_RECORD
  5
26F
330
1
100
AcDbSymbolTableRecord
100
AcDbBlockTableRecord
  2
*D25
340
0
 70
     0
280
     1
281
     0
  0
BLOCK_RECORD
  5
27A
330
1
100
AcDbSymbolTableRecord
100
AcDbBlockTableRecord
  2
*D26
340
0
 70
     0
280
     1
281
     0
  0
BLOCK_RECORD
  5
28B
330
1
100
AcDbSymbolTableRecord
100
AcDbBlockTableRecord
  2
*D27
340
0
 70
     0
280
     1
281
     0
  0
BLOCK_RECORD
  5
29C
330
1
100
AcDbSymbolTableRecord
100
AcDbBlockTableRecord
  2
*D28
340
0
 70
     0
280
     1
281
     0
  0
BLOCK_RECORD
  5
2A8
330
1
100
AcDbSymbolTableRecord
100
AcDbBlockTableRecord
  2
*D29
340
0
 70
     0
280
     1
281
     0
  0
BLOCK_RECORD
  5
2B4
330
1
100
AcDbSymbolTableRecord
100
AcDbBlockTableRecord
  2
*D30
340
0
 70
     0
280
     1
281
     0
  0
ENDTAB
  0
ENDSEC
  0
SECTION
  2
BLOCKS
  0
BLOCK
  5
71
330
70
100
AcDbEntity
  8
0
100
AcDbBlockBegin
  2
*Model_Space
 70
     0
 10
0.0
 20
0.0
 30
0.0
  3
*Model_Space
  1

  0
ENDBLK
  5
72
330
70
100
AcDbEntity
  8
0
100
AcDbBlockEnd
  0
BLOCK
  5
6D
330
6C
100
AcDbEntity
 67
     1
  8
0
100
AcDbBlockBegin
  2
*Paper_Space
 70
     0
 10
0.0
 20
0.0
 30
0.0
  3
*Paper_Space
  1

  0
ENDBLK
  5
6E
330
6C
100
AcDbEntity
 67
     1
  8
0
100
AcDbBlockEnd
  0
BLOCK
  5
75
330
74
100
AcDbEntity
 67
     1
  8
0
100
AcDbBlockBegin
  2
*Paper_Space0
 70
     0
 10
0.0
 20
0.0
 30
0.0
  3
*Paper_Space0
  1

  0
ENDBLK
  5
76
330
74
100
AcDbEntity
 67
     1
  8
0
100
AcDbBlockEnd
  0
BLOCK
  5
D1
330
CF
100
AcDbEntity
  8
0
100
AcDbBlockBegin
  2
ISO_A3_SHEET
 70
     0
 10
0.0
 20
0.0
 30
0.0
  3
ISO_A3_SHEET
  1

  0
LINE
  5
D2
330
CF
100
AcDbEntity
  8
Defpoints
100
AcDbLine
 10
0.0
 20
0.0
 30
0.0
 11
15.0
 21
0.0
 31
0.0
  0
LINE
  5
D3
330
CF
100
AcDbEntity
  8
Defpoints
100
AcDbLine
 10
405.0
 20
0.0
 30
0.0
 11
420.0
 21
0.0
 31
0.0
  0
LINE
  5
D4
330
CF
100
AcDbEntity
  8
Border
100
AcDbLine
 10
20.0
 20
10.0
 30
0.0
 11
410.0
 21
10.0
 31
0.0
  0
LINE
  5
D5
330
CF
100
AcDbEntity
  8
Defpoints
100
AcDbLine
 10
420.0
 20
0.0
 30
0.0
 11
420.0
 21
15.0
 31
0.0
  0
LINE
  5
D6
330
CF
100
AcDbEntity
  8
Defpoints
100
AcDbLine
 10
420.0
 20
282.0
 30
0.0
 11
420.0
 21
297.0
 31
0.0
  0
LINE
  5
D7
330
CF
100
AcDbEntity
  8
Defpoints
100
AcDbLine
 10
420.0
 20
297.0
 30
0.0
 11
405.0
 21
297.0
 31
0.0
  0
LINE
  5
D8
330
CF
100
AcDbEntity
  8
Defpoints
100
AcDbLine
 10
15.0
 20
297.0
 30
0.0
 11
0.0
 21
297.0
 31
0.0
  0
LINE
  5
D9
330
CF
100
AcDbEntity
  8
Border
100
AcDbLine
 10
410.0
 20
287.0
 30
0.0
 11
20.0
 21
287.0
 31
0.0
  0
LINE
  5
DA
330
CF
100
AcDbEntity
  8
Defpoints
100
AcDbLine
 10
0.0
 20
297.0
 30
0.0
 11
0.0
 21
282.0
 31
0.0
  0
LINE
  5
DB
330
CF
100
AcDbEntity
  8
Defpoints
100
AcDbLine
 10
0.0
 20
15.0
 30
0.0
 11
0.0
 21
0.0
 31
0.0
  0
LINE
  5
DC
330
CF
100
AcDbEntity
  8
Border
100
AcDbLine
 10
20.0
 20
287.0
 30
0.0
 11
20.0
 21
10.0
 31
0.0
  0
LINE
  5
DD
330
CF
100
AcDbEntity
  8
Border
100
AcDbLine
 10
410.0
 20
287.0
 30
0.0
 11
410.0
 21
10.0
 31
0.0
  0
LINE
  5
DE
330
CF
100
AcDbEntity
  8
Border
100
AcDbLine
 10
215.0
 20
5.0
 30
0.0
 11
215.0
 21
15.0
 31
0.0
  0
LINE
  5
DF
330
CF
100
AcDbEntity
  8
Border
100
AcDbLine
 10
215.0
 20
292.0
 30
0.0
 11
215.0
 21
282.0
 31
0.0
  0
LINE
  5
E0
330
CF
100
AcDbEntity
  8
Border
100
AcDbLine
 10
265.0
 20
292.0
 30
0.0
 11
265.0
 21
287.0
 31
0.0
  0
LINE
  5
E1
330
CF
100
AcDbEntity
  8
Border
100
AcDbLine
 10
315.0
 20
292.0
 30
0.0
 11
315.0
 21
287.0
 31
0.0
  0
LINE
  5
E2
330
CF
100
AcDbEntity
  8
Border
100
AcDbLine
 10
365.0
 20
292.0
 30
0.0
 11
365.0
 21
287.0
 31
0.0
  0
LINE
  5
E3
330
CF
100
AcDbEntity
  8
Border
100
AcDbLine
 10
165.0
 20
292.0
 30
0.0
 11
165.0
 21
287.0
 31
0.0
  0
LINE
  5
E4
330
CF
100
AcDbEntity
  8
Border
100
AcDbLine
 10
115.0
 20
292.0
 30
0.0
 11
115.0
 21
287.0
 31
0.0
  0
LINE
  5
E5
330
CF
100
AcDbEntity
  8
Border
100
AcDbLine
 10
65.0
 20
292.0
 30
0.0
 11
65.0
 21
287.0
 31
0.0
  0
LINE
  5
E6
330
CF
100
AcDbEntity
  8
Border
100
AcDbLine
 10
15.0
 20
148.5
 30
0.0
 11
25.0
 21
148.5
 31
0.0
  0
LINE
  5
E7
330
CF
100
AcDbEntity
  8
Border
100
AcDbLine
 10
15.0
 20
100.66667
 30
0.0
 11
20.0
 21
100.66667
 31
0.0
  0
LINE
  5
E8
330
CF
100
AcDbEntity
  8
Border
100
AcDbLine
 10
15.0
 20
52.83334
 30
0.0
 11
20.0
 21
52.83334
 31
0.0
  0
LINE
  5
E9
330
CF
100
AcDbEntity
  8
Border
100
AcDbLine
 10
15.0
 20
196.33333
 30
0.0
 11
20.0
 21
196.33333
 31
0.0
  0
LINE
  5
EA
330
CF
100
AcDbEntity
  8
Border
100
AcDbLine
 10
15.0
 20
244.16666
 30
0.0
 11
20.0
 21
244.16666
 31
0.0
  0
LINE
  5
EB
330
CF
100
AcDbEntity
  8
Border
100
AcDbLine
 10
415.0
 20
148.5
 30
0.0
 11
405.0
 21
148.5
 31
0.0
  0
LINE
  5
EC
330
CF
100
AcDbEntity
  8
Border
100
AcDbLine
 10
265.0
 20
5.0
 30
0.0
 11
265.0
 21
10.0
 31
0.0
  0
LINE
  5
ED
330
CF
100
AcDbEntity
  8
Border
100
AcDbLine
 10
315.0
 20
5.0
 30
0.0
 11
315.0
 21
10.0
 31
0.0
  0
LINE
  5
EE
330
CF
100
AcDbEntity
  8
Border
100
AcDbLine
 10
365.0
 20
5.0
 30
0.0
 11
365.0
 21
10.0
 31
0.0
  0
LINE
  5
EF
330
CF
100
AcDbEntity
  8
Border
100
AcDbLine
 10
165.0
 20
5.0
 30
0.0
 11
165.0
 21
10.0
 31
0.0
  0
LINE
  5
F0
330
CF
100
AcDbEntity
  8
Border
100
AcDbLine
 10
115.0
 20
5.0
 30
0.0
 11
115.0
 21
10.0
 31
0.0
  0
LINE
  5
F1
330
CF
100
AcDbEntity
  8
Border
100
AcDbLine
 10
65.0
 20
5.0
 30
0.0
 11
65.0
 21
10.0
 31
0.0
  0
LINE
  5
F2
330
CF
100
AcDbEntity
  8
Border
100
AcDbLine
 10
415.0
 20
100.66667
 30
0.0
 11
410.0
 21
100.66667
 31
0.0
  0
LINE
  5
F3
330
CF
100
AcDbEntity
  8
Border
100
AcDbLine
 10
415.0
 20
52.83334
 30
0.0
 11
410.0
 21
52.83334
 31
0.0
  0
LINE
  5
F4
330
CF
100
AcDbEntity
  8
Border
100
AcDbLine
 10
415.0
 20
196.33333
 30
0.0
 11
410.0
 21
196.33333
 31
0.0
  0
LINE
  5
F5
330
CF
100
AcDbEntity
  8
Border
100
AcDbLine
 10
415.0
 20
244.16666
 30
0.0
 11
410.0
 21
244.16666
 31
0.0
  0
TEXT
  5
F6
330
CF
100
AcDbEntity
  8
Border
100
AcDbText
 10
39.02882
 20
288.244884
 30
0.0
 40
2.5
  1
1
  7
FusionTitle
 72
     4
 11
40.0
 21
289.5
 31
0.0
100
AcDbText
  0
TEXT
  5
F7
330
CF
100
AcDbEntity
  8
Border
100
AcDbText
 10
16.335266
 20
266.83333
 30
0.0
 40
2.5
  1
A
  7
FusionTitle
 72
     4
 11
17.5
 21
268.08333
 31
0.0
100
AcDbText
  0
TEXT
  5
F8
330
CF
100
AcDbEntity
  8
Border
100
AcDbText
 10
89.02882
 20
288.244884
 30
0.0
 40
2.5
  1
2
  7
FusionTitle
 72
     4
 11
90.0
 21
289.5
 31
0.0
100
AcDbText
  0
TEXT
  5
F9
330
CF
100
AcDbEntity
  8
Border
100
AcDbText
 10
139.02882
 20
288.267053
 30
0.0
 40
2.5
  1
3
  7
FusionTitle
 72
     4
 11
140.0
 21
289.5
 31
0.0
100
AcDbText
  0
TEXT
  5
FA
330
CF
100
AcDbEntity
  8
Border
100
AcDbText
 10
189.02882
 20
288.25
 30
0.0
 40
2.5
  1
4
  7
FusionTitle
 72
     4
 11
190.0
 21
289.5
 31
0.0
100
AcDbText
  0
TEXT
  5
FB
330
CF
100
AcDbEntity
  8
Border
100
AcDbText
 10
239.02882
 20
288.28837
 30
0.0
 40
2.5
  1
5
  7
FusionTitle
 72
     4
 11
240.0
 21
289.5
 31
0.0
100
AcDbText
  0
TEXT
  5
FC
330
CF
100
AcDbEntity
  8
Border
100
AcDbText
 10
289.02882
 20
288.266201
 30
0.0
 40
2.5
  1
6
  7
FusionTitle
 72
     4
 11
290.0
 21
289.5
 31
0.0
100
AcDbText
  0
TEXT
  5
FD
330
CF
100
AcDbEntity
  8
Border
100
AcDbText
 10
339.02882
 20
288.266201
 30
0.0
 40
2.5
  1
7
  7
FusionTitle
 72
     4
 11
340.0
 21
289.5
 31
0.0
100
AcDbText
  0
TEXT
  5
FE
330
CF
100
AcDbEntity
  8
Border
100
AcDbText
 10
389.02882
 20
288.266201
 30
0.0
 40
2.5
  1
8
  7
FusionTitle
 72
     4
 11
390.0
 21
289.5
 31
0.0
100
AcDbText
  0
TEXT
  5
FF
330
CF
100
AcDbEntity
  8
Border
100
AcDbText
 10
39.02882
 20
6.244884
 30
0.0
 40
2.5
  1
1
  7
FusionTitle
 72
     4
 11
40.0
 21
7.5
 31
0.0
100
AcDbText
  0
TEXT
  5
100
330
CF
100
AcDbEntity
  8
Border
100
AcDbText
 10
89.02882
 20
6.244884
 30
0.0
 40
2.5
  1
2
  7
FusionTitle
 72
     4
 11
90.0
 21
7.5
 31
0.0
100
AcDbText
  0
TEXT
  5
101
330
CF
100
AcDbEntity
  8
Border
100
AcDbText
 10
139.02882
 20
6.267053
 30
0.0
 40
2.5
  1
3
  7
FusionTitle
 72
     4
 11
140.0
 21
7.5
 31
0.0
100
AcDbText
  0
TEXT
  5
102
330
CF
100
AcDbEntity
  8
Border
100
AcDbText
 10
189.02882
 20
6.25
 30
0.0
 40
2.5
  1
4
  7
FusionTitle
 72
     4
 11
190.0
 21
7.5
 31
0.0
100
AcDbText
  0
TEXT
  5
103
330
CF
100
AcDbEntity
  8
Border
100
AcDbText
 10
239.02882
 20
6.28837
 30
0.0
 40
2.5
  1
5
  7
FusionTitle
 72
     4
 11
240.0
 21
7.5
 31
0.0
100
AcDbText
  0
TEXT
  5
104
330
CF
100
AcDbEntity
  8
Border
100
AcDbText
 10
289.02882
 20
6.266201
 30
0.0
 40
2.5
  1
6
  7
FusionTitle
 72
     4
 11
290.0
 21
7.5
 31
0.0
100
AcDbText
  0
TEXT
  5
105
330
CF
100
AcDbEntity
  8
Border
100
AcDbText
 10
339.02882
 20
6.266201
 30
0.0
 40
2.5
  1
7
  7
FusionTitle
 72
     4
 11
340.0
 21
7.5
 31
0.0
100
AcDbText
  0
TEXT
  5
106
330
CF
100
AcDbEntity
  8
Border
100
AcDbText
 10
389.02882
 20
6.266201
 30
0.0
 40
2.5
  1
8
  7
FusionTitle
 72
     4
 11
390.0
 21
7.5
 31
0.0
100
AcDbText
  0
TEXT
  5
107
330
CF
100
AcDbEntity
  8
Border
100
AcDbText
 10
16.335266
 20
219.0
 30
0.0
 40
2.5
  1
B
  7
FusionTitle
 72
     4
 11
17.5
 21
220.25
 31
0.0
100
AcDbText
  0
TEXT
  5
108
330
CF
100
AcDbEntity
  8
Border
100
AcDbText
 10
16.238915
 20
171.16667
 30
0.0
 40
2.5
  1
C
  7
FusionTitle
 72
     4
 11
17.5
 21
172.41667
 31
0.0
100
AcDbText
  0
TEXT
  5
109
330
CF
100
AcDbEntity
  8
Border
100
AcDbText
 10
16.238915
 20
123.33334
 30
0.0
 40
2.5
  1
D
  7
FusionTitle
 72
     4
 11
17.5
 21
124.58334
 31
0.0
100
AcDbText
  0
TEXT
  5
10A
330
CF
100
AcDbEntity
  8
Border
100
AcDbText
 10
16.335266
 20
75.50001
 30
0.0
 40
2.5
  1
E
  7
FusionTitle
 72
     4
 11
17.5
 21
76.75001
 31
0.0
100
AcDbText
  0
TEXT
  5
10B
330
CF
100
AcDbEntity
  8
Border
100
AcDbText
 10
16.433322
 20
27.66668
 30
0.0
 40
2.5
  1
F
  7
FusionTitle
 72
     4
 11
17.5
 21
28.91668
 31
0.0
100
AcDbText
  0
TEXT
  5
10C
330
CF
100
AcDbEntity
  8
Border
100
AcDbText
 10
411.335266
 20
266.83333
 30
0.0
 40
2.5
  1
A
  7
FusionTitle
 72
     4
 11
412.5
 21
268.08333
 31
0.0
100
AcDbText
  0
TEXT
  5
10D
330
CF
100
AcDbEntity
  8
Border
100
AcDbText
 10
411.335266
 20
219.0
 30
0.0
 40
2.5
  1
B
  7
FusionTitle
 72
     4
 11
412.5
 21
220.25
 31
0.0
100
AcDbText
  0
TEXT
  5
10E
330
CF
100
AcDbEntity
  8
Border
100
AcDbText
 10
411.238915
 20
171.16667
 30
0.0
 40
2.5
  1
C
  7
FusionTitle
 72
     4
 11
412.5
 21
172.41667
 31
0.0
100
AcDbText
  0
TEXT
  5
10F
330
CF
100
AcDbEntity
  8
Border
100
AcDbText
 10
411.238915
 20
123.33334
 30
0.0
 40
2.5
  1
D
  7
FusionTitle
 72
     4
 11
412.5
 21
124.58334
 31
0.0
100
AcDbText
  0
TEXT
  5
110
330
CF
100
AcDbEntity
  8
Border
100
AcDbText
 10
411.335266
 20
75.50001
 30
0.0
 40
2.5
  1
E
  7
FusionTitle
 72
     4
 11
412.5
 21
76.75001
 31
0.0
100
AcDbText
  0
TEXT
  5
111
330
CF
100
AcDbEntity
  8
Border
100
AcDbText
 10
411.433322
 20
27.66668
 30
0.0
 40
2.5
  1
F
  7
FusionTitle
 72
     4
 11
412.5
 21
28.91668
 31
0.0
100
AcDbText
  0
ENDBLK
  5
112
330
CF
100
AcDbEntity
  8
0
100
AcDbBlockEnd
  0
BLOCK
  5
118
330
115
100
AcDbEntity
  8
0
100
AcDbBlockBegin
  2
ISO_TITLEBLOCK
 70
     2
 10
0.0
 20
0.0
 30
0.0
  3
ISO_TITLEBLOCK
  1

  0
LINE
  5
119
330
115
100
AcDbEntity
  8
TitleBlock
100
AcDbLine
 10
-180.0
 20
0.0
 30
0.0
 11
0.0
 21
0.0
 31
0.0
  0
LINE
  5
11A
330
115
100
AcDbEntity
  8
TitleBlock
100
AcDbLine
 10
-61.0
 20
10.0
 30
0.0
 11
0.0
 21
10.0
 31
0.0
  0
LINE
  5
11B
330
115
100
AcDbEntity
  8
TitleBlock
100
AcDbLine
 10
-122.0
 20
27.0
 30
0.0
 11
0.0
 21
27.0
 31
0.0
  0
LINE
  5
11C
330
115
100
AcDbEntity
  8
TitleBlock
100
AcDbLine
 10
-180.0
 20
37.0
 30
0.0
 11
0.0
 21
37.0
 31
0.0
  0
LINE
  5
11D
330
115
100
AcDbEntity
  8
TitleBlock
100
AcDbLine
 10
0.0
 20
0.0
 30
0.0
 11
0.0
 21
47.0
 31
0.0
  0
LINE
  5
11E
330
115
100
AcDbEntity
  8
TitleBlock
100
AcDbLine
 10
-15.0
 20
0.0
 30
0.0
 11
-15.0
 21
10.0
 31
0.0
  0
LINE
  5
11F
330
115
100
AcDbEntity
  8
TitleBlock
100
AcDbLine
 10
-51.0
 20
0.0
 30
0.0
 11
-51.0
 21
10.0
 31
0.0
  0
LINE
  5
120
330
115
100
AcDbEntity
  8
TitleBlock
100
AcDbLine
 10
-61.0
 20
0.0
 30
0.0
 11
-61.0
 21
47.0
 31
0.0
  0
LINE
  5
121
330
115
100
AcDbEntity
  8
TitleBlock
100
AcDbLine
 10
-122.0
 20
0.0
 30
0.0
 11
-122.0
 21
47.0
 31
0.0
  0
LINE
  5
122
330
115
100
AcDbEntity
  8
TitleBlock
100
AcDbLine
 10
-156.0
 20
37.0
 30
0.0
 11
-156.0
 21
47.0
 31
0.0
  0
LINE
  5
123
330
115
100
AcDbEntity
  8
TitleBlock
100
AcDbLine
 10
0.0
 20
47.0
 30
0.0
 11
-180.0
 21
47.0
 31
0.0
  0
LINE
  5
124
330
115
100
AcDbEntity
  8
TitleBlock
100
AcDbLine
 10
-180.0
 20
47.0
 30
0.0
 11
-180.0
 21
0.0
 31
0.0
  0
TEXT
  5
125
330
115
100
AcDbEntity
  8
TitleBlock
100
AcDbText
 10
-179.0
 20
44.2
 30
0.0
 40
1.8
  1
Dept.
  7
FusionTitle
 11
-179.0
 21
46.0
 31
0.0
100
AcDbText
 73
     3
  0
TEXT
  5
126
330
115
100
AcDbEntity
  8
TitleBlock
100
AcDbText
 10
-155.0
 20
44.2
 30
0.0
 40
1.8
  1
Technical reference
  7
FusionTitle
 11
-155.0
 21
46.0
 31
0.0
100
AcDbText
 73
     3
  0
TEXT
  5
127
330
115
100
AcDbEntity
  8
TitleBlock
100
AcDbText
 10
-121.0
 20
44.2
 30
0.0
 40
1.8
  1
Created by
  7
FusionTitle
 11
-121.0
 21
46.0
 31
0.0
100
AcDbText
 73
     3
  0
TEXT
  5
128
330
115
100
AcDbEntity
  8
TitleBlock
100
AcDbText
 10
-60.0
 20
44.2
 30
0.0
 40
1.8
  1
Approved by
  7
FusionTitle
 11
-60.0
 21
46.0
 31
0.0
100
AcDbText
 73
     3
  0
TEXT
  5
129
330
115
100
AcDbEntity
  8
TitleBlock
100
AcDbText
 10
-121.0
 20
34.2
 30
0.0
 40
1.8
  1
Document type
  7
FusionTitle
 11
-121.0
 21
36.0
 31
0.0
100
AcDbText
 73
     3
  0
TEXT
  5
12A
330
115
100
AcDbEntity
  8
TitleBlock
100
AcDbText
 10
-60.0
 20
34.2
 30
0.0
 40
1.8
  1
Document status
  7
FusionTitle
 11
-60.0
 21
36.0
 31
0.0
100
AcDbText
 73
     3
  0
TEXT
  5
12B
330
115
100
AcDbEntity
  8
TitleBlock
100
AcDbText
 10
-121.0
 20
24.2
 30
0.0
 40
1.8
  1
Title
  7
FusionTitle
 11
-121.0
 21
26.0
 31
0.0
100
AcDbText
 73
     3
  0
TEXT
  5
12C
330
115
100
AcDbEntity
  8
TitleBlock
100
AcDbText
 10
-60.0
 20
24.2
 30
0.0
 40
1.8
  1
DWG No.
  7
FusionTitle
 11
-60.0
 21
26.0
 31
0.0
100
AcDbText
 73
     3
  0
TEXT
  5
12D
330
115
100
AcDbEntity
  8
TitleBlock
100
AcDbText
 10
-60.0
 20
7.2
 30
0.0
 40
1.8
  1
Rev.
  7
FusionTitle
 11
-60.0
 21
9.0
 31
0.0
100
AcDbText
 73
     3
  0
TEXT
  5
12E
330
115
100
AcDbEntity
  8
TitleBlock
100
AcDbText
 10
-50.0
 20
7.2
 30
0.0
 40
1.8
  1
Date of issue
  7
FusionTitle
 11
-50.0
 21
9.0
 31
0.0
100
AcDbText
 73
     3
  0
TEXT
  5
12F
330
115
100
AcDbEntity
  8
TitleBlock
100
AcDbText
 10
-14.0
 20
7.2
 30
0.0
 40
1.8
  1
Sheet
  7
FusionTitle
 11
-14.0
 21
9.0
 31
0.0
100
AcDbText
 73
     3
  0
ATTDEF
  5
130
102
{ACAD_XDICTIONARY
360
131
102
}
330
115
100
AcDbEntity
  8
TitleBlock
100
AcDbText
 10
-50.0
 20
1.5
 30
0.0
 40
3.5
  1

  7
FusionTitle
 11
-50.0
 21
5.0
 31
0.0
100
AcDbAttributeDefinition
280
     0
  3
Date of issue
  2
DATE_OF_ISSUE
 70
     0
 74
     3
280
     1
  0
ATTDEF
  5
132
102
{ACAD_XDICTIONARY
360
133
102
}
330
115
100
AcDbEntity
  8
TitleBlock
100
AcDbText
 10
-61.026774
 20
1.35
 30
0.0
 40
3.5
  1

  7
FusionTitle
 72
     1
 11
-56.0
 21
4.85
 31
0.0
100
AcDbAttributeDefinition
280
     0
  3
Revision
  2
REV
 70
     0
 74
     3
280
     1
  0
ATTDEF
  5
134
102
{ACAD_XDICTIONARY
360
135
102
}
330
115
100
AcDbEntity
  8
TitleBlock
100
AcDbText
 10
-121.0
 20
1.5
 30
0.0
 40
5.0
  1

  7
FusionTitle
 11
-121.0
 21
6.5
 31
0.0
100
AcDbAttributeDefinition
280
     0
  3
3rd Title
  2
TITLE_3
 70
     0
 74
     3
280
     1
  0
ATTDEF
  5
136
102
{ACAD_XDICTIONARY
360
137
102
}
330
115
100
AcDbEntity
  8
TitleBlock
100
AcDbText
 10
-60.0
 20
28.5
 30
0.0
 40
3.5
  1

  7
FusionTitle
 11
-60.0
 21
32.0
 31
0.0
100
AcDbAttributeDefinition
280
     0
  3
Document status
  2
DOCUMENT_STATUS
 70
     0
 74
     3
280
     1
  0
ATTDEF
  5
138
102
{ACAD_XDICTIONARY
360
139
102
}
330
115
100
AcDbEntity
  8
TitleBlock
100
AcDbText
 10
-121.0
 20
28.5
 30
0.0
 40
3.5
  1

  7
FusionTitle
 11
-121.0
 21
32.0
 31
0.0
100
AcDbAttributeDefinition
280
     0
  3
Document type
  2
DOCUMENT_TYPE
 70
     0
 74
     3
280
     1
  0
ATTDEF
  5
13A
102
{ACAD_XDICTIONARY
360
13B
102
}
330
115
100
AcDbEntity
  8
TitleBlock
100
AcDbText
 10
-43.923943
 20
38.5
 30
0.0
 40
3.5
  1

  7
FusionTitle
 72
     2
 11
-0.992838
 21
42.0
 31
0.0
100
AcDbAttributeDefinition
280
     0
  3
Approved date
  2
APPROVED_DATE
 70
     0
 74
     3
280
     1
  0
ATTDEF
  5
13C
102
{ACAD_XDICTIONARY
360
13D
102
}
330
115
100
AcDbEntity
  8
TitleBlock
100
AcDbText
 10
-101.123124
 20
38.5
 30
0.0
 40
3.5
  1

  7
FusionTitle
 72
     2
 11
-62.0
 21
42.0
 31
0.0
100
AcDbAttributeDefinition
280
     0
  3
Created date
  2
CREATED_DATE
 70
     0
 74
     3
280
     1
  0
ATTDEF
  5
13E
102
{ACAD_XDICTIONARY
360
13F
102
}
330
115
100
AcDbEntity
  8
TitleBlock
100
AcDbText
 10
-15.65075
 20
1.35
 30
0.0
 40
3.5
  1

  7
FusionTitle
 72
     1
 11
-7.5
 21
4.85
 31
0.0
100
AcDbAttributeDefinition
280
     0
  3
Sheet
  2
SHEET
 70
     0
 74
     3
280
     1
  0
ATTDEF
  5
140
102
{ACAD_XDICTIONARY
360
141
102
}
330
115
100
AcDbEntity
  8
TitleBlock
100
AcDbText
 10
-121.0
 20
9.0
 30
0.0
 40
5.0
  1

  7
FusionTitle
 11
-121.0
 21
14.0
 31
0.0
100
AcDbAttributeDefinition
280
     0
  3
2nd Title
  2
TITLE_2
 70
     0
 74
     3
280
     1
  0
ATTDEF
  5
142
102
{ACAD_XDICTIONARY
360
143
102
}
330
115
100
AcDbEntity
  8
TitleBlock
100
AcDbText
 10
-64.456344
 20
14.751432
 30
0.0
 40
5.0
  1

  7
FusionTitle
 72
     1
 11
-30.5
 21
19.751432
 31
0.0
100
AcDbAttributeDefinition
280
     0
  3
Drawing number
  2
DRAWING_NUMBER
 70
     0
 74
     3
280
     1
  0
ATTDEF
  5
144
102
{ACAD_XDICTIONARY
360
145
102
}
330
115
100
AcDbEntity
  8
TitleBlock
100
AcDbText
 10
-121.0
 20
16.5
 30
0.0
 40
5.0
  1

  7
FusionTitle
 11
-121.0
 21
21.5
 31
0.0
100
AcDbAttributeDefinition
280
     0
  3
1st Title
  2
TITLE_1
 70
     0
 74
     3
280
     1
  0
ATTDEF
  5
146
102
{ACAD_XDICTIONARY
360
147
102
}
330
115
100
AcDbEntity
  8
TitleBlock
100
AcDbText
 10
-60.0
 20
38.5
 30
0.0
 40
3.5
  1

  7
FusionTitle
 11
-60.0
 21
42.0
 31
0.0
100
AcDbAttributeDefinition
280
     0
  3
Approved by
  2
APPROVED_BY
 70
     0
 74
     3
280
     1
  0
ATTDEF
  5
148
102
{ACAD_XDICTIONARY
360
149
102
}
330
115
100
AcDbEntity
  8
TitleBlock
100
AcDbText
 10
-121.0
 20
38.5
 30
0.0
 40
3.5
  1

  7
FusionTitle
 11
-121.0
 21
42.0
 31
0.0
100
AcDbAttributeDefinition
280
     0
  3
Created by
  2
CREATED_BY
 70
     0
 74
     3
280
     1
  0
ATTDEF
  5
14A
102
{ACAD_XDICTIONARY
360
14B
102
}
330
115
100
AcDbEntity
  8
TitleBlock
100
AcDbText
 10
-155.0
 20
38.5
 30
0.0
 40
3.5
  1

  7
FusionTitle
 11
-155.0
 21
42.0
 31
0.0
100
AcDbAttributeDefinition
280
     0
  3
Technical reference
  2
TECHNICAL_REFERENCE
 70
     0
 74
     3
280
     1
  0
ATTDEF
  5
14C
102
{ACAD_XDICTIONARY
360
14D
102
}
330
115
100
AcDbEntity
  8
TitleBlock
100
AcDbText
 10
-179.0
 20
38.5
 30
0.0
 40
3.5
  1

  7
FusionTitle
 11
-179.0
 21
42.0
 31
0.0
100
AcDbAttributeDefinition
280
     0
  3
Department
  2
DEPT
 70
     0
 74
     3
280
     1
  0
ENDBLK
  5
14E
330
115
100
AcDbEntity
  8
0
100
AcDbBlockEnd
  0
BLOCK
  5
162
330
161
100
AcDbEntity
  8
0
100
AcDbBlockBegin
  2
*D5
 70
     1
 10
0.0
 20
0.0
 30
0.0
  3
*D5
  1

  0
LINE
  5
163
330
161
100
AcDbEntity
  8
Dimensions
440
 16777216
370
    -2
100
AcDbLine
 10
271.613008
 20
97.823711
 30
0.0
 11
271.613008
 21
78.024721
 31
0.0
  0
LINE
  5
164
330
161
100
AcDbEntity
  8
Dimensions
440
 16777216
370
    -2
100
AcDbLine
 10
131.613008
 20
97.823711
 30
0.0
 11
131.613008
 21
78.024721
 31
0.0
  0
LINE
  5
165
330
161
100
AcDbEntity
  8
Dimensions
440
 16777216
370
    -2
100
AcDbLine
 10
268.113008
 20
80.024721
 30
0.0
 11
135.113008
 21
80.024721
 31
0.0
  0
SOLID
  5
166
330
161
100
AcDbEntity
  8
Dimensions
440
 16777216
100
AcDbTrace
 10
268.113008
 20
80.608055
 30
0.0
 11
268.113008
 21
79.441388
 31
0.0
 12
271.613008
 22
80.024721
 32
0.0
 13
271.613008
 23
80.024721
 33
0.0
  0
SOLID
  5
167
330
161
100
AcDbEntity
  8
Dimensions
440
 16777216
100
AcDbTrace
 10
135.113008
 20
80.608055
 30
0.0
 11
135.113008
 21
79.441388
 31
0.0
 12
131.613008
 22
80.024721
 32
0.0
 13
131.613008
 23
80.024721
 33
0.0
  0
MTEXT
  5
168
330
161
100
AcDbEntity
  8
Dimensions
440
 16777216
100
AcDbMText
 10
201.613008
 20
83.311727
 30
0.0
 40
3.5
 41
0.0
 46
0.0
 71
     5
 72
     1
  1
280
 73
     1
 44
1.0
  0
POINT
  5
169
330
161
100
AcDbEntity
  8
Defpoints
 62
     0
440
 16777216
100
AcDbPoint
 10
271.613008
 20
99.823711
 30
0.0
  0
POINT
  5
16A
330
161
100
AcDbEntity
  8
Defpoints
 62
     0
440
 16777216
100
AcDbPoint
 10
131.613008
 20
99.823711
 30
0.0
  0
POINT
  5
16B
330
161
100
AcDbEntity
  8
Defpoints
 62
     0
440
 16777216
100
AcDbPoint
 10
131.613008
 20
80.024721
 30
0.0
  0
ENDBLK
  5
16C
330
161
100
AcDbEntity
  8
0
100
AcDbBlockEnd
  0
BLOCK
  5
16F
330
16E
100
AcDbEntity
  8
0
100
AcDbBlockBegin
  2
*D6
 70
     1
 10
0.0
 20
0.0
 30
0.0
  3
*D6
  1

  0
LINE
  5
170
330
16E
100
AcDbEntity
  8
Dimensions
440
 16777216
370
    -2
100
AcDbLine
 10
125.613008
 20
104.823711
 30
0.0
 11
102.562222
 21
104.823711
 31
0.0
  0
LINE
  5
171
330
16E
100
AcDbEntity
  8
Dimensions
440
 16777216
370
    -2
100
AcDbLine
 10
125.613008
 20
99.823711
 30
0.0
 11
102.562222
 21
99.823711
 31
0.0
  0
LINE
  5
172
330
16E
100
AcDbEntity
  8
Dimensions
440
 16777216
370
    -2
100
AcDbLine
 10
104.562222
 20
108.323711
 30
0.0
 11
104.562222
 21
111.823711
 31
0.0
  0
LINE
  5
173
330
16E
100
AcDbEntity
  8
Dimensions
440
 16777216
370
    -2
100
AcDbLine
 10
104.562222
 20
96.323711
 30
0.0
 11
104.562222
 21
92.823711
 31
0.0
  0
LINE
  5
174
330
16E
100
AcDbEntity
  8
Dimensions
440
 16777216
370
    -2
100
AcDbLine
 10
104.562222
 20
102.323711
 30
0.0
 11
98.525217
 21
104.134813
 31
0.0
  0
LINE
  5
175
330
16E
100
AcDbEntity
  8
Dimensions
440
 16777216
370
    -2
100
AcDbLine
 10
98.525217
 20
104.134813
 30
0.0
 11
98.525217
 21
111.80705
 31
0.0
  0
MTEXT
  5
176
330
16E
100
AcDbEntity
  8
Dimensions
440
 16777216
100
AcDbMText
 10
95.238212
 20
107.970932
 30
0.0
 40
3.5
 41
0.0
 46
0.0
 71
     5
 72
     1
  1
10
 11
0.0
 21
1.0
 31
0.0
 73
     1
 44
1.0
  0
LINE
  5
177
330
16E
100
AcDbEntity
  8
Dimensions
440
 16777216
370
    -2
100
AcDbLine
 10
104.562222
 20
104.823711
 30
0.0
 11
104.562222
 21
99.823711
 31
0.0
  0
LINE
  5
178
330
16E
100
AcDbEntity
  8
Dimensions
440
 16777216
370
    -2
100
AcDbLine
 10
104.562222
 20
104.823711
 30
0.0
 11
104.562222
 21
99.823711
 31
0.0
  0
SOLID
  5
179
330
16E
100
AcDbEntity
  8
Dimensions
440
 16777216
100
AcDbTrace
 10
103.978889
 20
108.323711
 30
0.0
 11
105.145556
 21
108.323711
 31
0.0
 12
104.562222
 22
104.823711
 32
0.0
 13
104.562222
 23
104.823711
 33
0.0
  0
SOLID
  5
17A
330
16E
100
AcDbEntity
  8
Dimensions
440
 16777216
100
AcDbTrace
 10
103.978889
 20
96.323711
 30
0.0
 11
105.145556
 21
96.323711
 31
0.0
 12
104.562222
 22
99.823711
 32
0.0
 13
104.562222
 23
99.823711
 33
0.0
  0
POINT
  5
17B
330
16E
100
AcDbEntity
  8
Defpoints
 62
     0
440
 16777216
100
AcDbPoint
 10
127.613008
 20
104.823711
 30
0.0
  0
POINT
  5
17C
330
16E
100
AcDbEntity
  8
Defpoints
 62
     0
440
 16777216
100
AcDbPoint
 10
127.613008
 20
99.823711
 30
0.0
  0
POINT
  5
17D
330
16E
100
AcDbEntity
  8
Defpoints
 62
     0
440
 16777216
100
AcDbPoint
 10
104.562222
 20
99.823711
 30
0.0
  0
ENDBLK
  5
17E
330
16E
100
AcDbEntity
  8
0
100
AcDbBlockEnd
  0
BLOCK
  5
181
330
180
100
AcDbEntity
  8
0
100
AcDbBlockBegin
  2
*D7
 70
     1
 10
0.0
 20
0.0
 30
0.0
  3
*D7
  1

  0
LINE
  5
182
330
180
100
AcDbEntity
  8
Dimensions
440
 16777216
370
    -2
100
AcDbLine
 10
286.841096
 20
253.527146
 30
0.0
 11
277.424933
 21
245.846984
 31
0.0
  0
MTEXT
  5
183
330
180
100
AcDbEntity
  8
Dimensions
440
 16777216
100
AcDbMText
 10
281.411561
 20
253.340339
 30
0.0
 40
3.5
 41
0.0
 46
0.0
 71
     5
 72
     1
  1
R8
 11
0.774923
 21
0.632055
 31
0.0
 73
     1
 44
1.0
  0
LINE
  5
184
330
180
100
AcDbEntity
  8
Dimensions
440
 16777216
370
    -2
100
AcDbLine
 10
271.613008
 20
241.106569
 30
0.0
 11
274.712701
 21
243.63479
 31
0.0
  0
SOLID
  5
185
330
180
100
AcDbEntity
  8
Dimensions
440
 16777216
100
AcDbTrace
 10
277.056234
 20
246.299023
 30
0.0
 11
277.793632
 21
245.394945
 31
0.0
 12
274.712701
 22
243.63479
 32
0.0
 13
274.712701
 23
243.63479
 33
0.0
  0
POINT
  5
186
330
180
100
AcDbEntity
  8
Defpoints
 62
     0
440
 16777216
100
AcDbPoint
 10
274.712701
 20
243.63479
 30
0.0
  0
POINT
  5
187
330
180
100
AcDbEntity
  8
Defpoints
 62
     0
440
 16777216
100
AcDbPoint
 10
271.613008
 20
241.106569
 30
0.0
  0
ENDBLK
  5
188
330
180
100
AcDbEntity
  8
0
100
AcDbBlockEnd
  0
BLOCK
  5
18B
330
18A
100
AcDbEntity
  8
0
100
AcDbBlockBegin
  2
*D8
 70
     1
 10
0.0
 20
0.0
 30
0.0
  3
*D8
  1

  0
LINE
  5
18C
330
18A
100
AcDbEntity
  8
Dimensions
440
 16777216
370
    -2
100
AcDbLine
 10
322.552011
 20
182.34937
 30
0.0
 11
275.081459
 21
205.673977
 31
0.0
  0
LINE
  5
18D
330
18A
100
AcDbEntity
  8
Dimensions
440
 16777216
370
    -2
100
AcDbLine
 10
263.144557
 20
211.539161
 30
0.0
 11
260.003268
 21
213.082631
 31
0.0
  0
MTEXT
  5
18E
330
18A
100
AcDbEntity
  8
Dimensions
440
 16777216
100
AcDbMText
 10
311.321454
 20
191.638911
 30
0.0
 40
3.5
 41
0.0
 46
0.0
 71
     5
 72
     1
  1
12.6 x 90%%D
 11
0.897511
 21
-0.440991
 31
0.0
 73
     1
 44
1.0
  0
LINE
  5
18F
330
18A
100
AcDbEntity
  8
Dimensions
440
 16777216
370
    -2
100
AcDbLine
 10
266.285847
 20
209.995692
 30
0.0
 11
271.940169
 21
207.217447
 31
0.0
  0
SOLID
  5
190
330
18A
100
AcDbEntity
  8
Dimensions
440
 16777216
100
AcDbTrace
 10
263.401802
 20
212.06271
 30
0.0
 11
262.887313
 21
211.015613
 31
0.0
 12
266.285847
 22
209.995692
 32
0.0
 13
266.285847
 23
209.995692
 33
0.0
  0
SOLID
  5
191
330
18A
100
AcDbEntity
  8
Dimensions
440
 16777216
100
AcDbTrace
 10
275.338704
 20
206.197525
 30
0.0
 11
274.824214
 21
205.150429
 31
0.0
 12
271.940169
 22
207.217447
 32
0.0
 13
271.940169
 23
207.217447
 33
0.0
  0
POINT
  5
192
330
18A
100
AcDbEntity
  8
Defpoints
 62
     0
440
 16777216
100
AcDbPoint
 10
271.940169
 20
207.217447
 30
0.0
  0
POINT
  5
193
330
18A
100
AcDbEntity
  8
Defpoints
 62
     0
440
 16777216
100
AcDbPoint
 10
266.285847
 20
209.995692
 30
0.0
  0
ENDBLK
  5
194
330
18A
100
AcDbEntity
  8
0
100
AcDbBlockEnd
  0
BLOCK
  5
197
330
196
100
AcDbEntity
  8
0
100
AcDbBlockBegin
  2
*D9
 70
     1
 10
0.0
 20
0.0
 30
0.0
  3
*D9
  1

  0
LINE
  5
198
330
196
100
AcDbEntity
  8
Dimensions
440
 16777216
370
    -2
100
AcDbLine
 10
294.941863
 20
218.067767
 30
0.0
 11
274.042687
 21
210.412327
 31
0.0
  0
LINE
  5
199
330
196
100
AcDbEntity
  8
Dimensions
440
 16777216
370
    -2
100
AcDbLine
 10
264.183329
 20
206.800811
 30
0.0
 11
260.896876
 21
205.596972
 31
0.0
  0
MTEXT
  5
19A
330
196
100
AcDbEntity
  8
Dimensions
440
 16777216
100
AcDbMText
 10
284.971255
 20
218.020333
 30
0.0
 40
3.5
 41
0.0
 46
0.0
 71
     5
 72
     1
  1
7 Thu
 11
0.938987
 21
0.343954
 31
0.0
 73
     1
 44
1.0
  0
LINE
  5
19B
330
196
100
AcDbEntity
  8
Dimensions
440
 16777216
370
    -2
100
AcDbLine
 10
267.469782
 20
208.00465
 30
0.0
 11
270.756235
 21
209.208489
 31
0.0
  0
SOLID
  5
19C
330
196
100
AcDbEntity
  8
Dimensions
440
 16777216
100
AcDbTrace
 10
263.982689
 20
207.348553
 30
0.0
 11
264.383969
 21
206.253069
 31
0.0
 12
267.469782
 22
208.00465
 32
0.0
 13
267.469782
 23
208.00465
 33
0.0
  0
SOLID
  5
19D
330
196
100
AcDbEntity
  8
Dimensions
440
 16777216
100
AcDbTrace
 10
273.842048
 20
210.96007
 30
0.0
 11
274.243327
 21
209.864585
 31
0.0
 12
270.756235
 22
209.208489
 32
0.0
 13
270.756235
 23
209.208489
 33
0.0
  0
POINT
  5
19E
330
196
100
AcDbEntity
  8
Defpoints
 62
     0
440
 16777216
100
AcDbPoint
 10
270.756235
 20
209.208489
 30
0.0
  0
POINT
  5
19F
330
196
100
AcDbEntity
  8
Defpoints
 62
     0
440
 16777216
100
AcDbPoint
 10
267.469782
 20
208.00465
 30
0.0
  0
ENDBLK
  5
1A0
330
196
100
AcDbEntity
  8
0
100
AcDbBlockEnd
  0
BLOCK
  5
1A3
330
1A2
100
AcDbEntity
  8
0
100
AcDbBlockBegin
  2
*D10
 70
     1
 10
0.0
 20
0.0
 30
0.0
  3
*D10
  1

  0
LINE
  5
1A4
330
1A2
100
AcDbEntity
  8
Dimensions
440
 16777216
370
    -2
100
AcDbLine
 10
269.113008
 20
210.606569
 30
0.0
 11
269.113008
 21
227.134843
 31
0.0
  0
LINE
  5
1A5
330
1A2
100
AcDbEntity
  8
Dimensions
440
 16777216
370
    -2
100
AcDbLine
 10
265.613008
 20
225.134843
 30
0.0
 11
262.113008
 21
225.134843
 31
0.0
  0
LINE
  5
1A6
330
1A2
100
AcDbEntity
  8
Dimensions
440
 16777216
370
    -2
100
AcDbLine
 10
279.113008
 20
225.134843
 30
0.0
 11
282.613008
 21
225.134843
 31
0.0
  0
LINE
  5
1A7
330
1A2
100
AcDbEntity
  8
Dimensions
440
 16777216
370
    -2
100
AcDbLine
 10
272.363008
 20
225.134843
 30
0.0
 11
274.174468
 21
231.173042
 31
0.0
  0
LINE
  5
1A8
330
1A2
100
AcDbEntity
  8
Dimensions
440
 16777216
370
    -2
100
AcDbLine
 10
274.174468
 20
231.173042
 30
0.0
 11
281.858643
 21
231.173042
 31
0.0
  0
MTEXT
  5
1A9
330
1A2
100
AcDbEntity
  8
Dimensions
440
 16777216
100
AcDbMText
 10
278.016555
 20
234.461242
 30
0.0
 40
3.5
 41
0.0
 46
0.0
 71
     5
 72
     1
  1
13
 73
     1
 44
1.0
  0
LINE
  5
1AA
330
1A2
100
AcDbEntity
  8
Dimensions
440
 16777216
370
    -2
100
AcDbLine
 10
269.113008
 20
225.134843
 30
0.0
 11
275.613008
 21
225.134843
 31
0.0
  0
LINE
  5
1AB
330
1A2
100
AcDbEntity
  8
Dimensions
440
 16777216
370
    -2
100
AcDbLine
 10
269.113008
 20
225.134843
 30
0.0
 11
275.613008
 21
225.134843
 31
0.0
  0
SOLID
  5
1AC
330
1A2
100
AcDbEntity
  8
Dimensions
440
 16777216
100
AcDbTrace
 10
265.613008
 20
225.718177
 30
0.0
 11
265.613008
 21
224.55151
 31
0.0
 12
269.113008
 22
225.134843
 32
0.0
 13
269.113008
 23
225.134843
 33
0.0
  0
SOLID
  5
1AD
330
1A2
100
AcDbEntity
  8
Dimensions
440
 16777216
100
AcDbTrace
 10
279.113008
 20
225.718177
 30
0.0
 11
279.113008
 21
224.55151
 31
0.0
 12
275.613008
 22
225.134843
 32
0.0
 13
275.613008
 23
225.134843
 33
0.0
  0
POINT
  5
1AE
330
1A2
100
AcDbEntity
  8
Defpoints
 62
     0
440
 16777216
100
AcDbPoint
 10
269.113008
 20
208.606569
 30
0.0
  0
POINT
  5
1AF
330
1A2
100
AcDbEntity
  8
Defpoints
 62
     0
440
 16777216
100
AcDbPoint
 10
275.613008
 20
225.134843
 30
0.0
  0
POINT
  5
1B0
330
1A2
100
AcDbEntity
  8
Defpoints
 62
     0
440
 16777216
100
AcDbPoint
 10
275.613008
 20
225.134843
 30
0.0
  0
ENDBLK
  5
1B1
330
1A2
100
AcDbEntity
  8
0
100
AcDbBlockEnd
  0
BLOCK
  5
1B4
330
1B3
100
AcDbEntity
  8
0
100
AcDbBlockBegin
  2
*D11
 70
     1
 10
0.0
 20
0.0
 30
0.0
  3
*D11
  1

  0
LINE
  5
1B5
330
1B3
100
AcDbEntity
  8
Dimensions
440
 16777216
370
    -2
100
AcDbLine
 10
267.113008
 20
208.606569
 30
0.0
 11
247.024365
 21
208.606569
 31
0.0
  0
LINE
  5
1B6
330
1B3
100
AcDbEntity
  8
Dimensions
440
 16777216
370
    -2
100
AcDbLine
 10
249.395191
 20
172.106569
 30
0.0
 11
251.024365
 21
172.106569
 31
0.0
  0
LINE
  5
1B7
330
1B3
100
AcDbEntity
  8
Dimensions
440
 16777216
370
    -2
100
AcDbLine
 10
249.024365
 20
205.106569
 30
0.0
 11
249.024365
 21
175.606569
 31
0.0
  0
SOLID
  5
1B8
330
1B3
100
AcDbEntity
  8
Dimensions
440
 16777216
100
AcDbTrace
 10
248.441032
 20
205.106569
 30
0.0
 11
249.607698
 21
205.106569
 31
0.0
 12
249.024365
 22
208.606569
 32
0.0
 13
249.024365
 23
208.606569
 33
0.0
  0
SOLID
  5
1B9
330
1B3
100
AcDbEntity
  8
Dimensions
440
 16777216
100
AcDbTrace
 10
248.441032
 20
175.606569
 30
0.0
 11
249.607698
 21
175.606569
 31
0.0
 12
249.024365
 22
172.106569
 32
0.0
 13
249.024365
 23
172.106569
 33
0.0
  0
MTEXT
  5
1BA
330
1B3
100
AcDbEntity
  8
Dimensions
440
 16777216
100
AcDbMText
 10
245.736166
 20
190.356569
 30
0.0
 40
3.5
 41
0.0
 46
0.0
 71
     5
 72
     1
  1
73
 11
0.0
 21
1.0
 31
0.0
 73
     1
 44
1.0
  0
POINT
  5
1BB
330
1B3
100
AcDbEntity
  8
Defpoints
 62
     0
440
 16777216
100
AcDbPoint
 10
269.113008
 20
208.606569
 30
0.0
  0
POINT
  5
1BC
330
1B3
100
AcDbEntity
  8
Defpoints
 62
     0
440
 16777216
100
AcDbPoint
 10
247.395191
 20
172.106569
 30
0.0
  0
POINT
  5
1BD
330
1B3
100
AcDbEntity
  8
Defpoints
 62
     0
440
 16777216
100
AcDbPoint
 10
249.024365
 20
172.106569
 30
0.0
  0
ENDBLK
  5
1BE
330
1B3
100
AcDbEntity
  8
0
100
AcDbBlockEnd
  0
BLOCK
  5
1C1
330
1C0
100
AcDbEntity
  8
0
100
AcDbBlockBegin
  2
*D12
 70
     1
 10
0.0
 20
0.0
 30
0.0
  3
*D12
  1

  0
LINE
  5
1C2
330
1C0
100
AcDbEntity
  8
Dimensions
440
 16777216
370
    -2
100
AcDbLine
 10
153.488042
 20
184.871592
 30
0.0
 11
137.189165
 21
181.325929
 31
0.0
  0
LINE
  5
1C3
330
1C0
100
AcDbEntity
  8
Dimensions
440
 16777216
370
    -2
100
AcDbLine
 10
128.736851
 20
179.487209
 30
0.0
 11
125.31684
 21
178.743219
 31
0.0
  0
MTEXT
  5
1C4
330
1C0
100
AcDbEntity
  8
Dimensions
440
 16777216
100
AcDbMText
 10
146.329088
 20
186.778289
 30
0.0
 40
3.5
 41
0.0
 46
0.0
 71
     5
 72
     1
  1
3.3
 11
0.977146
 21
0.212569
 31
0.0
 73
     1
 44
1.0
  0
LINE
  5
1C5
330
1C0
100
AcDbEntity
  8
Dimensions
440
 16777216
370
    -2
100
AcDbLine
 10
132.156863
 20
180.2312
 30
0.0
 11
133.769154
 21
180.581938
 31
0.0
  0
SOLID
  5
1C6
330
1C0
100
AcDbEntity
  8
Dimensions
440
 16777216
100
AcDbTrace
 10
128.612853
 20
180.057211
 30
0.0
 11
128.86085
 21
178.917208
 31
0.0
 12
132.156863
 22
180.2312
 32
0.0
 13
132.156863
 23
180.2312
 33
0.0
  0
SOLID
  5
1C7
330
1C0
100
AcDbEntity
  8
Dimensions
440
 16777216
100
AcDbTrace
 10
137.065167
 20
181.895931
 30
0.0
 11
137.313164
 21
180.755927
 31
0.0
 12
133.769154
 22
180.581938
 32
0.0
 13
133.769154
 23
180.581938
 33
0.0
  0
POINT
  5
1C8
330
1C0
100
AcDbEntity
  8
Defpoints
 62
     0
440
 16777216
100
AcDbPoint
 10
133.769154
 20
180.581938
 30
0.0
  0
POINT
  5
1C9
330
1C0
100
AcDbEntity
  8
Defpoints
 62
     0
440
 16777216
100
AcDbPoint
 10
132.156863
 20
180.2312
 30
0.0
  0
ENDBLK
  5
1CA
330
1C0
100
AcDbEntity
  8
0
100
AcDbBlockEnd
  0
BLOCK
  5
1CD
330
1CC
100
AcDbEntity
  8
0
100
AcDbBlockBegin
  2
*D13
 70
     1
 10
0.0
 20
0.0
 30
0.0
  3
*D13
  1

  0
LINE
  5
1CE
330
1CC
100
AcDbEntity
  8
Dimensions
440
 16777216
370
    -2
100
AcDbLine
 10
130.963008
 20
180.406569
 30
0.0
 11
111.164018
 21
180.406569
 31
0.0
  0
LINE
  5
1CF
330
1CC
100
AcDbEntity
  8
Dimensions
440
 16777216
370
    -2
100
AcDbLine
 10
129.613008
 20
172.106569
 30
0.0
 11
111.164018
 21
172.106569
 31
0.0
  0
LINE
  5
1D0
330
1CC
100
AcDbEntity
  8
Dimensions
440
 16777216
370
    -2
100
AcDbLine
 10
113.164018
 20
183.906569
 30
0.0
 11
113.164018
 21
187.406569
 31
0.0
  0
LINE
  5
1D1
330
1CC
100
AcDbEntity
  8
Dimensions
440
 16777216
370
    -2
100
AcDbLine
 10
113.164018
 20
168.606569
 30
0.0
 11
113.164018
 21
165.106569
 31
0.0
  0
LINE
  5
1D2
330
1CC
100
AcDbEntity
  8
Dimensions
440
 16777216
370
    -2
100
AcDbLine
 10
113.164018
 20
176.256569
 30
0.0
 11
107.127013
 21
178.067671
 31
0.0
  0
LINE
  5
1D3
330
1CC
100
AcDbEntity
  8
Dimensions
440
 16777216
370
    -2
100
AcDbLine
 10
107.127013
 20
178.067671
 30
0.0
 11
107.127013
 21
189.827221
 31
0.0
  0
MTEXT
  5
1D4
330
1CC
100
AcDbEntity
  8
Dimensions
440
 16777216
100
AcDbMText
 10
103.840007
 20
183.947446
 30
0.0
 40
3.5
 41
0.0
 46
0.0
 71
     5
 72
     1
  1
16.6
 11
0.0
 21
1.0
 31
0.0
 73
     1
 44
1.0
  0
LINE
  5
1D5
330
1CC
100
AcDbEntity
  8
Dimensions
440
 16777216
370
    -2
100
AcDbLine
 10
113.164018
 20
180.406569
 30
0.0
 11
113.164018
 21
172.106569
 31
0.0
  0
LINE
  5
1D6
330
1CC
100
AcDbEntity
  8
Dimensions
440
 16777216
370
    -2
100
AcDbLine
 10
113.164018
 20
180.406569
 30
0.0
 11
113.164018
 21
172.106569
 31
0.0
  0
SOLID
  5
1D7
330
1CC
100
AcDbEntity
  8
Dimensions
440
 16777216
100
AcDbTrace
 10
112.580685
 20
183.906569
 30
0.0
 11
113.747352
 21
183.906569
 31
0.0
 12
113.164018
 22
180.406569
 32
0.0
 13
113.164018
 23
180.406569
 33
0.0
  0
SOLID
  5
1D8
330
1CC
100
AcDbEntity
  8
Dimensions
440
 16777216
100
AcDbTrace
 10
112.580685
 20
168.606569
 30
0.0
 11
113.747352
 21
168.606569
 31
0.0
 12
113.164018
 22
172.106569
 32
0.0
 13
113.164018
 23
172.106569
 33
0.0
  0
POINT
  5
1D9
330
1CC
100
AcDbEntity
  8
Defpoints
 62
     0
440
 16777216
100
AcDbPoint
 10
132.963008
 20
180.406569
 30
0.0
  0
POINT
  5
1DA
330
1CC
100
AcDbEntity
  8
Defpoints
 62
     0
440
 16777216
100
AcDbPoint
 10
131.613008
 20
172.106569
 30
0.0
  0
POINT
  5
1DB
330
1CC
100
AcDbEntity
  8
Defpoints
 62
     0
440
 16777216
100
AcDbPoint
 10
113.164018
 20
172.106569
 30
0.0
  0
ENDBLK
  5
1DC
330
1CC
100
AcDbEntity
  8
0
100
AcDbBlockEnd
  0
BLOCK
  5
1DF
330
1DE
100
AcDbEntity
  8
0
100
AcDbBlockBegin
  2
*D14
 70
     1
 10
0.0
 20
0.0
 30
0.0
  3
*D14
  1

  0
LINE
  5
1E0
330
1DE
100
AcDbEntity
  8
Dimensions
440
 16777216
370
    -2
100
AcDbLine
 10
132.963008
 20
178.406569
 30
0.0
 11
132.963008
 21
167.4086
 31
0.0
  0
LINE
  5
1E1
330
1DE
100
AcDbEntity
  8
Dimensions
440
 16777216
370
    -2
100
AcDbLine
 10
127.613008
 20
174.106569
 30
0.0
 11
127.613008
 21
167.4086
 31
0.0
  0
LINE
  5
1E2
330
1DE
100
AcDbEntity
  8
Dimensions
440
 16777216
370
    -2
100
AcDbLine
 10
136.463008
 20
169.4086
 30
0.0
 11
139.963008
 21
169.4086
 31
0.0
  0
LINE
  5
1E3
330
1DE
100
AcDbEntity
  8
Dimensions
440
 16777216
370
    -2
100
AcDbLine
 10
124.113008
 20
169.4086
 30
0.0
 11
120.613008
 21
169.4086
 31
0.0
  0
LINE
  5
1E4
330
1DE
100
AcDbEntity
  8
Dimensions
440
 16777216
370
    -2
100
AcDbLine
 10
130.288008
 20
169.4086
 30
0.0
 11
133.171313
 21
159.797584
 31
0.0
  0
LINE
  5
1E5
330
1DE
100
AcDbEntity
  8
Dimensions
440
 16777216
370
    -2
100
AcDbLine
 10
133.171313
 20
159.797584
 30
0.0
 11
144.93325
 21
159.797584
 31
0.0
  0
MTEXT
  5
1E6
330
1DE
100
AcDbEntity
  8
Dimensions
440
 16777216
100
AcDbMText
 10
139.052282
 20
163.084589
 30
0.0
 40
3.5
 41
0.0
 46
0.0
 71
     5
 72
     1
  1
10.7
 73
     1
 44
1.0
  0
LINE
  5
1E7
330
1DE
100
AcDbEntity
  8
Dimensions
440
 16777216
370
    -2
100
AcDbLine
 10
132.963008
 20
169.4086
 30
0.0
 11
127.613008
 21
169.4086
 31
0.0
  0
LINE
  5
1E8
330
1DE
100
AcDbEntity
  8
Dimensions
440
 16777216
370
    -2
100
AcDbLine
 10
132.963008
 20
169.4086
 30
0.0
 11
127.613008
 21
169.4086
 31
0.0
  0
SOLID
  5
1E9
330
1DE
100
AcDbEntity
  8
Dimensions
440
 16777216
100
AcDbTrace
 10
136.463008
 20
169.991933
 30
0.0
 11
136.463008
 21
168.825267
 31
0.0
 12
132.963008
 22
169.4086
 32
0.0
 13
132.963008
 23
169.4086
 33
0.0
  0
SOLID
  5
1EA
330
1DE
100
AcDbEntity
  8
Dimensions
440
 16777216
100
AcDbTrace
 10
124.113008
 20
169.991933
 30
0.0
 11
124.113008
 21
168.825267
 31
0.0
 12
127.613008
 22
169.4086
 32
0.0
 13
127.613008
 23
169.4086
 33
0.0
  0
POINT
  5
1EB
330
1DE
100
AcDbEntity
  8
Defpoints
 62
     0
440
 16777216
100
AcDbPoint
 10
132.963008
 20
180.406569
 30
0.0
  0
POINT
  5
1EC
330
1DE
100
AcDbEntity
  8
Defpoints
 62
     0
440
 16777216
100
AcDbPoint
 10
127.613008
 20
176.106569
 30
0.0
  0
POINT
  5
1ED
330
1DE
100
AcDbEntity
  8
Defpoints
 62
     0
440
 16777216
100
AcDbPoint
 10
127.613008
 20
169.4086
 30
0.0
  0
ENDBLK
  5
1EE
330
1DE
100
AcDbEntity
  8
0
100
AcDbBlockEnd
  0
BLOCK
  5
1F1
330
1F0
100
AcDbEntity
  8
0
100
AcDbBlockBegin
  2
*D15
 70
     1
 10
0.0
 20
0.0
 30
0.0
  3
*D15
  1

  0
LINE
  5
1F2
330
1F0
100
AcDbEntity
  8
Dimensions
440
 16777216
370
    -2
100
AcDbLine
 10
130.963008
 20
180.406569
 30
0.0
 11
83.424461
 21
180.406569
 31
0.0
  0
LINE
  5
1F3
330
1F0
100
AcDbEntity
  8
Dimensions
440
 16777216
370
    -2
100
AcDbLine
 10
130.963008
 20
196.306569
 30
0.0
 11
83.424461
 21
196.306569
 31
0.0
  0
LINE
  5
1F4
330
1F0
100
AcDbEntity
  8
Dimensions
440
 16777216
370
    -2
100
AcDbLine
 10
85.424461
 20
183.906569
 30
0.0
 11
85.424461
 21
192.806569
 31
0.0
  0
SOLID
  5
1F5
330
1F0
100
AcDbEntity
  8
Dimensions
440
 16777216
100
AcDbTrace
 10
84.841128
 20
183.906569
 30
0.0
 11
86.007795
 21
183.906569
 31
0.0
 12
85.424461
 22
180.406569
 32
0.0
 13
85.424461
 23
180.406569
 33
0.0
  0
SOLID
  5
1F6
330
1F0
100
AcDbEntity
  8
Dimensions
440
 16777216
100
AcDbTrace
 10
84.841128
 20
192.806569
 30
0.0
 11
86.007795
 21
192.806569
 31
0.0
 12
85.424461
 22
196.306569
 32
0.0
 13
85.424461
 23
196.306569
 33
0.0
  0
MTEXT
  5
1F7
330
1F0
100
AcDbEntity
  8
Dimensions
440
 16777216
100
AcDbMText
 10
82.136262
 20
188.356569
 30
0.0
 40
3.5
 41
0.0
 46
0.0
 71
     5
 72
     1
  1
31.8
 11
0.0
 21
1.0
 31
0.0
 73
     1
 44
1.0
  0
POINT
  5
1F8
330
1F0
100
AcDbEntity
  8
Defpoints
 62
     0
440
 16777216
100
AcDbPoint
 10
132.963008
 20
180.406569
 30
0.0
  0
POINT
  5
1F9
330
1F0
100
AcDbEntity
  8
Defpoints
 62
     0
440
 16777216
100
AcDbPoint
 10
132.963008
 20
196.306569
 30
0.0
  0
POINT
  5
1FA
330
1F0
100
AcDbEntity
  8
Defpoints
 62
     0
440
 16777216
100
AcDbPoint
 10
85.424461
 20
196.306569
 30
0.0
  0
ENDBLK
  5
1FB
330
1F0
100
AcDbEntity
  8
0
100
AcDbBlockEnd
  0
BLOCK
  5
1FE
330
1FD
100
AcDbEntity
  8
0
100
AcDbBlockBegin
  2
*D16
 70
     1
 10
0.0
 20
0.0
 30
0.0
  3
*D16
  1

  0
LINE
  5
1FF
330
1FD
100
AcDbEntity
  8
Dimensions
440
 16777216
370
    -2
100
AcDbLine
 10
130.963008
 20
196.306569
 30
0.0
 11
69.050372
 21
196.306569
 31
0.0
  0
LINE
  5
200
330
1FD
100
AcDbEntity
  8
Dimensions
440
 16777216
370
    -2
100
AcDbLine
 10
130.963008
 20
220.906569
 30
0.0
 11
69.050372
 21
220.906569
 31
0.0
  0
LINE
  5
201
330
1FD
100
AcDbEntity
  8
Dimensions
440
 16777216
370
    -2
100
AcDbLine
 10
71.050372
 20
199.806569
 30
0.0
 11
71.050372
 21
217.406569
 31
0.0
  0
SOLID
  5
202
330
1FD
100
AcDbEntity
  8
Dimensions
440
 16777216
100
AcDbTrace
 10
70.467039
 20
199.806569
 30
0.0
 11
71.633706
 21
199.806569
 31
0.0
 12
71.050372
 22
196.306569
 32
0.0
 13
71.050372
 23
196.306569
 33
0.0
  0
SOLID
  5
203
330
1FD
100
AcDbEntity
  8
Dimensions
440
 16777216
100
AcDbTrace
 10
70.467039
 20
217.406569
 30
0.0
 11
71.633706
 21
217.406569
 31
0.0
 12
71.050372
 22
220.906569
 32
0.0
 13
71.050372
 23
220.906569
 33
0.0
  0
MTEXT
  5
204
330
1FD
100
AcDbEntity
  8
Dimensions
440
 16777216
100
AcDbMText
 10
67.763367
 20
208.606569
 30
0.0
 40
3.5
 41
0.0
 46
0.0
 71
     5
 72
     1
  1
49.2
 11
0.0
 21
1.0
 31
0.0
 73
     1
 44
1.0
  0
POINT
  5
205
330
1FD
100
AcDbEntity
  8
Defpoints
 62
     0
440
 16777216
100
AcDbPoint
 10
132.963008
 20
196.306569
 30
0.0
  0
POINT
  5
206
330
1FD
100
AcDbEntity
  8
Defpoints
 62
     0
440
 16777216
100
AcDbPoint
 10
132.963008
 20
220.906569
 30
0.0
  0
POINT
  5
207
330
1FD
100
AcDbEntity
  8
Defpoints
 62
     0
440
 16777216
100
AcDbPoint
 10
71.050372
 20
220.906569
 30
0.0
  0
ENDBLK
  5
208
330
1FD
100
AcDbEntity
  8
0
100
AcDbBlockEnd
  0
BLOCK
  5
20B
330
20A
100
AcDbEntity
  8
0
100
AcDbBlockBegin
  2
*D17
 70
     1
 10
0.0
 20
0.0
 30
0.0
  3
*D17
  1

  0
LINE
  5
20C
330
20A
100
AcDbEntity
  8
Dimensions
440
 16777216
370
    -2
100
AcDbLine
 10
130.963008
 20
220.906569
 30
0.0
 11
59.173698
 21
220.906569
 31
0.0
  0
LINE
  5
20D
330
20A
100
AcDbEntity
  8
Dimensions
440
 16777216
370
    -2
100
AcDbLine
 10
130.963008
 20
236.806569
 30
0.0
 11
59.173698
 21
236.806569
 31
0.0
  0
LINE
  5
20E
330
20A
100
AcDbEntity
  8
Dimensions
440
 16777216
370
    -2
100
AcDbLine
 10
61.173698
 20
224.406569
 30
0.0
 11
61.173698
 21
233.306569
 31
0.0
  0
SOLID
  5
20F
330
20A
100
AcDbEntity
  8
Dimensions
440
 16777216
100
AcDbTrace
 10
60.590365
 20
224.406569
 30
0.0
 11
61.757032
 21
224.406569
 31
0.0
 12
61.173698
 22
220.906569
 32
0.0
 13
61.173698
 23
220.906569
 33
0.0
  0
SOLID
  5
210
330
20A
100
AcDbEntity
  8
Dimensions
440
 16777216
100
AcDbTrace
 10
60.590365
 20
233.306569
 30
0.0
 11
61.757032
 21
233.306569
 31
0.0
 12
61.173698
 22
236.806569
 32
0.0
 13
61.173698
 23
236.806569
 33
0.0
  0
MTEXT
  5
211
330
20A
100
AcDbEntity
  8
Dimensions
440
 16777216
100
AcDbMText
 10
57.885499
 20
228.856569
 30
0.0
 40
3.5
 41
0.0
 46
0.0
 71
     5
 72
     1
  1
31.8
 11
0.0
 21
1.0
 31
0.0
 73
     1
 44
1.0
  0
POINT
  5
212
330
20A
100
AcDbEntity
  8
Defpoints
 62
     0
440
 16777216
100
AcDbPoint
 10
132.963008
 20
220.906569
 30
0.0
  0
POINT
  5
213
330
20A
100
AcDbEntity
  8
Defpoints
 62
     0
440
 16777216
100
AcDbPoint
 10
132.963008
 20
236.806569
 30
0.0
  0
POINT
  5
214
330
20A
100
AcDbEntity
  8
Defpoints
 62
     0
440
 16777216
100
AcDbPoint
 10
61.173698
 20
236.806569
 30
0.0
  0
ENDBLK
  5
215
330
20A
100
AcDbEntity
  8
0
100
AcDbBlockEnd
  0
BLOCK
  5
218
330
217
100
AcDbEntity
  8
0
100
AcDbBlockBegin
  2
*D18
 70
     1
 10
0.0
 20
0.0
 30
0.0
  3
*D18
  1

  0
LINE
  5
538
330
217
100
AcDbEntity
  8
Dimensions
440
 16777216
370
    -2
100
AcDbLine
 10
271.613008
 20
97.823711
 30
0.0
 11
271.613008
 21
78.024721
 31
0.0
  0
LINE
  5
539
330
217
100
AcDbEntity
  8
Dimensions
440
 16777216
370
    -2
100
AcDbLine
 10
131.613008
 20
97.823711
 30
0.0
 11
131.613008
 21
78.024721
 31
0.0
  0
LINE
  5
53A
330
217
100
AcDbEntity
  8
Dimensions
440
 16777216
370
    -2
100
AcDbLine
 10
268.113008
 20
80.024721
 30
0.0
 11
135.113008
 21
80.024721
 31
0.0
  0
SOLID
  5
53B
330
217
100
AcDbEntity
  8
Dimensions
440
 16777216
100
AcDbTrace
 10
268.113008
 20
80.608055
 30
0.0
 11
268.113008
 21
79.441388
 31
0.0
 12
271.613008
 22
80.024721
 32
0.0
 13
271.613008
 23
80.024721
 33
0.0
  0
SOLID
  5
53C
330
217
100
AcDbEntity
  8
Dimensions
440
 16777216
100
AcDbTrace
 10
135.113008
 20
80.608055
 30
0.0
 11
135.113008
 21
79.441388
 31
0.0
 12
131.613008
 22
80.024721
 32
0.0
 13
131.613008
 23
80.024721
 33
0.0
  0
MTEXT
  5
53D
330
217
100
AcDbEntity
  8
Dimensions
440
 16777216
100
AcDbMText
 10
201.613008
 20
83.311727
 30
0.0
 40
3.5
 41
0.0
 46
0.0
 71
     5
 72
     1
  1
280
 73
     1
 44
1.0
  0
POINT
  5
53E
330
217
100
AcDbEntity
  8
Defpoints
 62
     0
440
 16777216
100
AcDbPoint
 10
271.613008
 20
99.823711
 30
0.0
  0
POINT
  5
53F
330
217
100
AcDbEntity
  8
Defpoints
 62
     0
440
 16777216
100
AcDbPoint
 10
131.613008
 20
99.823711
 30
0.0
  0
POINT
  5
540
330
217
100
AcDbEntity
  8
Defpoints
 62
     0
440
 16777216
100
AcDbPoint
 10
131.613008
 20
80.024721
 30
0.0
  0
ENDBLK
  5
219
330
217
100
AcDbEntity
  8
0
100
AcDbBlockEnd
  0
BLOCK
  5
224
330
223
100
AcDbEntity
  8
0
100
AcDbBlockBegin
  2
*D19
 70
     1
 10
0.0
 20
0.0
 30
0.0
  3
*D19
  1

  0
LINE
  5
541
330
223
100
AcDbEntity
  8
Dimensions
440
 16777216
370
    -2
100
AcDbLine
 10
125.613008
 20
104.823711
 30
0.0
 11
102.562222
 21
104.823711
 31
0.0
  0
LINE
  5
542
330
223
100
AcDbEntity
  8
Dimensions
440
 16777216
370
    -2
100
AcDbLine
 10
125.613008
 20
99.823711
 30
0.0
 11
102.562222
 21
99.823711
 31
0.0
  0
LINE
  5
543
330
223
100
AcDbEntity
  8
Dimensions
440
 16777216
370
    -2
100
AcDbLine
 10
104.562222
 20
108.323711
 30
0.0
 11
104.562222
 21
111.823711
 31
0.0
  0
LINE
  5
544
330
223
100
AcDbEntity
  8
Dimensions
440
 16777216
370
    -2
100
AcDbLine
 10
104.562222
 20
96.323711
 30
0.0
 11
104.562222
 21
92.823711
 31
0.0
  0
LINE
  5
545
330
223
100
AcDbEntity
  8
Dimensions
440
 16777216
370
    -2
100
AcDbLine
 10
104.562222
 20
102.323711
 30
0.0
 11
98.525217
 21
104.134813
 31
0.0
  0
LINE
  5
546
330
223
100
AcDbEntity
  8
Dimensions
440
 16777216
370
    -2
100
AcDbLine
 10
98.525217
 20
104.134813
 30
0.0
 11
98.525217
 21
111.80705
 31
0.0
  0
MTEXT
  5
547
330
223
100
AcDbEntity
  8
Dimensions
440
 16777216
100
AcDbMText
 10
95.238212
 20
107.970932
 30
0.0
 40
3.5
 41
0.0
 46
0.0
 71
     5
 72
     1
  1
10
 11
0.0
 21
1.0
 31
0.0
 73
     1
 44
1.0
  0
LINE
  5
548
330
223
100
AcDbEntity
  8
Dimensions
440
 16777216
370
    -2
100
AcDbLine
 10
104.562222
 20
104.823711
 30
0.0
 11
104.562222
 21
99.823711
 31
0.0
  0
LINE
  5
549
330
223
100
AcDbEntity
  8
Dimensions
440
 16777216
370
    -2
100
AcDbLine
 10
104.562222
 20
104.823711
 30
0.0
 11
104.562222
 21
99.823711
 31
0.0
  0
SOLID
  5
54A
330
223
100
AcDbEntity
  8
Dimensions
440
 16777216
100
AcDbTrace
 10
103.978889
 20
108.323711
 30
0.0
 11
105.145556
 21
108.323711
 31
0.0
 12
104.562222
 22
104.823711
 32
0.0
 13
104.562222
 23
104.823711
 33
0.0
  0
SOLID
  5
54B
330
223
100
AcDbEntity
  8
Dimensions
440
 16777216
100
AcDbTrace
 10
103.978889
 20
96.323711
 30
0.0
 11
105.145556
 21
96.323711
 31
0.0
 12
104.562222
 22
99.823711
 32
0.0
 13
104.562222
 23
99.823711
 33
0.0
  0
POINT
  5
54C
330
223
100
AcDbEntity
  8
Defpoints
 62
     0
440
 16777216
100
AcDbPoint
 10
127.613008
 20
104.823711
 30
0.0
  0
POINT
  5
54D
330
223
100
AcDbEntity
  8
Defpoints
 62
     0
440
 16777216
100
AcDbPoint
 10
127.613008
 20
99.823711
 30
0.0
  0
POINT
  5
54E
330
223
100
AcDbEntity
  8
Defpoints
 62
     0
440
 16777216
100
AcDbPoint
 10
104.562222
 20
99.823711
 30
0.0
  0
ENDBLK
  5
225
330
223
100
AcDbEntity
  8
0
100
AcDbBlockEnd
  0
BLOCK
  5
235
330
234
100
AcDbEntity
  8
0
100
AcDbBlockBegin
  2
*D20
 70
     1
 10
0.0
 20
0.0
 30
0.0
  3
*D20
  1

  0
LINE
  5
54F
330
234
100
AcDbEntity
  8
Dimensions
440
 16777216
370
    -2
100
AcDbLine
 10
286.841096
 20
253.527146
 30
0.0
 11
277.424933
 21
245.846984
 31
0.0
  0
MTEXT
  5
550
330
234
100
AcDbEntity
  8
Dimensions
440
 16777216
100
AcDbMText
 10
281.411561
 20
253.340339
 30
0.0
 40
3.5
 41
0.0
 46
0.0
 71
     5
 72
     1
  1
R8
 11
0.774923
 21
0.632055
 31
0.0
 73
     1
 44
1.0
  0
LINE
  5
551
330
234
100
AcDbEntity
  8
Dimensions
440
 16777216
370
    -2
100
AcDbLine
 10
271.613008
 20
241.106569
 30
0.0
 11
274.712701
 21
243.63479
 31
0.0
  0
SOLID
  5
552
330
234
100
AcDbEntity
  8
Dimensions
440
 16777216
100
AcDbTrace
 10
277.056234
 20
246.299023
 30
0.0
 11
277.793632
 21
245.394945
 31
0.0
 12
274.712701
 22
243.63479
 32
0.0
 13
274.712701
 23
243.63479
 33
0.0
  0
POINT
  5
553
330
234
100
AcDbEntity
  8
Defpoints
 62
     0
440
 16777216
100
AcDbPoint
 10
274.712701
 20
243.63479
 30
0.0
  0
POINT
  5
554
330
234
100
AcDbEntity
  8
Defpoints
 62
     0
440
 16777216
100
AcDbPoint
 10
271.613008
 20
241.106569
 30
0.0
  0
ENDBLK
  5
236
330
234
100
AcDbEntity
  8
0
100
AcDbBlockEnd
  0
BLOCK
  5
23E
330
23D
100
AcDbEntity
  8
0
100
AcDbBlockBegin
  2
*D21
 70
     1
 10
0.0
 20
0.0
 30
0.0
  3
*D21
  1

  0
LINE
  5
555
330
23D
100
AcDbEntity
  8
Dimensions
440
 16777216
370
    -2
100
AcDbLine
 10
322.552011
 20
182.34937
 30
0.0
 11
275.081459
 21
205.673977
 31
0.0
  0
LINE
  5
556
330
23D
100
AcDbEntity
  8
Dimensions
440
 16777216
370
    -2
100
AcDbLine
 10
263.144557
 20
211.539161
 30
0.0
 11
260.003268
 21
213.082631
 31
0.0
  0
MTEXT
  5
557
330
23D
100
AcDbEntity
  8
Dimensions
440
 16777216
100
AcDbMText
 10
311.321454
 20
191.638911
 30
0.0
 40
3.5
 41
0.0
 46
0.0
 71
     5
 72
     1
  1
12.6 x 90%%D
 11
0.897511
 21
-0.440991
 31
0.0
 73
     1
 44
1.0
  0
LINE
  5
558
330
23D
100
AcDbEntity
  8
Dimensions
440
 16777216
370
    -2
100
AcDbLine
 10
266.285847
 20
209.995692
 30
0.0
 11
271.940169
 21
207.217447
 31
0.0
  0
SOLID
  5
559
330
23D
100
AcDbEntity
  8
Dimensions
440
 16777216
100
AcDbTrace
 10
263.401802
 20
212.06271
 30
0.0
 11
262.887313
 21
211.015613
 31
0.0
 12
266.285847
 22
209.995692
 32
0.0
 13
266.285847
 23
209.995692
 33
0.0
  0
SOLID
  5
55A
330
23D
100
AcDbEntity
  8
Dimensions
440
 16777216
100
AcDbTrace
 10
275.338704
 20
206.197525
 30
0.0
 11
274.824214
 21
205.150429
 31
0.0
 12
271.940169
 22
207.217447
 32
0.0
 13
271.940169
 23
207.217447
 33
0.0
  0
POINT
  5
55B
330
23D
100
AcDbEntity
  8
Defpoints
 62
     0
440
 16777216
100
AcDbPoint
 10
271.940169
 20
207.217447
 30
0.0
  0
POINT
  5
55C
330
23D
100
AcDbEntity
  8
Defpoints
 62
     0
440
 16777216
100
AcDbPoint
 10
266.285847
 20
209.995692
 30
0.0
  0
ENDBLK
  5
23F
330
23D
100
AcDbEntity
  8
0
100
AcDbBlockEnd
  0
BLOCK
  5
249
330
248
100
AcDbEntity
  8
0
100
AcDbBlockBegin
  2
*D22
 70
     1
 10
0.0
 20
0.0
 30
0.0
  3
*D22
  1

  0
LINE
  5
55D
330
248
100
AcDbEntity
  8
Dimensions
440
 16777216
370
    -2
100
AcDbLine
 10
294.941863
 20
218.067767
 30
0.0
 11
274.042687
 21
210.412327
 31
0.0
  0
LINE
  5
55E
330
248
100
AcDbEntity
  8
Dimensions
440
 16777216
370
    -2
100
AcDbLine
 10
264.183329
 20
206.800811
 30
0.0
 11
260.896876
 21
205.596972
 31
0.0
  0
MTEXT
  5
55F
330
248
100
AcDbEntity
  8
Dimensions
440
 16777216
100
AcDbMText
 10
284.971255
 20
218.020333
 30
0.0
 40
3.5
 41
0.0
 46
0.0
 71
     5
 72
     1
  1
7 Thu
 11
0.938987
 21
0.343954
 31
0.0
 73
     1
 44
1.0
  0
LINE
  5
560
330
248
100
AcDbEntity
  8
Dimensions
440
 16777216
370
    -2
100
AcDbLine
 10
267.469782
 20
208.00465
 30
0.0
 11
270.756235
 21
209.208489
 31
0.0
  0
SOLID
  5
561
330
248
100
AcDbEntity
  8
Dimensions
440
 16777216
100
AcDbTrace
 10
263.982689
 20
207.348553
 30
0.0
 11
264.383969
 21
206.253069
 31
0.0
 12
267.469782
 22
208.00465
 32
0.0
 13
267.469782
 23
208.00465
 33
0.0
  0
SOLID
  5
562
330
248
100
AcDbEntity
  8
Dimensions
440
 16777216
100
AcDbTrace
 10
273.842048
 20
210.96007
 30
0.0
 11
274.243327
 21
209.864585
 31
0.0
 12
270.756235
 22
209.208489
 32
0.0
 13
270.756235
 23
209.208489
 33
0.0
  0
POINT
  5
563
330
248
100
AcDbEntity
  8
Defpoints
 62
     0
440
 16777216
100
AcDbPoint
 10
270.756235
 20
209.208489
 30
0.0
  0
POINT
  5
564
330
248
100
AcDbEntity
  8
Defpoints
 62
     0
440
 16777216
100
AcDbPoint
 10
267.469782
 20
208.00465
 30
0.0
  0
ENDBLK
  5
24A
330
248
100
AcDbEntity
  8
0
100
AcDbBlockEnd
  0
BLOCK
  5
254
330
253
100
AcDbEntity
  8
0
100
AcDbBlockBegin
  2
*D23
 70
     1
 10
0.0
 20
0.0
 30
0.0
  3
*D23
  1

  0
LINE
  5
565
330
253
100
AcDbEntity
  8
Dimensions
440
 16777216
370
    -2
100
AcDbLine
 10
269.113008
 20
210.606569
 30
0.0
 11
269.113008
 21
227.134843
 31
0.0
  0
LINE
  5
566
330
253
100
AcDbEntity
  8
Dimensions
440
 16777216
370
    -2
100
AcDbLine
 10
265.613008
 20
225.134843
 30
0.0
 11
262.113008
 21
225.134843
 31
0.0
  0
LINE
  5
567
330
253
100
AcDbEntity
  8
Dimensions
440
 16777216
370
    -2
100
AcDbLine
 10
279.113008
 20
225.134843
 30
0.0
 11
282.613008
 21
225.134843
 31
0.0
  0
LINE
  5
568
330
253
100
AcDbEntity
  8
Dimensions
440
 16777216
370
    -2
100
AcDbLine
 10
272.363008
 20
225.134843
 30
0.0
 11
274.174468
 21
231.173042
 31
0.0
  0
LINE
  5
569
330
253
100
AcDbEntity
  8
Dimensions
440
 16777216
370
    -2
100
AcDbLine
 10
274.174468
 20
231.173042
 30
0.0
 11
281.858643
 21
231.173042
 31
0.0
  0
MTEXT
  5
56A
330
253
100
AcDbEntity
  8
Dimensions
440
 16777216
100
AcDbMText
 10
278.016555
 20
234.461242
 30
0.0
 40
3.5
 41
0.0
 46
0.0
 71
     5
 72
     1
  1
13
 73
     1
 44
1.0
  0
LINE
  5
56B
330
253
100
AcDbEntity
  8
Dimensions
440
 16777216
370
    -2
100
AcDbLine
 10
269.113008
 20
225.134843
 30
0.0
 11
275.613008
 21
225.134843
 31
0.0
  0
LINE
  5
56C
330
253
100
AcDbEntity
  8
Dimensions
440
 16777216
370
    -2
100
AcDbLine
 10
269.113008
 20
225.134843
 30
0.0
 11
275.613008
 21
225.134843
 31
0.0
  0
SOLID
  5
56D
330
253
100
AcDbEntity
  8
Dimensions
440
 16777216
100
AcDbTrace
 10
265.613008
 20
225.718177
 30
0.0
 11
265.613008
 21
224.55151
 31
0.0
 12
269.113008
 22
225.134843
 32
0.0
 13
269.113008
 23
225.134843
 33
0.0
  0
SOLID
  5
56E
330
253
100
AcDbEntity
  8
Dimensions
440
 16777216
100
AcDbTrace
 10
279.113008
 20
225.718177
 30
0.0
 11
279.113008
 21
224.55151
 31
0.0
 12
275.613008
 22
225.134843
 32
0.0
 13
275.613008
 23
225.134843
 33
0.0
  0
POINT
  5
56F
330
253
100
AcDbEntity
  8
Defpoints
 62
     0
440
 16777216
100
AcDbPoint
 10
269.113008
 20
208.606569
 30
0.0
  0
POINT
  5
570
330
253
100
AcDbEntity
  8
Defpoints
 62
     0
440
 16777216
100
AcDbPoint
 10
275.613008
 20
225.134843
 30
0.0
  0
POINT
  5
571
330
253
100
AcDbEntity
  8
Defpoints
 62
     0
440
 16777216
100
AcDbPoint
 10
275.613008
 20
225.134843
 30
0.0
  0
ENDBLK
  5
255
330
253
100
AcDbEntity
  8
0
100
AcDbBlockEnd
  0
BLOCK
  5
264
330
263
100
AcDbEntity
  8
0
100
AcDbBlockBegin
  2
*D24
 70
     1
 10
0.0
 20
0.0
 30
0.0
  3
*D24
  1

  0
LINE
  5
572
330
263
100
AcDbEntity
  8
Dimensions
440
 16777216
370
    -2
100
AcDbLine
 10
267.113008
 20
208.606569
 30
0.0
 11
247.024365
 21
208.606569
 31
0.0
  0
LINE
  5
573
330
263
100
AcDbEntity
  8
Dimensions
440
 16777216
370
    -2
100
AcDbLine
 10
249.395191
 20
172.106569
 30
0.0
 11
251.024365
 21
172.106569
 31
0.0
  0
LINE
  5
574
330
263
100
AcDbEntity
  8
Dimensions
440
 16777216
370
    -2
100
AcDbLine
 10
249.024365
 20
205.106569
 30
0.0
 11
249.024365
 21
175.606569
 31
0.0
  0
SOLID
  5
575
330
263
100
AcDbEntity
  8
Dimensions
440
 16777216
100
AcDbTrace
 10
248.441032
 20
205.106569
 30
0.0
 11
249.607698
 21
205.106569
 31
0.0
 12
249.024365
 22
208.606569
 32
0.0
 13
249.024365
 23
208.606569
 33
0.0
  0
SOLID
  5
576
330
263
100
AcDbEntity
  8
Dimensions
440
 16777216
100
AcDbTrace
 10
248.441032
 20
175.606569
 30
0.0
 11
249.607698
 21
175.606569
 31
0.0
 12
249.024365
 22
172.106569
 32
0.0
 13
249.024365
 23
172.106569
 33
0.0
  0
MTEXT
  5
577
330
263
100
AcDbEntity
  8
Dimensions
440
 16777216
100
AcDbMText
 10
245.736166
 20
190.356569
 30
0.0
 40
3.5
 41
0.0
 46
0.0
 71
     5
 72
     1
  1
73
 11
0.0
 21
1.0
 31
0.0
 73
     1
 44
1.0
  0
POINT
  5
578
330
263
100
AcDbEntity
  8
Defpoints
 62
     0
440
 16777216
100
AcDbPoint
 10
269.113008
 20
208.606569
 30
0.0
  0
POINT
  5
579
330
263
100
AcDbEntity
  8
Defpoints
 62
     0
440
 16777216
100
AcDbPoint
 10
247.395191
 20
172.106569
 30
0.0
  0
POINT
  5
57A
330
263
100
AcDbEntity
  8
Defpoints
 62
     0
440
 16777216
100
AcDbPoint
 10
249.024365
 20
172.106569
 30
0.0
  0
ENDBLK
  5
265
330
263
100
AcDbEntity
  8
0
100
AcDbBlockEnd
  0
BLOCK
  5
270
330
26F
100
AcDbEntity
  8
0
100
AcDbBlockBegin
  2
*D25
 70
     1
 10
0.0
 20
0.0
 30
0.0
  3
*D25
  1

  0
LINE
  5
57B
330
26F
100
AcDbEntity
  8
Dimensions
440
 16777216
370
    -2
100
AcDbLine
 10
153.488042
 20
184.871592
 30
0.0
 11
137.189165
 21
181.325929
 31
0.0
  0
LINE
  5
57C
330
26F
100
AcDbEntity
  8
Dimensions
440
 16777216
370
    -2
100
AcDbLine
 10
128.736851
 20
179.487209
 30
0.0
 11
125.31684
 21
178.743219
 31
0.0
  0
MTEXT
  5
57D
330
26F
100
AcDbEntity
  8
Dimensions
440
 16777216
100
AcDbMText
 10
146.329088
 20
186.778289
 30
0.0
 40
3.5
 41
0.0
 46
0.0
 71
     5
 72
     1
  1
3.3
 11
0.977146
 21
0.212569
 31
0.0
 73
     1
 44
1.0
  0
LINE
  5
57E
330
26F
100
AcDbEntity
  8
Dimensions
440
 16777216
370
    -2
100
AcDbLine
 10
132.156863
 20
180.2312
 30
0.0
 11
133.769154
 21
180.581938
 31
0.0
  0
SOLID
  5
57F
330
26F
100
AcDbEntity
  8
Dimensions
440
 16777216
100
AcDbTrace
 10
128.612853
 20
180.057211
 30
0.0
 11
128.86085
 21
178.917208
 31
0.0
 12
132.156863
 22
180.2312
 32
0.0
 13
132.156863
 23
180.2312
 33
0.0
  0
SOLID
  5
580
330
26F
100
AcDbEntity
  8
Dimensions
440
 16777216
100
AcDbTrace
 10
137.065167
 20
181.895931
 30
0.0
 11
137.313164
 21
180.755927
 31
0.0
 12
133.769154
 22
180.581938
 32
0.0
 13
133.769154
 23
180.581938
 33
0.0
  0
POINT
  5
581
330
26F
100
AcDbEntity
  8
Defpoints
 62
     0
440
 16777216
100
AcDbPoint
 10
133.769154
 20
180.581938
 30
0.0
  0
POINT
  5
582
330
26F
100
AcDbEntity
  8
Defpoints
 62
     0
440
 16777216
100
AcDbPoint
 10
132.156863
 20
180.2312
 30
0.0
  0
ENDBLK
  5
271
330
26F
100
AcDbEntity
  8
0
100
AcDbBlockEnd
  0
BLOCK
  5
27B
330
27A
100
AcDbEntity
  8
0
100
AcDbBlockBegin
  2
*D26
 70
     1
 10
0.0
 20
0.0
 30
0.0
  3
*D26
  1

  0
LINE
  5
583
330
27A
100
AcDbEntity
  8
Dimensions
440
 16777216
370
    -2
100
AcDbLine
 10
130.963008
 20
180.406569
 30
0.0
 11
111.164018
 21
180.406569
 31
0.0
  0
LINE
  5
584
330
27A
100
AcDbEntity
  8
Dimensions
440
 16777216
370
    -2
100
AcDbLine
 10
129.613008
 20
172.106569
 30
0.0
 11
111.164018
 21
172.106569
 31
0.0
  0
LINE
  5
585
330
27A
100
AcDbEntity
  8
Dimensions
440
 16777216
370
    -2
100
AcDbLine
 10
113.164018
 20
183.906569
 30
0.0
 11
113.164018
 21
187.406569
 31
0.0
  0
LINE
  5
586
330
27A
100
AcDbEntity
  8
Dimensions
440
 16777216
370
    -2
100
AcDbLine
 10
113.164018
 20
168.606569
 30
0.0
 11
113.164018
 21
165.106569
 31
0.0
  0
LINE
  5
587
330
27A
100
AcDbEntity
  8
Dimensions
440
 16777216
370
    -2
100
AcDbLine
 10
113.164018
 20
176.256569
 30
0.0
 11
107.127013
 21
178.067671
 31
0.0
  0
LINE
  5
588
330
27A
100
AcDbEntity
  8
Dimensions
440
 16777216
370
    -2
100
AcDbLine
 10
107.127013
 20
178.067671
 30
0.0
 11
107.127013
 21
189.827221
 31
0.0
  0
MTEXT
  5
589
330
27A
100
AcDbEntity
  8
Dimensions
440
 16777216
100
AcDbMText
 10
103.840007
 20
183.947446
 30
0.0
 40
3.5
 41
0.0
 46
0.0
 71
     5
 72
     1
  1
16.6
 11
0.0
 21
1.0
 31
0.0
 73
     1
 44
1.0
  0
LINE
  5
58A
330
27A
100
AcDbEntity
  8
Dimensions
440
 16777216
370
    -2
100
AcDbLine
 10
113.164018
 20
180.406569
 30
0.0
 11
113.164018
 21
172.106569
 31
0.0
  0
LINE
  5
58B
330
27A
100
AcDbEntity
  8
Dimensions
440
 16777216
370
    -2
100
AcDbLine
 10
113.164018
 20
180.406569
 30
0.0
 11
113.164018
 21
172.106569
 31
0.0
  0
SOLID
  5
58C
330
27A
100
AcDbEntity
  8
Dimensions
440
 16777216
100
AcDbTrace
 10
112.580685
 20
183.906569
 30
0.0
 11
113.747352
 21
183.906569
 31
0.0
 12
113.164018
 22
180.406569
 32
0.0
 13
113.164018
 23
180.406569
 33
0.0
  0
SOLID
  5
58D
330
27A
100
AcDbEntity
  8
Dimensions
440
 16777216
100
AcDbTrace
 10
112.580685
 20
168.606569
 30
0.0
 11
113.747352
 21
168.606569
 31
0.0
 12
113.164018
 22
172.106569
 32
0.0
 13
113.164018
 23
172.106569
 33
0.0
  0
POINT
  5
58E
330
27A
100
AcDbEntity
  8
Defpoints
 62
     0
440
 16777216
100
AcDbPoint
 10
132.963008
 20
180.406569
 30
0.0
  0
POINT
  5
58F
330
27A
100
AcDbEntity
  8
Defpoints
 62
     0
440
 16777216
100
AcDbPoint
 10
131.613008
 20
172.106569
 30
0.0
  0
POINT
  5
590
330
27A
100
AcDbEntity
  8
Defpoints
 62
     0
440
 16777216
100
AcDbPoint
 10
113.164018
 20
172.106569
 30
0.0
  0
ENDBLK
  5
27C
330
27A
100
AcDbEntity
  8
0
100
AcDbBlockEnd
  0
BLOCK
  5
28C
330
28B
100
AcDbEntity
  8
0
100
AcDbBlockBegin
  2
*D27
 70
     1
 10
0.0
 20
0.0
 30
0.0
  3
*D27
  1

  0
LINE
  5
591
330
28B
100
AcDbEntity
  8
Dimensions
440
 16777216
370
    -2
100
AcDbLine
 10
132.963008
 20
178.406569
 30
0.0
 11
132.963008
 21
167.4086
 31
0.0
  0
LINE
  5
592
330
28B
100
AcDbEntity
  8
Dimensions
440
 16777216
370
    -2
100
AcDbLine
 10
127.613008
 20
174.106569
 30
0.0
 11
127.613008
 21
167.4086
 31
0.0
  0
LINE
  5
593
330
28B
100
AcDbEntity
  8
Dimensions
440
 16777216
370
    -2
100
AcDbLine
 10
136.463008
 20
169.4086
 30
0.0
 11
139.963008
 21
169.4086
 31
0.0
  0
LINE
  5
594
330
28B
100
AcDbEntity
  8
Dimensions
440
 16777216
370
    -2
100
AcDbLine
 10
124.113008
 20
169.4086
 30
0.0
 11
120.613008
 21
169.4086
 31
0.0
  0
LINE
  5
595
330
28B
100
AcDbEntity
  8
Dimensions
440
 16777216
370
    -2
100
AcDbLine
 10
130.288008
 20
169.4086
 30
0.0
 11
133.171313
 21
159.797584
 31
0.0
  0
LINE
  5
596
330
28B
100
AcDbEntity
  8
Dimensions
440
 16777216
370
    -2
100
AcDbLine
 10
133.171313
 20
159.797584
 30
0.0
 11
144.93325
 21
159.797584
 31
0.0
  0
MTEXT
  5
597
330
28B
100
AcDbEntity
  8
Dimensions
440
 16777216
100
AcDbMText
 10
139.052282
 20
163.084589
 30
0.0
 40
3.5
 41
0.0
 46
0.0
 71
     5
 72
     1
  1
10.7
 73
     1
 44
1.0
  0
LINE
  5
598
330
28B
100
AcDbEntity
  8
Dimensions
440
 16777216
370
    -2
100
AcDbLine
 10
132.963008
 20
169.4086
 30
0.0
 11
127.613008
 21
169.4086
 31
0.0
  0
LINE
  5
599
330
28B
100
AcDbEntity
  8
Dimensions
440
 16777216
370
    -2
100
AcDbLine
 10
132.963008
 20
169.4086
 30
0.0
 11
127.613008
 21
169.4086
 31
0.0
  0
SOLID
  5
59A
330
28B
100
AcDbEntity
  8
Dimensions
440
 16777216
100
AcDbTrace
 10
136.463008
 20
169.991933
 30
0.0
 11
136.463008
 21
168.825267
 31
0.0
 12
132.963008
 22
169.4086
 32
0.0
 13
132.963008
 23
169.4086
 33
0.0
  0
SOLID
  5
59B
330
28B
100
AcDbEntity
  8
Dimensions
440
 16777216
100
AcDbTrace
 10
124.113008
 20
169.991933
 30
0.0
 11
124.113008
 21
168.825267
 31
0.0
 12
127.613008
 22
169.4086
 32
0.0
 13
127.613008
 23
169.4086
 33
0.0
  0
POINT
  5
59C
330
28B
100
AcDbEntity
  8
Defpoints
 62
     0
440
 16777216
100
AcDbPoint
 10
132.963008
 20
180.406569
 30
0.0
  0
POINT
  5
59D
330
28B
100
AcDbEntity
  8
Defpoints
 62
     0
440
 16777216
100
AcDbPoint
 10
127.613008
 20
176.106569
 30
0.0
  0
POINT
  5
59E
330
28B
100
AcDbEntity
  8
Defpoints
 62
     0
440
 16777216
100
AcDbPoint
 10
127.613008
 20
169.4086
 30
0.0
  0
ENDBLK
  5
28D
330
28B
100
AcDbEntity
  8
0
100
AcDbBlockEnd
  0
BLOCK
  5
29D
330
29C
100
AcDbEntity
  8
0
100
AcDbBlockBegin
  2
*D28
 70
     1
 10
0.0
 20
0.0
 30
0.0
  3
*D28
  1

  0
LINE
  5
59F
330
29C
100
AcDbEntity
  8
Dimensions
440
 16777216
370
    -2
100
AcDbLine
 10
130.963008
 20
180.406569
 30
0.0
 11
83.424461
 21
180.406569
 31
0.0
  0
LINE
  5
5A0
330
29C
100
AcDbEntity
  8
Dimensions
440
 16777216
370
    -2
100
AcDbLine
 10
130.963008
 20
196.306569
 30
0.0
 11
83.424461
 21
196.306569
 31
0.0
  0
LINE
  5
5A1
330
29C
100
AcDbEntity
  8
Dimensions
440
 16777216
370
    -2
100
AcDbLine
 10
85.424461
 20
183.906569
 30
0.0
 11
85.424461
 21
192.806569
 31
0.0
  0
SOLID
  5
5A2
330
29C
100
AcDbEntity
  8
Dimensions
440
 16777216
100
AcDbTrace
 10
84.841128
 20
183.906569
 30
0.0
 11
86.007795
 21
183.906569
 31
0.0
 12
85.424461
 22
180.406569
 32
0.0
 13
85.424461
 23
180.406569
 33
0.0
  0
SOLID
  5
5A3
330
29C
100
AcDbEntity
  8
Dimensions
440
 16777216
100
AcDbTrace
 10
84.841128
 20
192.806569
 30
0.0
 11
86.007795
 21
192.806569
 31
0.0
 12
85.424461
 22
196.306569
 32
0.0
 13
85.424461
 23
196.306569
 33
0.0
  0
MTEXT
  5
5A4
330
29C
100
AcDbEntity
  8
Dimensions
440
 16777216
100
AcDbMText
 10
82.136262
 20
188.356569
 30
0.0
 40
3.5
 41
0.0
 46
0.0
 71
     5
 72
     1
  1
31.8
 11
0.0
 21
1.0
 31
0.0
 73
     1
 44
1.0
  0
POINT
  5
5A5
330
29C
100
AcDbEntity
  8
Defpoints
 62
     0
440
 16777216
100
AcDbPoint
 10
132.963008
 20
180.406569
 30
0.0
  0
POINT
  5
5A6
330
29C
100
AcDbEntity
  8
Defpoints
 62
     0
440
 16777216
100
AcDbPoint
 10
132.963008
 20
196.306569
 30
0.0
  0
POINT
  5
5A7
330
29C
100
AcDbEntity
  8
Defpoints
 62
     0
440
 16777216
100
AcDbPoint
 10
85.424461
 20
196.306569
 30
0.0
  0
ENDBLK
  5
29E
330
29C
100
AcDbEntity
  8
0
100
AcDbBlockEnd
  0
BLOCK
  5
2A9
330
2A8
100
AcDbEntity
  8
0
100
AcDbBlockBegin
  2
*D29
 70
     1
 10
0.0
 20
0.0
 30
0.0
  3
*D29
  1

  0
LINE
  5
5A8
330
2A8
100
AcDbEntity
  8
Dimensions
440
 16777216
370
    -2
100
AcDbLine
 10
130.963008
 20
196.306569
 30
0.0
 11
69.050372
 21
196.306569
 31
0.0
  0
LINE
  5
5A9
330
2A8
100
AcDbEntity
  8
Dimensions
440
 16777216
370
    -2
100
AcDbLine
 10
130.963008
 20
220.906569
 30
0.0
 11
69.050372
 21
220.906569
 31
0.0
  0
LINE
  5
5AA
330
2A8
100
AcDbEntity
  8
Dimensions
440
 16777216
370
    -2
100
AcDbLine
 10
71.050372
 20
199.806569
 30
0.0
 11
71.050372
 21
217.406569
 31
0.0
  0
SOLID
  5
5AB
330
2A8
100
AcDbEntity
  8
Dimensions
440
 16777216
100
AcDbTrace
 10
70.467039
 20
199.806569
 30
0.0
 11
71.633706
 21
199.806569
 31
0.0
 12
71.050372
 22
196.306569
 32
0.0
 13
71.050372
 23
196.306569
 33
0.0
  0
SOLID
  5
5AC
330
2A8
100
AcDbEntity
  8
Dimensions
440
 16777216
100
AcDbTrace
 10
70.467039
 20
217.406569
 30
0.0
 11
71.633706
 21
217.406569
 31
0.0
 12
71.050372
 22
220.906569
 32
0.0
 13
71.050372
 23
220.906569
 33
0.0
  0
MTEXT
  5
5AD
330
2A8
100
AcDbEntity
  8
Dimensions
440
 16777216
100
AcDbMText
 10
67.763367
 20
208.606569
 30
0.0
 40
3.5
 41
0.0
 46
0.0
 71
     5
 72
     1
  1
49.2
 11
0.0
 21
1.0
 31
0.0
 73
     1
 44
1.0
  0
POINT
  5
5AE
330
2A8
100
AcDbEntity
  8
Defpoints
 62
     0
440
 16777216
100
AcDbPoint
 10
132.963008
 20
196.306569
 30
0.0
  0
POINT
  5
5AF
330
2A8
100
AcDbEntity
  8
Defpoints
 62
     0
440
 16777216
100
AcDbPoint
 10
132.963008
 20
220.906569
 30
0.0
  0
POINT
  5
5B0
330
2A8
100
AcDbEntity
  8
Defpoints
 62
     0
440
 16777216
100
AcDbPoint
 10
71.050372
 20
220.906569
 30
0.0
  0
ENDBLK
  5
2AA
330
2A8
100
AcDbEntity
  8
0
100
AcDbBlockEnd
  0
BLOCK
  5
2B5
330
2B4
100
AcDbEntity
  8
0
100
AcDbBlockBegin
  2
*D30
 70
     1
 10
0.0
 20
0.0
 30
0.0
  3
*D30
  1

  0
LINE
  5
5B1
330
2B4
100
AcDbEntity
  8
Dimensions
440
 16777216
370
    -2
100
AcDbLine
 10
130.963008
 20
220.906569
 30
0.0
 11
59.173698
 21
220.906569
 31
0.0
  0
LINE
  5
5B2
330
2B4
100
AcDbEntity
  8
Dimensions
440
 16777216
370
    -2
100
AcDbLine
 10
130.963008
 20
236.806569
 30
0.0
 11
59.173698
 21
236.806569
 31
0.0
  0
LINE
  5
5B3
330
2B4
100
AcDbEntity
  8
Dimensions
440
 16777216
370
    -2
100
AcDbLine
 10
61.173698
 20
224.406569
 30
0.0
 11
61.173698
 21
233.306569
 31
0.0
  0
SOLID
  5
5B4
330
2B4
100
AcDbEntity
  8
Dimensions
440
 16777216
100
AcDbTrace
 10
60.590365
 20
224.406569
 30
0.0
 11
61.757032
 21
224.406569
 31
0.0
 12
61.173698
 22
220.906569
 32
0.0
 13
61.173698
 23
220.906569
 33
0.0
  0
SOLID
  5
5B5
330
2B4
100
AcDbEntity
  8
Dimensions
440
 16777216
100
AcDbTrace
 10
60.590365
 20
233.306569
 30
0.0
 11
61.757032
 21
233.306569
 31
0.0
 12
61.173698
 22
236.806569
 32
0.0
 13
61.173698
 23
236.806569
 33
0.0
  0
MTEXT
  5
5B6
330
2B4
100
AcDbEntity
  8
Dimensions
440
 16777216
100
AcDbMText
 10
57.885499
 20
228.856569
 30
0.0
 40
3.5
 41
0.0
 46
0.0
 71
     5
 72
     1
  1
31.8
 11
0.0
 21
1.0
 31
0.0
 73
     1
 44
1.0
  0
POINT
  5
5B7
330
2B4
100
AcDbEntity
  8
Defpoints
 62
     0
440
 16777216
100
AcDbPoint
 10
132.963008
 20
220.906569
 30
0.0
  0
POINT
  5
5B8
330
2B4
100
AcDbEntity
  8
Defpoints
 62
     0
440
 16777216
100
AcDbPoint
 10
132.963008
 20
236.806569
 30
0.0
  0
POINT
  5
5B9
330
2B4
100
AcDbEntity
  8
Defpoints
 62
     0
440
 16777216
100
AcDbPoint
 10
61.173698
 20
236.806569
 30
0.0
  0
ENDBLK
  5
2B6
330
2B4
100
AcDbEntity
  8
0
100
AcDbBlockEnd
  0
ENDSEC
  0
SECTION
  2
ENTITIES
  0
INSERT
  5
CD
330
70
100
AcDbEntity
  8
Border
100
AcDbBlockReference
  2
ISO_A3_SHEET
 10
0.0
 20
0.0
 30
0.0
  0
INSERT
  5
113
330
70
100
AcDbEntity
  8
TitleBlock
100
AcDbBlockReference
 66
     1
  2
ISO_TITLEBLOCK
 10
410.0
 20
10.0
 30
0.0
  0
ATTRIB
  5
14F
102
{ACAD_XDICTIONARY
360
506
102
}
330
113
100
AcDbEntity
  8
TitleBlock
100
AcDbText
 10
360.0
 20
11.5
 30
0.0
 40
3.5
  1

  7
FusionTitle
 11
360.0
 21
15.0
 31
0.0
100
AcDbAttribute
280
     0
  2
DATE_OF_ISSUE
 70
     0
 74
     3
280
     1
  0
ATTRIB
  5
150
102
{ACAD_XDICTIONARY
360
509
102
}
330
113
100
AcDbEntity
  8
TitleBlock
100
AcDbText
 10
348.973226
 20
11.35
 30
0.0
 40
3.5
  1

  7
FusionTitle
 72
     1
 11
354.0
 21
14.85
 31
0.0
100
AcDbAttribute
280
     0
  2
REV
 70
     0
 74
     3
280
     1
  0
ATTRIB
  5
151
102
{ACAD_XDICTIONARY
360
50C
102
}
330
113
100
AcDbEntity
  8
TitleBlock
100
AcDbText
 10
289.0
 20
11.5
 30
0.0
 40
5.0
  1

  7
FusionTitle
 11
289.0
 21
16.5
 31
0.0
100
AcDbAttribute
280
     0
  2
TITLE_3
 70
     0
 74
     3
280
     1
  0
ATTRIB
  5
152
102
{ACAD_XDICTIONARY
360
50F
102
}
330
113
100
AcDbEntity
  8
TitleBlock
100
AcDbText
 10
350.0
 20
38.5
 30
0.0
 40
3.5
  1

  7
FusionTitle
 11
350.0
 21
42.0
 31
0.0
100
AcDbAttribute
280
     0
  2
DOCUMENT_STATUS
 70
     0
 74
     3
280
     1
  0
ATTRIB
  5
153
102
{ACAD_XDICTIONARY
360
512
102
}
330
113
100
AcDbEntity
  8
TitleBlock
100
AcDbText
 10
289.0
 20
38.5
 30
0.0
 40
3.5
  1

  7
FusionTitle
 11
289.0
 21
42.0
 31
0.0
100
AcDbAttribute
280
     0
  2
DOCUMENT_TYPE
 70
     0
 74
     3
280
     1
  0
ATTRIB
  5
154
102
{ACAD_XDICTIONARY
360
515
102
}
330
113
100
AcDbEntity
  8
TitleBlock
100
AcDbText
 10
366.076057
 20
48.5
 30
0.0
 40
3.5
  1

  7
FusionTitle
 72
     2
 11
409.007162
 21
52.0
 31
0.0
100
AcDbAttribute
280
     0
  2
APPROVED_DATE
 70
     0
 74
     3
280
     1
  0
ATTRIB
  5
155
102
{ACAD_XDICTIONARY
360
518
102
}
330
113
100
AcDbEntity
  8
TitleBlock
100
AcDbText
 10
323.762619
 20
48.440314
 30
0.0
 40
3.5
  1
20/12/2020
  7
FusionTitle
100
AcDbAttribute
280
     0
  2
CREATED_DATE_001
 70
     0
280
     1
  0
ATTRIB
  5
156
102
{ACAD_XDICTIONARY
360
51B
102
}
330
113
100
AcDbEntity
  8
TitleBlock
100
AcDbText
 10
396.223397
 20
11.290314
 30
0.0
 40
3.5
  1
12/38
  7
FusionTitle
100
AcDbAttribute
280
     0
  2
SHEET_001
 70
     0
280
     1
  0
ATTRIB
  5
157
102
{ACAD_XDICTIONARY
360
51E
102
}
330
113
100
AcDbEntity
  8
TitleBlock
100
AcDbText
 10
289.0
 20
19.0
 30
0.0
 40
5.0
  1

  7
FusionTitle
 11
289.0
 21
24.0
 31
0.0
100
AcDbAttribute
280
     0
  2
TITLE_2
 70
     0
 74
     3
280
     1
  0
ATTRIB
  5
158
102
{ACAD_XDICTIONARY
360
521
102
}
330
113
100
AcDbEntity
  8
TitleBlock
100
AcDbText
 10
345.543656
 20
24.751432
 30
0.0
 40
5.0
  1

  7
FusionTitle
 72
     1
 11
379.5
 21
29.751432
 31
0.0
100
AcDbAttribute
280
     0
  2
DRAWING_NUMBER
 70
     0
 74
     3
280
     1
  0
ATTRIB
  5
159
102
{ACAD_XDICTIONARY
360
524
102
}
330
113
100
AcDbEntity
  8
TitleBlock
100
AcDbText
 10
288.387328
 20
26.414734
 30
0.0
 40
5.0
  1
Incubation-Chamber
 41
0.9405
  7
FusionTitle
100
AcDbAttribute
280
     0
  2
TITLE_1_001
 70
     0
280
     1
  0
ATTRIB
  5
15A
102
{ACAD_XDICTIONARY
360
527
102
}
330
113
100
AcDbEntity
  8
TitleBlock
100
AcDbText
 10
350.0
 20
48.5
 30
0.0
 40
3.5
  1

  7
FusionTitle
 11
350.0
 21
52.0
 31
0.0
100
AcDbAttribute
280
     0
  2
APPROVED_BY
 70
     0
 74
     3
280
     1
  0
ATTRIB
  5
15B
102
{ACAD_XDICTIONARY
360
52A
102
}
330
113
100
AcDbEntity
  8
TitleBlock
100
AcDbText
 10
288.86869
 20
48.5
 30
0.0
 40
3.5
  1
Josh Edwards
  7
FusionTitle
100
AcDbAttribute
280
     0
  2
CREATED_BY_001
 70
     0
280
     1
  0
ATTRIB
  5
15C
102
{ACAD_XDICTIONARY
360
52D
102
}
330
113
100
AcDbEntity
  8
TitleBlock
100
AcDbText
 10
255.0
 20
48.5
 30
0.0
 40
3.5
  1

  7
FusionTitle
 11
255.0
 21
52.0
 31
0.0
100
AcDbAttribute
280
     0
  2
TECHNICAL_REFERENCE
 70
     0
 74
     3
280
     1
  0
ATTRIB
  5
15D
102
{ACAD_XDICTIONARY
360
530
102
}
330
113
100
AcDbEntity
  8
TitleBlock
100
AcDbText
 10
231.0
 20
48.5
 30
0.0
 40
3.5
  1

  7
FusionTitle
 11
231.0
 21
52.0
 31
0.0
100
AcDbAttribute
280
     0
  2
DEPT
 70
     0
 74
     3
280
     1
  0
SEQEND
  5
15E
330
113
100
AcDbEntity
  8
TitleBlock
  0
DIMENSION
  5
15F
330
70
100
AcDbEntity
  8
Dimensions
100
AcDbDimension
280
     0
  2
*D18
 10
131.613008
 20
80.024721
 30
0.0
 11
201.613008
 21
83.311727
 31
0.0
 70
    32
 71
     5
 42
280.0
 73
     0
 74
     0
 75
     0
  3
ISO-25
100
AcDbAlignedDimension
 13
271.613008
 23
99.823711
 33
0.0
 14
131.613008
 24
99.823711
 34
0.0
100
AcDbRotatedDimension
1001
ACAD_DIMASSOC_CALC_DIMLFAC
1040
-2.0
1001
ACAD_DIMASSOC_DIMLFAC
1040
-2.0
1001
ACAD_DIMASSOC_OVERRIDDEN_DIMLFAC
1040
0.0
1001
ACAD
1000
DSTYLE
1002
{
1070
   144
1040
2.0
1070
   176
1070
   256
1070
   177
1070
   256
1002
}
  0
DIMENSION
  5
16D
330
70
100
AcDbEntity
  8
Dimensions
100
AcDbDimension
280
     0
  2
*D19
 10
104.562222
 20
99.823711
 30
0.0
 11
95.238212
 21
105.634813
 31
0.0
 70
    33
 71
     5
 42
10.0
 73
     0
 74
     0
 75
     0
  3
ISO-25
100
AcDbAlignedDimension
 13
127.613008
 23
104.823711
 33
0.0
 14
127.613008
 24
99.823711
 34
0.0
1001
ACAD_DIMASSOC_CALC_DIMLFAC
1040
-2.0
1001
ACAD_DIMASSOC_DIMLFAC
1040
-2.0
1001
ACAD_DIMASSOC_OVERRIDDEN_DIMLFAC
1040
0.0
1001
ACAD
1000
DSTYLE
1002
{
1070
   144
1040
2.0
1070
   176
1070
   256
1070
   177
1070
   256
1002
}
  0
DIMENSION
  5
17F
330
70
100
AcDbEntity
  8
Dimensions
100
AcDbDimension
280
     0
  2
*D20
 10
271.613008
 20
241.106569
 30
0.0
 11
281.411561
 21
253.340339
 31
0.0
 70
    36
 71
     5
 42
8.0
 73
     0
 74
     0
 75
     0
  3
ISO-25
100
AcDbRadialDimension
 15
274.712701
 25
243.63479
 35
0.0
 40
0.0
1001
ACAD_DIMASSOC_CALC_DIMLFAC
1040
-2.0
1001
ACAD_DIMASSOC_DIMLFAC
1040
-2.0
1001
ACAD_DIMASSOC_OVERRIDDEN_DIMLFAC
1040
0.0
1001
ACAD_DSTYLE_DIMRADIAL_EXTENSION
1070
   387
1070
     1
1070
   388
1040
0.0
1070
   390
1040
1.570796
1001
ACAD
1000
DSTYLE
1002
{
1070
    75
1070
     1
1070
   144
1040
2.0
1070
   176
1070
   256
1070
   177
1070
   256
1002
}
  0
DIMENSION
  5
189
330
70
100
AcDbEntity
  8
Dimensions
100
AcDbDimension
280
     0
  2
*D21
 10
266.285847
 20
209.995692
 30
0.0
 11
309.828746
 21
188.600933
 31
0.0
 70
   163
  1
<> x 90%%D
 71
     5
 42
12.6
 73
     0
 74
     0
 75
     0
  3
ISO-25
100
AcDbDiametricDimension
 15
271.940169
 25
207.217447
 35
0.0
 40
0.0
1001
ACAD_DIMASSOC_CALC_DIMLFAC
1040
-2.0
1001
ACAD_DIMASSOC_DIMLFAC
1040
-2.0
1001
ACAD_DIMASSOC_OVERRIDDEN_DIMLFAC
1040
0.0
1001
ACAD_DSTYLE_DIMRADIAL_EXTENSION
1070
   387
1070
     1
1070
   388
1040
0.0
1070
   390
1040
0.0
1001
ACAD
1000
DSTYLE
1002
{
1070
   144
1040
2.0
1070
   176
1070
   256
1070
   177
1070
   256
1002
}
  0
DIMENSION
  5
195
330
70
100
AcDbEntity
  8
Dimensions
100
AcDbDimension
280
     0
  2
*D22
 10
267.469782
 20
208.00465
 30
0.0
 11
284.971255
 21
218.020333
 31
0.0
 70
    35
  1
<> Thu
 71
     5
 42
7.0
 73
     0
 74
     0
 75
     0
  3
ISO-25
100
AcDbDiametricDimension
 15
270.756235
 25
209.208489
 35
0.0
 40
0.0
1001
ACAD_DIMASSOC_CALC_DIMLFAC
1040
-2.0
1001
ACAD_DIMASSOC_DIMLFAC
1040
-2.0
1001
ACAD_DIMASSOC_OVERRIDDEN_DIMLFAC
1040
0.0
1001
ACAD_DSTYLE_DIMRADIAL_EXTENSION
1070
   387
1070
     1
1070
   388
1040
0.0
1070
   390
1040
0.0
1001
ACAD
1000
DSTYLE
1002
{
1070
   144
1040
2.0
1070
   176
1070
   256
1070
   177
1070
   256
1002
}
  0
DIMENSION
  5
1A1
330
70
100
AcDbEntity
  8
Dimensions
100
AcDbDimension
280
     0
  2
*D23
 10
275.613008
 20
225.134843
 30
0.0
 11
275.674468
 21
234.461242
 31
0.0
 70
    32
 71
     5
 42
13.0
 73
     0
 74
     0
 75
     0
  3
ISO-25
100
AcDbAlignedDimension
 13
269.113008
 23
208.606569
 33
0.0
 14
275.613008
 24
225.134843
 34
0.0
 50
180.0
100
AcDbRotatedDimension
1001
ACAD_DIMASSOC_CALC_DIMLFAC
1040
-2.0
1001
ACAD_DIMASSOC_DIMLFAC
1040
-2.0
1001
ACAD_DIMASSOC_OVERRIDDEN_DIMLFAC
1040
0.0
1001
ACAD
1000
DSTYLE
1002
{
1070
   144
1040
2.0
1070
   176
1070
   256
1070
   177
1070
   256
1002
}
  0
DIMENSION
  5
1B2
330
70
100
AcDbEntity
  8
Dimensions
100
AcDbDimension
280
     0
  2
*D24
 10
249.024365
 20
172.106569
 30
0.0
 11
245.736166
 21
190.356569
 31
0.0
 70
    32
 71
     5
 42
73.0
 73
     0
 74
     0
 75
     0
  3
ISO-25
100
AcDbAlignedDimension
 13
269.113008
 23
208.606569
 33
0.0
 14
247.395191
 24
172.106569
 34
0.0
 50
90.0
100
AcDbRotatedDimension
1001
ACAD_DIMASSOC_CALC_DIMLFAC
1040
-2.0
1001
ACAD_DIMASSOC_DIMLFAC
1040
-2.0
1001
ACAD_DIMASSOC_OVERRIDDEN_DIMLFAC
1040
0.0
1001
ACAD
1000
DSTYLE
1002
{
1070
   144
1040
2.0
1070
   176
1070
   256
1070
   177
1070
   256
1002
}
  0
DIMENSION
  5
1BF
330
70
100
AcDbEntity
  8
Dimensions
100
AcDbDimension
280
     0
  2
*D25
 10
132.156863
 20
180.2312
 30
0.0
 11
147.04861
 21
183.470756
 31
0.0
 70
    35
 71
     5
 42
3.3
 73
     0
 74
     0
 75
     0
  3
ISO-25
100
AcDbDiametricDimension
 15
133.769154
 25
180.581938
 35
0.0
 40
0.0
1001
ACAD_DIMASSOC_CALC_DIMLFAC
1040
-2.0
1001
ACAD_DIMASSOC_DIMLFAC
1040
-2.0
1001
ACAD_DIMASSOC_OVERRIDDEN_DIMLFAC
1040
0.0
1001
ACAD_DSTYLE_DIMRADIAL_EXTENSION
1070
   387
1070
     1
1070
   388
1040
0.0
1070
   390
1040
0.0
1001
ACAD
1000
DSTYLE
1002
{
1070
   144
1040
2.0
1070
   176
1070
   256
1070
   177
1070
   256
1002
}
  0
DIMENSION
  5
1CB
330
70
100
AcDbEntity
  8
Dimensions
100
AcDbDimension
280
     0
  2
*D26
 10
113.164018
 20
172.106569
 30
0.0
 11
103.840007
 21
179.567671
 31
0.0
 70
    32
 71
     5
 42
16.6
 73
     0
 74
     0
 75
     0
  3
ISO-25
100
AcDbAlignedDimension
 13
132.963008
 23
180.406569
 33
0.0
 14
131.613008
 24
172.106569
 34
0.0
 50
90.0
100
AcDbRotatedDimension
1001
ACAD_DIMASSOC_CALC_DIMLFAC
1040
-2.0
1001
ACAD_DIMASSOC_DIMLFAC
1040
-2.0
1001
ACAD_DIMASSOC_OVERRIDDEN_DIMLFAC
1040
0.0
1001
ACAD
1000
DSTYLE
1002
{
1070
   144
1040
2.0
1070
   176
1070
   256
1070
   177
1070
   256
1002
}
  0
DIMENSION
  5
1DD
330
70
100
AcDbEntity
  8
Dimensions
100
AcDbDimension
280
     0
  2
*D27
 10
127.613008
 20
169.4086
 30
0.0
 11
134.671313
 21
163.084589
 31
0.0
 70
    32
 71
     5
 42
10.7
 73
     0
 74
     0
 75
     0
  3
ISO-25
100
AcDbAlignedDimension
 13
132.963008
 23
180.406569
 33
0.0
 14
127.613008
 24
176.106569
 34
0.0
100
AcDbRotatedDimension
1001
ACAD_DIMASSOC_CALC_DIMLFAC
1040
-2.0
1001
ACAD_DIMASSOC_DIMLFAC
1040
-2.0
1001
ACAD_DIMASSOC_OVERRIDDEN_DIMLFAC
1040
0.0
1001
ACAD
1000
DSTYLE
1002
{
1070
   144
1040
2.0
1070
   176
1070
   256
1070
   177
1070
   256
1002
}
  0
DIMENSION
  5
1EF
330
70
100
AcDbEntity
  8
Dimensions
100
AcDbDimension
280
     0
  2
*D28
 10
85.424461
 20
196.306569
 30
0.0
 11
82.136262
 21
188.356569
 31
0.0
 70
    33
 71
     5
 42
31.8
 73
     0
 74
     0
 75
     0
  3
ISO-25
100
AcDbAlignedDimension
 13
132.963008
 23
180.406569
 33
0.0
 14
132.963008
 24
196.306569
 34
0.0
1001
ACAD_DIMASSOC_CALC_DIMLFAC
1040
-2.0
1001
ACAD_DIMASSOC_DIMLFAC
1040
-2.0
1001
ACAD_DIMASSOC_OVERRIDDEN_DIMLFAC
1040
0.0
1001
ACAD
1000
DSTYLE
1002
{
1070
   144
1040
2.0
1070
   176
1070
   256
1070
   177
1070
   256
1002
}
  0
DIMENSION
  5
1FC
330
70
100
AcDbEntity
  8
Dimensions
100
AcDbDimension
280
     0
  2
*D29
 10
71.050372
 20
220.906569
 30
0.0
 11
67.763367
 21
208.606569
 31
0.0
 70
    33
 71
     5
 42
49.2
 73
     0
 74
     0
 75
     0
  3
ISO-25
100
AcDbAlignedDimension
 13
132.963008
 23
196.306569
 33
0.0
 14
132.963008
 24
220.906569
 34
0.0
1001
ACAD_DIMASSOC_CALC_DIMLFAC
1040
-2.0
1001
ACAD_DIMASSOC_DIMLFAC
1040
-2.0
1001
ACAD_DIMASSOC_OVERRIDDEN_DIMLFAC
1040
0.0
1001
ACAD
1000
DSTYLE
1002
{
1070
   144
1040
2.0
1070
   176
1070
   256
1070
   177
1070
   256
1002
}
  0
DIMENSION
  5
209
330
70
100
AcDbEntity
  8
Dimensions
100
AcDbDimension
280
     0
  2
*D30
 10
61.173698
 20
236.806569
 30
0.0
 11
57.885499
 21
228.856569
 31
0.0
 70
    33
 71
     5
 42
31.8
 73
     0
 74
     0
 75
     0
  3
ISO-25
100
AcDbAlignedDimension
 13
132.963008
 23
220.906569
 33
0.0
 14
132.963008
 24
236.806569
 34
0.0
1001
ACAD_DIMASSOC_CALC_DIMLFAC
1040
-2.0
1001
ACAD_DIMASSOC_DIMLFAC
1040
-2.0
1001
ACAD_DIMASSOC_OVERRIDDEN_DIMLFAC
1040
0.0
1001
ACAD
1000
DSTYLE
1002
{
1070
   144
1040
2.0
1070
   176
1070
   256
1070
   177
1070
   256
1002
}
  0
LINE
  5
447
330
70
100
AcDbEntity
  8
Visible
100
AcDbLine
 10
127.613008
 20
104.823711
 30
32.5
 11
127.613008
 21
99.823711
 31
32.5
210
0.0
220
1.0
230
0.0
  0
ARC
  5
448
330
70
100
AcDbEntity
  8
Visible
100
AcDbCircle
 10
-131.613008
 20
32.5
 30
104.823711
 40
4.00000000000001
210
0.0
220
1.0
230
0.0
100
AcDbArc
 50
0.0
 51
90.0
  0
ARC
  5
449
330
70
100
AcDbEntity
  8
Visible
100
AcDbCircle
 10
131.613008
 20
32.5
 30
-99.823711
 40
3.999999999999997
210
0.0000000000000021
220
-1.0
230
0.0
100
AcDbArc
 50
90.0
 51
180.0
  0
LINE
  5
44A
330
70
100
AcDbEntity
  8
Visible
100
AcDbLine
 10
131.613008
 20
104.823711
 30
36.5
 11
271.613008
 21
104.823711
 31
36.5
210
0.0
220
1.0
230
0.0
  0
LINE
  5
44B
330
70
100
AcDbEntity
  8
Visible
100
AcDbLine
 10
271.613008
 20
99.823711
 30
36.5
 11
131.613008
 21
99.823711
 31
36.5
210
0.0
220
1.0
230
0.0
  0
ARC
  5
44C
330
70
100
AcDbEntity
  8
Visible
100
AcDbCircle
 10
-271.613008
 20
32.5
 30
104.823711
 40
3.999999999999979
210
0.0
220
1.0
230
0.0
100
AcDbArc
 50
90.0
 51
180.0
  0
ARC
  5
44D
330
70
100
AcDbEntity
  8
Visible
100
AcDbCircle
 10
271.613008
 20
32.5
 30
-99.823711
 40
4.000000000000001
210
0.0000000000000021
220
-1.0
230
0.0
100
AcDbArc
 50
0.0
 51
90.0
  0
LINE
  5
44E
330
70
100
AcDbEntity
  8
Visible
100
AcDbLine
 10
275.613008
 20
104.823711
 30
32.5
 11
275.613008
 21
99.823711
 31
32.5
210
0.0
220
1.0
230
0.0
  0
CIRCLE
  5
44F
330
70
100
AcDbEntity
  8
Visible
100
AcDbCircle
 10
-269.113008
 20
208.606569
 30
-2.5
 40
3.149999999999984
210
0.0
220
0.0000000000002967
230
-1.0
  0
CIRCLE
  5
450
330
70
100
AcDbEntity
  8
Visible
100
AcDbCircle
 10
269.113008
 20
208.606569
 30
1.1
 40
1.749999999999991
  0
CIRCLE
  5
451
330
70
100
AcDbEntity
  8
Visible
100
AcDbCircle
 10
-132.963008
 20
236.806569
 30
-2.5
 40
0.824999999999996
210
0.0
220
0.0000000000002967
230
-1.0
  0
CIRCLE
  5
452
330
70
100
AcDbEntity
  8
Visible
100
AcDbCircle
 10
-132.963008
 20
220.906569
 30
-2.5
 40
0.8250000000000007
210
0.0
220
0.0000000000002967
230
-1.0
  0
CIRCLE
  5
453
330
70
100
AcDbEntity
  8
Visible
100
AcDbCircle
 10
-132.963008
 20
196.306569
 30
-2.5
 40
0.8249999999999953
210
0.0
220
0.0000000000002967
230
-1.0
  0
CIRCLE
  5
454
330
70
100
AcDbEntity
  8
Visible
100
AcDbCircle
 10
-132.963008
 20
180.406569
 30
-2.5
 40
0.8249999999999872
210
0.0
220
0.0000000000002967
230
-1.0
  0
ARC
  5
455
330
70
100
AcDbEntity
  8
Visible
100
AcDbCircle
 10
131.613008
 20
176.106569
 30
2.5
 40
3.999999999999974
100
AcDbArc
 50
180.0
 51
270.0
  0
LINE
  5
456
330
70
100
AcDbEntity
  8
Visible
100
AcDbLine
 10
127.613008
 20
241.106569
 30
2.5
 11
127.613008
 21
176.106569
 31
2.5
210
0.0
220
0.0000000000002967
230
-1.0
  0
ARC
  5
457
330
70
100
AcDbEntity
  8
Visible
100
AcDbCircle
 10
131.613008
 20
241.106569
 30
2.5
 40
3.999999999999997
100
AcDbArc
 50
90.0
 51
180.0
  0
LINE
  5
458
330
70
100
AcDbEntity
  8
Visible
100
AcDbLine
 10
271.613008
 20
245.106569
 30
2.5
 11
131.613008
 21
245.106569
 31
2.5
210
0.0
220
0.0000000000002967
230
-1.0
  0
ARC
  5
459
330
70
100
AcDbEntity
  8
Visible
100
AcDbCircle
 10
271.613008
 20
241.106569
 30
2.5
 40
4.000000000000001
100
AcDbArc
 50
0.0
 51
90.0
  0
LINE
  5
45A
330
70
100
AcDbEntity
  8
Visible
100
AcDbLine
 10
275.613008
 20
176.106569
 30
2.5
 11
275.613008
 21
241.106569
 31
2.5
210
0.0
220
0.0000000000002967
230
-1.0
  0
ARC
  5
45B
330
70
100
AcDbEntity
  8
Visible
100
AcDbCircle
 10
271.613008
 20
176.106569
 30
2.5
 40
3.999999999999961
100
AcDbArc
 50
270.0
 51
0.0
  0
LINE
  5
45C
330
70
100
AcDbEntity
  8
Visible
100
AcDbLine
 10
131.613008
 20
172.106569
 30
2.5
 11
271.613008
 21
172.106569
 31
2.5
210
0.0
220
0.0000000000002967
230
-1.0
  0
ENDSEC
  0
SECTION
  2
OBJECTS
  0
DICTIONARY
  5
C
330
0
100
AcDbDictionary
281
     1
  3
ACAD_COLOR
350
63
  3
ACAD_DETAILVIEWSTYLE
350
6A
  3
ACAD_GROUP
350
D
  3
ACAD_LAYOUT
350
62
  3
ACAD_MATERIAL
350
10
  3
ACAD_MLEADERSTYLE
350
66
  3
ACAD_MLINESTYLE
350
5F
  3
ACAD_PLOTSETTINGS
350
61
  3
ACAD_PLOTSTYLENAME
350
E
  3
ACAD_SCALELIST
350
42
  3
ACAD_SECTIONVIEWSTYLE
350
68
  3
ACAD_TABLESTYLE
350
64
  3
ACAD_VISUALSTYLE
350
29
  3
ACDB_RECOMPOSE_DATA
350
533
  3
AcDbVariableDictionary
350
4DF
  0
DICTIONARY
  5
AA
330
70
100
AcDbDictionary
280
     1
281
     1
  3
ACAD_SORTENTS
360
AB
  0
DICTIONARY
  5
D0
330
CF
100
AcDbDictionary
280
     1
281
     1
  0
DICTIONARY
  5
116
330
115
100
AcDbDictionary
280
     1
281
     1
  3
ACAD_SORTENTS
360
446
  0
DICTIONARY
  5
131
330
130
100
AcDbDictionary
280
     1
281
     1
  3
ACAD_MLATT
360
4E9
  3
ACAD_XREC_ROUNDTRIP
360
4E8
  0
DICTIONARY
  5
133
330
132
100
AcDbDictionary
280
     1
281
     1
  3
ACAD_MLATT
360
4EB
  3
ACAD_XREC_ROUNDTRIP
360
4EA
  0
DICTIONARY
  5
135
330
134
100
AcDbDictionary
280
     1
281
     1
  3
ACAD_MLATT
360
4ED
  3
ACAD_XREC_ROUNDTRIP
360
4EC
  0
DICTIONARY
  5
137
330
136
100
AcDbDictionary
280
     1
281
     1
  3
ACAD_MLATT
360
4EF
  3
ACAD_XREC_ROUNDTRIP
360
4EE
  0
DICTIONARY
  5
139
330
138
100
AcDbDictionary
280
     1
281
     1
  3
ACAD_MLATT
360
4F1
  3
ACAD_XREC_ROUNDTRIP
360
4F0
  0
DICTIONARY
  5
13B
330
13A
100
AcDbDictionary
280
     1
281
     1
  3
ACAD_MLATT
360
4F3
  3
ACAD_XREC_ROUNDTRIP
360
4F2
  0
DICTIONARY
  5
13D
330
13C
100
AcDbDictionary
280
     1
281
     1
  3
ACAD_MLATT
360
4F5
  3
ACAD_XREC_ROUNDTRIP
360
4F4
  0
DICTIONARY
  5
13F
330
13E
100
AcDbDictionary
280
     1
281
     1
  3
ACAD_MLATT
360
4F7
  3
ACAD_XREC_ROUNDTRIP
360
4F6
  0
DICTIONARY
  5
141
330
140
100
AcDbDictionary
280
     1
281
     1
  3
ACAD_MLATT
360
4F9
  3
ACAD_XREC_ROUNDTRIP
360
4F8
  0
DICTIONARY
  5
143
330
142
100
AcDbDictionary
280
     1
281
     1
  3
ACAD_MLATT
360
4FB
  3
ACAD_XREC_ROUNDTRIP
360
4FA
  0
DICTIONARY
  5
145
330
144
100
AcDbDictionary
280
     1
281
     1
  3
ACAD_MLATT
360
4FD
  3
ACAD_XREC_ROUNDTRIP
360
4FC
  0
DICTIONARY
  5
147
330
146
100
AcDbDictionary
280
     1
281
     1
  3
ACAD_MLATT
360
4FF
  3
ACAD_XREC_ROUNDTRIP
360
4FE
  0
DICTIONARY
  5
149
330
148
100
AcDbDictionary
280
     1
281
     1
  3
ACAD_MLATT
360
501
  3
ACAD_XREC_ROUNDTRIP
360
500
  0
DICTIONARY
  5
14B
330
14A
100
AcDbDictionary
280
     1
281
     1
  3
ACAD_MLATT
360
503
  3
ACAD_XREC_ROUNDTRIP
360
502
  0
DICTIONARY
  5
14D
330
14C
100
AcDbDictionary
280
     1
281
     1
  3
ACAD_MLATT
360
505
  3
ACAD_XREC_ROUNDTRIP
360
504
  0
DICTIONARY
  5
506
330
14F
100
AcDbDictionary
280
     1
281
     1
  3
ACAD_MLATT
360
508
  3
ACAD_XREC_ROUNDTRIP
360
507
  0
DICTIONARY
  5
509
330
150
100
AcDbDictionary
280
     1
281
     1
  3
ACAD_MLATT
360
50B
  3
ACAD_XREC_ROUNDTRIP
360
50A
  0
DICTIONARY
  5
50C
330
151
100
AcDbDictionary
280
     1
281
     1
  3
ACAD_MLATT
360
50E
  3
ACAD_XREC_ROUNDTRIP
360
50D
  0
DICTIONARY
  5
50F
330
152
100
AcDbDictionary
280
     1
281
     1
  3
ACAD_MLATT
360
511
  3
ACAD_XREC_ROUNDTRIP
360
510
  0
DICTIONARY
  5
512
330
153
100
AcDbDictionary
280
     1
281
     1
  3
ACAD_MLATT
360
514
  3
ACAD_XREC_ROUNDTRIP
360
513
  0
DICTIONARY
  5
515
330
154
100
AcDbDictionary
280
     1
281
     1
  3
ACAD_MLATT
360
517
  3
ACAD_XREC_ROUNDTRIP
360
516
  0
DICTIONARY
  5
518
330
155
100
AcDbDictionary
280
     1
281
     1
  3
ACAD_MLATT
360
51A
  3
ACAD_XREC_ROUNDTRIP
360
519
  0
DICTIONARY
  5
51B
330
156
100
AcDbDictionary
280
     1
281
     1
  3
ACAD_MLATT
360
51D
  3
ACAD_XREC_ROUNDTRIP
360
51C
  0
DICTIONARY
  5
51E
330
157
100
AcDbDictionary
280
     1
281
     1
  3
ACAD_MLATT
360
520
  3
ACAD_XREC_ROUNDTRIP
360
51F
  0
DICTIONARY
  5
521
330
158
100
AcDbDictionary
280
     1
281
     1
  3
ACAD_MLATT
360
523
  3
ACAD_XREC_ROUNDTRIP
360
522
  0
DICTIONARY
  5
524
330
159
100
AcDbDictionary
280
     1
281
     1
  3
ACAD_MLATT
360
526
  3
ACAD_XREC_ROUNDTRIP
360
525
  0
DICTIONARY
  5
527
330
15A
100
AcDbDictionary
280
     1
281
     1
  3
ACAD_MLATT
360
529
  3
ACAD_XREC_ROUNDTRIP
360
528
  0
DICTIONARY
  5
52A
330
15B
100
AcDbDictionary
280
     1
281
     1
  3
ACAD_MLATT
360
52C
  3
ACAD_XREC_ROUNDTRIP
360
52B
  0
DICTIONARY
  5
52D
330
15C
100
AcDbDictionary
280
     1
281
     1
  3
ACAD_MLATT
360
52F
  3
ACAD_XREC_ROUNDTRIP
360
52E
  0
DICTIONARY
  5
530
330
15D
100
AcDbDictionary
280
     1
281
     1
  3
ACAD_MLATT
360
532
  3
ACAD_XREC_ROUNDTRIP
360
531
  0
DICTIONARY
  5
63
102
{ACAD_REACTORS
330
C
102
}
330
C
100
AcDbDictionary
281
     1
  0
DICTIONARY
  5
6A
102
{ACAD_REACTORS
330
C
102
}
330
C
100
AcDbDictionary
281
     1
  3
Imperial24
350
6B
  0
DICTIONARY
  5
D
102
{ACAD_REACTORS
330
C
102
}
330
C
100
AcDbDictionary
281
     1
  0
DICTIONARY
  5
62
102
{ACAD_REACTORS
330
C
102
}
330
C
100
AcDbDictionary
281
     1
  3
Model
350
73
  3
Sheet1
350
6F
  3
Sheet2
350
77
  0
DICTIONARY
  5
10
102
{ACAD_REACTORS
330
C
102
}
330
C
100
AcDbDictionary
281
     1
  3
ByBlock
350
19
  3
ByLayer
350
11
  3
Global
350
21
  0
DICTIONARY
  5
66
102
{ACAD_REACTORS
330
C
102
}
330
C
100
AcDbDictionary
281
     1
  3
Standard
350
67
  0
DICTIONARY
  5
5F
102
{ACAD_REACTORS
330
C
102
}
330
C
100
AcDbDictionary
281
     1
  3
Standard
350
60
  0
DICTIONARY
  5
61
102
{ACAD_REACTORS
330
C
102
}
330
C
100
AcDbDictionary
281
     1
  0
ACDBDICTIONARYWDFLT
  5
E
102
{ACAD_REACTORS
330
C
102
}
330
C
100
AcDbDictionary
281
     1
  3
Normal
350
F
100
AcDbDictionaryWithDefault
340
F
  0
DICTIONARY
  5
42
102
{ACAD_REACTORS
330
C
102
}
330
C
100
AcDbDictionary
281
     1
  3
*A1
350
A9
  3
A0
350
43
  3
A1
350
44
  3
A2
350
45
  3
A3
350
46
  3
A4
350
47
  3
A5
350
48
  3
A6
350
49
  3
A7
350
4A
  3
A8
350
4B
  3
A9
350
4C
  3
B0
350
4D
  3
B1
350
4E
  3
B2
350
4F
  3
B3
350
50
  3
B4
350
51
  3
B5
350
52
  3
B6
350
53
  0
DICTIONARY
  5
68
102
{ACAD_REACTORS
330
C
102
}
330
C
100
AcDbDictionary
281
     1
  3
Imperial24
350
69
  0
DICTIONARY
  5
64
102
{ACAD_REACTORS
330
C
102
}
330
C
100
AcDbDictionary
281
     1
  3
Standard
350
65
  0
DICTIONARY
  5
29
102
{ACAD_REACTORS
330
C
102
}
330
C
100
AcDbDictionary
281
     1
  3
2dWireframe
350
2F
  3
Basic
350
2E
  3
Brighten
350
35
  3
ColorChange
350
39
  3
Conceptual
350
32
  3
Dim
350
34
  3
EdgeColorOff
350
41
  3
Facepattern
350
38
  3
Flat
350
2A
  3
FlatWithEdges
350
2B
  3
Gouraud
350
2C
  3
GouraudWithEdges
350
2D
  3
Hidden
350
31
  3
JitterOff
350
3F
  3
Linepattern
350
37
  3
OverhangOff
350
40
  3
Realistic
350
33
  3
Shaded
350
3E
  3
Shaded with edges
350
3D
  3
Shades of Gray
350
3A
  3
Sketchy
350
3B
  3
Thicken
350
36
  3
Wireframe
350
30
  3
X-Ray
350
3C
  0
XRECORD
  5
533
102
{ACAD_REACTORS
330
C
102
}
330
C
100
AcDbXrecord
280
     1
 90
        1
330
65
330
130
330
132
330
134
330
136
330
138
330
13A
330
13C
330
13E
330
140
330
142
330
144
330
146
330
148
330
14A
330
14C
330
14F
330
150
330
151
330
152
330
153
330
154
330
155
330
156
330
157
330
158
330
159
330
15A
330
15B
330
15C
330
15D
  0
DICTIONARY
  5
4DF
102
{ACAD_REACTORS
330
C
102
}
330
C
100
AcDbDictionary
281
     1
  3
ANNOALLVISIBLE
350
4E4
  3
CANNOSCALE
350
4E5
  3
CMLEADERSTYLE
350
4E1
  3
CTABLESTYLE
350
4E0
  3
CVIEWDETAILSTYLE
350
4E2
  3
CVIEWSECTIONSTYLE
350
4E3
  0
SORTENTSTABLE
  5
AB
102
{ACAD_REACTORS
330
AA
102
}
330
AA
100
AcDbSortentsTable
330
70
  0
SORTENTSTABLE
  5
446
102
{ACAD_REACTORS
330
116
102
}
330
116
100
AcDbSortentsTable
330
115
  0
XRECORD
  5
4E9
102
{ACAD_REACTORS
330
131
102
}
330
131
100
AcDbXrecord
280
     1
 70
     4
 70
     0
 70
     0
 40
1.0
  2
DATE_OF_ISSUE
  1
Embedded Object
 10
-50.0
 20
5.0
 30
0.0
 40
3.5
 41
0.0
 46
0.0
 71
     1
 72
     5
  1

  7
FusionTitle
 73
     1
 44
1.0
  0
XRECORD
  5
4E8
102
{ACAD_REACTORS
330
131
102
}
330
131
100
AcDbXrecord
280
     1
102
ACAD_MATT_HEIGHT
140
3.5
  0
XRECORD
  5
4EB
102
{ACAD_REACTORS
330
133
102
}
330
133
100
AcDbXrecord
280
     1
 70
     4
 70
     0
 70
     0
 40
1.0
  2
REV
  1
Embedded Object
 10
-56.0
 20
4.85
 30
0.0
 40
3.5
 41
0.0
 46
0.0
 71
     2
 72
     5
  1

  7
FusionTitle
 73
     1
 44
1.0
  0
XRECORD
  5
4EA
102
{ACAD_REACTORS
330
133
102
}
330
133
100
AcDbXrecord
280
     1
102
ACAD_MATT_HEIGHT
140
3.5
  0
XRECORD
  5
4ED
102
{ACAD_REACTORS
330
135
102
}
330
135
100
AcDbXrecord
280
     1
 70
     4
 70
     0
 70
     0
 40
1.0
  2
TITLE_3
  1
Embedded Object
 10
-121.0
 20
6.5
 30
0.0
 40
5.0
 41
0.0
 46
0.0
 71
     1
 72
     5
  1

  7
FusionTitle
 73
     1
 44
1.0
  0
XRECORD
  5
4EC
102
{ACAD_REACTORS
330
135
102
}
330
135
100
AcDbXrecord
280
     1
102
ACAD_MATT_HEIGHT
140
5.0
  0
XRECORD
  5
4EF
102
{ACAD_REACTORS
330
137
102
}
330
137
100
AcDbXrecord
280
     1
 70
     4
 70
     0
 70
     0
 40
1.0
  2
DOCUMENT_STATUS
  1
Embedded Object
 10
-60.0
 20
32.0
 30
0.0
 40
3.5
 41
0.0
 46
0.0
 71
     1
 72
     5
  1

  7
FusionTitle
 73
     1
 44
1.0
  0
XRECORD
  5
4EE
102
{ACAD_REACTORS
330
137
102
}
330
137
100
AcDbXrecord
280
     1
102
ACAD_MATT_HEIGHT
140
3.5
  0
XRECORD
  5
4F1
102
{ACAD_REACTORS
330
139
102
}
330
139
100
AcDbXrecord
280
     1
 70
     4
 70
     0
 70
     0
 40
1.0
  2
DOCUMENT_TYPE
  1
Embedded Object
 10
-121.0
 20
32.0
 30
0.0
 40
3.5
 41
0.0
 46
0.0
 71
     1
 72
     5
  1

  7
FusionTitle
 73
     1
 44
1.0
  0
XRECORD
  5
4F0
102
{ACAD_REACTORS
330
139
102
}
330
139
100
AcDbXrecord
280
     1
102
ACAD_MATT_HEIGHT
140
3.5
  0
XRECORD
  5
4F3
102
{ACAD_REACTORS
330
13B
102
}
330
13B
100
AcDbXrecord
280
     1
 70
     4
 70
     0
 70
     0
 40
1.0
  2
APPROVED_DATE
  1
Embedded Object
 10
-0.992838
 20
42.0
 30
0.0
 40
3.5
 41
0.0
 46
0.0
 71
     3
 72
     5
  1

  7
FusionTitle
 73
     1
 44
1.0
  0
XRECORD
  5
4F2
102
{ACAD_REACTORS
330
13B
102
}
330
13B
100
AcDbXrecord
280
     1
102
ACAD_MATT_HEIGHT
140
3.5
  0
XRECORD
  5
4F5
102
{ACAD_REACTORS
330
13D
102
}
330
13D
100
AcDbXrecord
280
     1
 70
     4
 70
     0
 70
     0
 40
1.0
  2
CREATED_DATE
  1
Embedded Object
 10
-62.0
 20
42.0
 30
0.0
 40
3.5
 41
0.0
 46
0.0
 71
     3
 72
     5
  1

  7
FusionTitle
 73
     1
 44
1.0
  0
XRECORD
  5
4F4
102
{ACAD_REACTORS
330
13D
102
}
330
13D
100
AcDbXrecord
280
     1
102
ACAD_MATT_HEIGHT
140
3.5
  0
XRECORD
  5
4F7
102
{ACAD_REACTORS
330
13F
102
}
330
13F
100
AcDbXrecord
280
     1
 70
     4
 70
     0
 70
     0
 40
1.0
  2
SHEET
  1
Embedded Object
 10
-7.5
 20
4.85
 30
0.0
 40
3.5
 41
0.0
 46
0.0
 71
     2
 72
     5
  1

  7
FusionTitle
 73
     1
 44
1.0
  0
XRECORD
  5
4F6
102
{ACAD_REACTORS
330
13F
102
}
330
13F
100
AcDbXrecord
280
     1
102
ACAD_MATT_HEIGHT
140
3.5
  0
XRECORD
  5
4F9
102
{ACAD_REACTORS
330
141
102
}
330
141
100
AcDbXrecord
280
     1
 70
     4
 70
     0
 70
     0
 40
1.0
  2
TITLE_2
  1
Embedded Object
 10
-121.0
 20
14.0
 30
0.0
 40
5.0
 41
0.0
 46
0.0
 71
     1
 72
     5
  1

  7
FusionTitle
 73
     1
 44
1.0
  0
XRECORD
  5
4F8
102
{ACAD_REACTORS
330
141
102
}
330
141
100
AcDbXrecord
280
     1
102
ACAD_MATT_HEIGHT
140
5.0
  0
XRECORD
  5
4FB
102
{ACAD_REACTORS
330
143
102
}
330
143
100
AcDbXrecord
280
     1
 70
     4
 70
     0
 70
     0
 40
1.0
  2
DRAWING_NUMBER
  1
Embedded Object
 10
-30.5
 20
19.751432
 30
0.0
 40
5.0
 41
0.0
 46
0.0
 71
     2
 72
     5
  1

  7
FusionTitle
 73
     1
 44
1.0
  0
XRECORD
  5
4FA
102
{ACAD_REACTORS
330
143
102
}
330
143
100
AcDbXrecord
280
     1
102
ACAD_MATT_HEIGHT
140
5.0
  0
XRECORD
  5
4FD
102
{ACAD_REACTORS
330
145
102
}
330
145
100
AcDbXrecord
280
     1
 70
     4
 70
     0
 70
     0
 40
1.0
  2
TITLE_1
  1
Embedded Object
 10
-121.0
 20
21.5
 30
0.0
 40
5.0
 41
0.0
 46
0.0
 71
     1
 72
     5
  1

  7
FusionTitle
 73
     1
 44
1.0
  0
XRECORD
  5
4FC
102
{ACAD_REACTORS
330
145
102
}
330
145
100
AcDbXrecord
280
     1
102
ACAD_MATT_HEIGHT
140
5.0
  0
XRECORD
  5
4FF
102
{ACAD_REACTORS
330
147
102
}
330
147
100
AcDbXrecord
280
     1
 70
     4
 70
     0
 70
     0
 40
1.0
  2
APPROVED_BY
  1
Embedded Object
 10
-60.0
 20
42.0
 30
0.0
 40
3.5
 41
0.0
 46
0.0
 71
     1
 72
     5
  1

  7
FusionTitle
 73
     1
 44
1.0
  0
XRECORD
  5
4FE
102
{ACAD_REACTORS
330
147
102
}
330
147
100
AcDbXrecord
280
     1
102
ACAD_MATT_HEIGHT
140
3.5
  0
XRECORD
  5
501
102
{ACAD_REACTORS
330
149
102
}
330
149
100
AcDbXrecord
280
     1
 70
     4
 70
     0
 70
     0
 40
1.0
  2
CREATED_BY
  1
Embedded Object
 10
-121.0
 20
42.0
 30
0.0
 40
3.5
 41
0.0
 46
0.0
 71
     1
 72
     5
  1

  7
FusionTitle
 73
     1
 44
1.0
  0
XRECORD
  5
500
102
{ACAD_REACTORS
330
149
102
}
330
149
100
AcDbXrecord
280
     1
102
ACAD_MATT_HEIGHT
140
3.5
  0
XRECORD
  5
503
102
{ACAD_REACTORS
330
14B
102
}
330
14B
100
AcDbXrecord
280
     1
 70
     4
 70
     0
 70
     0
 40
1.0
  2
TECHNICAL_REFERENCE
  1
Embedded Object
 10
-155.0
 20
42.0
 30
0.0
 40
3.5
 41
0.0
 46
0.0
 71
     1
 72
     5
  1

  7
FusionTitle
 73
     1
 44
1.0
  0
XRECORD
  5
502
102
{ACAD_REACTORS
330
14B
102
}
330
14B
100
AcDbXrecord
280
     1
102
ACAD_MATT_HEIGHT
140
3.5
  0
XRECORD
  5
505
102
{ACAD_REACTORS
330
14D
102
}
330
14D
100
AcDbXrecord
280
     1
 70
     4
 70
     0
 70
     0
 40
1.0
  2
DEPT
  1
Embedded Object
 10
-179.0
 20
42.0
 30
0.0
 40
3.5
 41
0.0
 46
0.0
 71
     1
 72
     5
  1

  7
FusionTitle
 73
     1
 44
1.0
  0
XRECORD
  5
504
102
{ACAD_REACTORS
330
14D
102
}
330
14D
100
AcDbXrecord
280
     1
102
ACAD_MATT_HEIGHT
140
3.5
  0
XRECORD
  5
508
102
{ACAD_REACTORS
330
506
102
}
330
506
100
AcDbXrecord
280
     1
 70
     2
 70
     0
 70
     0
 40
1.0
  2
DATE_OF_ISSUE
  1
Embedded Object
 10
360.0
 20
15.0
 30
0.0
 40
3.5
 41
0.0
 46
0.0
 71
     1
 72
     5
  1

  7
FusionTitle
 73
     1
 44
1.0
  0
XRECORD
  5
507
102
{ACAD_REACTORS
330
506
102
}
330
506
100
AcDbXrecord
280
     1
102
ACAD_MATT_HEIGHT
140
3.5
  0
XRECORD
  5
50B
102
{ACAD_REACTORS
330
509
102
}
330
509
100
AcDbXrecord
280
     1
 70
     2
 70
     0
 70
     0
 40
1.0
  2
REV
  1
Embedded Object
 10
354.0
 20
14.85
 30
0.0
 40
3.5
 41
0.0
 46
0.0
 71
     2
 72
     5
  1

  7
FusionTitle
 73
     1
 44
1.0
  0
XRECORD
  5
50A
102
{ACAD_REACTORS
330
509
102
}
330
509
100
AcDbXrecord
280
     1
102
ACAD_MATT_HEIGHT
140
3.5
  0
XRECORD
  5
50E
102
{ACAD_REACTORS
330
50C
102
}
330
50C
100
AcDbXrecord
280
     1
 70
     2
 70
     0
 70
     0
 40
1.0
  2
TITLE_3
  1
Embedded Object
 10
289.0
 20
16.5
 30
0.0
 40
5.0
 41
0.0
 46
0.0
 71
     1
 72
     5
  1

  7
FusionTitle
 73
     1
 44
1.0
  0
XRECORD
  5
50D
102
{ACAD_REACTORS
330
50C
102
}
330
50C
100
AcDbXrecord
280
     1
102
ACAD_MATT_HEIGHT
140
5.0
  0
XRECORD
  5
511
102
{ACAD_REACTORS
330
50F
102
}
330
50F
100
AcDbXrecord
280
     1
 70
     2
 70
     0
 70
     0
 40
1.0
  2
DOCUMENT_STATUS
  1
Embedded Object
 10
350.0
 20
42.0
 30
0.0
 40
3.5
 41
0.0
 46
0.0
 71
     1
 72
     5
  1

  7
FusionTitle
 73
     1
 44
1.0
  0
XRECORD
  5
510
102
{ACAD_REACTORS
330
50F
102
}
330
50F
100
AcDbXrecord
280
     1
102
ACAD_MATT_HEIGHT
140
3.5
  0
XRECORD
  5
514
102
{ACAD_REACTORS
330
512
102
}
330
512
100
AcDbXrecord
280
     1
 70
     2
 70
     0
 70
     0
 40
1.0
  2
DOCUMENT_TYPE
  1
Embedded Object
 10
289.0
 20
42.0
 30
0.0
 40
3.5
 41
0.0
 46
0.0
 71
     1
 72
     5
  1

  7
FusionTitle
 73
     1
 44
1.0
  0
XRECORD
  5
513
102
{ACAD_REACTORS
330
512
102
}
330
512
100
AcDbXrecord
280
     1
102
ACAD_MATT_HEIGHT
140
3.5
  0
XRECORD
  5
517
102
{ACAD_REACTORS
330
515
102
}
330
515
100
AcDbXrecord
280
     1
 70
     2
 70
     0
 70
     0
 40
1.0
  2
APPROVED_DATE
  1
Embedded Object
 10
409.007162
 20
52.0
 30
0.0
 40
3.5
 41
0.0
 46
0.0
 71
     3
 72
     5
  1

  7
FusionTitle
 73
     1
 44
1.0
  0
XRECORD
  5
516
102
{ACAD_REACTORS
330
515
102
}
330
515
100
AcDbXrecord
280
     1
102
ACAD_MATT_HEIGHT
140
3.5
  0
XRECORD
  5
51A
102
{ACAD_REACTORS
330
518
102
}
330
518
100
AcDbXrecord
280
     1
 70
     2
 70
     0
 70
     0
 40
1.0
  2
CREATED_DATE
  1
Embedded Object
 10
348.0
 20
52.0
 30
0.0
 40
3.5
 41
0.0
 46
0.0
 71
     3
 72
     5
  1
20/12/2020
  7
FusionTitle
 73
     1
 44
1.0
  0
XRECORD
  5
519
102
{ACAD_REACTORS
330
518
102
}
330
518
100
AcDbXrecord
280
     1
102
ACAD_MATT_HEIGHT
140
3.5
  0
XRECORD
  5
51D
102
{ACAD_REACTORS
330
51B
102
}
330
51B
100
AcDbXrecord
280
     1
 70
     2
 70
     0
 70
     0
 40
1.0
  2
SHEET
  1
Embedded Object
 10
402.5
 20
14.85
 30
0.0
 40
3.5
 41
0.0
 46
0.0
 71
     2
 72
     5
  1
12/38
  7
FusionTitle
 73
     1
 44
1.0
  0
XRECORD
  5
51C
102
{ACAD_REACTORS
330
51B
102
}
330
51B
100
AcDbXrecord
280
     1
102
ACAD_MATT_HEIGHT
140
3.5
  0
XRECORD
  5
520
102
{ACAD_REACTORS
330
51E
102
}
330
51E
100
AcDbXrecord
280
     1
 70
     2
 70
     0
 70
     0
 40
1.0
  2
TITLE_2
  1
Embedded Object
 10
289.0
 20
24.0
 30
0.0
 40
5.0
 41
0.0
 46
0.0
 71
     1
 72
     5
  1

  7
FusionTitle
 73
     1
 44
1.0
  0
XRECORD
  5
51F
102
{ACAD_REACTORS
330
51E
102
}
330
51E
100
AcDbXrecord
280
     1
102
ACAD_MATT_HEIGHT
140
5.0
  0
XRECORD
  5
523
102
{ACAD_REACTORS
330
521
102
}
330
521
100
AcDbXrecord
280
     1
 70
     2
 70
     0
 70
     0
 40
1.0
  2
DRAWING_NUMBER
  1
Embedded Object
 10
379.5
 20
29.751432
 30
0.0
 40
5.0
 41
0.0
 46
0.0
 71
     2
 72
     5
  1

  7
FusionTitle
 73
     1
 44
1.0
  0
XRECORD
  5
522
102
{ACAD_REACTORS
330
521
102
}
330
521
100
AcDbXrecord
280
     1
102
ACAD_MATT_HEIGHT
140
5.0
  0
XRECORD
  5
526
102
{ACAD_REACTORS
330
524
102
}
330
524
100
AcDbXrecord
280
     1
 70
     2
 70
     0
 70
     0
 40
1.0
  2
TITLE_1
  1
Embedded Object
 10
289.0
 20
31.5
 30
0.0
 40
5.0
 41
0.0
 46
0.0
 71
     1
 72
     5
  1
\W0.9405;Incubation-Chamber
  7
FusionTitle
 73
     1
 44
1.0
  0
XRECORD
  5
525
102
{ACAD_REACTORS
330
524
102
}
330
524
100
AcDbXrecord
280
     1
102
ACAD_MATT_HEIGHT
140
5.0
  0
XRECORD
  5
529
102
{ACAD_REACTORS
330
527
102
}
330
527
100
AcDbXrecord
280
     1
 70
     2
 70
     0
 70
     0
 40
1.0
  2
APPROVED_BY
  1
Embedded Object
 10
350.0
 20
52.0
 30
0.0
 40
3.5
 41
0.0
 46
0.0
 71
     1
 72
     5
  1

  7
FusionTitle
 73
     1
 44
1.0
  0
XRECORD
  5
528
102
{ACAD_REACTORS
330
527
102
}
330
527
100
AcDbXrecord
280
     1
102
ACAD_MATT_HEIGHT
140
3.5
  0
XRECORD
  5
52C
102
{ACAD_REACTORS
330
52A
102
}
330
52A
100
AcDbXrecord
280
     1
 70
     2
 70
     0
 70
     0
 40
1.0
  2
CREATED_BY
  1
Embedded Object
 10
289.0
 20
52.0
 30
0.0
 40
3.5
 41
0.0
 46
0.0
 71
     1
 72
     5
  1
Josh Edwards
  7
FusionTitle
 73
     1
 44
1.0
  0
XRECORD
  5
52B
102
{ACAD_REACTORS
330
52A
102
}
330
52A
100
AcDbXrecord
280
     1
102
ACAD_MATT_HEIGHT
140
3.5
  0
XRECORD
  5
52F
102
{ACAD_REACTORS
330
52D
102
}
330
52D
100
AcDbXrecord
280
     1
 70
     2
 70
     0
 70
     0
 40
1.0
  2
TECHNICAL_REFERENCE
  1
Embedded Object
 10
255.0
 20
52.0
 30
0.0
 40
3.5
 41
0.0
 46
0.0
 71
     1
 72
     5
  1

  7
FusionTitle
 73
     1
 44
1.0
  0
XRECORD
  5
52E
102
{ACAD_REACTORS
330
52D
102
}
330
52D
100
AcDbXrecord
280
     1
102
ACAD_MATT_HEIGHT
140
3.5
  0
XRECORD
  5
532
102
{ACAD_REACTORS
330
530
102
}
330
530
100
AcDbXrecord
280
     1
 70
     2
 70
     0
 70
     0
 40
1.0
  2
DEPT
  1
Embedded Object
 10
231.0
 20
52.0
 30
0.0
 40
3.5
 41
0.0
 46
0.0
 71
     1
 72
     5
  1

  7
FusionTitle
 73
     1
 44
1.0
  0
XRECORD
  5
531
102
{ACAD_REACTORS
330
530
102
}
330
530
100
AcDbXrecord
280
     1
102
ACAD_MATT_HEIGHT
140
3.5
  0
ACDBDETAILVIEWSTYLE
  5
6B
102
{ACAD_XDICTIONARY
360
536
102
}
102
{ACAD_REACTORS
330
6A
102
}
330
6A
100
AcDbModelDocViewStyle
 70
     0
  3
Imperial24
290
     0
100
AcDbDetailViewStyle
 70
     0
 71
     0
 90
        3
 71
     1
340
55
 62
   256
 40
0.24
340
0
 62
   256
 40
0.24
300

 40
0.36
280
     3
 71
     2
340
5D
 90
       25
 62
   256
 71
     3
340
55
 62
   256
 40
0.24
 90
        1
 40
0.75
 90
        1
300
%<\AcVar ViewType \f "%tc1">% %<\AcVar ViewDetailId>%\PSCALE %<\AcVar ViewScale \f "%sn">%
 71
     4
340
5D
 90
       25
 62
   256
340
5D
 90
       25
 62
   256
280
     0
  0
LAYOUT
  5
73
102
{ACAD_REACTORS
330
62
102
}
330
62
100
AcDbPlotSettings
  1

  2
AutoCAD PDF (High Quality Print).pc3
  4
ISO_full_bleed_A3_(420.00_x_297.00_MM)
  6

 40
0.0
 41
0.0
 42
0.0
 43
0.0
 44
420.0
 45
297.0
 46
0.0
 47
0.0
 48
0.0
 49
0.0
140
0.0
141
0.0
142
1.0
143
0.645836
 70
 11952
 72
     1
 73
     0
 74
     0
  7

 75
     0
147
1.548382
 76
     0
 77
     2
 78
   300
148
-90.384032
149
-125.715998
100
AcDbLayout
  1
Model
 70
     1
 71
     0
 10
0.0
 20
0.0
 11
12.0
 21
9.0
 12
0.0
 22
0.0
 32
0.0
 14
0.0
 24
0.0
 34
0.0
 15
0.0
 25
0.0
 35
0.0
146
0.0
 13
0.0
 23
0.0
 33
0.0
 16
1.0
 26
0.0
 36
0.0
 17
0.0
 27
1.0
 37
0.0
 76
     0
330
70
1001
ACAD_PSEXT
1000
AutoCAD PDF (High Quality Print).pc3
1000
DWG To PDF
1000
File
1000

1070
     0
  0
LAYOUT
  5
6F
102
{ACAD_REACTORS
330
62
102
}
330
62
100
AcDbPlotSettings
  1

  2
None
  4

  6

 40
0.0
 41
0.0
 42
0.0
 43
0.0
 44
0.0
 45
0.0
 46
0.0
 47
0.0
 48
0.0
 49
0.0
140
0.0
141
0.0
142
1.0
143
1.0
 70
   688
 72
     0
 73
     0
 74
     5
  7

 75
    16
147
1.0
 76
     0
 77
     2
 78
   300
148
0.0
149
0.0
100
AcDbLayout
  1
Sheet1
 70
     1
 71
     1
 10
0.0
 20
0.0
 11
12.0
 21
9.0
 12
0.0
 22
0.0
 32
0.0
 14
0.0
 24
0.0
 34
0.0
 15
0.0
 25
0.0
 35
0.0
146
0.0
 13
0.0
 23
0.0
 33
0.0
 16
1.0
 26
0.0
 36
0.0
 17
0.0
 27
1.0
 37
0.0
 76
     0
330
6C
  0
LAYOUT
  5
77
102
{ACAD_REACTORS
330
62
102
}
330
62
100
AcDbPlotSettings
  1

  2
None
  4

  6

 40
0.0
 41
0.0
 42
0.0
 43
0.0
 44
0.0
 45
0.0
 46
0.0
 47
0.0
 48
0.0
 49
0.0
140
0.0
141
0.0
142
1.0
143
1.0
 70
   688
 72
     0
 73
     0
 74
     5
  7

 75
    16
147
1.0
 76
     0
 77
     2
 78
   300
148
0.0
149
0.0
100
AcDbLayout
  1
Sheet2
 70
     1
 71
     2
 10
0.0
 20
0.0
 11
12.0
 21
9.0
 12
0.0
 22
0.0
 32
0.0
 14
0.0
 24
0.0
 34
0.0
 15
0.0
 25
0.0
 35
0.0
146
0.0
 13
0.0
 23
0.0
 33
0.0
 16
1.0
 26
0.0
 36
0.0
 17
0.0
 27
1.0
 37
0.0
 76
     0
330
74
  0
MATERIAL
  5
19
102
{ACAD_XDICTIONARY
360
1A
102
}
102
{ACAD_REACTORS
330
10
102
}
330
10
100
AcDbMaterial
  1
ByBlock
 72
     0
 43
0.020833
 43
0.0
 43
0.0
 43
0.0
 43
0.0
 43
0.020833
 43
0.0
 43
0.0
 43
0.0
 43
0.0
 43
1.0
 43
0.0
 43
0.0
 43
0.0
 43
0.0
 43
1.0
 77
     0
 47
0.020833
 47
0.0
 47
0.0
 47
0.0
 47
0.0
 47
0.020833
 47
0.0
 47
0.0
 47
0.0
 47
0.0
 47
1.0
 47
0.0
 47
0.0
 47
0.0
 47
0.0
 47
1.0
171
     0
 49
0.020833
 49
0.0
 49
0.0
 49
0.0
 49
0.0
 49
0.020833
 49
0.0
 49
0.0
 49
0.0
 49
0.0
 49
1.0
 49
0.0
 49
0.0
 49
0.0
 49
0.0
 49
1.0
175
     0
142
0.020833
142
0.0
142
0.0
142
0.0
142
0.0
142
0.020833
142
0.0
142
0.0
142
0.0
142
0.0
142
1.0
142
0.0
142
0.0
142
0.0
142
0.0
142
1.0
179
     0
144
0.020833
144
0.0
144
0.0
144
0.0
144
0.0
144
0.020833
144
0.0
144
0.0
144
0.0
144
0.0
144
1.0
144
0.0
144
0.0
144
0.0
144
0.0
144
1.0
147
0.020833
147
0.0
147
0.0
147
0.0
147
0.0
147
0.020833
147
0.0
147
0.0
147
0.0
147
0.0
147
1.0
147
0.0
147
0.0
147
0.0
147
0.0
147
1.0
  0
MATERIAL
  5
11
102
{ACAD_XDICTIONARY
360
12
102
}
102
{ACAD_REACTORS
330
10
102
}
330
10
100
AcDbMaterial
  1
ByLayer
 72
     0
 43
0.020833
 43
0.0
 43
0.0
 43
0.0
 43
0.0
 43
0.020833
 43
0.0
 43
0.0
 43
0.0
 43
0.0
 43
1.0
 43
0.0
 43
0.0
 43
0.0
 43
0.0
 43
1.0
 77
     0
 47
0.020833
 47
0.0
 47
0.0
 47
0.0
 47
0.0
 47
0.020833
 47
0.0
 47
0.0
 47
0.0
 47
0.0
 47
1.0
 47
0.0
 47
0.0
 47
0.0
 47
0.0
 47
1.0
171
     0
 49
0.020833
 49
0.0
 49
0.0
 49
0.0
 49
0.0
 49
0.020833
 49
0.0
 49
0.0
 49
0.0
 49
0.0
 49
1.0
 49
0.0
 49
0.0
 49
0.0
 49
0.0
 49
1.0
175
     0
142
0.020833
142
0.0
142
0.0
142
0.0
142
0.0
142
0.020833
142
0.0
142
0.0
142
0.0
142
0.0
142
1.0
142
0.0
142
0.0
142
0.0
142
0.0
142
1.0
179
     0
144
0.020833
144
0.0
144
0.0
144
0.0
144
0.0
144
0.020833
144
0.0
144
0.0
144
0.0
144
0.0
144
1.0
144
0.0
144
0.0
144
0.0
144
0.0
144
1.0
147
0.020833
147
0.0
147
0.0
147
0.0
147
0.0
147
0.020833
147
0.0
147
0.0
147
0.0
147
0.0
147
1.0
147
0.0
147
0.0
147
0.0
147
0.0
147
1.0
  0
MATERIAL
  5
21
102
{ACAD_XDICTIONARY
360
22
102
}
102
{ACAD_REACTORS
330
10
102
}
330
10
100
AcDbMaterial
  1
Global
 72
     0
 43
0.020833
 43
0.0
 43
0.0
 43
0.0
 43
0.0
 43
0.020833
 43
0.0
 43
0.0
 43
0.0
 43
0.0
 43
1.0
 43
0.0
 43
0.0
 43
0.0
 43
0.0
 43
1.0
 77
     0
 47
0.020833
 47
0.0
 47
0.0
 47
0.0
 47
0.0
 47
0.020833
 47
0.0
 47
0.0
 47
0.0
 47
0.0
 47
1.0
 47
0.0
 47
0.0
 47
0.0
 47
0.0
 47
1.0
171
     0
 49
0.020833
 49
0.0
 49
0.0
 49
0.0
 49
0.0
 49
0.020833
 49
0.0
 49
0.0
 49
0.0
 49
0.0
 49
1.0
 49
0.0
 49
0.0
 49
0.0
 49
0.0
 49
1.0
175
     0
142
0.020833
142
0.0
142
0.0
142
0.0
142
0.0
142
0.020833
142
0.0
142
0.0
142
0.0
142
0.0
142
1.0
142
0.0
142
0.0
142
0.0
142
0.0
142
1.0
179
     0
144
0.020833
144
0.0
144
0.0
144
0.0
144
0.0
144
0.020833
144
0.0
144
0.0
144
0.0
144
0.0
144
1.0
144
0.0
144
0.0
144
0.0
144
0.0
144
1.0
147
0.020833
147
0.0
147
0.0
147
0.0
147
0.0
147
0.020833
147
0.0
147
0.0
147
0.0
147
0.0
147
1.0
147
0.0
147
0.0
147
0.0
147
0.0
147
1.0
  0
MLEADERSTYLE
  5
67
102
{ACAD_REACTORS
330
66
102
}
330
66
100
AcDbMLeaderStyle
179
     2
170
     2
171
     1
172
     0
 90
        2
 40
0.0
 41
0.0
173
     1
 91
-1056964608
340
5B
 92
       -2
290
     1
 42
0.09
291
     1
 43
0.36
  3
Standard
 44
0.18
300

342
55
174
     1
178
     6
175
     1
176
     0
 93
-1056964608
 45
0.18
292
     0
297
     0
 46
0.18
 94
-1056964608
 47
1.0
 49
1.0
140
1.0
293
     1
141
0.0
294
     1
177
     0
142
1.0
295
     0
296
     0
143
0.125
271
     0
272
     9
273
     9
298
     1
  0
MLINESTYLE
  5
60
102
{ACAD_REACTORS
330
5F
102
}
330
5F
100
AcDbMlineStyle
  2
STANDARD
 70
     0
  3

 62
   256
 51
90.0
 52
90.0
 71
     0
  0
ACDBPLACEHOLDER
  5
F
102
{ACAD_REACTORS
330
E
102
}
330
E
  0
SCALE
  5
A9
102
{ACAD_REACTORS
330
42
102
}
330
42
100
AcDbScale
 70
     0
300
1:6
140
0.166667
141
1.0
290
     0
  0
SCALE
  5
43
102
{ACAD_REACTORS
330
42
102
}
330
42
100
AcDbScale
 70
     0
300
1:1
140
1.0
141
1.0
290
     1
  0
SCALE
  5
44
102
{ACAD_REACTORS
330
42
102
}
330
42
100
AcDbScale
 70
     0
300
1:2
140
1.0
141
2.0
290
     0
  0
SCALE
  5
45
102
{ACAD_REACTORS
330
42
102
}
330
42
100
AcDbScale
 70
     0
300
1:4
140
1.0
141
4.0
290
     0
  0
SCALE
  5
46
102
{ACAD_REACTORS
330
42
102
}
330
42
100
AcDbScale
 70
     0
300
1:5
140
1.0
141
5.0
290
     0
  0
SCALE
  5
47
102
{ACAD_REACTORS
330
42
102
}
330
42
100
AcDbScale
 70
     0
300
1:8
140
1.0
141
8.0
290
     0
  0
SCALE
  5
48
102
{ACAD_REACTORS
330
42
102
}
330
42
100
AcDbScale
 70
     0
300
1:10
140
1.0
141
10.0
290
     0
  0
SCALE
  5
49
102
{ACAD_REACTORS
330
42
102
}
330
42
100
AcDbScale
 70
     0
300
1:16
140
1.0
141
16.0
290
     0
  0
SCALE
  5
4A
102
{ACAD_REACTORS
330
42
102
}
330
42
100
AcDbScale
 70
     0
300
1:20
140
1.0
141
20.0
290
     0
  0
SCALE
  5
4B
102
{ACAD_REACTORS
330
42
102
}
330
42
100
AcDbScale
 70
     0
300
1:30
140
1.0
141
30.0
290
     0
  0
SCALE
  5
4C
102
{ACAD_REACTORS
330
42
102
}
330
42
100
AcDbScale
 70
     0
300
1:40
140
1.0
141
40.0
290
     0
  0
SCALE
  5
4D
102
{ACAD_REACTORS
330
42
102
}
330
42
100
AcDbScale
 70
     0
300
1:50
140
1.0
141
50.0
290
     0
  0
SCALE
  5
4E
102
{ACAD_REACTORS
330
42
102
}
330
42
100
AcDbScale
 70
     0
300
1:100
140
1.0
141
100.0
290
     0
  0
SCALE
  5
4F
102
{ACAD_REACTORS
330
42
102
}
330
42
100
AcDbScale
 70
     0
300
2:1
140
2.0
141
1.0
290
     0
  0
SCALE
  5
50
102
{ACAD_REACTORS
330
42
102
}
330
42
100
AcDbScale
 70
     0
300
4:1
140
4.0
141
1.0
290
     0
  0
SCALE
  5
51
102
{ACAD_REACTORS
330
42
102
}
330
42
100
AcDbScale
 70
     0
300
8:1
140
8.0
141
1.0
290
     0
  0
SCALE
  5
52
102
{ACAD_REACTORS
330
42
102
}
330
42
100
AcDbScale
 70
     0
300
10:1
140
10.0
141
1.0
290
     0
  0
SCALE
  5
53
102
{ACAD_REACTORS
330
42
102
}
330
42
100
AcDbScale
 70
     0
300
100:1
140
100.0
141
1.0
290
     0
  0
ACDBSECTIONVIEWSTYLE
  5
69
102
{ACAD_XDICTIONARY
360
534
102
}
102
{ACAD_REACTORS
330
68
102
}
330
68
100
AcDbModelDocViewStyle
 70
     0
  3
Imperial24
290
     0
100
AcDbSectionViewStyle
 70
     0
 71
     0
 90
       78
 71
     1
340
55
 62
   256
 40
0.24
340
0
340
0
 62
   256
 40
0.24
300
I, O, Q, S, X, Z
 40
0.48
 90
        3
 40
0.18
 90
        1
 71
     2
340
5D
 90
       25
 62
   256
340
5D
 90
       50
 62
   256
 40
0.24
 40
0.0
 40
0.24
 71
     3
340
55
 62
   256
 40
0.24
 90
        1
 40
0.75
 90
        1
300
%<\AcVar ViewType \f "%tc1">% %<\AcVar ViewSectionStartId>%-%<\AcVar ViewSectionEndId>%\PSCALE %<\AcVar ViewScale \f "%sn">%
 71
     4
 62
   256
 62
   257
300
ANSI31
 40
1.0
 90
        0
290
     0
290
     0
 90
        6
 40
0.0
 40
1.570796
 40
0.261799
 40
1.308997
 40
-0.261799
 40
1.832596
  0
TABLESTYLE
  5
65
102
{ACAD_XDICTIONARY
360
4E6
102
}
102
{ACAD_REACTORS
330
64
102
}
330
64
100
AcDbTableStyle
280
     0
  3
Standard
 70
     0
 71
     0
 40
1.5
 41
1.5
280
     0
281
     0
  7
Standard
140
0.18
170
     2
 62
     0
 63
     7
283
     0
 90
      512
 91
        0
  1

274
    -2
284
     1
 64
     0
275
    -2
285
     1
 65
     0
276
    -2
286
     1
 66
     0
277
    -2
287
     1
 67
     0
278
    -2
288
     1
 68
     0
279
    -2
289
     1
 69
     0
  7
Standard
140
0.25
170
     5
 62
     0
 63
     7
283
     0
 90
      512
 91
        0
  1

274
    -2
284
     1
 64
     0
275
    -2
285
     1
 65
     0
276
    -2
286
     1
 66
     0
277
    -2
287
     1
 67
     0
278
    -2
288
     1
 68
     0
279
    -2
289
     1
 69
     0
  7
Standard
140
0.18
170
     5
 62
     0
 63
     7
283
     0
 90
      512
 91
        0
  1

274
    -2
284
     1
 64
     0
275
    -2
285
     1
 65
     0
276
    -2
286
     1
 66
     0
277
    -2
287
     1
 67
     0
278
    -2
288
     1
 68
     0
279
    -2
289
     1
 69
     0
  0
VISUALSTYLE
  5
2F
102
{ACAD_REACTORS
330
29
102
}
330
29
100
AcDbVisualStyle
  2
2dWireframe
 70
     4
177
     3
291
     0
 70
    58
 90
        0
176
     1
 90
        2
176
     1
 90
        0
176
     1
 90
        0
176
     1
 40
0.6
176
     1
 40
30.0
176
     1
 62
     7
420
 16777215
176
     1
 90
        1
176
     1
 90
        4
176
     1
 62
     7
176
     1
 62
   257
176
     1
 90
        1
176
     1
 90
        1
176
     1
 40
1.0
176
     1
 90
        0
176
     1
 62
   257
176
     1
 40
1.0
176
     1
 90
        1
176
     1
 90
        6
176
     1
 90
        2
176
     1
 62
     7
176
     1
 90
        5
176
     1
 90
        0
176
     1
 90
        0
176
     1
290
     0
176
     1
 90
        1
176
     1
 40
0.0
176
     1
 90
        0
176
     1
290
     1
176
     1
290
     1
176
     1
290
     0
176
     1
290
     0
176
     1
290
     0
176
     1
290
     0
176
     1
290
     0
176
     1
290
     0
176
     1
290
     0
176
     1
 90
       50
176
     1
 40
0.0
176
     1
 40
1.0
176
     1
 90
        0
176
     1
 62
    18
420
        0
176
     1
 90
       50
176
     1
 90
        3
176
     1
 62
     5
420
      255
176
     1
290
     0
176
     1
 90
       50
176
     1
 90
       50
176
     1
 90
       50
176
     1
290
     0
176
     1
 90
       50
176
     1
 62
   256
176
     0
 40
1.0
176
     0
 90
        2
176
     1
  1
strokes_ogs.tif
176
     1
290
     0
176
     1
 40
1.0
176
     1
 40
1.0
176
     1
1001
ACAD
1000
AcDbSavedByObjectVersion
1070
     0
  0
VISUALSTYLE
  5
2E
102
{ACAD_REACTORS
330
29
102
}
330
29
100
AcDbVisualStyle
  2
Basic
 70
     7
177
     3
291
     1
 70
    58
 90
        1
176
     1
 90
        0
176
     1
 90
        1
176
     1
 90
        0
176
     1
 40
0.6
176
     1
 40
30.0
176
     1
 62
     7
420
 16777215
176
     1
 90
        0
176
     1
 90
        4
176
     1
 62
     7
176
     1
 62
   257
176
     1
 90
        1
176
     1
 90
        1
176
     1
 40
1.0
176
     1
 90
        8
176
     1
 62
     7
176
     1
 40
1.0
176
     1
 90
        1
176
     1
 90
        6
176
     1
 90
        2
176
     1
 62
     7
176
     1
 90
        5
176
     1
 90
        0
176
     1
 90
        0
176
     1
290
     0
176
     1
 90
        1
176
     1
 40
0.0
176
     1
 90
        0
176
     1
290
     0
176
     1
290
     1
176
     1
290
     1
176
     1
290
     0
176
     1
290
     0
176
     1
290
     0
176
     1
290
     0
176
     1
290
     0
176
     1
290
     0
176
     1
 90
       50
176
     1
 40
0.0
176
     1
 40
1.0
176
     1
 90
        0
176
     1
 62
    18
420
        0
176
     1
 90
       50
176
     1
 90
        3
176
     1
 62
     5
420
      255
176
     1
290
     0
176
     1
 90
       50
176
     1
 90
       50
176
     1
 90
       50
176
     1
290
     0
176
     1
 90
       50
176
     1
 62
   256
176
     0
 40
1.0
176
     0
 90
        2
176
     1
  1
strokes_ogs.tif
176
     1
290
     0
176
     1
 40
1.0
176
     1
 40
1.0
176
     1
1001
ACAD
1000
AcDbSavedByObjectVersion
1070
     0
  0
VISUALSTYLE
  5
35
102
{ACAD_REACTORS
330
29
102
}
330
29
100
AcDbVisualStyle
  2
Brighten
 70
    12
177
     3
291
     1
 70
    58
 90
        2
176
     1
 90
        2
176
     1
 90
        0
176
     1
 90
        0
176
     1
 40
0.6
176
     1
 40
30.0
176
     1
 62
     7
420
 16777215
176
     1
 90
        1
176
     1
 90
        4
176
     1
 62
     7
176
     1
 62
   257
176
     1
 90
        1
176
     1
 90
        1
176
     1
 40
1.0
176
     1
 90
        8
176
     1
 62
     7
176
     1
 40
1.0
176
     1
 90
        1
176
     1
 90
        6
176
     1
 90
        2
176
     1
 62
     7
176
     1
 90
        5
176
     1
 90
        0
176
     1
 90
        0
176
     1
290
     0
176
     1
 90
        1
176
     1
 40
50.0
176
     1
 90
        0
176
     1
290
     0
176
     1
290
     1
176
     1
290
     1
176
     1
290
     0
176
     1
290
     0
176
     1
290
     0
176
     1
290
     0
176
     1
290
     0
176
     1
290
     0
176
     1
 90
       50
176
     1
 40
0.0
176
     1
 40
1.0
176
     1
 90
        0
176
     1
 62
    18
420
        0
176
     1
 90
       50
176
     1
 90
        3
176
     1
 62
     5
420
      255
176
     1
290
     0
176
     1
 90
       50
176
     1
 90
       50
176
     1
 90
       50
176
     1
290
     0
176
     1
 90
       50
176
     1
 62
   256
176
     0
 40
1.0
176
     0
 90
        2
176
     1
  1
strokes_ogs.tif
176
     1
290
     0
176
     1
 40
1.0
176
     1
 40
1.0
176
     1
1001
ACAD
1000
AcDbSavedByObjectVersion
1070
     0
  0
VISUALSTYLE
  5
39
102
{ACAD_REACTORS
330
29
102
}
330
29
100
AcDbVisualStyle
  2
ColorChange
 70
    16
177
     3
291
     1
 70
    58
 90
        2
176
     1
 90
        2
176
     1
 90
        3
176
     1
 90
        0
176
     1
 40
0.6
176
     1
 40
30.0
176
     1
 62
     8
420
  8421504
176
     1
 90
        1
176
     1
 90
        4
176
     1
 62
     7
176
     1
 62
   257
176
     1
 90
        1
176
     1
 90
        1
176
     1
 40
1.0
176
     1
 90
        8
176
     1
 62
     8
420
  8421504
176
     1
 40
1.0
176
     1
 90
        1
176
     1
 90
        6
176
     1
 90
        2
176
     1
 62
     7
176
     1
 90
        5
176
     1
 90
        0
176
     1
 90
        0
176
     1
290
     0
176
     1
 90
        1
176
     1
 40
0.0
176
     1
 90
        0
176
     1
290
     0
176
     1
290
     1
176
     1
290
     1
176
     1
290
     0
176
     1
290
     0
176
     1
290
     0
176
     1
290
     0
176
     1
290
     0
176
     1
290
     0
176
     1
 90
       50
176
     1
 40
0.0
176
     1
 40
1.0
176
     1
 90
        0
176
     1
 62
    18
420
        0
176
     1
 90
       50
176
     1
 90
        3
176
     1
 62
     5
420
      255
176
     1
290
     0
176
     1
 90
       50
176
     1
 90
       50
176
     1
 90
       50
176
     1
290
     0
176
     1
 90
       50
176
     1
 62
   256
176
     0
 40
1.0
176
     0
 90
        2
176
     1
  1
strokes_ogs.tif
176
     1
290
     0
176
     1
 40
1.0
176
     1
 40
1.0
176
     1
1001
ACAD
1000
AcDbSavedByObjectVersion
1070
     0
  0
VISUALSTYLE
  5
32
102
{ACAD_REACTORS
330
29
102
}
330
29
100
AcDbVisualStyle
  2
Conceptual
 70
     9
177
     3
291
     0
 70
    58
 90
        3
176
     1
 90
        2
176
     1
 90
        0
176
     1
 90
        0
176
     1
 40
0.6
176
     1
 40
30.0
176
     1
 62
     7
420
 16777215
176
     1
 90
        2
176
     1
 90
        2
176
     1
 62
     7
176
     1
 62
   257
176
     1
 90
        1
176
     1
 90
        1
176
     1
 40
179.0
176
     1
 90
        8
176
     1
 62
     7
176
     1
 40
1.0
176
     1
 90
        1
176
     1
 90
        6
176
     1
 90
        2
176
     1
 62
     7
176
     1
 90
        3
176
     1
 90
        0
176
     1
 90
        0
176
     1
290
     0
176
     1
 90
        1
176
     1
 40
0.0
176
     1
 90
        0
176
     1
290
     0
176
     1
290
     1
176
     1
290
     1
176
     1
290
     0
176
     1
290
     0
176
     1
290
     0
176
     1
290
     0
176
     1
290
     0
176
     1
290
     0
176
     1
 90
       50
176
     1
 40
0.0
176
     1
 40
1.0
176
     1
 90
        0
176
     1
 62
    18
420
        0
176
     1
 90
       50
176
     1
 90
        3
176
     1
 62
     5
420
      255
176
     1
290
     0
176
     1
 90
       50
176
     1
 90
       50
176
     1
 90
       50
176
     1
290
     0
176
     1
 90
       50
176
     1
 62
   256
176
     0
 40
1.0
176
     0
 90
        2
176
     1
  1
strokes_ogs.tif
176
     1
290
     0
176
     1
 40
1.0
176
     1
 40
1.0
176
     1
1001
ACAD
1000
AcDbSavedByObjectVersion
1070
     0
  0
VISUALSTYLE
  5
34
102
{ACAD_REACTORS
330
29
102
}
330
29
100
AcDbVisualStyle
  2
Dim
 70
    11
177
     3
291
     1
 70
    58
 90
        2
176
     1
 90
        2
176
     1
 90
        0
176
     1
 90
        0
176
     1
 40
0.6
176
     1
 40
30.0
176
     1
 62
     7
420
 16777215
176
     1
 90
        1
176
     1
 90
        4
176
     1
 62
     7
176
     1
 62
   257
176
     1
 90
        1
176
     1
 90
        1
176
     1
 40
1.0
176
     1
 90
        8
176
     1
 62
     7
176
     1
 40
1.0
176
     1
 90
        1
176
     1
 90
        6
176
     1
 90
        2
176
     1
 62
     7
176
     1
 90
        5
176
     1
 90
        0
176
     1
 90
        0
176
     1
290
     0
176
     1
 90
        1
176
     1
 40
-50.0
176
     1
 90
        0
176
     1
290
     0
176
     1
290
     1
176
     1
290
     1
176
     1
290
     0
176
     1
290
     0
176
     1
290
     0
176
     1
290
     0
176
     1
290
     0
176
     1
290
     0
176
     1
 90
       50
176
     1
 40
0.0
176
     1
 40
1.0
176
     1
 90
        0
176
     1
 62
    18
420
        0
176
     1
 90
       50
176
     1
 90
        3
176
     1
 62
     5
420
      255
176
     1
290
     0
176
     1
 90
       50
176
     1
 90
       50
176
     1
 90
       50
176
     1
290
     0
176
     1
 90
       50
176
     1
 62
   256
176
     0
 40
1.0
176
     0
 90
        2
176
     1
  1
strokes_ogs.tif
176
     1
290
     0
176
     1
 40
1.0
176
     1
 40
1.0
176
     1
1001
ACAD
1000
AcDbSavedByObjectVersion
1070
     0
  0
VISUALSTYLE
  5
41
102
{ACAD_REACTORS
330
29
102
}
330
29
100
AcDbVisualStyle
  2
EdgeColorOff
 70
    22
177
     3
291
     1
 70
    58
 90
        2
176
     0
 90
        2
176
     0
 90
        0
176
     0
 90
        0
176
     0
 40
0.6
176
     0
 40
30.0
176
     0
 62
     7
420
 16777215
176
     0
 90
        1
176
     0
 90
        4
176
     0
 62
     7
176
     0
 62
   257
176
     0
 90
        1
176
     0
 90
        1
176
     0
 40
1.0
176
     0
 90
        8
176
     2
 62
     7
176
     0
 40
1.0
176
     0
 90
        1
176
     0
 90
        6
176
     0
 90
        2
176
     0
 62
     7
176
     0
 90
        5
176
     0
 90
        0
176
     0
 90
        0
176
     0
290
     0
176
     0
 90
        1
176
     0
 40
0.0
176
     0
 90
        0
176
     0
290
     0
176
     0
290
     1
176
     0
290
     1
176
     0
290
     0
176
     0
290
     0
176
     0
290
     0
176
     0
290
     0
176
     0
290
     0
176
     0
290
     0
176
     0
 90
       50
176
     0
 40
0.0
176
     0
 40
1.0
176
     0
 90
        0
176
     0
 62
    18
420
        0
176
     0
 90
       50
176
     0
 90
        3
176
     0
 62
     5
420
      255
176
     0
290
     0
176
     0
 90
       50
176
     0
 90
       50
176
     0
 90
       50
176
     0
290
     0
176
     0
 90
       50
176
     0
 62
   256
176
     0
 40
1.0
176
     0
 90
        2
176
     0
  1
strokes_ogs.tif
176
     0
290
     0
176
     0
 40
1.0
176
     0
 40
1.0
176
     0
1001
ACAD
1000
AcDbSavedByObjectVersion
1070
     0
  0
VISUALSTYLE
  5
38
102
{ACAD_REACTORS
330
29
102
}
330
29
100
AcDbVisualStyle
  2
Facepattern
 70
    15
177
     3
291
     1
 70
    58
 90
        2
176
     1
 90
        2
176
     1
 90
        0
176
     1
 90
        0
176
     1
 40
0.6
176
     1
 40
30.0
176
     1
 62
     7
420
 16777215
176
     1
 90
        1
176
     1
 90
        4
176
     1
 62
     7
176
     1
 62
   257
176
     1
 90
        1
176
     1
 90
        1
176
     1
 40
1.0
176
     1
 90
        8
176
     1
 62
     7
176
     1
 40
1.0
176
     1
 90
        1
176
     1
 90
        6
176
     1
 90
        2
176
     1
 62
     7
176
     1
 90
        5
176
     1
 90
        0
176
     1
 90
        0
176
     1
290
     0
176
     1
 90
        1
176
     1
 40
0.0
176
     1
 90
        0
176
     1
290
     0
176
     1
290
     1
176
     1
290
     1
176
     1
290
     0
176
     1
290
     0
176
     1
290
     0
176
     1
290
     0
176
     1
290
     0
176
     1
290
     0
176
     1
 90
       50
176
     1
 40
0.0
176
     1
 40
1.0
176
     1
 90
        0
176
     1
 62
    18
420
        0
176
     1
 90
       50
176
     1
 90
        3
176
     1
 62
     5
420
      255
176
     1
290
     0
176
     1
 90
       50
176
     1
 90
       50
176
     1
 90
       50
176
     1
290
     0
176
     1
 90
       50
176
     1
 62
   256
176
     0
 40
1.0
176
     0
 90
        2
176
     1
  1
strokes_ogs.tif
176
     1
290
     0
176
     1
 40
1.0
176
     1
 40
1.0
176
     1
1001
ACAD
1000
AcDbSavedByObjectVersion
1070
     0
  0
VISUALSTYLE
  5
2A
102
{ACAD_REACTORS
330
29
102
}
330
29
100
AcDbVisualStyle
  2
Flat
 70
     0
177
     3
291
     1
 70
    58
 90
        2
176
     1
 90
        1
176
     1
 90
        1
176
     1
 90
        2
176
     1
 40
0.6
176
     1
 40
30.0
176
     1
 62
     7
420
 16777215
176
     1
 90
        0
176
     1
 90
        0
176
     1
 62
     7
176
     1
 62
   257
176
     1
 90
        1
176
     1
 90
        1
176
     1
 40
1.0
176
     1
 90
        8
176
     1
 62
     7
176
     1
 40
1.0
176
     1
 90
        1
176
     1
 90
        6
176
     1
 90
        2
176
     1
 62
     7
176
     1
 90
        5
176
     1
 90
        0
176
     1
 90
        0
176
     1
290
     0
176
     1
 90
       13
176
     1
 40
0.0
176
     1
 90
        0
176
     1
290
     0
176
     1
290
     1
176
     1
290
     1
176
     1
290
     0
176
     1
290
     0
176
     1
290
     0
176
     1
290
     0
176
     1
290
     0
176
     1
290
     0
176
     1
 90
       50
176
     1
 40
0.0
176
     1
 40
1.0
176
     1
 90
        0
176
     1
 62
    18
420
        0
176
     1
 90
       50
176
     1
 90
        3
176
     1
 62
     5
420
      255
176
     1
290
     0
176
     1
 90
       50
176
     1
 90
       50
176
     1
 90
       50
176
     1
290
     0
176
     1
 90
       50
176
     1
 62
   256
176
     0
 40
1.0
176
     0
 90
        2
176
     1
  1
strokes_ogs.tif
176
     1
290
     0
176
     1
 40
1.0
176
     1
 40
1.0
176
     1
1001
ACAD
1000
AcDbSavedByObjectVersion
1070
     0
  0
VISUALSTYLE
  5
2B
102
{ACAD_REACTORS
330
29
102
}
330
29
100
AcDbVisualStyle
  2
FlatWithEdges
 70
     1
177
     3
291
     1
 70
    58
 90
        2
176
     1
 90
        1
176
     1
 90
        1
176
     1
 90
        2
176
     1
 40
0.6
176
     1
 40
30.0
176
     1
 62
     7
420
 16777215
176
     1
 90
        1
176
     1
 90
        0
176
     1
 62
     7
176
     1
 62
   257
176
     1
 90
        1
176
     1
 90
        1
176
     1
 40
1.0
176
     1
 90
        0
176
     1
 62
   257
176
     1
 40
1.0
176
     1
 90
        1
176
     1
 90
        6
176
     1
 90
        2
176
     1
 62
     7
176
     1
 90
        5
176
     1
 90
        0
176
     1
 90
        0
176
     1
290
     0
176
     1
 90
       13
176
     1
 40
0.0
176
     1
 90
        0
176
     1
290
     0
176
     1
290
     1
176
     1
290
     1
176
     1
290
     0
176
     1
290
     0
176
     1
290
     0
176
     1
290
     0
176
     1
290
     0
176
     1
290
     0
176
     1
 90
       50
176
     1
 40
0.0
176
     1
 40
1.0
176
     1
 90
        0
176
     1
 62
    18
420
        0
176
     1
 90
       50
176
     1
 90
        3
176
     1
 62
     5
420
      255
176
     1
290
     0
176
     1
 90
       50
176
     1
 90
       50
176
     1
 90
       50
176
     1
290
     0
176
     1
 90
       50
176
     1
 62
   256
176
     0
 40
1.0
176
     0
 90
        2
176
     1
  1
strokes_ogs.tif
176
     1
290
     0
176
     1
 40
1.0
176
     1
 40
1.0
176
     1
1001
ACAD
1000
AcDbSavedByObjectVersion
1070
     0
  0
VISUALSTYLE
  5
2C
102
{ACAD_REACTORS
330
29
102
}
330
29
100
AcDbVisualStyle
  2
Gouraud
 70
     2
177
     3
291
     1
 70
    58
 90
        2
176
     1
 90
        2
176
     1
 90
        1
176
     1
 90
        2
176
     1
 40
0.6
176
     1
 40
30.0
176
     1
 62
     7
420
 16777215
176
     1
 90
        0
176
     1
 90
        0
176
     1
 62
     7
176
     1
 62
   257
176
     1
 90
        1
176
     1
 90
        1
176
     1
 40
1.0
176
     1
 90
        0
176
     1
 62
     7
176
     1
 40
1.0
176
     1
 90
        1
176
     1
 90
        6
176
     1
 90
        2
176
     1
 62
     7
176
     1
 90
        5
176
     1
 90
        0
176
     1
 90
        0
176
     1
290
     0
176
     1
 90
       13
176
     1
 40
0.0
176
     1
 90
        0
176
     1
290
     0
176
     1
290
     1
176
     1
290
     1
176
     1
290
     0
176
     1
290
     0
176
     1
290
     0
176
     1
290
     0
176
     1
290
     0
176
     1
290
     0
176
     1
 90
       50
176
     1
 40
0.0
176
     1
 40
1.0
176
     1
 90
        0
176
     1
 62
    18
420
        0
176
     1
 90
       50
176
     1
 90
        3
176
     1
 62
     5
420
      255
176
     1
290
     0
176
     1
 90
       50
176
     1
 90
       50
176
     1
 90
       50
176
     1
290
     0
176
     1
 90
       50
176
     1
 62
   256
176
     0
 40
1.0
176
     0
 90
        2
176
     1
  1
strokes_ogs.tif
176
     1
290
     0
176
     1
 40
1.0
176
     1
 40
1.0
176
     1
1001
ACAD
1000
AcDbSavedByObjectVersion
1070
     0
  0
VISUALSTYLE
  5
2D
102
{ACAD_REACTORS
330
29
102
}
330
29
100
AcDbVisualStyle
  2
GouraudWithEdges
 70
     3
177
     3
291
     1
 70
    58
 90
        2
176
     1
 90
        2
176
     1
 90
        1
176
     1
 90
        2
176
     1
 40
0.6
176
     1
 40
30.0
176
     1
 62
     7
420
 16777215
176
     1
 90
        1
176
     1
 90
        0
176
     1
 62
     7
176
     1
 62
   257
176
     1
 90
        1
176
     1
 90
        1
176
     1
 40
1.0
176
     1
 90
        0
176
     1
 62
   257
176
     1
 40
1.0
176
     1
 90
        1
176
     1
 90
        6
176
     1
 90
        2
176
     1
 62
     7
176
     1
 90
        5
176
     1
 90
        0
176
     1
 90
        0
176
     1
290
     0
176
     1
 90
       13
176
     1
 40
0.0
176
     1
 90
        0
176
     1
290
     0
176
     1
290
     1
176
     1
290
     1
176
     1
290
     0
176
     1
290
     0
176
     1
290
     0
176
     1
290
     0
176
     1
290
     0
176
     1
290
     0
176
     1
 90
       50
176
     1
 40
0.0
176
     1
 40
1.0
176
     1
 90
        0
176
     1
 62
    18
420
        0
176
     1
 90
       50
176
     1
 90
        3
176
     1
 62
     5
420
      255
176
     1
290
     0
176
     1
 90
       50
176
     1
 90
       50
176
     1
 90
       50
176
     1
290
     0
176
     1
 90
       50
176
     1
 62
   256
176
     0
 40
1.0
176
     0
 90
        2
176
     1
  1
strokes_ogs.tif
176
     1
290
     0
176
     1
 40
1.0
176
     1
 40
1.0
176
     1
1001
ACAD
1000
AcDbSavedByObjectVersion
1070
     0
  0
VISUALSTYLE
  5
31
102
{ACAD_REACTORS
330
29
102
}
330
29
100
AcDbVisualStyle
  2
Hidden
 70
     6
177
     3
291
     0
 70
    58
 90
        1
176
     1
 90
        2
176
     1
 90
        2
176
     1
 90
        0
176
     1
 40
0.6
176
     1
 40
30.0
176
     1
 62
     7
420
 16777215
176
     1
 90
        2
176
     1
 90
        2
176
     1
 62
     7
176
     1
 62
   257
176
     1
 90
        2
176
     1
 90
        1
176
     1
 40
40.0
176
     1
 90
        0
176
     1
 62
   257
176
     1
 40
1.0
176
     1
 90
        1
176
     1
 90
        6
176
     1
 90
        2
176
     1
 62
     7
176
     1
 90
        3
176
     1
 90
        0
176
     1
 90
        0
176
     1
290
     0
176
     1
 90
        1
176
     1
 40
0.0
176
     1
 90
        0
176
     1
290
     0
176
     1
290
     1
176
     1
290
     1
176
     1
290
     0
176
     1
290
     0
176
     1
290
     0
176
     1
290
     0
176
     1
290
     0
176
     1
290
     0
176
     1
 90
       50
176
     1
 40
0.0
176
     1
 40
1.0
176
     1
 90
        0
176
     1
 62
    18
420
        0
176
     1
 90
       50
176
     1
 90
        3
176
     1
 62
     5
420
      255
176
     1
290
     0
176
     1
 90
       50
176
     1
 90
       50
176
     1
 90
       50
176
     1
290
     0
176
     1
 90
       50
176
     1
 62
   256
176
     0
 40
1.0
176
     0
 90
        2
176
     1
  1
strokes_ogs.tif
176
     1
290
     0
176
     1
 40
1.0
176
     1
 40
1.0
176
     1
1001
ACAD
1000
AcDbSavedByObjectVersion
1070
     0
  0
VISUALSTYLE
  5
3F
102
{ACAD_REACTORS
330
29
102
}
330
29
100
AcDbVisualStyle
  2
JitterOff
 70
    20
177
     3
291
     1
 70
    58
 90
        2
176
     0
 90
        2
176
     0
 90
        0
176
     0
 90
        0
176
     0
 40
0.6
176
     0
 40
30.0
176
     0
 62
     7
420
 16777215
176
     0
 90
        1
176
     0
 90
        4
176
     0
 62
     7
176
     0
 62
   257
176
     0
 90
        1
176
     0
 90
        1
176
     0
 40
1.0
176
     0
 90
       10
176
     2
 62
     7
176
     0
 40
1.0
176
     0
 90
        1
176
     0
 90
        6
176
     0
 90
        2
176
     0
 62
     7
176
     0
 90
        5
176
     0
 90
        0
176
     0
 90
        0
176
     0
290
     0
176
     0
 90
        1
176
     0
 40
0.0
176
     0
 90
        0
176
     0
290
     0
176
     0
290
     1
176
     0
290
     1
176
     0
290
     0
176
     0
290
     0
176
     0
290
     0
176
     0
290
     0
176
     0
290
     0
176
     0
290
     0
176
     0
 90
       50
176
     0
 40
0.0
176
     0
 40
1.0
176
     0
 90
        0
176
     0
 62
    18
420
        0
176
     0
 90
       50
176
     0
 90
        3
176
     0
 62
     5
420
      255
176
     0
290
     0
176
     0
 90
       50
176
     0
 90
       50
176
     0
 90
       50
176
     0
290
     0
176
     0
 90
       50
176
     0
 62
   256
176
     0
 40
1.0
176
     0
 90
        2
176
     0
  1
strokes_ogs.tif
176
     0
290
     0
176
     0
 40
1.0
176
     0
 40
1.0
176
     0
1001
ACAD
1000
AcDbSavedByObjectVersion
1070
     0
  0
VISUALSTYLE
  5
37
102
{ACAD_REACTORS
330
29
102
}
330
29
100
AcDbVisualStyle
  2
Linepattern
 70
    14
177
     3
291
     1
 70
    58
 90
        2
176
     1
 90
        2
176
     1
 90
        0
176
     1
 90
        0
176
     1
 40
0.6
176
     1
 40
30.0
176
     1
 62
     7
420
 16777215
176
     1
 90
        1
176
     1
 90
        4
176
     1
 62
     7
176
     1
 62
   257
176
     1
 90
        7
176
     1
 90
        7
176
     1
 40
1.0
176
     1
 90
        8
176
     1
 62
     7
176
     1
 40
1.0
176
     1
 90
        1
176
     1
 90
        6
176
     1
 90
        2
176
     1
 62
     7
176
     1
 90
        5
176
     1
 90
        0
176
     1
 90
        0
176
     1
290
     0
176
     1
 90
        1
176
     1
 40
0.0
176
     1
 90
        0
176
     1
290
     0
176
     1
290
     1
176
     1
290
     1
176
     1
290
     0
176
     1
290
     0
176
     1
290
     0
176
     1
290
     0
176
     1
290
     0
176
     1
290
     0
176
     1
 90
       50
176
     1
 40
0.0
176
     1
 40
1.0
176
     1
 90
        0
176
     1
 62
    18
420
        0
176
     1
 90
       50
176
     1
 90
        3
176
     1
 62
     5
420
      255
176
     1
290
     0
176
     1
 90
       50
176
     1
 90
       50
176
     1
 90
       50
176
     1
290
     0
176
     1
 90
       50
176
     1
 62
   256
176
     0
 40
1.0
176
     0
 90
        2
176
     1
  1
strokes_ogs.tif
176
     1
290
     0
176
     1
 40
1.0
176
     1
 40
1.0
176
     1
1001
ACAD
1000
AcDbSavedByObjectVersion
1070
     0
  0
VISUALSTYLE
  5
40
102
{ACAD_REACTORS
330
29
102
}
330
29
100
AcDbVisualStyle
  2
OverhangOff
 70
    21
177
     3
291
     1
 70
    58
 90
        2
176
     0
 90
        2
176
     0
 90
        0
176
     0
 90
        0
176
     0
 40
0.6
176
     0
 40
30.0
176
     0
 62
     7
420
 16777215
176
     0
 90
        1
176
     0
 90
        4
176
     0
 62
     7
176
     0
 62
   257
176
     0
 90
        1
176
     0
 90
        1
176
     0
 40
1.0
176
     0
 90
        9
176
     2
 62
     7
176
     0
 40
1.0
176
     0
 90
        1
176
     0
 90
        6
176
     0
 90
        2
176
     0
 62
     7
176
     0
 90
        5
176
     0
 90
        0
176
     0
 90
        0
176
     0
290
     0
176
     0
 90
        1
176
     0
 40
0.0
176
     0
 90
        0
176
     0
290
     0
176
     0
290
     1
176
     0
290
     1
176
     0
290
     0
176
     0
290
     0
176
     0
290
     0
176
     0
290
     0
176
     0
290
     0
176
     0
290
     0
176
     0
 90
       50
176
     0
 40
0.0
176
     0
 40
1.0
176
     0
 90
        0
176
     0
 62
    18
420
        0
176
     0
 90
       50
176
     0
 90
        3
176
     0
 62
     5
420
      255
176
     0
290
     0
176
     0
 90
       50
176
     0
 90
       50
176
     0
 90
       50
176
     0
290
     0
176
     0
 90
       50
176
     0
 62
   256
176
     0
 40
1.0
176
     0
 90
        2
176
     0
  1
strokes_ogs.tif
176
     0
290
     0
176
     0
 40
1.0
176
     0
 40
1.0
176
     0
1001
ACAD
1000
AcDbSavedByObjectVersion
1070
     0
  0
VISUALSTYLE
  5
33
102
{ACAD_REACTORS
330
29
102
}
330
29
100
AcDbVisualStyle
  2
Realistic
 70
     8
177
     3
291
     0
 70
    58
 90
        2
176
     1
 90
        3
176
     1
 90
        0
176
     1
 90
        2
176
     1
 40
0.6
176
     1
 40
30.0
176
     1
 62
     7
420
 16777215
176
     1
 90
        0
176
     1
 90
        0
176
     1
 62
     7
176
     1
 62
   257
176
     1
 90
        1
176
     1
 90
        1
176
     1
 40
1.0
176
     1
 90
        8
176
     1
 62
   257
176
     1
 40
1.0
176
     1
 90
        1
176
     1
 90
        6
176
     1
 90
        2
176
     1
 62
     7
176
     1
 90
        3
176
     1
 90
        0
176
     1
 90
        0
176
     1
290
     0
176
     1
 90
       13
176
     1
 40
0.0
176
     1
 90
        0
176
     1
290
     0
176
     1
290
     1
176
     1
290
     1
176
     1
290
     0
176
     1
290
     0
176
     1
290
     0
176
     1
290
     0
176
     1
290
     0
176
     1
290
     0
176
     1
 90
       50
176
     1
 40
0.0
176
     1
 40
1.0
176
     1
 90
        0
176
     1
 62
    18
420
        0
176
     1
 90
       50
176
     1
 90
        3
176
     1
 62
     5
420
      255
176
     1
290
     0
176
     1
 90
       50
176
     1
 90
       50
176
     1
 90
       50
176
     1
290
     0
176
     1
 90
       50
176
     1
 62
   256
176
     0
 40
1.0
176
     0
 90
        2
176
     1
  1
strokes_ogs.tif
176
     1
290
     0
176
     1
 40
1.0
176
     1
 40
1.0
176
     1
1001
ACAD
1000
AcDbSavedByObjectVersion
1070
     0
  0
VISUALSTYLE
  5
3E
102
{ACAD_REACTORS
330
29
102
}
330
29
100
AcDbVisualStyle
  2
Shaded
 70
    27
177
     3
291
     0
 70
    58
 90
        2
176
     1
 90
        2
176
     1
 90
        1
176
     1
 90
        2
176
     1
 40
0.6
176
     1
 40
30.0
176
     1
 62
     7
420
 16777215
176
     1
 90
        0
176
     1
 90
        4
176
     1
 62
     7
176
     1
 62
   257
176
     1
 90
        1
176
     1
 90
        1
176
     1
 40
1.0
176
     1
 90
        8
176
     1
 62
   257
176
     1
 40
1.0
176
     1
 90
        1
176
     1
 90
        6
176
     1
 90
        2
176
     1
 62
     8
420
  7895160
176
     1
 90
        3
176
     1
 90
        0
176
     1
 90
        0
176
     1
290
     0
176
     1
 90
        5
176
     1
 40
0.0
176
     1
 90
        0
176
     1
290
     0
176
     1
290
     1
176
     1
290
     1
176
     1
290
     0
176
     1
290
     0
176
     1
290
     0
176
     1
290
     0
176
     1
290
     0
176
     1
290
     0
176
     1
 90
       50
176
     1
 40
0.0
176
     1
 40
1.0
176
     1
 90
        0
176
     1
 62
    18
420
        0
176
     1
 90
       50
176
     1
 90
        3
176
     1
 62
     5
420
      255
176
     1
290
     0
176
     1
 90
       50
176
     1
 90
       50
176
     1
 90
       50
176
     1
290
     0
176
     1
 90
       50
176
     1
 62
   256
176
     0
 40
1.0
176
     0
 90
        2
176
     1
  1
strokes_ogs.tif
176
     1
290
     0
176
     1
 40
1.0
176
     1
 40
1.0
176
     1
1001
ACAD
1000
AcDbSavedByObjectVersion
1070
     0
  0
VISUALSTYLE
  5
3D
102
{ACAD_REACTORS
330
29
102
}
330
29
100
AcDbVisualStyle
  2
Shaded with edges
 70
    26
177
     3
291
     0
 70
    58
 90
        2
176
     1
 90
        2
176
     1
 90
        1
176
     1
 90
        2
176
     1
 40
0.6
176
     1
 40
30.0
176
     1
 62
     7
420
 16777215
176
     1
 90
        1
176
     1
 90
        2
176
     1
 62
     7
176
     1
 62
   257
176
     1
 90
        2
176
     1
 90
        1
176
     1
 40
1.0
176
     1
 90
        8
176
     1
 62
   257
176
     1
 40
1.0
176
     1
 90
        1
176
     1
 90
        6
176
     1
 90
        2
176
     1
 62
     7
176
     1
 90
        3
176
     1
 90
        0
176
     1
 90
        0
176
     1
290
     0
176
     1
 90
        5
176
     1
 40
0.0
176
     1
 90
        0
176
     1
290
     0
176
     1
290
     1
176
     1
290
     1
176
     1
290
     0
176
     1
290
     0
176
     1
290
     0
176
     1
290
     0
176
     1
290
     0
176
     1
290
     0
176
     1
 90
       50
176
     1
 40
0.0
176
     1
 40
1.0
176
     1
 90
        0
176
     1
 62
    18
420
        0
176
     1
 90
       50
176
     1
 90
        3
176
     1
 62
     5
420
      255
176
     1
290
     0
176
     1
 90
       50
176
     1
 90
       50
176
     1
 90
       50
176
     1
290
     0
176
     1
 90
       50
176
     1
 62
   256
176
     0
 40
1.0
176
     0
 90
        2
176
     1
  1
strokes_ogs.tif
176
     1
290
     0
176
     1
 40
1.0
176
     1
 40
1.0
176
     1
1001
ACAD
1000
AcDbSavedByObjectVersion
1070
     0
  0
VISUALSTYLE
  5
3A
102
{ACAD_REACTORS
330
29
102
}
330
29
100
AcDbVisualStyle
  2
Shades of Gray
 70
    23
177
     3
291
     0
 70
    58
 90
        2
176
     1
 90
        2
176
     1
 90
        3
176
     1
 90
        0
176
     1
 40
0.6
176
     1
 40
30.0
176
     1
 62
     7
420
 16777215
176
     1
 90
        2
176
     1
 90
        2
176
     1
 62
     7
176
     1
 62
     7
176
     1
 90
        1
176
     1
 90
        1
176
     1
 40
40.0
176
     1
 90
        8
176
     1
 62
     7
176
     1
 40
1.0
176
     1
 90
        1
176
     1
 90
        6
176
     1
 90
        2
176
     1
 62
     7
176
     1
 90
        3
176
     1
 90
        0
176
     1
 90
        0
176
     1
290
     0
176
     1
 90
        1
176
     1
 40
0.0
176
     1
 90
        0
176
     1
290
     0
176
     1
290
     1
176
     1
290
     1
176
     1
290
     0
176
     1
290
     0
176
     1
290
     0
176
     1
290
     0
176
     1
290
     0
176
     1
290
     0
176
     1
 90
       50
176
     1
 40
0.0
176
     1
 40
1.0
176
     1
 90
        0
176
     1
 62
    18
420
        0
176
     1
 90
       50
176
     1
 90
        3
176
     1
 62
     5
420
      255
176
     1
290
     0
176
     1
 90
       50
176
     1
 90
       50
176
     1
 90
       50
176
     1
290
     0
176
     1
 90
       50
176
     1
 62
   256
176
     0
 40
1.0
176
     0
 90
        2
176
     1
  1
strokes_ogs.tif
176
     1
290
     0
176
     1
 40
1.0
176
     1
 40
1.0
176
     1
1001
ACAD
1000
AcDbSavedByObjectVersion
1070
     0
  0
VISUALSTYLE
  5
3B
102
{ACAD_REACTORS
330
29
102
}
330
29
100
AcDbVisualStyle
  2
Sketchy
 70
    24
177
     3
291
     0
 70
    58
 90
        1
176
     1
 90
        2
176
     1
 90
        2
176
     1
 90
        0
176
     1
 40
0.6
176
     1
 40
30.0
176
     1
 62
     7
420
 16777215
176
     1
 90
        2
176
     1
 90
        2
176
     1
 62
     7
176
     1
 62
     7
176
     1
 90
        1
176
     1
 90
        1
176
     1
 40
40.0
176
     1
 90
       11
176
     1
 62
     7
176
     1
 40
1.0
176
     1
 90
        1
176
     1
 90
        6
176
     1
 90
        2
176
     1
 62
     7
176
     1
 90
        6
176
     1
 90
        0
176
     1
 90
        0
176
     1
290
     0
176
     1
 90
        1
176
     1
 40
0.0
176
     1
 90
        0
176
     1
290
     0
176
     1
290
     1
176
     1
290
     1
176
     1
290
     0
176
     1
290
     0
176
     1
290
     0
176
     1
290
     0
176
     1
290
     0
176
     1
290
     0
176
     1
 90
       50
176
     1
 40
0.0
176
     1
 40
1.0
176
     1
 90
        0
176
     1
 62
    18
420
        0
176
     1
 90
       50
176
     1
 90
        3
176
     1
 62
     5
420
      255
176
     1
290
     0
176
     1
 90
       50
176
     1
 90
       50
176
     1
 90
       50
176
     1
290
     0
176
     1
 90
       50
176
     1
 62
   256
176
     0
 40
1.0
176
     0
 90
        2
176
     1
  1
strokes_ogs.tif
176
     1
290
     0
176
     1
 40
1.0
176
     1
 40
1.0
176
     1
1001
ACAD
1000
AcDbSavedByObjectVersion
1070
     0
  0
VISUALSTYLE
  5
36
102
{ACAD_REACTORS
330
29
102
}
330
29
100
AcDbVisualStyle
  2
Thicken
 70
    13
177
     3
291
     1
 70
    58
 90
        2
176
     1
 90
        2
176
     1
 90
        0
176
     1
 90
        0
176
     1
 40
0.6
176
     1
 40
30.0
176
     1
 62
     7
420
 16777215
176
     1
 90
        1
176
     1
 90
        4
176
     1
 62
     7
176
     1
 62
   257
176
     1
 90
        1
176
     1
 90
        1
176
     1
 40
1.0
176
     1
 90
       12
176
     1
 62
     7
176
     1
 40
1.0
176
     1
 90
        1
176
     1
 90
        6
176
     1
 90
        2
176
     1
 62
     7
176
     1
 90
        5
176
     1
 90
        0
176
     1
 90
        0
176
     1
290
     0
176
     1
 90
        1
176
     1
 40
0.0
176
     1
 90
        0
176
     1
290
     0
176
     1
290
     1
176
     1
290
     1
176
     1
290
     0
176
     1
290
     0
176
     1
290
     0
176
     1
290
     0
176
     1
290
     0
176
     1
290
     0
176
     1
 90
       50
176
     1
 40
0.0
176
     1
 40
1.0
176
     1
 90
        0
176
     1
 62
    18
420
        0
176
     1
 90
       50
176
     1
 90
        3
176
     1
 62
     5
420
      255
176
     1
290
     0
176
     1
 90
       50
176
     1
 90
       50
176
     1
 90
       50
176
     1
290
     0
176
     1
 90
       50
176
     1
 62
   256
176
     0
 40
1.0
176
     0
 90
        2
176
     1
  1
strokes_ogs.tif
176
     1
290
     0
176
     1
 40
1.0
176
     1
 40
1.0
176
     1
1001
ACAD
1000
AcDbSavedByObjectVersion
1070
     0
  0
VISUALSTYLE
  5
30
102
{ACAD_REACTORS
330
29
102
}
330
29
100
AcDbVisualStyle
  2
Wireframe
 70
     5
177
     3
291
     0
 70
    58
 90
        0
176
     1
 90
        2
176
     1
 90
        0
176
     1
 90
        0
176
     1
 40
0.6
176
     1
 40
30.0
176
     1
 62
     7
420
 16777215
176
     1
 90
        1
176
     1
 90
        4
176
     1
 62
     7
176
     1
 62
   257
176
     1
 90
        1
176
     1
 90
        1
176
     1
 40
1.0
176
     1
 90
        0
176
     1
 62
   257
176
     1
 40
1.0
176
     1
 90
        1
176
     1
 90
        6
176
     1
 90
        2
176
     1
 62
     7
176
     1
 90
        3
176
     1
 90
        0
176
     1
 90
        0
176
     1
290
     0
176
     1
 90
        1
176
     1
 40
0.0
176
     1
 90
        0
176
     1
290
     0
176
     1
290
     1
176
     1
290
     1
176
     1
290
     0
176
     1
290
     0
176
     1
290
     0
176
     1
290
     0
176
     1
290
     0
176
     1
290
     0
176
     1
 90
       50
176
     1
 40
0.0
176
     1
 40
1.0
176
     1
 90
        0
176
     1
 62
    18
420
        0
176
     1
 90
       50
176
     1
 90
        3
176
     1
 62
     5
420
      255
176
     1
290
     0
176
     1
 90
       50
176
     1
 90
       50
176
     1
 90
       50
176
     1
290
     0
176
     1
 90
       50
176
     1
 62
   256
176
     0
 40
1.0
176
     0
 90
        2
176
     1
  1
strokes_ogs.tif
176
     1
290
     0
176
     1
 40
1.0
176
     1
 40
1.0
176
     1
1001
ACAD
1000
AcDbSavedByObjectVersion
1070
     0
  0
VISUALSTYLE
  5
3C
102
{ACAD_REACTORS
330
29
102
}
330
29
100
AcDbVisualStyle
  2
X-Ray
 70
    25
177
     3
291
     0
 70
    58
 90
        2
176
     1
 90
        2
176
     1
 90
        1
176
     1
 90
        1
176
     1
 40
0.5
176
     1
 40
30.0
176
     1
 62
     7
420
 16777215
176
     1
 90
        1
176
     1
 90
        0
176
     1
 62
     7
176
     1
 62
   257
176
     1
 90
        1
176
     1
 90
        1
176
     1
 40
1.0
176
     1
 90
        8
176
     1
 62
     7
176
     1
 40
1.0
176
     1
 90
        1
176
     1
 90
        6
176
     1
 90
        2
176
     1
 62
     7
176
     1
 90
        3
176
     1
 90
        0
176
     1
 90
        0
176
     1
290
     0
176
     1
 90
       13
176
     1
 40
0.0
176
     1
 90
        0
176
     1
290
     0
176
     1
290
     1
176
     1
290
     1
176
     1
290
     0
176
     1
290
     0
176
     1
290
     0
176
     1
290
     0
176
     1
290
     0
176
     1
290
     0
176
     1
 90
       50
176
     1
 40
0.0
176
     1
 40
1.0
176
     1
 90
        0
176
     1
 62
    18
420
        0
176
     1
 90
       50
176
     1
 90
        3
176
     1
 62
     5
420
      255
176
     1
290
     0
176
     1
 90
       50
176
     1
 90
       50
176
     1
 90
       50
176
     1
290
     0
176
     1
 90
       50
176
     1
 62
   256
176
     0
 40
1.0
176
     0
 90
        2
176
     1
  1
strokes_ogs.tif
176
     1
290
     0
176
     1
 40
1.0
176
     1
 40
1.0
176
     1
1001
ACAD
1000
AcDbSavedByObjectVersion
1070
     0
  0
DICTIONARYVAR
  5
4E4
102
{ACAD_REACTORS
330
4DF
102
}
330
4DF
100
DictionaryVariables
280
     0
  1
0
  0
DICTIONARYVAR
  5
4E5
102
{ACAD_REACTORS
330
4DF
102
}
330
4DF
100
DictionaryVariables
280
     0
  1
1:1
  0
DICTIONARYVAR
  5
4E1
102
{ACAD_REACTORS
330
4DF
102
}
330
4DF
100
DictionaryVariables
280
     0
  1
STANDARD
  0
DICTIONARYVAR
  5
4E0
102
{ACAD_REACTORS
330
4DF
102
}
330
4DF
100
DictionaryVariables
280
     0
  1
STANDARD
  0
DICTIONARYVAR
  5
4E2
102
{ACAD_REACTORS
330
4DF
102
}
330
4DF
100
DictionaryVariables
280
     0
  1
Imperial24
  0
DICTIONARYVAR
  5
4E3
102
{ACAD_REACTORS
330
4DF
102
}
330
4DF
100
DictionaryVariables
280
     0
  1
Imperial24
  0
DICTIONARY
  5
536
330
6B
100
AcDbDictionary
280
     1
281
     1
  3
ACAD_XREC_ROUNDTRIP
360
537
  0
DICTIONARY
  5
1A
330
19
100
AcDbDictionary
280
     1
281
     1
  3
BUMPTILE
360
1C
  3
DIFFUSETILE
360
1B
  3
OPACITYTILE
360
1F
  3
REFLECTIONTILE
360
1E
  3
REFRACTIONTILE
360
20
  3
SPECULARTILE
360
1D
  0
DICTIONARY
  5
12
330
11
100
AcDbDictionary
280
     1
281
     1
  3
BUMPTILE
360
14
  3
DIFFUSETILE
360
13
  3
OPACITYTILE
360
17
  3
REFLECTIONTILE
360
16
  3
REFRACTIONTILE
360
18
  3
SPECULARTILE
360
15
  0
DICTIONARY
  5
22
330
21
100
AcDbDictionary
280
     1
281
     1
  3
BUMPTILE
360
24
  3
DIFFUSETILE
360
23
  3
OPACITYTILE
360
27
  3
REFLECTIONTILE
360
26
  3
REFRACTIONTILE
360
28
  3
SPECULARTILE
360
25
  0
DICTIONARY
  5
534
330
69
100
AcDbDictionary
280
     1
281
     1
  3
ACAD_XREC_ROUNDTRIP
360
535
  0
DICTIONARY
  5
4E6
330
65
100
AcDbDictionary
280
     1
281
     1
  3
ACAD_ROUNDTRIP_2008_TABLESTYLE_CELLSTYLEMAP
360
4E7
  0
XRECORD
  5
537
102
{ACAD_REACTORS
330
536
102
}
330
536
100
AcDbXrecord
280
     1
102
DISPLAYNAME
  1
Imperial24
102
FLAGS
 90
        0
  0
XRECORD
  5
1C
102
{ACAD_REACTORS
330
1A
102
}
330
1A
100
AcDbXrecord
280
     1
270
     1
271
     1
  0
XRECORD
  5
1B
102
{ACAD_REACTORS
330
1A
102
}
330
1A
100
AcDbXrecord
280
     1
270
     1
271
     1
  0
XRECORD
  5
1F
102
{ACAD_REACTORS
330
1A
102
}
330
1A
100
AcDbXrecord
280
     1
270
     1
271
     1
  0
XRECORD
  5
1E
102
{ACAD_REACTORS
330
1A
102
}
330
1A
100
AcDbXrecord
280
     1
270
     1
271
     1
  0
XRECORD
  5
20
102
{ACAD_REACTORS
330
1A
102
}
330
1A
100
AcDbXrecord
280
     1
270
     1
271
     1
  0
XRECORD
  5
1D
102
{ACAD_REACTORS
330
1A
102
}
330
1A
100
AcDbXrecord
280
     1
270
     1
271
     1
  0
XRECORD
  5
14
102
{ACAD_REACTORS
330
12
102
}
330
12
100
AcDbXrecord
280
     1
270
     1
271
     1
  0
XRECORD
  5
13
102
{ACAD_REACTORS
330
12
102
}
330
12
100
AcDbXrecord
280
     1
270
     1
271
     1
  0
XRECORD
  5
17
102
{ACAD_REACTORS
330
12
102
}
330
12
100
AcDbXrecord
280
     1
270
     1
271
     1
  0
XRECORD
  5
16
102
{ACAD_REACTORS
330
12
102
}
330
12
100
AcDbXrecord
280
     1
270
     1
271
     1
  0
XRECORD
  5
18
102
{ACAD_REACTORS
330
12
102
}
330
12
100
AcDbXrecord
280
     1
270
     1
271
     1
  0
XRECORD
  5
15
102
{ACAD_REACTORS
330
12
102
}
330
12
100
AcDbXrecord
280
     1
270
     1
271
     1
  0
XRECORD
  5
24
102
{ACAD_REACTORS
330
22
102
}
330
22
100
AcDbXrecord
280
     1
270
     1
271
     1
  0
XRECORD
  5
23
102
{ACAD_REACTORS
330
22
102
}
330
22
100
AcDbXrecord
280
     1
270
     1
271
     1
  0
XRECORD
  5
27
102
{ACAD_REACTORS
330
22
102
}
330
22
100
AcDbXrecord
280
     1
270
     1
271
     1
  0
XRECORD
  5
26
102
{ACAD_REACTORS
330
22
102
}
330
22
100
AcDbXrecord
280
     1
270
     1
271
     1
  0
XRECORD
  5
28
102
{ACAD_REACTORS
330
22
102
}
330
22
100
AcDbXrecord
280
     1
270
     1
271
     1
  0
XRECORD
  5
25
102
{ACAD_REACTORS
330
22
102
}
330
22
100
AcDbXrecord
280
     1
270
     1
271
     1
  0
XRECORD
  5
535
102
{ACAD_REACTORS
330
534
102
}
330
534
100
AcDbXrecord
280
     1
102
DISPLAYNAME
  1
Imperial24
102
FLAGS
 90
        0
  0
CELLSTYLEMAP
  5
4E7
102
{ACAD_REACTORS
330
4E6
102
}
330
4E6
100
AcDbCellStyleMap
 90
        3
300
CELLSTYLE
  1
TABLEFORMAT_BEGIN
 90
        5
170
     1
 91
        0
 92
    32768
 62
   257
 93
        1
300
CONTENTFORMAT
  1
CONTENTFORMAT_BEGIN
 90
        0
 91
        0
 92
      512
 93
        0
300

 40
0.0
140
1.0
 94
        5
 62
     0
340
55
144
0.25
309
CONTENTFORMAT_END
171
     1
301
MARGIN
  1
CELLMARGIN_BEGIN
 40
1.5
 40
1.5
 40
1.5
 40
1.5
 40
0.18
 40
0.18
309
CELLMARGIN_END
 94
        0
309
TABLEFORMAT_END
  1
CELLSTYLE_BEGIN
 90
        1
 91
        1
300
_TITLE
309
CELLSTYLE_END
300
CELLSTYLE
  1
TABLEFORMAT_BEGIN
 90
        5
170
     1
 91
        0
 92
        0
 62
   257
 93
        1
300
CONTENTFORMAT
  1
CONTENTFORMAT_BEGIN
 90
        0
 91
        0
 92
      512
 93
        0
300

 40
0.0
140
1.0
 94
        5
 62
     0
340
55
144
0.18
309
CONTENTFORMAT_END
171
     1
301
MARGIN
  1
CELLMARGIN_BEGIN
 40
1.5
 40
1.5
 40
1.5
 40
1.5
 40
0.18
 40
0.18
309
CELLMARGIN_END
 94
        0
309
TABLEFORMAT_END
  1
CELLSTYLE_BEGIN
 90
        2
 91
        1
300
_HEADER
309
CELLSTYLE_END
300
CELLSTYLE
  1
TABLEFORMAT_BEGIN
 90
        5
170
     1
 91
        0
 92
        0
 62
   257
 93
        1
300
CONTENTFORMAT
  1
CONTENTFORMAT_BEGIN
 90
        0
 91
        0
 92
      512
 93
        0
300

 40
0.0
140
1.0
 94
        2
 62
     0
340
55
144
0.18
309
CONTENTFORMAT_END
171
     1
301
MARGIN
  1
CELLMARGIN_BEGIN
 40
1.5
 40
1.5
 40
1.5
 40
1.5
 40
0.18
 40
0.18
309
CELLMARGIN_END
 94
        0
309
TABLEFORMAT_END
  1
CELLSTYLE_BEGIN
 90
        3
 91
        2
300
_DATA
309
CELLSTYLE_END
  0
ENDSEC
  0
EOF
