  0
SECTION
  2
HEADER
  9
$ACADVER
  1
AC1027
  9
$ACADMAINTVER
 70
   125
  9
$DWGCODEPAGE
  3
ANSI_1252
  9
$LASTSAVEDBY
  1
Administrator
  9
$REQUIREDVERSIONS
160
                 0
  9
$INSBASE
 10
0.0
 20
0.0
 30
0.0
  9
$EXTMIN
 10
0.0
 20
0.0
 30
0.0
  9
$EXTMAX
 10
420.0
 20
297.0
 30
35.0
  9
$LIMMIN
 10
0.0
 20
0.0
  9
$LIMMAX
 10
420.0
 20
297.0
  9
$ORTHOMODE
 70
     0
  9
$REGENMODE
 70
     1
  9
$FILLMODE
 70
     1
  9
$QTEXTMODE
 70
     0
  9
$MIRRTEXT
 70
     0
  9
$LTSCALE
 40
0.75
  9
$ATTMODE
 70
     1
  9
$TEXTSIZE
 40
3.5
  9
$TRACEWID
 40
1.0
  9
$TEXTSTYLE
  7
Standard
  9
$CLAYER
  8
0
  9
$CELTYPE
  6
ByLayer
  9
$CECOLOR
 62
   256
  9
$CELTSCALE
 40
1.0
  9
$DISPSILH
 70
     0
  9
$DIMSCALE
 40
1.0
  9
$DIMASZ
 40
3.5
  9
$DIMEXO
 40
2.0
  9
$DIMDLI
 40
9.899495
  9
$DIMRND
 40
0.0
  9
$DIMDLE
 40
0.0
  9
$DIMEXE
 40
2.0
  9
$DIMTP
 40
0.1
  9
$DIMTM
 40
0.1
  9
$DIMTXT
 40
3.5
  9
$DIMCEN
 40
0.0
  9
$DIMTSZ
 40
0.0
  9
$DIMTOL
 70
     0
  9
$DIMLIM
 70
     0
  9
$DIMTIH
 70
     0
  9
$DIMTOH
 70
     0
  9
$DIMSE1
 70
     0
  9
$DIMSE2
 70
     0
  9
$DIMTAD
 70
     1
  9
$DIMZIN
 70
    12
  9
$DIMBLK
  1

  9
$DIMASO
 70
     1
  9
$DIMSHO
 70
     1
  9
$DIMPOST
  1

  9
$DIMAPOST
  1
in
  9
$DIMALT
 70
     0
  9
$DIMALTD
 70
     4
  9
$DIMALTF
 40
0.03937
  9
$DIMLFAC
 40
1.0
  9
$DIMTOFL
 70
     1
  9
$DIMTVP
 40
0.0
  9
$DIMTIX
 70
     0
  9
$DIMSOXD
 70
     0
  9
$DIMSAH
 70
     0
  9
$DIMBLK1
  1

  9
$DIMBLK2
  1

  9
$DIMSTYLE
  2
ISO-25
  9
$DIMCLRD
 70
   256
  9
$DIMCLRE
 70
   256
  9
$DIMCLRT
 70
   256
  9
$DIMTFAC
 40
0.714
  9
$DIMGAP
 40
1.5
  9
$DIMJUST
 70
     0
  9
$DIMSD1
 70
     0
  9
$DIMSD2
 70
     0
  9
$DIMTOLJ
 70
     0
  9
$DIMTZIN
 70
    12
  9
$DIMALTZ
 70
    12
  9
$DIMALTTZ
 70
    12
  9
$DIMUPT
 70
     0
  9
$DIMDEC
 70
     2
  9
$DIMTDEC
 70
     2
  9
$DIMALTU
 70
     2
  9
$DIMALTTD
 70
     4
  9
$DIMTXSTY
  7
Standard
  9
$DIMAUNIT
 70
     0
  9
$DIMADEC
 70
     2
  9
$DIMALTRND
 40
0.0
  9
$DIMAZIN
 70
     3
  9
$DIMDSEP
 70
    46
  9
$DIMATFIT
 70
     3
  9
$DIMFRAC
 70
     0
  9
$DIMLDRBLK
  1

  9
$DIMLUNIT
 70
     2
  9
$DIMLWD
 70
    -2
  9
$DIMLWE
 70
    -2
  9
$DIMTMOVE
 70
     0
  9
$DIMFXL
 40
1.0
  9
$DIMFXLON
 70
     0
  9
$DIMJOGANG
 40
0.785398
  9
$DIMTFILL
 70
     0
  9
$DIMTFILLCLR
 70
     0
  9
$DIMARCSYM
 70
     0
  9
$DIMLTYPE
  6

  9
$DIMLTEX1
  6

  9
$DIMLTEX2
  6

  9
$DIMTXTDIRECTION
 70
     0
  9
$LUNITS
 70
     2
  9
$LUPREC
 70
     4
  9
$SKETCHINC
 40
1.0
  9
$FILLETRAD
 40
0.0
  9
$AUNITS
 70
     0
  9
$AUPREC
 70
     0
  9
$MENU
  1
.
  9
$ELEVATION
 40
0.0
  9
$PELEVATION
 40
0.0
  9
$THICKNESS
 40
0.0
  9
$LIMCHECK
 70
     0
  9
$CHAMFERA
 40
0.0
  9
$CHAMFERB
 40
0.0
  9
$CHAMFERC
 40
0.0
  9
$CHAMFERD
 40
0.0
  9
$SKPOLY
 70
     0
  9
$TDCREATE
 40
2459156.817094908
  9
$TDUCREATE
 40
2459156.817094908
  9
$TDUPDATE
 40
2459156.817094908
  9
$TDUUPDATE
 40
2459156.817094908
  9
$TDINDWG
 40
0.0000000000
  9
$TDUSRTIMER
 40
0.0000000000
  9
$USRTIMER
 70
     1
  9
$ANGBASE
 50
0.0
  9
$ANGDIR
 70
     0
  9
$PDMODE
 70
     0
  9
$PDSIZE
 40
0.0
  9
$PLINEWID
 40
0.0
  9
$SPLFRAME
 70
     0
  9
$SPLINETYPE
 70
     6
  9
$SPLINESEGS
 70
     8
  9
$HANDSEED
  5
48F
  9
$SURFTAB1
 70
     6
  9
$SURFTAB2
 70
     6
  9
$SURFTYPE
 70
     6
  9
$SURFU
 70
     6
  9
$SURFV
 70
     6
  9
$UCSBASE
  2

  9
$UCSNAME
  2

  9
$UCSORG
 10
0.0
 20
0.0
 30
0.0
  9
$UCSXDIR
 10
1.0
 20
0.0
 30
0.0
  9
$UCSYDIR
 10
0.0
 20
1.0
 30
0.0
  9
$UCSORTHOREF
  2

  9
$UCSORTHOVIEW
 70
     0
  9
$UCSORGTOP
 10
0.0
 20
0.0
 30
0.0
  9
$UCSORGBOTTOM
 10
0.0
 20
0.0
 30
0.0
  9
$UCSORGLEFT
 10
0.0
 20
0.0
 30
0.0
  9
$UCSORGRIGHT
 10
0.0
 20
0.0
 30
0.0
  9
$UCSORGFRONT
 10
0.0
 20
0.0
 30
0.0
  9
$UCSORGBACK
 10
0.0
 20
0.0
 30
0.0
  9
$PUCSBASE
  2

  9
$PUCSNAME
  2

  9
$PUCSORG
 10
0.0
 20
0.0
 30
0.0
  9
$PUCSXDIR
 10
1.0
 20
0.0
 30
0.0
  9
$PUCSYDIR
 10
0.0
 20
1.0
 30
0.0
  9
$PUCSORTHOREF
  2

  9
$PUCSORTHOVIEW
 70
     0
  9
$PUCSORGTOP
 10
0.0
 20
0.0
 30
0.0
  9
$PUCSORGBOTTOM
 10
0.0
 20
0.0
 30
0.0
  9
$PUCSORGLEFT
 10
0.0
 20
0.0
 30
0.0
  9
$PUCSORGRIGHT
 10
0.0
 20
0.0
 30
0.0
  9
$PUCSORGFRONT
 10
0.0
 20
0.0
 30
0.0
  9
$PUCSORGBACK
 10
0.0
 20
0.0
 30
0.0
  9
$USERI1
 70
     0
  9
$USERI2
 70
     0
  9
$USERI3
 70
     0
  9
$USERI4
 70
     0
  9
$USERI5
 70
     0
  9
$USERR1
 40
0.0
  9
$USERR2
 40
0.0
  9
$USERR3
 40
0.0
  9
$USERR4
 40
0.0
  9
$USERR5
 40
0.0
  9
$WORLDVIEW
 70
     1
  9
$SHADEDGE
 70
     3
  9
$SHADEDIF
 70
    70
  9
$TILEMODE
 70
     1
  9
$MAXACTVP
 70
    64
  9
$PINSBASE
 10
0.0
 20
0.0
 30
0.0
  9
$PLIMCHECK
 70
     0
  9
$PEXTMIN
 10
1.000000E+20
 20
1.000000E+20
 30
1.000000E+20
  9
$PEXTMAX
 10
-1.000000E+20
 20
-1.000000E+20
 30
-1.000000E+20
  9
$PLIMMIN
 10
0.0
 20
0.0
  9
$PLIMMAX
 10
12.0
 20
9.0
  9
$UNITMODE
 70
     0
  9
$VISRETAIN
 70
     1
  9
$PLINEGEN
 70
     0
  9
$PSLTSCALE
 70
     1
  9
$TREEDEPTH
 70
  3020
  9
$CMLSTYLE
  2
Standard
  9
$CMLJUST
 70
     0
  9
$CMLSCALE
 40
20.0
  9
$PROXYGRAPHICS
 70
     1
  9
$MEASUREMENT
 70
     1
  9
$CELWEIGHT
370
    -1
  9
$ENDCAPS
280
     0
  9
$JOINSTYLE
280
     0
  9
$LWDISPLAY
290
     0
  9
$INSUNITS
 70
     4
  9
$HYPERLINKBASE
  1

  9
$STYLESHEET
  1

  9
$XEDIT
290
     1
  9
$CEPSNTYPE
380
     0
  9
$PSTYLEMODE
290
     1
  9
$FINGERPRINTGUID
  2
{D486A57A-DF6C-3F40-8F3F-BA7C8A5D26C4}
  9
$VERSIONGUID
  2
{905A61FC-5121-1742-9306-FF729F802F72}
  9
$EXTNAMES
290
     1
  9
$PSVPSCALE
 40
0.0
  9
$OLESTARTUP
290
     0
  9
$SORTENTS
280
   127
  9
$INDEXCTL
280
     0
  9
$HIDETEXT
280
     1
  9
$XCLIPFRAME
280
     2
  9
$HALOGAP
280
     0
  9
$OBSCOLOR
 70
   257
  9
$OBSLTYPE
280
     0
  9
$INTERSECTIONDISPLAY
280
     0
  9
$INTERSECTIONCOLOR
 70
   257
  9
$DIMASSOC
280
     2
  9
$PROJECTNAME
  1

  9
$CAMERADISPLAY
290
     0
  9
$LENSLENGTH
 40
50.0
  9
$CAMERAHEIGHT
 40
0.0
  9
$STEPSPERSEC
 40
2.0
  9
$STEPSIZE
 40
6.0
  9
$3DDWFPREC
 40
2.0
  9
$PSOLWIDTH
 40
5.0
  9
$PSOLHEIGHT
 40
80.0
  9
$LOFTANG1
 40
1.570796
  9
$LOFTANG2
 40
1.570796
  9
$LOFTMAG1
 40
0.0
  9
$LOFTMAG2
 40
0.0
  9
$LOFTPARAM
 70
     7
  9
$LOFTNORMALS
280
     1
  9
$LATITUDE
 40
37.795
  9
$LONGITUDE
 40
-122.394
  9
$NORTHDIRECTION
 40
0.0
  9
$TIMEZONE
 70
 -8000
  9
$LIGHTGLYPHDISPLAY
280
     1
  9
$TILEMODELIGHTSYNCH
280
     1
  9
$CMATERIAL
347
11
  9
$SOLIDHIST
280
     0
  9
$SHOWHIST
280
     1
  9
$DWFFRAME
280
     2
  9
$DGNFRAME
280
     0
  9
$REALWORLDSCALE
290
     1
  9
$INTERFERECOLOR
 62
     1
  9
$INTERFEREOBJVS
345
33
  9
$INTERFEREVPVS
346
30
  9
$CSHADOW
280
     0
  9
$SHADOWPLANELOCATION
 40
0.0
  0
ENDSEC
  0
SECTION
  2
CLASSES
  0
CLASS
  1
ACDBDICTIONARYWDFLT
  2
AcDbDictionaryWithDefault
  3
ObjectDBX Classes
 90
        0
 91
        1
280
     0
281
     0
  0
CLASS
  1
MATERIAL
  2
AcDbMaterial
  3
ObjectDBX Classes
 90
     1153
 91
        3
280
     0
281
     0
  0
CLASS
  1
VISUALSTYLE
  2
AcDbVisualStyle
  3
ObjectDBX Classes
 90
     4095
 91
       24
280
     0
281
     0
  0
CLASS
  1
SCALE
  2
AcDbScale
  3
ObjectDBX Classes
 90
     1153
 91
       17
280
     0
281
     0
  0
CLASS
  1
TABLESTYLE
  2
AcDbTableStyle
  3
ObjectDBX Classes
 90
     4095
 91
        1
280
     0
281
     0
  0
CLASS
  1
MLEADERSTYLE
  2
AcDbMLeaderStyle
  3
ACDB_MLEADERSTYLE_CLASS
 90
     4095
 91
        1
280
     0
281
     0
  0
CLASS
  1
ACDBSECTIONVIEWSTYLE
  2
AcDbSectionViewStyle
  3
ObjectDBX Classes
 90
     1025
 91
        1
280
     0
281
     0
  0
CLASS
  1
ACDBDETAILVIEWSTYLE
  2
AcDbDetailViewStyle
  3
ObjectDBX Classes
 90
     1025
 91
        1
280
     0
281
     0
  0
CLASS
  1
ACMESCOPE
  2
AcMeScope
  3
AcMeServices
 90
     1024
 91
        1
280
     0
281
     0
  0
CLASS
  1
ACMECOMMANDHISTORY
  2
AcMeCommandHistory
  3
AcMeServices
 90
     1024
 91
        1
280
     0
281
     0
  0
CLASS
  1
ACIMSYSVARMAN
  2
AcImSysVarManager
  3
AcMeServices
 90
     1024
 91
        1
280
     0
281
     0
  0
CLASS
  1
ACIMINTSYSVAR
  2
AcImIntSysVar
  3
AcMeServices
 90
     1024
 91
        1
280
     0
281
     0
  0
CLASS
  1
ACMESTATEMGR
  2
AcMeStateMgr
  3
AcMeServices
 90
     1024
 91
        1
280
     0
281
     0
  0
CLASS
  1
ACGREFMASTER
  2
AcGrefMaster
  3
AcAttribServices
 90
     1024
 91
        1
280
     0
281
     0
  0
CLASS
  1
SORTENTSTABLE
  2
AcDbSortentsTable
  3
ObjectDBX Classes
 90
        0
 91
        3
280
     0
281
     0
  0
CLASS
  1
DICTIONARYVAR
  2
AcDbDictionaryVar
  3
ObjectDBX Classes
 90
        0
 91
        6
280
     0
281
     0
  0
CLASS
  1
CELLSTYLEMAP
  2
AcDbCellStyleMap
  3
ObjectDBX Classes
 90
     1152
 91
        1
280
     0
281
     0
  0
ENDSEC
  0
SECTION
  2
TABLES
  0
TABLE
  2
VPORT
  5
8
330
0
100
AcDbSymbolTable
 70
     1
1001
ACAD
1000
DbSaveVer
1071
      223
  0
VPORT
  5
57
330
8
100
AcDbSymbolTableRecord
100
AcDbViewportTableRecord
  2
*Active
 70
     0
 10
0.0
 20
0.0
 11
1.0
 21
1.0
 12
210.0
 22
148.5
 13
0.0
 23
0.0
 14
10.0
 24
10.0
 15
0.0
 25
0.0
 16
0.0
 26
0.0
 36
1.0
 17
0.0
 27
0.0
 37
0.0
 40
297.0
 41
1.779601
 42
50.0
 43
0.0
 44
0.0
 50
0.0
 51
0.0
 71
     0
 72
 20000
 73
     1
 74
     0
 75
     0
 76
     0
 77
     0
 78
     0
281
     0
 65
     1
110
0.0
120
0.0
130
0.0
111
1.0
121
0.0
131
0.0
112
0.0
122
1.0
132
0.0
 79
     0
146
0.0
348
2F
 60
     3
 61
     5
292
     1
282
     1
141
0.0
142
0.0
 63
   250
421
  3355443
  0
ENDTAB
  0
TABLE
  2
LTYPE
  5
5
330
0
100
AcDbSymbolTable
 70
    15
  0
LTYPE
  5
5B
330
5
100
AcDbSymbolTableRecord
100
AcDbLinetypeTableRecord
  2
ByBlock
 70
     0
  3

 72
    65
 73
     0
 40
0.0
  0
LTYPE
  5
5C
330
5
100
AcDbSymbolTableRecord
100
AcDbLinetypeTableRecord
  2
ByLayer
 70
     0
  3

 72
    65
 73
     0
 40
0.0
  0
LTYPE
  5
5D
330
5
100
AcDbSymbolTableRecord
100
AcDbLinetypeTableRecord
  2
Continuous
 70
     0
  3
Solid line
 72
    65
 73
     0
 40
0.0
  0
LTYPE
  5
81
330
5
100
AcDbSymbolTableRecord
100
AcDbLinetypeTableRecord
  2
HIDDEN
 70
     0
  3
Hidden __ __ __ __ __ __ __ __ __ __ __ __ __ _
 72
    65
 73
     2
 40
9.525
 49
6.35
 74
     0
 49
-3.175
 74
     0
  0
LTYPE
  5
82
330
5
100
AcDbSymbolTableRecord
100
AcDbLinetypeTableRecord
  2
PHANTOM2
 70
     0
  3
Phantom (.5x) ___ _ _ ___ _ _ ___ _ _ ___ _ _
 72
    65
 73
     6
 40
31.75
 49
15.875
 74
     0
 49
-3.175
 74
     0
 49
3.175
 74
     0
 49
-3.175
 74
     0
 49
3.175
 74
     0
 49
-3.175
 74
     0
  0
LTYPE
  5
83
330
5
100
AcDbSymbolTableRecord
100
AcDbLinetypeTableRecord
  2
CENTER
 70
     0
  3
Center ____ _ ____ _ ____ _ ____ _ ____ _ ____
 72
    65
 73
     4
 40
50.8
 49
31.75
 74
     0
 49
-6.35
 74
     0
 49
6.35
 74
     0
 49
-6.35
 74
     0
  0
LTYPE
  5
9C
330
5
100
AcDbSymbolTableRecord
100
AcDbLinetypeTableRecord
  2
AM_ISO02W050
 70
     0
  3
__ __ __ __ __ __ __ __ __ __ __ __ __ __ __
 72
    65
 73
     2
 40
7.5
 49
6.0
 74
     0
 49
-1.5
 74
     0
  0
LTYPE
  5
9D
330
5
100
AcDbSymbolTableRecord
100
AcDbLinetypeTableRecord
  2
AM_ISO08W050
 70
     0
  3
____ . ____ . ____ . ____ . ____ . ____ . ____
 72
    65
 73
     4
 40
18.0
 49
12.0
 74
     0
 49
-1.5
 74
     0
 49
3.0
 74
     0
 49
-1.5
 74
     0
  0
LTYPE
  5
9E
330
5
100
AcDbSymbolTableRecord
100
AcDbLinetypeTableRecord
  2
AM_ISO09W050
 70
     0
  3
_____ . . _____ . . _____ . . ____ .. ____
 72
    65
 73
     6
 40
22.5
 49
12.0
 74
     0
 49
-1.5
 74
     0
 49
3.0
 74
     0
 49
-1.5
 74
     0
 49
3.0
 74
     0
 49
-1.5
 74
     0
  0
LTYPE
  5
9F
330
5
100
AcDbSymbolTableRecord
100
AcDbLinetypeTableRecord
  2
Amconstr
 70
     0
  3
_______________________
 72
    65
 73
     2
 40
9999.0
 49
9999.0
 74
     0
 49
0.0
 74
     0
  0
LTYPE
  5
A0
330
5
100
AcDbSymbolTableRecord
100
AcDbLinetypeTableRecord
  2
AM_ISO08W050x2
 70
     0
  3
__ . __ . __ . __ . __ . __
 72
    65
 73
     4
 40
9.0
 49
6.0
 74
     0
 49
-0.75
 74
     0
 49
1.5
 74
     0
 49
-0.75
 74
     0
  0
LTYPE
  5
A1
330
5
100
AcDbSymbolTableRecord
100
AcDbLinetypeTableRecord
  2
AM_ISO02W050x2
 70
     0
  3
 _ _ _ _ _ _ _ _ _ _ _ _
 72
    65
 73
     2
 40
3.75
 49
3.0
 74
     0
 49
-0.75
 74
     0
  0
LTYPE
  5
A2
330
5
100
AcDbSymbolTableRecord
100
AcDbLinetypeTableRecord
  2
Amzigzag
 70
     0
  3
/\/-/\/-/\/-/\/-/\/-/\/
 72
    65
 73
     2
 40
11.0001
 49
0.0001
 74
     4
 75
   136
340
99
 46
0.04
 50
0.0
 44
0.0
 45
0.0
 49
-11.0
 74
     0
  0
LTYPE
  5
A3
330
5
100
AcDbSymbolTableRecord
100
AcDbLinetypeTableRecord
  2
ACISOWELD
 70
     0
  3
_ _ _ _ _
 72
    65
 73
     2
 40
2.0
 49
2.0
 74
     0
 49
-1.0
 74
     0
  0
LTYPE
  5
A4
330
5
100
AcDbSymbolTableRecord
100
AcDbLinetypeTableRecord
  2
ACISOTGL
 70
     0
  3
_ _ _ _ _
 72
    65
 73
     2
 40
3.0
 49
2.0
 74
     0
 49
-1.0
 74
     0
  0
LTYPE
  5
A5
330
5
100
AcDbSymbolTableRecord
100
AcDbLinetypeTableRecord
  2
ACISOTGB
 70
     0
  3
__ . . __ . .
 72
    65
 73
     6
 40
9.0
 49
4.0
 74
     0
 49
-1.0
 74
     0
 49
1.0
 74
     0
 49
-1.0
 74
     0
 49
1.0
 74
     0
 49
-1.0
 74
     0
  0
LTYPE
  5
A6
330
5
100
AcDbSymbolTableRecord
100
AcDbLinetypeTableRecord
  2
ACAD_VIEWBORDER_LINETYPE
 70
     0
  3
Dashed line in view border
 72
    83
 73
     2
 40
10.0
 49
1.59
 74
     0
 49
-6.35
 74
     0
1001
ACAD_EXEMPT_FROM_CAD_STANDARDS
1070
     1
  0
ENDTAB
  0
TABLE
  2
LAYER
  5
2
330
0
100
AcDbSymbolTable
 70
     9
  0
LAYER
  5
54
330
2
100
AcDbSymbolTableRecord
100
AcDbLayerTableRecord
  2
0
 70
     0
 62
     7
  6
Continuous
370
    -3
390
F
347
21
348
0
1001
AcAecLayerStandard
1000

1000

  0
LAYER
  5
79
330
2
100
AcDbSymbolTableRecord
100
AcDbLayerTableRecord
  2
Defpoints
 70
     0
 62
     7
  6
Continuous
290
     0
370
    -3
390
F
347
21
348
0
1001
AcAecLayerStandard
1000

1000

  0
LAYER
  5
B1
330
2
100
AcDbSymbolTableRecord
100
AcDbLayerTableRecord
  2
Visible
 70
     0
 62
     7
  6
Continuous
370
    50
390
F
347
21
348
0
  0
LAYER
  5
F4
330
2
100
AcDbSymbolTableRecord
100
AcDbLayerTableRecord
  2
Border
 70
     0
 62
     7
  6
Continuous
370
    25
390
F
347
21
348
0
1001
AcAecLayerStandard
1000

1000

1001
AcCmTransparency
1071
        0
  0
LAYER
  5
13A
330
2
100
AcDbSymbolTableRecord
100
AcDbLayerTableRecord
  2
TitleBlock
 70
     0
 62
     7
  6
Continuous
370
    35
390
F
347
21
348
0
1001
AcAecLayerStandard
1000

1000

1001
AcCmTransparency
1071
        0
  0
LAYER
  5
177
330
2
100
AcDbSymbolTableRecord
100
AcDbLayerTableRecord
  2
Dimensions
 70
     0
 62
     7
  6
Continuous
370
    25
390
F
347
21
348
0
  0
ENDTAB
  0
TABLE
  2
STYLE
  5
3
330
0
100
AcDbSymbolTable
 70
     5
  0
STYLE
  5
55
330
3
100
AcDbSymbolTableRecord
100
AcDbTextStyleTableRecord
  2
Standard
 70
     0
 40
0.0
 41
1.0
 50
0.0
 71
     0
 42
3.5
  3
arial.ttf
  4

1001
ACAD
1000
Arial
1071
       34
  0
STYLE
  5
5A
330
3
100
AcDbSymbolTableRecord
100
AcDbTextStyleTableRecord
  2
Annotative
 70
     0
 40
0.0
 41
1.0
 50
0.0
 71
     0
 42
0.2
  3
txt
  4

1001
AcadAnnotative
1000
AnnotativeData
1002
{
1070
     1
1070
     1
1002
}
  0
STYLE
  5
98
330
3
100
AcDbSymbolTableRecord
100
AcDbTextStyleTableRecord
  2
FusionTitle
 70
     0
 40
0.0
 41
1.0
 50
0.0
 71
     0
 42
2.5
  3

  4

1001
ACAD
1000
Arial Unicode MS
1071
       34
  0
STYLE
  5
99
330
3
100
AcDbSymbolTableRecord
100
AcDbTextStyleTableRecord
  2

 70
     1
 40
0.0
 41
1.0
 50
0.0
 71
     0
 42
10.0
  3
genltshp.shx
  4

  0
STYLE
  5
9A
330
3
100
AcDbSymbolTableRecord
100
AcDbTextStyleTableRecord
  2
ACISOGDT
 70
     0
 40
0.0
 41
1.0
 50
0.0
 71
     0
 42
10.0
  3
amgdt.shx
  4

  0
ENDTAB
  0
TABLE
  2
VIEW
  5
6
330
0
100
AcDbSymbolTable
 70
     0
  0
ENDTAB
  0
TABLE
  2
UCS
  5
7
330
0
100
AcDbSymbolTable
 70
     0
  0
ENDTAB
  0
TABLE
  2
APPID
  5
9
330
0
100
AcDbSymbolTable
 70
    25
  0
APPID
  5
56
330
9
100
AcDbSymbolTableRecord
100
AcDbRegAppTableRecord
  2
ACAD
 70
     0
  0
APPID
  5
5E
330
9
100
AcDbSymbolTableRecord
100
AcDbRegAppTableRecord
  2
AcadAnnotative
 70
     0
  0
APPID
  5
78
330
9
100
AcDbSymbolTableRecord
100
AcDbRegAppTableRecord
  2
ACAD_PSEXT
 70
     0
  0
APPID
  5
7A
330
9
100
AcDbSymbolTableRecord
100
AcDbRegAppTableRecord
  2
MCAD_NO_VIS
 70
     0
  0
APPID
  5
7B
330
9
100
AcDbSymbolTableRecord
100
AcDbRegAppTableRecord
  2
ACAD_TEMP_GRAPHIC
 70
     0
  0
APPID
  5
84
330
9
100
AcDbSymbolTableRecord
100
AcDbRegAppTableRecord
  2
ACAD_DSTYLE_DIMJAG
 70
     0
  0
APPID
  5
85
330
9
100
AcDbSymbolTableRecord
100
AcDbRegAppTableRecord
  2
ACAD_DSTYLE_DIMTALN
 70
     0
  0
APPID
  5
86
330
9
100
AcDbSymbolTableRecord
100
AcDbRegAppTableRecord
  2
ACAD_NAV_VCDISPLAY
 70
     0
  0
APPID
  5
87
330
9
100
AcDbSymbolTableRecord
100
AcDbRegAppTableRecord
  2
AcAecLayerStandard
 70
     0
  0
APPID
  5
88
330
9
100
AcDbSymbolTableRecord
100
AcDbRegAppTableRecord
  2
AcCmTransparency
 70
     0
  0
APPID
  5
89
330
9
100
AcDbSymbolTableRecord
100
AcDbRegAppTableRecord
  2
AcDbDynamicBlockGUID
 70
     0
  0
APPID
  5
8A
330
9
100
AcDbSymbolTableRecord
100
AcDbRegAppTableRecord
  2
ACAD_EXEMPT_FROM_CAD_STANDARDS
 70
     0
  0
APPID
  5
8B
330
9
100
AcDbSymbolTableRecord
100
AcDbRegAppTableRecord
  2
ACAD_DSTYLE_DIMBREAK
 70
     0
  0
APPID
  5
8C
330
9
100
AcDbSymbolTableRecord
100
AcDbRegAppTableRecord
  2
ACAD_DSTYLE_DIMRADIAL_EXTENSION
 70
     0
  0
APPID
  5
8D
330
9
100
AcDbSymbolTableRecord
100
AcDbRegAppTableRecord
  2
FUSIONTITLEBLOCK
 70
     0
  0
APPID
  5
8E
330
9
100
AcDbSymbolTableRecord
100
AcDbRegAppTableRecord
  2
FUSIONCURRENTTITLEBLOCK
 70
     0
  0
APPID
  5
8F
330
9
100
AcDbSymbolTableRecord
100
AcDbRegAppTableRecord
  2
AcSynergy
 70
     0
  0
APPID
  5
90
330
9
100
AcDbSymbolTableRecord
100
AcDbRegAppTableRecord
  2
GENIUS_GENSCREG_15
 70
     0
  0
APPID
  5
91
330
9
100
AcDbSymbolTableRecord
100
AcDbRegAppTableRecord
  2
GENIUS_GENOBJ-N-SDF_13
 70
     0
  0
APPID
  5
92
330
9
100
AcDbSymbolTableRecord
100
AcDbRegAppTableRecord
  2
GENIUS_GENODEF_13
 70
     0
  0
APPID
  5
93
330
9
100
AcDbSymbolTableRecord
100
AcDbRegAppTableRecord
  2
ACAD_DIMASSOC_CALC_DIMLFAC
 70
     0
  0
APPID
  5
94
330
9
100
AcDbSymbolTableRecord
100
AcDbRegAppTableRecord
  2
ACAD_DIMASSOC_DIMLFAC
 70
     0
  0
APPID
  5
95
330
9
100
AcDbSymbolTableRecord
100
AcDbRegAppTableRecord
  2
ACAD_DIMASSOC_OVERRIDDEN_DIMLFAC
 70
     0
  0
APPID
  5
96
330
9
100
AcDbSymbolTableRecord
100
AcDbRegAppTableRecord
  2
ACAD_DSTYLE_DIMINSPECT
 70
     0
  0
APPID
  5
97
330
9
100
AcDbSymbolTableRecord
100
AcDbRegAppTableRecord
  2
ACATTRIBSERVICES
 70
     0
  0
ENDTAB
  0
TABLE
  2
DIMSTYLE
  5
A
330
0
100
AcDbSymbolTable
 70
     3
100
AcDbDimStyleTable
 71
     1
340
A9
  0
DIMSTYLE
105
58
330
A
100
AcDbSymbolTableRecord
100
AcDbDimStyleTableRecord
  2
Standard
 70
     0
  4
in
 43
9.899495
 78
    12
 79
     3
140
3.5
143
0.03937
179
     2
271
     2
272
     2
284
    12
285
    12
286
    12
340
55
  0
DIMSTYLE
105
59
330
A
100
AcDbSymbolTableRecord
100
AcDbDimStyleTableRecord
  2
Annotative
 70
     0
  4
in
 40
0.0
 41
2.5
 42
0.625
 43
9.899495
 44
1.25
 73
     0
 74
     0
 77
     1
 78
    12
 79
     3
140
3.5
141
2.5
143
0.03937
147
0.625
171
     3
172
     1
179
     2
271
     2
272
     2
274
     3
278
    44
283
     0
284
    12
285
    12
286
    12
340
55
1001
AcadAnnotative
1000
AnnotativeData
1002
{
1070
     1
1070
     1
1002
}
  0
DIMSTYLE
105
A9
102
{ACAD_REACTORS
330
176
330
184
330
191
330
19B
330
1A7
330
1B3
330
1BF
330
1C9
330
1D8
330
1E7
330
1F3
102
}
330
A
100
AcDbSymbolTableRecord
100
AcDbDimStyleTableRecord
  2
ISO-25
 70
     0
  4
in
 41
3.5
 42
2.0
 43
9.899495
 44
2.0
 47
0.1
 48
0.1
 73
     0
 74
     0
 77
     1
 78
    12
 79
     3
140
3.5
141
0.0
143
0.03937
146
0.714
147
1.5
171
     4
172
     1
176
   256
177
   256
178
   256
179
     2
271
     2
272
     2
274
     4
283
     0
284
    12
285
    12
286
    12
340
55
1001
ACAD_DSTYLE_DIMBREAK
1070
   391
1040
3.5
1001
ACAD_DSTYLE_DIMJAG
1070
   388
1040
1.5
1001
ACAD_DSTYLE_DIMTALN
1070
   392
1070
     1
  0
ENDTAB
  0
TABLE
  2
BLOCK_RECORD
  5
1
330
0
100
AcDbSymbolTable
 70
    28
  0
BLOCK_RECORD
  5
70
102
{ACAD_XDICTIONARY
360
AA
102
}
330
1
100
AcDbSymbolTableRecord
100
AcDbBlockTableRecord
  2
*Model_Space
340
73
 70
     0
280
     1
281
     0
  0
BLOCK_RECORD
  5
6C
330
1
100
AcDbSymbolTableRecord
100
AcDbBlockTableRecord
  2
*Paper_Space
340
6F
 70
     0
280
     1
281
     0
  0
BLOCK_RECORD
  5
74
330
1
100
AcDbSymbolTableRecord
100
AcDbBlockTableRecord
  2
*Paper_Space0
340
77
 70
     0
280
     1
281
     0
  0
BLOCK_RECORD
  5
F5
102
{ACAD_XDICTIONARY
360
F6
102
}
330
1
100
AcDbSymbolTableRecord
100
AcDbBlockTableRecord
  2
ISO_A3_SHEET
340
0
310
2800000020000000200000000100080000000000000400000000000000000000000000000000000000000000000080000080000000808000800000008000800080800000C0C0C000C0DCC000F0CAA6000020400000206000002080000020A0000020C0000020E00000400000004020000040400000406000004080000040A0
310
000040C0000040E00000600000006020000060400000606000006080000060A0000060C0000060E00000800000008020000080400000806000008080000080A0000080C0000080E00000A0000000A0200000A0400000A0600000A0800000A0A00000A0C00000A0E00000C0000000C0200000C0400000C0600000C0800000C0
310
A00000C0C00000C0E00000E0000000E0200000E0400000E0600000E0800000E0A00000E0C00000E0E00040000000400020004000400040006000400080004000A0004000C0004000E00040200000402020004020400040206000402080004020A0004020C0004020E000404000004040200040404000404060004040800040
310
40A0004040C0004040E00040600000406020004060400040606000406080004060A0004060C0004060E00040800000408020004080400040806000408080004080A0004080C0004080E00040A0000040A0200040A0400040A0600040A0800040A0A00040A0C00040A0E00040C0000040C0200040C0400040C0600040C08000
310
40C0A00040C0C00040C0E00040E0000040E0200040E0400040E0600040E0800040E0A00040E0C00040E0E00080000000800020008000400080006000800080008000A0008000C0008000E00080200000802020008020400080206000802080008020A0008020C0008020E00080400000804020008040400080406000804080
310
008040A0008040C0008040E00080600000806020008060400080606000806080008060A0008060C0008060E00080800000808020008080400080806000808080008080A0008080C0008080E00080A0000080A0200080A0400080A0600080A0800080A0A00080A0C00080A0E00080C0000080C0200080C0400080C0600080C0
310
800080C0A00080C0C00080C0E00080E0000080E0200080E0400080E0600080E0800080E0A00080E0C00080E0E000C0000000C0002000C0004000C0006000C0008000C000A000C000C000C000E000C0200000C0202000C0204000C0206000C0208000C020A000C020C000C020E000C0400000C0402000C0404000C0406000C0
310
408000C040A000C040C000C040E000C0600000C0602000C0604000C0606000C0608000C060A000C060C000C060E000C0800000C0802000C0804000C0806000C0808000C080A000C080C000C080E000C0A00000C0A02000C0A04000C0A06000C0A08000C0A0A000C0A0C000C0A0E000C0C00000C0C02000C0C04000C0C06000
310
C0C08000C0C0A000F0FBFF00A4A0A000808080000000FF0000FF000000FFFF00FF000000FF00FF00FFFF0000FFFFFF0049494949494949494949494949494949494949494949494949494949494949494949494949494949494949494949494949494949494949494949494949494949494949494949494949494949494949
310
494949494949494949494949494949494949494949494949494949494949494949494949494949494949494949494949494949494949494949494949494949494949494949494949494949494949494949494949494949494949494949494949494949494949494949494949494949494949FFFFFFFFFFFFFFFFFFFFFFFFFF
310
FFFFFFFFFFFFFFFFFFFFFFFFFFFFFFFFFF4949FF49FF494949494949494949494949FF494949494949494949494949FFFF49494949FF49494949494949494949494949494949494949494949494949FF49494949FFFF49494949494949494949494949494949494949494949494949FF4949494949FF494949494949494949
310
49494949494949494949494949494949FF4949494949FF49494949494949494949494949494949494949494949494949FF49494949FFFF49494949494949494949494949494949494949494949494949FF4949494949FF49494949494949494949494949494949494949494949494949FF4949494949FF4949494949494949
310
4949494949494949494949494949494949FF4949494949FF49494949494949494949494949494949494949494949494949FF49494949FFFF49494949494949494949494949494949494949494949494949FF4949494949FF49494949494949494949494949494949494949494949494949FF4949494949FF49494949494949
310
494949494949494949494949494949494949FF49494949FFFF49494949494949494949494949494949494949494949494949FF4949494949FF49494949494949494949494949494949494949494949494949FF4949494949FF49494949494949494949494949494949494949494949494949FF49494949FFFF494949494949
310
49494949494949494949494949494949494949FF4949494949FF49494949494949494949494949494949494949494949494949FF494949FF49FF494949494949494949494949FF494949494949494949494949FFFF4949FFFFFFFFFFFFFFFFFFFFFFFFFFFFFFFFFFFFFFFFFFFFFFFFFFFFFFFFFFFF49494949494949494949
310
49494949494949494949494949494949494949494949494949494949494949494949494949494949494949494949494949494949494949494949494949494949494949494949494949494949494949494949494949494949494949494949494949494949494949494949494949494949494949494949494949494949494949
310
4949494949494949494949494949494949494949494949494949494949494949494949494949494949494949494949494949494949494949
102
{BLKREFS
331
F3
102
}
 70
     4
280
     1
281
     0
1001
AcDbDynamicBlockGUID
1000
{07A5C5DD-4C06-4845-B0CC-3BDC2931AC72}
  0
BLOCK_RECORD
  5
13B
102
{ACAD_XDICTIONARY
360
13C
102
}
330
1
100
AcDbSymbolTableRecord
100
AcDbBlockTableRecord
  2
ISO_TITLEBLOCK
340
0
310
2800000020000000200000000100080000000000000400000000000000000000000000000000000000000000000080000080000000808000800000008000800080800000C0C0C000C0DCC000F0CAA6000020400000206000002080000020A0000020C0000020E00000400000004020000040400000406000004080000040A0
310
000040C0000040E00000600000006020000060400000606000006080000060A0000060C0000060E00000800000008020000080400000806000008080000080A0000080C0000080E00000A0000000A0200000A0400000A0600000A0800000A0A00000A0C00000A0E00000C0000000C0200000C0400000C0600000C0800000C0
310
A00000C0C00000C0E00000E0000000E0200000E0400000E0600000E0800000E0A00000E0C00000E0E00040000000400020004000400040006000400080004000A0004000C0004000E00040200000402020004020400040206000402080004020A0004020C0004020E000404000004040200040404000404060004040800040
310
40A0004040C0004040E00040600000406020004060400040606000406080004060A0004060C0004060E00040800000408020004080400040806000408080004080A0004080C0004080E00040A0000040A0200040A0400040A0600040A0800040A0A00040A0C00040A0E00040C0000040C0200040C0400040C0600040C08000
310
40C0A00040C0C00040C0E00040E0000040E0200040E0400040E0600040E0800040E0A00040E0C00040E0E00080000000800020008000400080006000800080008000A0008000C0008000E00080200000802020008020400080206000802080008020A0008020C0008020E00080400000804020008040400080406000804080
310
008040A0008040C0008040E00080600000806020008060400080606000806080008060A0008060C0008060E00080800000808020008080400080806000808080008080A0008080C0008080E00080A0000080A0200080A0400080A0600080A0800080A0A00080A0C00080A0E00080C0000080C0200080C0400080C0600080C0
310
800080C0A00080C0C00080C0E00080E0000080E0200080E0400080E0600080E0800080E0A00080E0C00080E0E000C0000000C0002000C0004000C0006000C0008000C000A000C000C000C000E000C0200000C0202000C0204000C0206000C0208000C020A000C020C000C020E000C0400000C0402000C0404000C0406000C0
310
408000C040A000C040C000C040E000C0600000C0602000C0604000C0606000C0608000C060A000C060C000C060E000C0800000C0802000C0804000C0806000C0808000C080A000C080C000C080E000C0A00000C0A02000C0A04000C0A06000C0A08000C0A0A000C0A0C000C0A0E000C0C00000C0C02000C0C04000C0C06000
310
C0C08000C0C0A000F0FBFF00A4A0A000808080000000FF0000FF000000FFFF00FF000000FF00FF00FFFF0000FFFFFF0049494949494949494949494949494949494949494949494949494949494949494949494949494949494949494949494949494949494949494949494949494949494949494949494949494949494949
310
49494949494949494949494949494949494949494949494949494949494949494949494949494949494949494949494949494949494949494949494949494949494949494949494949494949494949494949494949494949494949494949494949494949494949494949494949494949494949494949494949494949494949
310
49494949494949494949494949494949494949494949494949494949494949494949494949494949494949494949494949494949494949494949494949494949494949494949494949494949494949494949494949494949494949494949494949494949494949494949494949494949494949494949494949494949494949
310
49494949494949494949494949494949494949494949494949494949494949494949494949494949494949494949494949494949FFFFFFFFFFFFFFFFFFFFFFFFFFFFFFFFFFFFFFFFFFFFFFFFFFFFFF4949494949FF4949494949494949FFFFFFFFFF49494949FFFFFFFFFFFFFFFFFFFF49494949FF4949494949494949FFFF
310
FFFFFF494949FFFFFFFFFFFFFFFFFFFF4949494949FF4949494949494949FFFFFFFFFF494949FFFFFFFFFFFFFFFFFFFF4949494949FF4949494949494949FFFFFFFFFFFFFFFFFFFFFFFFFFFFFFFFFFFF4949494949FFFFFFFFFFFFFFFFFFFFFFFFFFFFFFFFFFFFFFFFFFFFFFFFFFFFFF4949494949FFFFFF49FFFFFFFFFFFF
310
FFFFFFFFFFFFFFFFFFFFFFFFFFFFFFFFFFFFFFFF4949FFFFFFFFFFFFFFFFFFFFFFFFFFFFFFFFFFFFFFFFFFFFFFFFFFFFFF494949494949494949494949494949494949494949494949494949494949494949494949494949494949494949494949494949494949494949494949494949494949494949494949494949494949
310
49494949494949494949494949494949494949494949494949494949494949494949494949494949494949494949494949494949494949494949494949494949494949494949494949494949494949494949494949494949494949494949494949494949494949494949494949494949494949494949494949494949494949
310
49494949494949494949494949494949494949494949494949494949494949494949494949494949494949494949494949494949494949494949494949494949494949494949494949494949494949494949494949494949494949494949494949494949494949494949494949494949494949494949494949494949494949
310
4949494949494949494949494949494949494949494949494949494949494949494949494949494949494949494949494949494949494949
102
{BLKREFS
331
139
102
}
 70
     4
280
     1
281
     0
1001
AcDbDynamicBlockGUID
1000
{73B1C516-2BC4-4889-92AC-AD2DEE3295E6}
1001
FUSIONTITLEBLOCK
1000
TitleBlock
  0
BLOCK_RECORD
  5
178
330
1
100
AcDbSymbolTableRecord
100
AcDbBlockTableRecord
  2
*D6
340
0
 70
     0
280
     1
281
     0
  0
BLOCK_RECORD
  5
185
330
1
100
AcDbSymbolTableRecord
100
AcDbBlockTableRecord
  2
*D7
340
0
 70
     0
280
     1
281
     0
  0
BLOCK_RECORD
  5
192
330
1
100
AcDbSymbolTableRecord
100
AcDbBlockTableRecord
  2
*D8
340
0
 70
     0
280
     1
281
     0
  0
BLOCK_RECORD
  5
19C
330
1
100
AcDbSymbolTableRecord
100
AcDbBlockTableRecord
  2
*D9
340
0
 70
     0
280
     1
281
     0
  0
BLOCK_RECORD
  5
1A8
330
1
100
AcDbSymbolTableRecord
100
AcDbBlockTableRecord
  2
*D10
340
0
 70
     0
280
     1
281
     0
  0
BLOCK_RECORD
  5
1B4
330
1
100
AcDbSymbolTableRecord
100
AcDbBlockTableRecord
  2
*D11
340
0
 70
     0
280
     1
281
     0
  0
BLOCK_RECORD
  5
1C0
330
1
100
AcDbSymbolTableRecord
100
AcDbBlockTableRecord
  2
*D12
340
0
 70
     0
280
     1
281
     0
  0
BLOCK_RECORD
  5
1CA
330
1
100
AcDbSymbolTableRecord
100
AcDbBlockTableRecord
  2
*D13
340
0
 70
     0
280
     1
281
     0
  0
BLOCK_RECORD
  5
1D9
330
1
100
AcDbSymbolTableRecord
100
AcDbBlockTableRecord
  2
*D14
340
0
 70
     0
280
     1
281
     0
  0
BLOCK_RECORD
  5
1E8
330
1
100
AcDbSymbolTableRecord
100
AcDbBlockTableRecord
  2
*D15
340
0
 70
     0
280
     1
281
     0
  0
BLOCK_RECORD
  5
1F4
330
1
100
AcDbSymbolTableRecord
100
AcDbBlockTableRecord
  2
*D16
340
0
 70
     0
280
     1
281
     0
  0
BLOCK_RECORD
  5
200
330
1
100
AcDbSymbolTableRecord
100
AcDbBlockTableRecord
  2
*D17
340
0
 70
     0
280
     1
281
     0
  0
BLOCK_RECORD
  5
20C
330
1
100
AcDbSymbolTableRecord
100
AcDbBlockTableRecord
  2
*D18
340
0
 70
     0
280
     1
281
     0
  0
BLOCK_RECORD
  5
218
330
1
100
AcDbSymbolTableRecord
100
AcDbBlockTableRecord
  2
*D19
340
0
 70
     0
280
     1
281
     0
  0
BLOCK_RECORD
  5
221
330
1
100
AcDbSymbolTableRecord
100
AcDbBlockTableRecord
  2
*D20
340
0
 70
     0
280
     1
281
     0
  0
BLOCK_RECORD
  5
22C
330
1
100
AcDbSymbolTableRecord
100
AcDbBlockTableRecord
  2
*D21
340
0
 70
     0
280
     1
281
     0
  0
BLOCK_RECORD
  5
237
330
1
100
AcDbSymbolTableRecord
100
AcDbBlockTableRecord
  2
*D22
340
0
 70
     0
280
     1
281
     0
  0
BLOCK_RECORD
  5
242
330
1
100
AcDbSymbolTableRecord
100
AcDbBlockTableRecord
  2
*D23
340
0
 70
     0
280
     1
281
     0
  0
BLOCK_RECORD
  5
24B
330
1
100
AcDbSymbolTableRecord
100
AcDbBlockTableRecord
  2
*D24
340
0
 70
     0
280
     1
281
     0
  0
BLOCK_RECORD
  5
259
330
1
100
AcDbSymbolTableRecord
100
AcDbBlockTableRecord
  2
*D25
340
0
 70
     0
280
     1
281
     0
  0
BLOCK_RECORD
  5
267
330
1
100
AcDbSymbolTableRecord
100
AcDbBlockTableRecord
  2
*D26
340
0
 70
     0
280
     1
281
     0
  0
BLOCK_RECORD
  5
272
330
1
100
AcDbSymbolTableRecord
100
AcDbBlockTableRecord
  2
*D27
340
0
 70
     0
280
     1
281
     0
  0
ENDTAB
  0
ENDSEC
  0
SECTION
  2
BLOCKS
  0
BLOCK
  5
71
330
70
100
AcDbEntity
  8
0
100
AcDbBlockBegin
  2
*Model_Space
 70
     0
 10
0.0
 20
0.0
 30
0.0
  3
*Model_Space
  1

  0
ENDBLK
  5
72
330
70
100
AcDbEntity
  8
0
100
AcDbBlockEnd
  0
BLOCK
  5
6D
330
6C
100
AcDbEntity
 67
     1
  8
0
100
AcDbBlockBegin
  2
*Paper_Space
 70
     0
 10
0.0
 20
0.0
 30
0.0
  3
*Paper_Space
  1

  0
ENDBLK
  5
6E
330
6C
100
AcDbEntity
 67
     1
  8
0
100
AcDbBlockEnd
  0
BLOCK
  5
75
330
74
100
AcDbEntity
 67
     1
  8
0
100
AcDbBlockBegin
  2
*Paper_Space0
 70
     0
 10
0.0
 20
0.0
 30
0.0
  3
*Paper_Space0
  1

  0
ENDBLK
  5
76
330
74
100
AcDbEntity
 67
     1
  8
0
100
AcDbBlockEnd
  0
BLOCK
  5
F7
330
F5
100
AcDbEntity
  8
0
100
AcDbBlockBegin
  2
ISO_A3_SHEET
 70
     0
 10
0.0
 20
0.0
 30
0.0
  3
ISO_A3_SHEET
  1

  0
LINE
  5
F8
330
F5
100
AcDbEntity
  8
Border
100
AcDbLine
 10
0.0
 20
0.0
 30
0.0
 11
15.0
 21
0.0
 31
0.0
  0
LINE
  5
F9
330
F5
100
AcDbEntity
  8
Border
100
AcDbLine
 10
405.0
 20
0.0
 30
0.0
 11
420.0
 21
0.0
 31
0.0
  0
LINE
  5
FA
330
F5
100
AcDbEntity
  8
Border
100
AcDbLine
 10
20.0
 20
10.0
 30
0.0
 11
410.0
 21
10.0
 31
0.0
  0
LINE
  5
FB
330
F5
100
AcDbEntity
  8
Border
100
AcDbLine
 10
420.0
 20
0.0
 30
0.0
 11
420.0
 21
15.0
 31
0.0
  0
LINE
  5
FC
330
F5
100
AcDbEntity
  8
Border
100
AcDbLine
 10
420.0
 20
282.0
 30
0.0
 11
420.0
 21
297.0
 31
0.0
  0
LINE
  5
FD
330
F5
100
AcDbEntity
  8
Border
100
AcDbLine
 10
420.0
 20
297.0
 30
0.0
 11
405.0
 21
297.0
 31
0.0
  0
LINE
  5
FE
330
F5
100
AcDbEntity
  8
Border
100
AcDbLine
 10
15.0
 20
297.0
 30
0.0
 11
0.0
 21
297.0
 31
0.0
  0
LINE
  5
FF
330
F5
100
AcDbEntity
  8
Border
100
AcDbLine
 10
410.0
 20
287.0
 30
0.0
 11
20.0
 21
287.0
 31
0.0
  0
LINE
  5
100
330
F5
100
AcDbEntity
  8
Border
100
AcDbLine
 10
0.0
 20
297.0
 30
0.0
 11
0.0
 21
282.0
 31
0.0
  0
LINE
  5
101
330
F5
100
AcDbEntity
  8
Border
100
AcDbLine
 10
0.0
 20
15.0
 30
0.0
 11
0.0
 21
0.0
 31
0.0
  0
LINE
  5
102
330
F5
100
AcDbEntity
  8
Border
100
AcDbLine
 10
20.0
 20
287.0
 30
0.0
 11
20.0
 21
10.0
 31
0.0
  0
LINE
  5
103
330
F5
100
AcDbEntity
  8
Border
100
AcDbLine
 10
410.0
 20
287.0
 30
0.0
 11
410.0
 21
10.0
 31
0.0
  0
LINE
  5
104
330
F5
100
AcDbEntity
  8
Border
100
AcDbLine
 10
215.0
 20
5.0
 30
0.0
 11
215.0
 21
15.0
 31
0.0
  0
LINE
  5
105
330
F5
100
AcDbEntity
  8
Border
100
AcDbLine
 10
215.0
 20
292.0
 30
0.0
 11
215.0
 21
282.0
 31
0.0
  0
LINE
  5
106
330
F5
100
AcDbEntity
  8
Border
100
AcDbLine
 10
265.0
 20
292.0
 30
0.0
 11
265.0
 21
287.0
 31
0.0
  0
LINE
  5
107
330
F5
100
AcDbEntity
  8
Border
100
AcDbLine
 10
315.0
 20
292.0
 30
0.0
 11
315.0
 21
287.0
 31
0.0
  0
LINE
  5
108
330
F5
100
AcDbEntity
  8
Border
100
AcDbLine
 10
365.0
 20
292.0
 30
0.0
 11
365.0
 21
287.0
 31
0.0
  0
LINE
  5
109
330
F5
100
AcDbEntity
  8
Border
100
AcDbLine
 10
165.0
 20
292.0
 30
0.0
 11
165.0
 21
287.0
 31
0.0
  0
LINE
  5
10A
330
F5
100
AcDbEntity
  8
Border
100
AcDbLine
 10
115.0
 20
292.0
 30
0.0
 11
115.0
 21
287.0
 31
0.0
  0
LINE
  5
10B
330
F5
100
AcDbEntity
  8
Border
100
AcDbLine
 10
65.0
 20
292.0
 30
0.0
 11
65.0
 21
287.0
 31
0.0
  0
LINE
  5
10C
330
F5
100
AcDbEntity
  8
Border
100
AcDbLine
 10
15.0
 20
148.5
 30
0.0
 11
25.0
 21
148.5
 31
0.0
  0
LINE
  5
10D
330
F5
100
AcDbEntity
  8
Border
100
AcDbLine
 10
15.0
 20
100.66667
 30
0.0
 11
20.0
 21
100.66667
 31
0.0
  0
LINE
  5
10E
330
F5
100
AcDbEntity
  8
Border
100
AcDbLine
 10
15.0
 20
52.83334
 30
0.0
 11
20.0
 21
52.83334
 31
0.0
  0
LINE
  5
10F
330
F5
100
AcDbEntity
  8
Border
100
AcDbLine
 10
15.0
 20
196.33333
 30
0.0
 11
20.0
 21
196.33333
 31
0.0
  0
LINE
  5
110
330
F5
100
AcDbEntity
  8
Border
100
AcDbLine
 10
15.0
 20
244.16666
 30
0.0
 11
20.0
 21
244.16666
 31
0.0
  0
LINE
  5
111
330
F5
100
AcDbEntity
  8
Border
100
AcDbLine
 10
415.0
 20
148.5
 30
0.0
 11
405.0
 21
148.5
 31
0.0
  0
LINE
  5
112
330
F5
100
AcDbEntity
  8
Border
100
AcDbLine
 10
265.0
 20
5.0
 30
0.0
 11
265.0
 21
10.0
 31
0.0
  0
LINE
  5
113
330
F5
100
AcDbEntity
  8
Border
100
AcDbLine
 10
315.0
 20
5.0
 30
0.0
 11
315.0
 21
10.0
 31
0.0
  0
LINE
  5
114
330
F5
100
AcDbEntity
  8
Border
100
AcDbLine
 10
365.0
 20
5.0
 30
0.0
 11
365.0
 21
10.0
 31
0.0
  0
LINE
  5
115
330
F5
100
AcDbEntity
  8
Border
100
AcDbLine
 10
165.0
 20
5.0
 30
0.0
 11
165.0
 21
10.0
 31
0.0
  0
LINE
  5
116
330
F5
100
AcDbEntity
  8
Border
100
AcDbLine
 10
115.0
 20
5.0
 30
0.0
 11
115.0
 21
10.0
 31
0.0
  0
LINE
  5
117
330
F5
100
AcDbEntity
  8
Border
100
AcDbLine
 10
65.0
 20
5.0
 30
0.0
 11
65.0
 21
10.0
 31
0.0
  0
LINE
  5
118
330
F5
100
AcDbEntity
  8
Border
100
AcDbLine
 10
415.0
 20
100.66667
 30
0.0
 11
410.0
 21
100.66667
 31
0.0
  0
LINE
  5
119
330
F5
100
AcDbEntity
  8
Border
100
AcDbLine
 10
415.0
 20
52.83334
 30
0.0
 11
410.0
 21
52.83334
 31
0.0
  0
LINE
  5
11A
330
F5
100
AcDbEntity
  8
Border
100
AcDbLine
 10
415.0
 20
196.33333
 30
0.0
 11
410.0
 21
196.33333
 31
0.0
  0
LINE
  5
11B
330
F5
100
AcDbEntity
  8
Border
100
AcDbLine
 10
415.0
 20
244.16666
 30
0.0
 11
410.0
 21
244.16666
 31
0.0
  0
TEXT
  5
11C
330
F5
100
AcDbEntity
  8
Border
100
AcDbText
 10
39.02882
 20
288.244884
 30
0.0
 40
2.5
  1
1
  7
FusionTitle
 72
     4
 11
40.0
 21
289.5
 31
0.0
100
AcDbText
  0
TEXT
  5
11D
330
F5
100
AcDbEntity
  8
Border
100
AcDbText
 10
16.335266
 20
266.83333
 30
0.0
 40
2.5
  1
A
  7
FusionTitle
 72
     4
 11
17.5
 21
268.08333
 31
0.0
100
AcDbText
  0
TEXT
  5
11E
330
F5
100
AcDbEntity
  8
Border
100
AcDbText
 10
89.02882
 20
288.244884
 30
0.0
 40
2.5
  1
2
  7
FusionTitle
 72
     4
 11
90.0
 21
289.5
 31
0.0
100
AcDbText
  0
TEXT
  5
11F
330
F5
100
AcDbEntity
  8
Border
100
AcDbText
 10
139.02882
 20
288.267053
 30
0.0
 40
2.5
  1
3
  7
FusionTitle
 72
     4
 11
140.0
 21
289.5
 31
0.0
100
AcDbText
  0
TEXT
  5
120
330
F5
100
AcDbEntity
  8
Border
100
AcDbText
 10
189.02882
 20
288.25
 30
0.0
 40
2.5
  1
4
  7
FusionTitle
 72
     4
 11
190.0
 21
289.5
 31
0.0
100
AcDbText
  0
TEXT
  5
121
330
F5
100
AcDbEntity
  8
Border
100
AcDbText
 10
239.02882
 20
288.28837
 30
0.0
 40
2.5
  1
5
  7
FusionTitle
 72
     4
 11
240.0
 21
289.5
 31
0.0
100
AcDbText
  0
TEXT
  5
122
330
F5
100
AcDbEntity
  8
Border
100
AcDbText
 10
289.02882
 20
288.266201
 30
0.0
 40
2.5
  1
6
  7
FusionTitle
 72
     4
 11
290.0
 21
289.5
 31
0.0
100
AcDbText
  0
TEXT
  5
123
330
F5
100
AcDbEntity
  8
Border
100
AcDbText
 10
339.02882
 20
288.266201
 30
0.0
 40
2.5
  1
7
  7
FusionTitle
 72
     4
 11
340.0
 21
289.5
 31
0.0
100
AcDbText
  0
TEXT
  5
124
330
F5
100
AcDbEntity
  8
Border
100
AcDbText
 10
389.02882
 20
288.266201
 30
0.0
 40
2.5
  1
8
  7
FusionTitle
 72
     4
 11
390.0
 21
289.5
 31
0.0
100
AcDbText
  0
TEXT
  5
125
330
F5
100
AcDbEntity
  8
Border
100
AcDbText
 10
39.02882
 20
6.244884
 30
0.0
 40
2.5
  1
1
  7
FusionTitle
 72
     4
 11
40.0
 21
7.5
 31
0.0
100
AcDbText
  0
TEXT
  5
126
330
F5
100
AcDbEntity
  8
Border
100
AcDbText
 10
89.02882
 20
6.244884
 30
0.0
 40
2.5
  1
2
  7
FusionTitle
 72
     4
 11
90.0
 21
7.5
 31
0.0
100
AcDbText
  0
TEXT
  5
127
330
F5
100
AcDbEntity
  8
Border
100
AcDbText
 10
139.02882
 20
6.267053
 30
0.0
 40
2.5
  1
3
  7
FusionTitle
 72
     4
 11
140.0
 21
7.5
 31
0.0
100
AcDbText
  0
TEXT
  5
128
330
F5
100
AcDbEntity
  8
Border
100
AcDbText
 10
189.02882
 20
6.25
 30
0.0
 40
2.5
  1
4
  7
FusionTitle
 72
     4
 11
190.0
 21
7.5
 31
0.0
100
AcDbText
  0
TEXT
  5
129
330
F5
100
AcDbEntity
  8
Border
100
AcDbText
 10
239.02882
 20
6.28837
 30
0.0
 40
2.5
  1
5
  7
FusionTitle
 72
     4
 11
240.0
 21
7.5
 31
0.0
100
AcDbText
  0
TEXT
  5
12A
330
F5
100
AcDbEntity
  8
Border
100
AcDbText
 10
289.02882
 20
6.266201
 30
0.0
 40
2.5
  1
6
  7
FusionTitle
 72
     4
 11
290.0
 21
7.5
 31
0.0
100
AcDbText
  0
TEXT
  5
12B
330
F5
100
AcDbEntity
  8
Border
100
AcDbText
 10
339.02882
 20
6.266201
 30
0.0
 40
2.5
  1
7
  7
FusionTitle
 72
     4
 11
340.0
 21
7.5
 31
0.0
100
AcDbText
  0
TEXT
  5
12C
330
F5
100
AcDbEntity
  8
Border
100
AcDbText
 10
389.02882
 20
6.266201
 30
0.0
 40
2.5
  1
8
  7
FusionTitle
 72
     4
 11
390.0
 21
7.5
 31
0.0
100
AcDbText
  0
TEXT
  5
12D
330
F5
100
AcDbEntity
  8
Border
100
AcDbText
 10
16.335266
 20
219.0
 30
0.0
 40
2.5
  1
B
  7
FusionTitle
 72
     4
 11
17.5
 21
220.25
 31
0.0
100
AcDbText
  0
TEXT
  5
12E
330
F5
100
AcDbEntity
  8
Border
100
AcDbText
 10
16.238915
 20
171.16667
 30
0.0
 40
2.5
  1
C
  7
FusionTitle
 72
     4
 11
17.5
 21
172.41667
 31
0.0
100
AcDbText
  0
TEXT
  5
12F
330
F5
100
AcDbEntity
  8
Border
100
AcDbText
 10
16.238915
 20
123.33334
 30
0.0
 40
2.5
  1
D
  7
FusionTitle
 72
     4
 11
17.5
 21
124.58334
 31
0.0
100
AcDbText
  0
TEXT
  5
130
330
F5
100
AcDbEntity
  8
Border
100
AcDbText
 10
16.335266
 20
75.50001
 30
0.0
 40
2.5
  1
E
  7
FusionTitle
 72
     4
 11
17.5
 21
76.75001
 31
0.0
100
AcDbText
  0
TEXT
  5
131
330
F5
100
AcDbEntity
  8
Border
100
AcDbText
 10
16.433322
 20
27.66668
 30
0.0
 40
2.5
  1
F
  7
FusionTitle
 72
     4
 11
17.5
 21
28.91668
 31
0.0
100
AcDbText
  0
TEXT
  5
132
330
F5
100
AcDbEntity
  8
Border
100
AcDbText
 10
411.335266
 20
266.83333
 30
0.0
 40
2.5
  1
A
  7
FusionTitle
 72
     4
 11
412.5
 21
268.08333
 31
0.0
100
AcDbText
  0
TEXT
  5
133
330
F5
100
AcDbEntity
  8
Border
100
AcDbText
 10
411.335266
 20
219.0
 30
0.0
 40
2.5
  1
B
  7
FusionTitle
 72
     4
 11
412.5
 21
220.25
 31
0.0
100
AcDbText
  0
TEXT
  5
134
330
F5
100
AcDbEntity
  8
Border
100
AcDbText
 10
411.238915
 20
171.16667
 30
0.0
 40
2.5
  1
C
  7
FusionTitle
 72
     4
 11
412.5
 21
172.41667
 31
0.0
100
AcDbText
  0
TEXT
  5
135
330
F5
100
AcDbEntity
  8
Border
100
AcDbText
 10
411.238915
 20
123.33334
 30
0.0
 40
2.5
  1
D
  7
FusionTitle
 72
     4
 11
412.5
 21
124.58334
 31
0.0
100
AcDbText
  0
TEXT
  5
136
330
F5
100
AcDbEntity
  8
Border
100
AcDbText
 10
411.335266
 20
75.50001
 30
0.0
 40
2.5
  1
E
  7
FusionTitle
 72
     4
 11
412.5
 21
76.75001
 31
0.0
100
AcDbText
  0
TEXT
  5
137
330
F5
100
AcDbEntity
  8
Border
100
AcDbText
 10
411.433322
 20
27.66668
 30
0.0
 40
2.5
  1
F
  7
FusionTitle
 72
     4
 11
412.5
 21
28.91668
 31
0.0
100
AcDbText
  0
ENDBLK
  5
138
330
F5
100
AcDbEntity
  8
0
100
AcDbBlockEnd
  0
BLOCK
  5
13E
330
13B
100
AcDbEntity
  8
0
100
AcDbBlockBegin
  2
ISO_TITLEBLOCK
 70
     2
 10
0.0
 20
0.0
 30
0.0
  3
ISO_TITLEBLOCK
  1

  0
LINE
  5
13F
330
13B
100
AcDbEntity
  8
TitleBlock
100
AcDbLine
 10
-180.0
 20
0.0
 30
0.0
 11
0.0
 21
0.0
 31
0.0
  0
LINE
  5
140
330
13B
100
AcDbEntity
  8
TitleBlock
100
AcDbLine
 10
-61.0
 20
10.0
 30
0.0
 11
0.0
 21
10.0
 31
0.0
  0
LINE
  5
141
330
13B
100
AcDbEntity
  8
TitleBlock
100
AcDbLine
 10
-122.0
 20
27.0
 30
0.0
 11
0.0
 21
27.0
 31
0.0
  0
LINE
  5
142
330
13B
100
AcDbEntity
  8
TitleBlock
100
AcDbLine
 10
-180.0
 20
37.0
 30
0.0
 11
0.0
 21
37.0
 31
0.0
  0
LINE
  5
143
330
13B
100
AcDbEntity
  8
TitleBlock
100
AcDbLine
 10
0.0
 20
0.0
 30
0.0
 11
0.0
 21
47.0
 31
0.0
  0
LINE
  5
144
330
13B
100
AcDbEntity
  8
TitleBlock
100
AcDbLine
 10
-15.0
 20
0.0
 30
0.0
 11
-15.0
 21
10.0
 31
0.0
  0
LINE
  5
145
330
13B
100
AcDbEntity
  8
TitleBlock
100
AcDbLine
 10
-51.0
 20
0.0
 30
0.0
 11
-51.0
 21
10.0
 31
0.0
  0
LINE
  5
146
330
13B
100
AcDbEntity
  8
TitleBlock
100
AcDbLine
 10
-61.0
 20
0.0
 30
0.0
 11
-61.0
 21
47.0
 31
0.0
  0
LINE
  5
147
330
13B
100
AcDbEntity
  8
TitleBlock
100
AcDbLine
 10
-122.0
 20
0.0
 30
0.0
 11
-122.0
 21
47.0
 31
0.0
  0
LINE
  5
148
330
13B
100
AcDbEntity
  8
TitleBlock
100
AcDbLine
 10
-156.0
 20
37.0
 30
0.0
 11
-156.0
 21
47.0
 31
0.0
  0
LINE
  5
149
330
13B
100
AcDbEntity
  8
TitleBlock
100
AcDbLine
 10
0.0
 20
47.0
 30
0.0
 11
-180.0
 21
47.0
 31
0.0
  0
LINE
  5
14A
330
13B
100
AcDbEntity
  8
TitleBlock
100
AcDbLine
 10
-180.0
 20
47.0
 30
0.0
 11
-180.0
 21
0.0
 31
0.0
  0
TEXT
  5
14B
330
13B
100
AcDbEntity
  8
TitleBlock
100
AcDbText
 10
-179.0
 20
44.2
 30
0.0
 40
1.8
  1
Dept.
  7
FusionTitle
 11
-179.0
 21
46.0
 31
0.0
100
AcDbText
 73
     3
  0
TEXT
  5
14C
330
13B
100
AcDbEntity
  8
TitleBlock
100
AcDbText
 10
-155.0
 20
44.2
 30
0.0
 40
1.8
  1
Technical reference
  7
FusionTitle
 11
-155.0
 21
46.0
 31
0.0
100
AcDbText
 73
     3
  0
TEXT
  5
14D
330
13B
100
AcDbEntity
  8
TitleBlock
100
AcDbText
 10
-121.0
 20
44.2
 30
0.0
 40
1.8
  1
Created by
  7
FusionTitle
 11
-121.0
 21
46.0
 31
0.0
100
AcDbText
 73
     3
  0
TEXT
  5
14E
330
13B
100
AcDbEntity
  8
TitleBlock
100
AcDbText
 10
-60.0
 20
44.2
 30
0.0
 40
1.8
  1
Approved by
  7
FusionTitle
 11
-60.0
 21
46.0
 31
0.0
100
AcDbText
 73
     3
  0
TEXT
  5
14F
330
13B
100
AcDbEntity
  8
TitleBlock
100
AcDbText
 10
-121.0
 20
34.2
 30
0.0
 40
1.8
  1
Document type
  7
FusionTitle
 11
-121.0
 21
36.0
 31
0.0
100
AcDbText
 73
     3
  0
TEXT
  5
150
330
13B
100
AcDbEntity
  8
TitleBlock
100
AcDbText
 10
-60.0
 20
34.2
 30
0.0
 40
1.8
  1
Document status
  7
FusionTitle
 11
-60.0
 21
36.0
 31
0.0
100
AcDbText
 73
     3
  0
TEXT
  5
151
330
13B
100
AcDbEntity
  8
TitleBlock
100
AcDbText
 10
-121.0
 20
24.2
 30
0.0
 40
1.8
  1
Title
  7
FusionTitle
 11
-121.0
 21
26.0
 31
0.0
100
AcDbText
 73
     3
  0
TEXT
  5
152
330
13B
100
AcDbEntity
  8
TitleBlock
100
AcDbText
 10
-60.0
 20
24.2
 30
0.0
 40
1.8
  1
DWG No.
  7
FusionTitle
 11
-60.0
 21
26.0
 31
0.0
100
AcDbText
 73
     3
  0
TEXT
  5
153
330
13B
100
AcDbEntity
  8
TitleBlock
100
AcDbText
 10
-60.0
 20
7.2
 30
0.0
 40
1.8
  1
Rev.
  7
FusionTitle
 11
-60.0
 21
9.0
 31
0.0
100
AcDbText
 73
     3
  0
TEXT
  5
154
330
13B
100
AcDbEntity
  8
TitleBlock
100
AcDbText
 10
-50.0
 20
7.2
 30
0.0
 40
1.8
  1
Date of issue
  7
FusionTitle
 11
-50.0
 21
9.0
 31
0.0
100
AcDbText
 73
     3
  0
TEXT
  5
155
330
13B
100
AcDbEntity
  8
TitleBlock
100
AcDbText
 10
-14.0
 20
7.2
 30
0.0
 40
1.8
  1
Sheet
  7
FusionTitle
 11
-14.0
 21
9.0
 31
0.0
100
AcDbText
 73
     3
  0
ATTDEF
  5
156
330
13B
100
AcDbEntity
  8
TitleBlock
100
AcDbText
 10
-50.0
 20
1.5
 30
0.0
 40
3.5
  1

  7
FusionTitle
100
AcDbAttributeDefinition
280
     0
  3
Date of issue
  2
DATE_OF_ISSUE
 70
     0
280
     1
  0
ATTDEF
  5
157
330
13B
100
AcDbEntity
  8
TitleBlock
100
AcDbText
 10
-61.026774
 20
1.35
 30
0.0
 40
3.5
  1

  7
FusionTitle
 72
     4
 11
-56.0
 21
3.1
 31
0.0
100
AcDbAttributeDefinition
280
     0
  3
Revision
  2
REV
 70
     0
280
     1
  0
ATTDEF
  5
158
330
13B
100
AcDbEntity
  8
TitleBlock
100
AcDbText
 10
-121.0
 20
1.5
 30
0.0
 40
5.0
  1

  7
FusionTitle
100
AcDbAttributeDefinition
280
     0
  3
3rd Title
  2
TITLE_3
 70
     0
280
     1
  0
ATTDEF
  5
159
330
13B
100
AcDbEntity
  8
TitleBlock
100
AcDbText
 10
-60.0
 20
28.5
 30
0.0
 40
3.5
  1

  7
FusionTitle
100
AcDbAttributeDefinition
280
     0
  3
Document status
  2
DOCUMENT_STATUS
 70
     0
280
     1
  0
ATTDEF
  5
15A
330
13B
100
AcDbEntity
  8
TitleBlock
100
AcDbText
 10
-121.0
 20
28.5
 30
0.0
 40
3.5
  1

  7
FusionTitle
100
AcDbAttributeDefinition
280
     0
  3
Document type
  2
DOCUMENT_TYPE
 70
     0
280
     1
  0
ATTDEF
  5
15B
330
13B
100
AcDbEntity
  8
TitleBlock
100
AcDbText
 10
-43.931105
 20
38.5
 30
0.0
 40
3.5
  1

  7
FusionTitle
 72
     2
 11
-1.0
 21
38.5
 31
0.0
100
AcDbAttributeDefinition
280
     0
  3
Approved date
  2
APPROVED_DATE
 70
     0
280
     1
  0
ATTDEF
  5
15C
330
13B
100
AcDbEntity
  8
TitleBlock
100
AcDbText
 10
-101.123124
 20
38.5
 30
0.0
 40
3.5
  1

  7
FusionTitle
 72
     2
 11
-62.0
 21
38.5
 31
0.0
100
AcDbAttributeDefinition
280
     0
  3
Created date
  2
CREATED_DATE
 70
     0
280
     1
  0
ATTDEF
  5
15D
330
13B
100
AcDbEntity
  8
TitleBlock
100
AcDbText
 10
-15.65075
 20
1.35
 30
0.0
 40
3.5
  1

  7
FusionTitle
 72
     4
 11
-7.5
 21
3.1
 31
0.0
100
AcDbAttributeDefinition
280
     0
  3
Sheet
  2
SHEET
 70
     0
280
     1
  0
ATTDEF
  5
15E
330
13B
100
AcDbEntity
  8
TitleBlock
100
AcDbText
 10
-121.0
 20
9.0
 30
0.0
 40
5.0
  1

  7
FusionTitle
100
AcDbAttributeDefinition
280
     0
  3
2nd Title
  2
TITLE_2
 70
     0
280
     1
  0
ATTDEF
  5
15F
330
13B
100
AcDbEntity
  8
TitleBlock
100
AcDbText
 10
-64.456344
 20
14.751432
 30
0.0
 40
5.0
  1

  7
FusionTitle
 72
     4
 11
-30.5
 21
16.6
 31
0.0
100
AcDbAttributeDefinition
280
     0
  3
Drawing number
  2
DRAWING_NUMBER
 70
     0
280
     1
  0
ATTDEF
  5
160
330
13B
100
AcDbEntity
  8
TitleBlock
100
AcDbText
 10
-121.0
 20
16.5
 30
0.0
 40
5.0
  1

  7
FusionTitle
100
AcDbAttributeDefinition
280
     0
  3
1st Title
  2
TITLE_1
 70
     0
280
     1
  0
ATTDEF
  5
161
330
13B
100
AcDbEntity
  8
TitleBlock
100
AcDbText
 10
-60.0
 20
38.5
 30
0.0
 40
3.5
  1

  7
FusionTitle
100
AcDbAttributeDefinition
280
     0
  3
Approved by
  2
APPROVED_BY
 70
     0
280
     1
  0
ATTDEF
  5
162
330
13B
100
AcDbEntity
  8
TitleBlock
100
AcDbText
 10
-121.0
 20
38.5
 30
0.0
 40
3.5
  1

  7
FusionTitle
100
AcDbAttributeDefinition
280
     0
  3
Created by
  2
CREATED_BY
 70
     0
280
     1
  0
ATTDEF
  5
163
330
13B
100
AcDbEntity
  8
TitleBlock
100
AcDbText
 10
-155.0
 20
38.5
 30
0.0
 40
3.5
  1

  7
FusionTitle
100
AcDbAttributeDefinition
280
     0
  3
Technical reference
  2
TECHNICAL_REFERENCE
 70
     0
280
     1
  0
ATTDEF
  5
164
330
13B
100
AcDbEntity
  8
TitleBlock
100
AcDbText
 10
-179.0
 20
38.5
 30
0.0
 40
3.5
  1

  7
FusionTitle
100
AcDbAttributeDefinition
280
     0
  3
Department
  2
DEPT
 70
     0
280
     1
  0
ENDBLK
  5
165
330
13B
100
AcDbEntity
  8
0
100
AcDbBlockEnd
  0
BLOCK
  5
179
330
178
100
AcDbEntity
  8
0
100
AcDbBlockBegin
  2
*D6
 70
     1
 10
0.0
 20
0.0
 30
0.0
  3
*D6
  1

  0
LINE
  5
17A
330
178
100
AcDbEntity
  8
Dimensions
440
 16777216
370
    -2
100
AcDbLine
 10
275.947885
 20
275.189202
 30
0.0
 11
275.947885
 21
279.100505
 31
0.0
  0
LINE
  5
17B
330
178
100
AcDbEntity
  8
Dimensions
440
 16777216
370
    -2
100
AcDbLine
 10
160.947885
 20
275.189202
 30
0.0
 11
160.947885
 21
279.100505
 31
0.0
  0
LINE
  5
17C
330
178
100
AcDbEntity
  8
Dimensions
440
 16777216
370
    -2
100
AcDbLine
 10
272.447885
 20
277.100505
 30
0.0
 11
164.447885
 21
277.100505
 31
0.0
  0
SOLID
  5
17D
330
178
100
AcDbEntity
  8
Dimensions
440
 16777216
100
AcDbTrace
 10
272.447885
 20
277.683838
 30
0.0
 11
272.447885
 21
276.517172
 31
0.0
 12
275.947885
 22
277.100505
 32
0.0
 13
275.947885
 23
277.100505
 33
0.0
  0
SOLID
  5
17E
330
178
100
AcDbEntity
  8
Dimensions
440
 16777216
100
AcDbTrace
 10
164.447885
 20
277.683838
 30
0.0
 11
164.447885
 21
276.517172
 31
0.0
 12
160.947885
 22
277.100505
 32
0.0
 13
160.947885
 23
277.100505
 33
0.0
  0
MTEXT
  5
17F
330
178
100
AcDbEntity
  8
Dimensions
440
 16777216
100
AcDbMText
 10
218.447885
 20
280.388704
 30
0.0
 40
3.5
 41
0.0
 46
0.0
 71
     5
 72
     1
  1
230
 73
     1
 44
1.0
  0
POINT
  5
180
330
178
100
AcDbEntity
  8
Defpoints
 62
     0
440
 16777216
100
AcDbPoint
 10
275.947885
 20
273.189202
 30
0.0
  0
POINT
  5
181
330
178
100
AcDbEntity
  8
Defpoints
 62
     0
440
 16777216
100
AcDbPoint
 10
160.947885
 20
273.189202
 30
0.0
  0
POINT
  5
182
330
178
100
AcDbEntity
  8
Defpoints
 62
     0
440
 16777216
100
AcDbPoint
 10
160.947885
 20
277.100505
 30
0.0
  0
ENDBLK
  5
183
330
178
100
AcDbEntity
  8
0
100
AcDbBlockEnd
  0
BLOCK
  5
186
330
185
100
AcDbEntity
  8
0
100
AcDbBlockBegin
  2
*D7
 70
     1
 10
0.0
 20
0.0
 30
0.0
  3
*D7
  1

  0
LINE
  5
187
330
185
100
AcDbEntity
  8
Dimensions
440
 16777216
370
    -2
100
AcDbLine
 10
156.447885
 20
270.689202
 30
0.0
 11
136.648895
 21
270.689202
 31
0.0
  0
LINE
  5
188
330
185
100
AcDbEntity
  8
Dimensions
440
 16777216
370
    -2
100
AcDbLine
 10
156.447885
 20
205.689202
 30
0.0
 11
136.648895
 21
205.689202
 31
0.0
  0
LINE
  5
189
330
185
100
AcDbEntity
  8
Dimensions
440
 16777216
370
    -2
100
AcDbLine
 10
138.648895
 20
267.189202
 30
0.0
 11
138.648895
 21
209.189202
 31
0.0
  0
SOLID
  5
18A
330
185
100
AcDbEntity
  8
Dimensions
440
 16777216
100
AcDbTrace
 10
138.065562
 20
267.189202
 30
0.0
 11
139.232229
 21
267.189202
 31
0.0
 12
138.648895
 22
270.689202
 32
0.0
 13
138.648895
 23
270.689202
 33
0.0
  0
SOLID
  5
18B
330
185
100
AcDbEntity
  8
Dimensions
440
 16777216
100
AcDbTrace
 10
138.065562
 20
209.189202
 30
0.0
 11
139.232229
 21
209.189202
 31
0.0
 12
138.648895
 22
205.689202
 32
0.0
 13
138.648895
 23
205.689202
 33
0.0
  0
MTEXT
  5
18C
330
185
100
AcDbEntity
  8
Dimensions
440
 16777216
100
AcDbMText
 10
135.360696
 20
238.189202
 30
0.0
 40
3.5
 41
0.0
 46
0.0
 71
     5
 72
     1
  1
130
 11
0.0
 21
1.0
 31
0.0
 73
     1
 44
1.0
  0
POINT
  5
18D
330
185
100
AcDbEntity
  8
Defpoints
 62
     0
440
 16777216
100
AcDbPoint
 10
158.447885
 20
270.689202
 30
0.0
  0
POINT
  5
18E
330
185
100
AcDbEntity
  8
Defpoints
 62
     0
440
 16777216
100
AcDbPoint
 10
158.447885
 20
205.689202
 30
0.0
  0
POINT
  5
18F
330
185
100
AcDbEntity
  8
Defpoints
 62
     0
440
 16777216
100
AcDbPoint
 10
138.648895
 20
205.689202
 30
0.0
  0
ENDBLK
  5
190
330
185
100
AcDbEntity
  8
0
100
AcDbBlockEnd
  0
BLOCK
  5
193
330
192
100
AcDbEntity
  8
0
100
AcDbBlockBegin
  2
*D8
 70
     1
 10
0.0
 20
0.0
 30
0.0
  3
*D8
  1

  0
LINE
  5
194
330
192
100
AcDbEntity
  8
Dimensions
440
 16777216
370
    -2
100
AcDbLine
 10
147.74501
 20
283.172789
 30
0.0
 11
156.588149
 21
274.811422
 31
0.0
  0
MTEXT
  5
195
330
192
100
AcDbEntity
  8
Dimensions
440
 16777216
100
AcDbMText
 10
153.148362
 20
282.577628
 30
0.0
 40
3.5
 41
0.0
 46
0.0
 71
     5
 72
     1
  1
R5
 11
0.726623
 21
-0.687037
 31
0.0
 73
     1
 44
1.0
  0
LINE
  5
196
330
192
100
AcDbEntity
  8
Dimensions
440
 16777216
370
    -2
100
AcDbLine
 10
160.947885
 20
270.689202
 30
0.0
 11
159.131328
 21
272.406794
 31
0.0
  0
SOLID
  5
197
330
192
100
AcDbEntity
  8
Dimensions
440
 16777216
100
AcDbTrace
 10
156.98892
 20
275.235285
 30
0.0
 11
156.187377
 21
274.387559
 31
0.0
 12
159.131328
 22
272.406794
 32
0.0
 13
159.131328
 23
272.406794
 33
0.0
  0
POINT
  5
198
330
192
100
AcDbEntity
  8
Defpoints
 62
     0
440
 16777216
100
AcDbPoint
 10
159.131328
 20
272.406794
 30
0.0
  0
POINT
  5
199
330
192
100
AcDbEntity
  8
Defpoints
 62
     0
440
 16777216
100
AcDbPoint
 10
160.947885
 20
270.689202
 30
0.0
  0
ENDBLK
  5
19A
330
192
100
AcDbEntity
  8
0
100
AcDbBlockEnd
  0
BLOCK
  5
19D
330
19C
100
AcDbEntity
  8
0
100
AcDbBlockBegin
  2
*D9
 70
     1
 10
0.0
 20
0.0
 30
0.0
  3
*D9
  1

  0
LINE
  5
19E
330
19C
100
AcDbEntity
  8
Dimensions
440
 16777216
370
    -2
100
AcDbLine
 10
198.709989
 20
264.659188
 30
0.0
 11
186.342384
 21
267.117108
 31
0.0
  0
LINE
  5
19F
330
19C
100
AcDbEntity
  8
Dimensions
440
 16777216
370
    -2
100
AcDbLine
 10
175.553387
 20
269.261297
 30
0.0
 11
172.120524
 21
269.943539
 31
0.0
  0
MTEXT
  5
1A0
330
19C
100
AcDbEntity
  8
Dimensions
440
 16777216
100
AcDbMText
 10
194.902422
 20
268.866989
 30
0.0
 40
3.5
 41
0.0
 46
0.0
 71
     5
 72
     1
  1
8
 11
0.980818
 21
-0.194926
 31
0.0
 73
     1
 44
1.0
  0
LINE
  5
1A1
330
19C
100
AcDbEntity
  8
Dimensions
440
 16777216
370
    -2
100
AcDbLine
 10
178.98625
 20
268.579055
 30
0.0
 11
182.909521
 21
267.79935
 31
0.0
  0
SOLID
  5
1A2
330
19C
100
AcDbEntity
  8
Dimensions
440
 16777216
100
AcDbTrace
 10
175.667094
 20
269.833441
 30
0.0
 11
175.43968
 21
268.689153
 31
0.0
 12
178.98625
 22
268.579055
 32
0.0
 13
178.98625
 23
268.579055
 33
0.0
  0
SOLID
  5
1A3
330
19C
100
AcDbEntity
  8
Dimensions
440
 16777216
100
AcDbTrace
 10
186.456091
 20
267.689252
 30
0.0
 11
186.228677
 21
266.544964
 31
0.0
 12
182.909521
 22
267.79935
 32
0.0
 13
182.909521
 23
267.79935
 33
0.0
  0
POINT
  5
1A4
330
19C
100
AcDbEntity
  8
Defpoints
 62
     0
440
 16777216
100
AcDbPoint
 10
182.909521
 20
267.79935
 30
0.0
  0
POINT
  5
1A5
330
19C
100
AcDbEntity
  8
Defpoints
 62
     0
440
 16777216
100
AcDbPoint
 10
178.98625
 20
268.579055
 30
0.0
  0
ENDBLK
  5
1A6
330
19C
100
AcDbEntity
  8
0
100
AcDbBlockEnd
  0
BLOCK
  5
1A9
330
1A8
100
AcDbEntity
  8
0
100
AcDbBlockBegin
  2
*D10
 70
     1
 10
0.0
 20
0.0
 30
0.0
  3
*D10
  1

  0
LINE
  5
1AA
330
1A8
100
AcDbEntity
  8
Dimensions
440
 16777216
370
    -2
100
AcDbLine
 10
179.681679
 20
248.817389
 30
0.0
 11
167.862497
 21
260.587353
 31
0.0
  0
LINE
  5
1AB
330
1A8
100
AcDbEntity
  8
Dimensions
440
 16777216
370
    -2
100
AcDbLine
 10
161.733274
 20
266.691051
 30
0.0
 11
159.253242
 21
269.160756
 31
0.0
  0
MTEXT
  5
1AC
330
1A8
100
AcDbEntity
  8
Dimensions
440
 16777216
100
AcDbMText
 10
177.400584
 20
255.865987
 30
0.0
 40
3.5
 41
0.0
 46
0.0
 71
     5
 72
     1
  1
3.3
 11
0.708581
 21
-0.70563
 31
0.0
 73
     1
 44
1.0
  0
LINE
  5
1AD
330
1A8
100
AcDbEntity
  8
Dimensions
440
 16777216
370
    -2
100
AcDbLine
 10
164.213306
 20
264.221347
 30
0.0
 11
165.382464
 21
263.057058
 31
0.0
  0
SOLID
  5
1AE
330
1A8
100
AcDbEntity
  8
Dimensions
440
 16777216
100
AcDbTrace
 10
162.144892
 20
267.10439
 30
0.0
 11
161.321657
 21
266.277713
 31
0.0
 12
164.213306
 22
264.221347
 32
0.0
 13
164.213306
 23
264.221347
 33
0.0
  0
SOLID
  5
1AF
330
1A8
100
AcDbEntity
  8
Dimensions
440
 16777216
100
AcDbTrace
 10
168.274114
 20
261.000692
 30
0.0
 11
167.450879
 21
260.174014
 31
0.0
 12
165.382464
 22
263.057058
 32
0.0
 13
165.382464
 23
263.057058
 33
0.0
  0
POINT
  5
1B0
330
1A8
100
AcDbEntity
  8
Defpoints
 62
     0
440
 16777216
100
AcDbPoint
 10
165.382464
 20
263.057058
 30
0.0
  0
POINT
  5
1B1
330
1A8
100
AcDbEntity
  8
Defpoints
 62
     0
440
 16777216
100
AcDbPoint
 10
164.213306
 20
264.221347
 30
0.0
  0
ENDBLK
  5
1B2
330
1A8
100
AcDbEntity
  8
0
100
AcDbBlockEnd
  0
BLOCK
  5
1B5
330
1B4
100
AcDbEntity
  8
0
100
AcDbBlockBegin
  2
*D11
 70
     1
 10
0.0
 20
0.0
 30
0.0
  3
*D11
  1

  0
LINE
  5
1B6
330
1B4
100
AcDbEntity
  8
Dimensions
440
 16777216
370
    -2
100
AcDbLine
 10
266.269938
 20
254.534917
 30
0.0
 11
271.336999
 21
242.996141
 31
0.0
  0
LINE
  5
1B7
330
1B4
100
AcDbEntity
  8
Dimensions
440
 16777216
370
    -2
100
AcDbLine
 10
275.558772
 20
233.382264
 30
0.0
 11
276.96603
 21
230.177638
 31
0.0
  0
MTEXT
  5
1B8
330
1B4
100
AcDbEntity
  8
Dimensions
440
 16777216
100
AcDbMText
 10
271.199071
 20
251.728817
 30
0.0
 40
3.5
 41
0.0
 46
0.0
 71
     5
 72
     1
  1
7
 11
0.402074
 21
-0.915607
 31
0.0
 73
     1
 44
1.0
  0
LINE
  5
1B9
330
1B4
100
AcDbEntity
  8
Dimensions
440
 16777216
370
    -2
100
AcDbLine
 10
274.151514
 20
236.586889
 30
0.0
 11
272.744256
 21
239.791515
 31
0.0
  0
SOLID
  5
1BA
330
1B4
100
AcDbEntity
  8
Dimensions
440
 16777216
100
AcDbTrace
 10
276.092876
 20
233.616807
 30
0.0
 11
275.024668
 21
233.147721
 31
0.0
 12
274.151514
 22
236.586889
 32
0.0
 13
274.151514
 23
236.586889
 33
0.0
  0
SOLID
  5
1BB
330
1B4
100
AcDbEntity
  8
Dimensions
440
 16777216
100
AcDbTrace
 10
271.871103
 20
243.230684
 30
0.0
 11
270.802894
 21
242.761598
 31
0.0
 12
272.744256
 22
239.791515
 32
0.0
 13
272.744256
 23
239.791515
 33
0.0
  0
POINT
  5
1BC
330
1B4
100
AcDbEntity
  8
Defpoints
 62
     0
440
 16777216
100
AcDbPoint
 10
272.744256
 20
239.791515
 30
0.0
  0
POINT
  5
1BD
330
1B4
100
AcDbEntity
  8
Defpoints
 62
     0
440
 16777216
100
AcDbPoint
 10
274.151514
 20
236.586889
 30
0.0
  0
ENDBLK
  5
1BE
330
1B4
100
AcDbEntity
  8
0
100
AcDbBlockEnd
  0
BLOCK
  5
1C1
330
1C0
100
AcDbEntity
  8
0
100
AcDbBlockBegin
  2
*D12
 70
     1
 10
0.0
 20
0.0
 30
0.0
  3
*D12
  1

  0
LINE
  5
1C2
330
1C0
100
AcDbEntity
  8
Dimensions
440
 16777216
370
    -2
100
AcDbLine
 10
191.249562
 20
227.058157
 30
0.0
 11
183.463651
 21
212.797176
 31
0.0
  0
MTEXT
  5
1C3
330
1C0
100
AcDbEntity
  8
Dimensions
440
 16777216
100
AcDbMText
 10
185.309111
 20
223.039342
 30
0.0
 40
3.5
 41
0.0
 46
0.0
 71
     5
 72
     1
  1
R3.5
 11
0.479193
 21
0.877709
 31
0.0
 73
     1
 44
1.0
  0
LINE
  5
1C4
330
1C0
100
AcDbEntity
  8
Dimensions
440
 16777216
370
    -2
100
AcDbLine
 10
180.947885
 20
208.189202
 30
0.0
 11
181.786474
 21
209.725194
 31
0.0
  0
SOLID
  5
1C5
330
1C0
100
AcDbEntity
  8
Dimensions
440
 16777216
100
AcDbTrace
 10
182.951653
 20
213.076706
 30
0.0
 11
183.975648
 21
212.517647
 31
0.0
 12
181.786474
 22
209.725194
 32
0.0
 13
181.786474
 23
209.725194
 33
0.0
  0
POINT
  5
1C6
330
1C0
100
AcDbEntity
  8
Defpoints
 62
     0
440
 16777216
100
AcDbPoint
 10
181.786474
 20
209.725194
 30
0.0
  0
POINT
  5
1C7
330
1C0
100
AcDbEntity
  8
Defpoints
 62
     0
440
 16777216
100
AcDbPoint
 10
180.947885
 20
208.189202
 30
0.0
  0
ENDBLK
  5
1C8
330
1C0
100
AcDbEntity
  8
0
100
AcDbBlockEnd
  0
BLOCK
  5
1CB
330
1CA
100
AcDbEntity
  8
0
100
AcDbBlockBegin
  2
*D13
 70
     1
 10
0.0
 20
0.0
 30
0.0
  3
*D13
  1

  0
LINE
  5
1CC
330
1CA
100
AcDbEntity
  8
Dimensions
440
 16777216
370
    -2
100
AcDbLine
 10
259.697885
 20
208.189202
 30
0.0
 11
295.055935
 21
208.189202
 31
0.0
  0
LINE
  5
1CD
330
1CA
100
AcDbEntity
  8
Dimensions
440
 16777216
370
    -2
100
AcDbLine
 10
259.697885
 20
203.189202
 30
0.0
 11
295.055935
 21
203.189202
 31
0.0
  0
LINE
  5
1CE
330
1CA
100
AcDbEntity
  8
Dimensions
440
 16777216
370
    -2
100
AcDbLine
 10
293.055935
 20
211.689202
 30
0.0
 11
293.055935
 21
215.189202
 31
0.0
  0
LINE
  5
1CF
330
1CA
100
AcDbEntity
  8
Dimensions
440
 16777216
370
    -2
100
AcDbLine
 10
293.055935
 20
199.689202
 30
0.0
 11
293.055935
 21
188.516965
 31
0.0
  0
LINE
  5
1D0
330
1CA
100
AcDbEntity
  8
Dimensions
440
 16777216
370
    -2
100
AcDbLine
 10
293.055935
 20
208.189202
 30
0.0
 11
293.055935
 21
203.189202
 31
0.0
  0
SOLID
  5
1D1
330
1CA
100
AcDbEntity
  8
Dimensions
440
 16777216
100
AcDbTrace
 10
292.472602
 20
211.689202
 30
0.0
 11
293.639268
 21
211.689202
 31
0.0
 12
293.055935
 22
208.189202
 32
0.0
 13
293.055935
 23
208.189202
 33
0.0
  0
SOLID
  5
1D2
330
1CA
100
AcDbEntity
  8
Dimensions
440
 16777216
100
AcDbTrace
 10
292.472602
 20
199.689202
 30
0.0
 11
293.639268
 21
199.689202
 31
0.0
 12
293.055935
 22
203.189202
 32
0.0
 13
293.055935
 23
203.189202
 33
0.0
  0
MTEXT
  5
1D3
330
1CA
100
AcDbEntity
  8
Dimensions
440
 16777216
100
AcDbMText
 10
289.768929
 20
192.353084
 30
0.0
 40
3.5
 41
0.0
 46
0.0
 71
     5
 72
     1
  1
10
 11
0.0
 21
1.0
 31
0.0
 73
     1
 44
1.0
  0
POINT
  5
1D4
330
1CA
100
AcDbEntity
  8
Defpoints
 62
     0
440
 16777216
100
AcDbPoint
 10
257.697885
 20
208.189202
 30
0.0
  0
POINT
  5
1D5
330
1CA
100
AcDbEntity
  8
Defpoints
 62
     0
440
 16777216
100
AcDbPoint
 10
257.697885
 20
203.189202
 30
0.0
  0
POINT
  5
1D6
330
1CA
100
AcDbEntity
  8
Defpoints
 62
     0
440
 16777216
100
AcDbPoint
 10
293.055935
 20
203.189202
 30
0.0
  0
ENDBLK
  5
1D7
330
1CA
100
AcDbEntity
  8
0
100
AcDbBlockEnd
  0
BLOCK
  5
1DA
330
1D9
100
AcDbEntity
  8
0
100
AcDbBlockBegin
  2
*D14
 70
     1
 10
0.0
 20
0.0
 30
0.0
  3
*D14
  1

  0
LINE
  5
1DB
330
1D9
100
AcDbEntity
  8
Dimensions
440
 16777216
370
    -2
100
AcDbLine
 10
156.447885
 20
193.780624
 30
0.0
 11
146.54839
 21
193.780624
 31
0.0
  0
LINE
  5
1DC
330
1D9
100
AcDbEntity
  8
Dimensions
440
 16777216
370
    -2
100
AcDbLine
 10
156.447885
 20
188.780624
 30
0.0
 11
146.54839
 21
188.780624
 31
0.0
  0
LINE
  5
1DD
330
1D9
100
AcDbEntity
  8
Dimensions
440
 16777216
370
    -2
100
AcDbLine
 10
148.54839
 20
197.280624
 30
0.0
 11
148.54839
 21
200.780624
 31
0.0
  0
LINE
  5
1DE
330
1D9
100
AcDbEntity
  8
Dimensions
440
 16777216
370
    -2
100
AcDbLine
 10
148.54839
 20
185.280624
 30
0.0
 11
148.54839
 21
174.108386
 31
0.0
  0
LINE
  5
1DF
330
1D9
100
AcDbEntity
  8
Dimensions
440
 16777216
370
    -2
100
AcDbLine
 10
148.54839
 20
193.780624
 30
0.0
 11
148.54839
 21
188.780624
 31
0.0
  0
SOLID
  5
1E0
330
1D9
100
AcDbEntity
  8
Dimensions
440
 16777216
100
AcDbTrace
 10
147.965057
 20
197.280624
 30
0.0
 11
149.131724
 21
197.280624
 31
0.0
 12
148.54839
 22
193.780624
 32
0.0
 13
148.54839
 23
193.780624
 33
0.0
  0
SOLID
  5
1E1
330
1D9
100
AcDbEntity
  8
Dimensions
440
 16777216
100
AcDbTrace
 10
147.965057
 20
185.280624
 30
0.0
 11
149.131724
 21
185.280624
 31
0.0
 12
148.54839
 22
188.780624
 32
0.0
 13
148.54839
 23
188.780624
 33
0.0
  0
MTEXT
  5
1E2
330
1D9
100
AcDbEntity
  8
Dimensions
440
 16777216
100
AcDbMText
 10
145.261385
 20
177.944505
 30
0.0
 40
3.5
 41
0.0
 46
0.0
 71
     5
 72
     1
  1
10
 11
0.0
 21
1.0
 31
0.0
 73
     1
 44
1.0
  0
POINT
  5
1E3
330
1D9
100
AcDbEntity
  8
Defpoints
 62
     0
440
 16777216
100
AcDbPoint
 10
158.447885
 20
193.780624
 30
0.0
  0
POINT
  5
1E4
330
1D9
100
AcDbEntity
  8
Defpoints
 62
     0
440
 16777216
100
AcDbPoint
 10
158.447885
 20
188.780624
 30
0.0
  0
POINT
  5
1E5
330
1D9
100
AcDbEntity
  8
Defpoints
 62
     0
440
 16777216
100
AcDbPoint
 10
148.54839
 20
188.780624
 30
0.0
  0
ENDBLK
  5
1E6
330
1D9
100
AcDbEntity
  8
0
100
AcDbBlockEnd
  0
BLOCK
  5
1E9
330
1E8
100
AcDbEntity
  8
0
100
AcDbBlockBegin
  2
*D15
 70
     1
 10
0.0
 20
0.0
 30
0.0
  3
*D15
  1

  0
LINE
  5
1EA
330
1E8
100
AcDbEntity
  8
Dimensions
440
 16777216
370
    -2
100
AcDbLine
 10
263.077772
 20
165.487545
 30
0.0
 11
271.520808
 21
137.602301
 31
0.0
  0
LINE
  5
1EB
330
1E8
100
AcDbEntity
  8
Dimensions
440
 16777216
370
    -2
100
AcDbLine
 10
275.374963
 20
124.872985
 30
0.0
 11
276.389215
 21
121.523165
 31
0.0
  0
MTEXT
  5
1EC
330
1E8
100
AcDbEntity
  8
Dimensions
440
 16777216
100
AcDbMText
 10
270.031814
 20
154.200728
 30
0.0
 40
3.5
 41
0.0
 46
0.0
 71
     5
 72
     1
  1
12.6x90%%D
 11
0.289786
 21
-0.957091
 31
0.0
 73
     1
 44
1.0
  0
LINE
  5
1ED
330
1E8
100
AcDbEntity
  8
Dimensions
440
 16777216
370
    -2
100
AcDbLine
 10
274.360712
 20
128.222805
 30
0.0
 11
272.535059
 21
134.252481
 31
0.0
  0
SOLID
  5
1EE
330
1E8
100
AcDbEntity
  8
Dimensions
440
 16777216
100
AcDbTrace
 10
275.933267
 20
125.042027
 30
0.0
 11
274.81666
 21
124.703943
 31
0.0
 12
274.360712
 22
128.222805
 32
0.0
 13
274.360712
 23
128.222805
 33
0.0
  0
SOLID
  5
1EF
330
1E8
100
AcDbEntity
  8
Dimensions
440
 16777216
100
AcDbTrace
 10
272.079111
 20
137.771343
 30
0.0
 11
270.962504
 21
137.433259
 31
0.0
 12
272.535059
 22
134.252481
 32
0.0
 13
272.535059
 23
134.252481
 33
0.0
  0
POINT
  5
1F0
330
1E8
100
AcDbEntity
  8
Defpoints
 62
     0
440
 16777216
100
AcDbPoint
 10
272.535059
 20
134.252481
 30
0.0
  0
POINT
  5
1F1
330
1E8
100
AcDbEntity
  8
Defpoints
 62
     0
440
 16777216
100
AcDbPoint
 10
274.360712
 20
128.222805
 30
0.0
  0
ENDBLK
  5
1F2
330
1E8
100
AcDbEntity
  8
0
100
AcDbBlockEnd
  0
BLOCK
  5
1F5
330
1F4
100
AcDbEntity
  8
0
100
AcDbBlockBegin
  2
*D16
 70
     1
 10
0.0
 20
0.0
 30
0.0
  3
*D16
  1

  0
LINE
  5
1F6
330
1F4
100
AcDbEntity
  8
Dimensions
440
 16777216
370
    -2
100
AcDbLine
 10
261.421423
 20
95.916538
 30
0.0
 11
271.755716
 21
126.267828
 31
0.0
  0
LINE
  5
1F7
330
1F4
100
AcDbEntity
  8
Dimensions
440
 16777216
370
    -2
100
AcDbLine
 10
275.140055
 20
136.207458
 30
0.0
 11
276.268168
 21
139.520669
 31
0.0
  0
MTEXT
  5
1F8
330
1F4
100
AcDbEntity
  8
Dimensions
440
 16777216
100
AcDbMText
 10
262.399903
 20
110.669719
 30
0.0
 40
3.5
 41
0.0
 46
0.0
 71
     5
 72
     1
  1
7 Through
 11
0.322318
 21
0.946631
 31
0.0
 73
     1
 44
1.0
  0
LINE
  5
1F9
330
1F4
100
AcDbEntity
  8
Dimensions
440
 16777216
370
    -2
100
AcDbLine
 10
274.011942
 20
132.894248
 30
0.0
 11
272.883829
 21
129.581038
 31
0.0
  0
SOLID
  5
1FA
330
1F4
100
AcDbEntity
  8
Dimensions
440
 16777216
100
AcDbTrace
 10
274.587853
 20
136.395477
 30
0.0
 11
275.692256
 21
136.01944
 31
0.0
 12
274.011942
 22
132.894248
 32
0.0
 13
274.011942
 23
132.894248
 33
0.0
  0
SOLID
  5
1FB
330
1F4
100
AcDbEntity
  8
Dimensions
440
 16777216
100
AcDbTrace
 10
271.203514
 20
126.455847
 30
0.0
 11
272.307918
 21
126.079809
 31
0.0
 12
272.883829
 22
129.581038
 32
0.0
 13
272.883829
 23
129.581038
 33
0.0
  0
POINT
  5
1FC
330
1F4
100
AcDbEntity
  8
Defpoints
 62
     0
440
 16777216
100
AcDbPoint
 10
272.883829
 20
129.581038
 30
0.0
  0
POINT
  5
1FD
330
1F4
100
AcDbEntity
  8
Defpoints
 62
     0
440
 16777216
100
AcDbPoint
 10
274.011942
 20
132.894248
 30
0.0
  0
ENDBLK
  5
1FE
330
1F4
100
AcDbEntity
  8
0
100
AcDbBlockEnd
  0
BLOCK
  5
201
330
200
100
AcDbEntity
  8
0
100
AcDbBlockBegin
  2
*D17
 70
     1
 10
0.0
 20
0.0
 30
0.0
  3
*D17
  1

  0
LINE
  5
433
330
200
100
AcDbEntity
  8
Dimensions
440
 16777216
370
    -2
100
AcDbLine
 10
275.947885
 20
275.189202
 30
0.0
 11
275.947885
 21
279.100505
 31
0.0
  0
LINE
  5
434
330
200
100
AcDbEntity
  8
Dimensions
440
 16777216
370
    -2
100
AcDbLine
 10
160.947885
 20
275.189202
 30
0.0
 11
160.947885
 21
279.100505
 31
0.0
  0
LINE
  5
435
330
200
100
AcDbEntity
  8
Dimensions
440
 16777216
370
    -2
100
AcDbLine
 10
272.447885
 20
277.100505
 30
0.0
 11
164.447885
 21
277.100505
 31
0.0
  0
SOLID
  5
436
330
200
100
AcDbEntity
  8
Dimensions
440
 16777216
100
AcDbTrace
 10
272.447885
 20
277.683838
 30
0.0
 11
272.447885
 21
276.517172
 31
0.0
 12
275.947885
 22
277.100505
 32
0.0
 13
275.947885
 23
277.100505
 33
0.0
  0
SOLID
  5
437
330
200
100
AcDbEntity
  8
Dimensions
440
 16777216
100
AcDbTrace
 10
164.447885
 20
277.683838
 30
0.0
 11
164.447885
 21
276.517172
 31
0.0
 12
160.947885
 22
277.100505
 32
0.0
 13
160.947885
 23
277.100505
 33
0.0
  0
MTEXT
  5
438
330
200
100
AcDbEntity
  8
Dimensions
440
 16777216
100
AcDbMText
 10
218.447885
 20
280.388704
 30
0.0
 40
3.5
 41
0.0
 46
0.0
 71
     5
 72
     1
  1
230
 73
     1
 44
1.0
  0
POINT
  5
439
330
200
100
AcDbEntity
  8
Defpoints
 62
     0
440
 16777216
100
AcDbPoint
 10
275.947885
 20
273.189202
 30
0.0
  0
POINT
  5
43A
330
200
100
AcDbEntity
  8
Defpoints
 62
     0
440
 16777216
100
AcDbPoint
 10
160.947885
 20
273.189202
 30
0.0
  0
POINT
  5
43B
330
200
100
AcDbEntity
  8
Defpoints
 62
     0
440
 16777216
100
AcDbPoint
 10
160.947885
 20
277.100505
 30
0.0
  0
ENDBLK
  5
202
330
200
100
AcDbEntity
  8
0
100
AcDbBlockEnd
  0
BLOCK
  5
20D
330
20C
100
AcDbEntity
  8
0
100
AcDbBlockBegin
  2
*D18
 70
     1
 10
0.0
 20
0.0
 30
0.0
  3
*D18
  1

  0
LINE
  5
43C
330
20C
100
AcDbEntity
  8
Dimensions
440
 16777216
370
    -2
100
AcDbLine
 10
156.447885
 20
270.689202
 30
0.0
 11
136.648895
 21
270.689202
 31
0.0
  0
LINE
  5
43D
330
20C
100
AcDbEntity
  8
Dimensions
440
 16777216
370
    -2
100
AcDbLine
 10
156.447885
 20
205.689202
 30
0.0
 11
136.648895
 21
205.689202
 31
0.0
  0
LINE
  5
43E
330
20C
100
AcDbEntity
  8
Dimensions
440
 16777216
370
    -2
100
AcDbLine
 10
138.648895
 20
267.189202
 30
0.0
 11
138.648895
 21
209.189202
 31
0.0
  0
SOLID
  5
43F
330
20C
100
AcDbEntity
  8
Dimensions
440
 16777216
100
AcDbTrace
 10
138.065562
 20
267.189202
 30
0.0
 11
139.232229
 21
267.189202
 31
0.0
 12
138.648895
 22
270.689202
 32
0.0
 13
138.648895
 23
270.689202
 33
0.0
  0
SOLID
  5
440
330
20C
100
AcDbEntity
  8
Dimensions
440
 16777216
100
AcDbTrace
 10
138.065562
 20
209.189202
 30
0.0
 11
139.232229
 21
209.189202
 31
0.0
 12
138.648895
 22
205.689202
 32
0.0
 13
138.648895
 23
205.689202
 33
0.0
  0
MTEXT
  5
441
330
20C
100
AcDbEntity
  8
Dimensions
440
 16777216
100
AcDbMText
 10
135.360696
 20
238.189202
 30
0.0
 40
3.5
 41
0.0
 46
0.0
 71
     5
 72
     1
  1
130
 11
0.0
 21
1.0
 31
0.0
 73
     1
 44
1.0
  0
POINT
  5
442
330
20C
100
AcDbEntity
  8
Defpoints
 62
     0
440
 16777216
100
AcDbPoint
 10
158.447885
 20
270.689202
 30
0.0
  0
POINT
  5
443
330
20C
100
AcDbEntity
  8
Defpoints
 62
     0
440
 16777216
100
AcDbPoint
 10
158.447885
 20
205.689202
 30
0.0
  0
POINT
  5
444
330
20C
100
AcDbEntity
  8
Defpoints
 62
     0
440
 16777216
100
AcDbPoint
 10
138.648895
 20
205.689202
 30
0.0
  0
ENDBLK
  5
20E
330
20C
100
AcDbEntity
  8
0
100
AcDbBlockEnd
  0
BLOCK
  5
219
330
218
100
AcDbEntity
  8
0
100
AcDbBlockBegin
  2
*D19
 70
     1
 10
0.0
 20
0.0
 30
0.0
  3
*D19
  1

  0
LINE
  5
445
330
218
100
AcDbEntity
  8
Dimensions
440
 16777216
370
    -2
100
AcDbLine
 10
147.74501
 20
283.172789
 30
0.0
 11
156.588149
 21
274.811422
 31
0.0
  0
MTEXT
  5
446
330
218
100
AcDbEntity
  8
Dimensions
440
 16777216
100
AcDbMText
 10
153.148362
 20
282.577628
 30
0.0
 40
3.5
 41
0.0
 46
0.0
 71
     5
 72
     1
  1
R5
 11
0.726623
 21
-0.687037
 31
0.0
 73
     1
 44
1.0
  0
LINE
  5
447
330
218
100
AcDbEntity
  8
Dimensions
440
 16777216
370
    -2
100
AcDbLine
 10
160.947885
 20
270.689202
 30
0.0
 11
159.131328
 21
272.406794
 31
0.0
  0
SOLID
  5
448
330
218
100
AcDbEntity
  8
Dimensions
440
 16777216
100
AcDbTrace
 10
156.98892
 20
275.235285
 30
0.0
 11
156.187377
 21
274.387559
 31
0.0
 12
159.131328
 22
272.406794
 32
0.0
 13
159.131328
 23
272.406794
 33
0.0
  0
POINT
  5
449
330
218
100
AcDbEntity
  8
Defpoints
 62
     0
440
 16777216
100
AcDbPoint
 10
159.131328
 20
272.406794
 30
0.0
  0
POINT
  5
44A
330
218
100
AcDbEntity
  8
Defpoints
 62
     0
440
 16777216
100
AcDbPoint
 10
160.947885
 20
270.689202
 30
0.0
  0
ENDBLK
  5
21A
330
218
100
AcDbEntity
  8
0
100
AcDbBlockEnd
  0
BLOCK
  5
222
330
221
100
AcDbEntity
  8
0
100
AcDbBlockBegin
  2
*D20
 70
     1
 10
0.0
 20
0.0
 30
0.0
  3
*D20
  1

  0
LINE
  5
44B
330
221
100
AcDbEntity
  8
Dimensions
440
 16777216
370
    -2
100
AcDbLine
 10
198.709989
 20
264.659188
 30
0.0
 11
186.342384
 21
267.117108
 31
0.0
  0
LINE
  5
44C
330
221
100
AcDbEntity
  8
Dimensions
440
 16777216
370
    -2
100
AcDbLine
 10
175.553387
 20
269.261297
 30
0.0
 11
172.120524
 21
269.943539
 31
0.0
  0
MTEXT
  5
44D
330
221
100
AcDbEntity
  8
Dimensions
440
 16777216
100
AcDbMText
 10
194.902422
 20
268.866989
 30
0.0
 40
3.5
 41
0.0
 46
0.0
 71
     5
 72
     1
  1
8
 11
0.980818
 21
-0.194926
 31
0.0
 73
     1
 44
1.0
  0
LINE
  5
44E
330
221
100
AcDbEntity
  8
Dimensions
440
 16777216
370
    -2
100
AcDbLine
 10
178.98625
 20
268.579055
 30
0.0
 11
182.909521
 21
267.79935
 31
0.0
  0
SOLID
  5
44F
330
221
100
AcDbEntity
  8
Dimensions
440
 16777216
100
AcDbTrace
 10
175.667094
 20
269.833441
 30
0.0
 11
175.43968
 21
268.689153
 31
0.0
 12
178.98625
 22
268.579055
 32
0.0
 13
178.98625
 23
268.579055
 33
0.0
  0
SOLID
  5
450
330
221
100
AcDbEntity
  8
Dimensions
440
 16777216
100
AcDbTrace
 10
186.456091
 20
267.689252
 30
0.0
 11
186.228677
 21
266.544964
 31
0.0
 12
182.909521
 22
267.79935
 32
0.0
 13
182.909521
 23
267.79935
 33
0.0
  0
POINT
  5
451
330
221
100
AcDbEntity
  8
Defpoints
 62
     0
440
 16777216
100
AcDbPoint
 10
182.909521
 20
267.79935
 30
0.0
  0
POINT
  5
452
330
221
100
AcDbEntity
  8
Defpoints
 62
     0
440
 16777216
100
AcDbPoint
 10
178.98625
 20
268.579055
 30
0.0
  0
ENDBLK
  5
223
330
221
100
AcDbEntity
  8
0
100
AcDbBlockEnd
  0
BLOCK
  5
22D
330
22C
100
AcDbEntity
  8
0
100
AcDbBlockBegin
  2
*D21
 70
     1
 10
0.0
 20
0.0
 30
0.0
  3
*D21
  1

  0
LINE
  5
453
330
22C
100
AcDbEntity
  8
Dimensions
440
 16777216
370
    -2
100
AcDbLine
 10
179.681679
 20
248.817389
 30
0.0
 11
167.862497
 21
260.587353
 31
0.0
  0
LINE
  5
454
330
22C
100
AcDbEntity
  8
Dimensions
440
 16777216
370
    -2
100
AcDbLine
 10
161.733274
 20
266.691051
 30
0.0
 11
159.253242
 21
269.160756
 31
0.0
  0
MTEXT
  5
455
330
22C
100
AcDbEntity
  8
Dimensions
440
 16777216
100
AcDbMText
 10
177.400584
 20
255.865987
 30
0.0
 40
3.5
 41
0.0
 46
0.0
 71
     5
 72
     1
  1
3.3
 11
0.708581
 21
-0.70563
 31
0.0
 73
     1
 44
1.0
  0
LINE
  5
456
330
22C
100
AcDbEntity
  8
Dimensions
440
 16777216
370
    -2
100
AcDbLine
 10
164.213306
 20
264.221347
 30
0.0
 11
165.382464
 21
263.057058
 31
0.0
  0
SOLID
  5
457
330
22C
100
AcDbEntity
  8
Dimensions
440
 16777216
100
AcDbTrace
 10
162.144892
 20
267.10439
 30
0.0
 11
161.321657
 21
266.277713
 31
0.0
 12
164.213306
 22
264.221347
 32
0.0
 13
164.213306
 23
264.221347
 33
0.0
  0
SOLID
  5
458
330
22C
100
AcDbEntity
  8
Dimensions
440
 16777216
100
AcDbTrace
 10
168.274114
 20
261.000692
 30
0.0
 11
167.450879
 21
260.174014
 31
0.0
 12
165.382464
 22
263.057058
 32
0.0
 13
165.382464
 23
263.057058
 33
0.0
  0
POINT
  5
459
330
22C
100
AcDbEntity
  8
Defpoints
 62
     0
440
 16777216
100
AcDbPoint
 10
165.382464
 20
263.057058
 30
0.0
  0
POINT
  5
45A
330
22C
100
AcDbEntity
  8
Defpoints
 62
     0
440
 16777216
100
AcDbPoint
 10
164.213306
 20
264.221347
 30
0.0
  0
ENDBLK
  5
22E
330
22C
100
AcDbEntity
  8
0
100
AcDbBlockEnd
  0
BLOCK
  5
238
330
237
100
AcDbEntity
  8
0
100
AcDbBlockBegin
  2
*D22
 70
     1
 10
0.0
 20
0.0
 30
0.0
  3
*D22
  1

  0
LINE
  5
45B
330
237
100
AcDbEntity
  8
Dimensions
440
 16777216
370
    -2
100
AcDbLine
 10
266.269938
 20
254.534917
 30
0.0
 11
271.336999
 21
242.996141
 31
0.0
  0
LINE
  5
45C
330
237
100
AcDbEntity
  8
Dimensions
440
 16777216
370
    -2
100
AcDbLine
 10
275.558772
 20
233.382264
 30
0.0
 11
276.96603
 21
230.177638
 31
0.0
  0
MTEXT
  5
45D
330
237
100
AcDbEntity
  8
Dimensions
440
 16777216
100
AcDbMText
 10
271.199071
 20
251.728817
 30
0.0
 40
3.5
 41
0.0
 46
0.0
 71
     5
 72
     1
  1
7
 11
0.402074
 21
-0.915607
 31
0.0
 73
     1
 44
1.0
  0
LINE
  5
45E
330
237
100
AcDbEntity
  8
Dimensions
440
 16777216
370
    -2
100
AcDbLine
 10
274.151514
 20
236.586889
 30
0.0
 11
272.744256
 21
239.791515
 31
0.0
  0
SOLID
  5
45F
330
237
100
AcDbEntity
  8
Dimensions
440
 16777216
100
AcDbTrace
 10
276.092876
 20
233.616807
 30
0.0
 11
275.024668
 21
233.147721
 31
0.0
 12
274.151514
 22
236.586889
 32
0.0
 13
274.151514
 23
236.586889
 33
0.0
  0
SOLID
  5
460
330
237
100
AcDbEntity
  8
Dimensions
440
 16777216
100
AcDbTrace
 10
271.871103
 20
243.230684
 30
0.0
 11
270.802894
 21
242.761598
 31
0.0
 12
272.744256
 22
239.791515
 32
0.0
 13
272.744256
 23
239.791515
 33
0.0
  0
POINT
  5
461
330
237
100
AcDbEntity
  8
Defpoints
 62
     0
440
 16777216
100
AcDbPoint
 10
272.744256
 20
239.791515
 30
0.0
  0
POINT
  5
462
330
237
100
AcDbEntity
  8
Defpoints
 62
     0
440
 16777216
100
AcDbPoint
 10
274.151514
 20
236.586889
 30
0.0
  0
ENDBLK
  5
239
330
237
100
AcDbEntity
  8
0
100
AcDbBlockEnd
  0
BLOCK
  5
243
330
242
100
AcDbEntity
  8
0
100
AcDbBlockBegin
  2
*D23
 70
     1
 10
0.0
 20
0.0
 30
0.0
  3
*D23
  1

  0
LINE
  5
463
330
242
100
AcDbEntity
  8
Dimensions
440
 16777216
370
    -2
100
AcDbLine
 10
191.249562
 20
227.058157
 30
0.0
 11
183.463651
 21
212.797176
 31
0.0
  0
MTEXT
  5
464
330
242
100
AcDbEntity
  8
Dimensions
440
 16777216
100
AcDbMText
 10
185.309111
 20
223.039342
 30
0.0
 40
3.5
 41
0.0
 46
0.0
 71
     5
 72
     1
  1
R3.5
 11
0.479193
 21
0.877709
 31
0.0
 73
     1
 44
1.0
  0
LINE
  5
465
330
242
100
AcDbEntity
  8
Dimensions
440
 16777216
370
    -2
100
AcDbLine
 10
180.947885
 20
208.189202
 30
0.0
 11
181.786474
 21
209.725194
 31
0.0
  0
SOLID
  5
466
330
242
100
AcDbEntity
  8
Dimensions
440
 16777216
100
AcDbTrace
 10
182.951653
 20
213.076706
 30
0.0
 11
183.975648
 21
212.517647
 31
0.0
 12
181.786474
 22
209.725194
 32
0.0
 13
181.786474
 23
209.725194
 33
0.0
  0
POINT
  5
467
330
242
100
AcDbEntity
  8
Defpoints
 62
     0
440
 16777216
100
AcDbPoint
 10
181.786474
 20
209.725194
 30
0.0
  0
POINT
  5
468
330
242
100
AcDbEntity
  8
Defpoints
 62
     0
440
 16777216
100
AcDbPoint
 10
180.947885
 20
208.189202
 30
0.0
  0
ENDBLK
  5
244
330
242
100
AcDbEntity
  8
0
100
AcDbBlockEnd
  0
BLOCK
  5
24C
330
24B
100
AcDbEntity
  8
0
100
AcDbBlockBegin
  2
*D24
 70
     1
 10
0.0
 20
0.0
 30
0.0
  3
*D24
  1

  0
LINE
  5
469
330
24B
100
AcDbEntity
  8
Dimensions
440
 16777216
370
    -2
100
AcDbLine
 10
259.697885
 20
208.189202
 30
0.0
 11
295.055935
 21
208.189202
 31
0.0
  0
LINE
  5
46A
330
24B
100
AcDbEntity
  8
Dimensions
440
 16777216
370
    -2
100
AcDbLine
 10
259.697885
 20
203.189202
 30
0.0
 11
295.055935
 21
203.189202
 31
0.0
  0
LINE
  5
46B
330
24B
100
AcDbEntity
  8
Dimensions
440
 16777216
370
    -2
100
AcDbLine
 10
293.055935
 20
211.689202
 30
0.0
 11
293.055935
 21
215.189202
 31
0.0
  0
LINE
  5
46C
330
24B
100
AcDbEntity
  8
Dimensions
440
 16777216
370
    -2
100
AcDbLine
 10
293.055935
 20
199.689202
 30
0.0
 11
293.055935
 21
188.516965
 31
0.0
  0
LINE
  5
46D
330
24B
100
AcDbEntity
  8
Dimensions
440
 16777216
370
    -2
100
AcDbLine
 10
293.055935
 20
208.189202
 30
0.0
 11
293.055935
 21
203.189202
 31
0.0
  0
SOLID
  5
46E
330
24B
100
AcDbEntity
  8
Dimensions
440
 16777216
100
AcDbTrace
 10
292.472602
 20
211.689202
 30
0.0
 11
293.639268
 21
211.689202
 31
0.0
 12
293.055935
 22
208.189202
 32
0.0
 13
293.055935
 23
208.189202
 33
0.0
  0
SOLID
  5
46F
330
24B
100
AcDbEntity
  8
Dimensions
440
 16777216
100
AcDbTrace
 10
292.472602
 20
199.689202
 30
0.0
 11
293.639268
 21
199.689202
 31
0.0
 12
293.055935
 22
203.189202
 32
0.0
 13
293.055935
 23
203.189202
 33
0.0
  0
MTEXT
  5
470
330
24B
100
AcDbEntity
  8
Dimensions
440
 16777216
100
AcDbMText
 10
289.768929
 20
192.353084
 30
0.0
 40
3.5
 41
0.0
 46
0.0
 71
     5
 72
     1
  1
10
 11
0.0
 21
1.0
 31
0.0
 73
     1
 44
1.0
  0
POINT
  5
471
330
24B
100
AcDbEntity
  8
Defpoints
 62
     0
440
 16777216
100
AcDbPoint
 10
257.697885
 20
208.189202
 30
0.0
  0
POINT
  5
472
330
24B
100
AcDbEntity
  8
Defpoints
 62
     0
440
 16777216
100
AcDbPoint
 10
257.697885
 20
203.189202
 30
0.0
  0
POINT
  5
473
330
24B
100
AcDbEntity
  8
Defpoints
 62
     0
440
 16777216
100
AcDbPoint
 10
293.055935
 20
203.189202
 30
0.0
  0
ENDBLK
  5
24D
330
24B
100
AcDbEntity
  8
0
100
AcDbBlockEnd
  0
BLOCK
  5
25A
330
259
100
AcDbEntity
  8
0
100
AcDbBlockBegin
  2
*D25
 70
     1
 10
0.0
 20
0.0
 30
0.0
  3
*D25
  1

  0
LINE
  5
474
330
259
100
AcDbEntity
  8
Dimensions
440
 16777216
370
    -2
100
AcDbLine
 10
156.447885
 20
193.780624
 30
0.0
 11
146.54839
 21
193.780624
 31
0.0
  0
LINE
  5
475
330
259
100
AcDbEntity
  8
Dimensions
440
 16777216
370
    -2
100
AcDbLine
 10
156.447885
 20
188.780624
 30
0.0
 11
146.54839
 21
188.780624
 31
0.0
  0
LINE
  5
476
330
259
100
AcDbEntity
  8
Dimensions
440
 16777216
370
    -2
100
AcDbLine
 10
148.54839
 20
197.280624
 30
0.0
 11
148.54839
 21
200.780624
 31
0.0
  0
LINE
  5
477
330
259
100
AcDbEntity
  8
Dimensions
440
 16777216
370
    -2
100
AcDbLine
 10
148.54839
 20
185.280624
 30
0.0
 11
148.54839
 21
174.108386
 31
0.0
  0
LINE
  5
478
330
259
100
AcDbEntity
  8
Dimensions
440
 16777216
370
    -2
100
AcDbLine
 10
148.54839
 20
193.780624
 30
0.0
 11
148.54839
 21
188.780624
 31
0.0
  0
SOLID
  5
479
330
259
100
AcDbEntity
  8
Dimensions
440
 16777216
100
AcDbTrace
 10
147.965057
 20
197.280624
 30
0.0
 11
149.131724
 21
197.280624
 31
0.0
 12
148.54839
 22
193.780624
 32
0.0
 13
148.54839
 23
193.780624
 33
0.0
  0
SOLID
  5
47A
330
259
100
AcDbEntity
  8
Dimensions
440
 16777216
100
AcDbTrace
 10
147.965057
 20
185.280624
 30
0.0
 11
149.131724
 21
185.280624
 31
0.0
 12
148.54839
 22
188.780624
 32
0.0
 13
148.54839
 23
188.780624
 33
0.0
  0
MTEXT
  5
47B
330
259
100
AcDbEntity
  8
Dimensions
440
 16777216
100
AcDbMText
 10
145.261385
 20
177.944505
 30
0.0
 40
3.5
 41
0.0
 46
0.0
 71
     5
 72
     1
  1
10
 11
0.0
 21
1.0
 31
0.0
 73
     1
 44
1.0
  0
POINT
  5
47C
330
259
100
AcDbEntity
  8
Defpoints
 62
     0
440
 16777216
100
AcDbPoint
 10
158.447885
 20
193.780624
 30
0.0
  0
POINT
  5
47D
330
259
100
AcDbEntity
  8
Defpoints
 62
     0
440
 16777216
100
AcDbPoint
 10
158.447885
 20
188.780624
 30
0.0
  0
POINT
  5
47E
330
259
100
AcDbEntity
  8
Defpoints
 62
     0
440
 16777216
100
AcDbPoint
 10
148.54839
 20
188.780624
 30
0.0
  0
ENDBLK
  5
25B
330
259
100
AcDbEntity
  8
0
100
AcDbBlockEnd
  0
BLOCK
  5
268
330
267
100
AcDbEntity
  8
0
100
AcDbBlockBegin
  2
*D26
 70
     1
 10
0.0
 20
0.0
 30
0.0
  3
*D26
  1

  0
LINE
  5
47F
330
267
100
AcDbEntity
  8
Dimensions
440
 16777216
370
    -2
100
AcDbLine
 10
263.077772
 20
165.487545
 30
0.0
 11
271.520808
 21
137.602301
 31
0.0
  0
LINE
  5
480
330
267
100
AcDbEntity
  8
Dimensions
440
 16777216
370
    -2
100
AcDbLine
 10
275.374963
 20
124.872985
 30
0.0
 11
276.389215
 21
121.523165
 31
0.0
  0
MTEXT
  5
481
330
267
100
AcDbEntity
  8
Dimensions
440
 16777216
100
AcDbMText
 10
270.031814
 20
154.200728
 30
0.0
 40
3.5
 41
0.0
 46
0.0
 71
     5
 72
     1
  1
12.6x90%%D
 11
0.289786
 21
-0.957091
 31
0.0
 73
     1
 44
1.0
  0
LINE
  5
482
330
267
100
AcDbEntity
  8
Dimensions
440
 16777216
370
    -2
100
AcDbLine
 10
274.360712
 20
128.222805
 30
0.0
 11
272.535059
 21
134.252481
 31
0.0
  0
SOLID
  5
483
330
267
100
AcDbEntity
  8
Dimensions
440
 16777216
100
AcDbTrace
 10
275.933267
 20
125.042027
 30
0.0
 11
274.81666
 21
124.703943
 31
0.0
 12
274.360712
 22
128.222805
 32
0.0
 13
274.360712
 23
128.222805
 33
0.0
  0
SOLID
  5
484
330
267
100
AcDbEntity
  8
Dimensions
440
 16777216
100
AcDbTrace
 10
272.079111
 20
137.771343
 30
0.0
 11
270.962504
 21
137.433259
 31
0.0
 12
272.535059
 22
134.252481
 32
0.0
 13
272.535059
 23
134.252481
 33
0.0
  0
POINT
  5
485
330
267
100
AcDbEntity
  8
Defpoints
 62
     0
440
 16777216
100
AcDbPoint
 10
272.535059
 20
134.252481
 30
0.0
  0
POINT
  5
486
330
267
100
AcDbEntity
  8
Defpoints
 62
     0
440
 16777216
100
AcDbPoint
 10
274.360712
 20
128.222805
 30
0.0
  0
ENDBLK
  5
269
330
267
100
AcDbEntity
  8
0
100
AcDbBlockEnd
  0
BLOCK
  5
273
330
272
100
AcDbEntity
  8
0
100
AcDbBlockBegin
  2
*D27
 70
     1
 10
0.0
 20
0.0
 30
0.0
  3
*D27
  1

  0
LINE
  5
487
330
272
100
AcDbEntity
  8
Dimensions
440
 16777216
370
    -2
100
AcDbLine
 10
261.421423
 20
95.916538
 30
0.0
 11
271.755716
 21
126.267828
 31
0.0
  0
LINE
  5
488
330
272
100
AcDbEntity
  8
Dimensions
440
 16777216
370
    -2
100
AcDbLine
 10
275.140055
 20
136.207458
 30
0.0
 11
276.268168
 21
139.520669
 31
0.0
  0
MTEXT
  5
489
330
272
100
AcDbEntity
  8
Dimensions
440
 16777216
100
AcDbMText
 10
262.399903
 20
110.669719
 30
0.0
 40
3.5
 41
0.0
 46
0.0
 71
     5
 72
     1
  1
7 Through
 11
0.322318
 21
0.946631
 31
0.0
 73
     1
 44
1.0
  0
LINE
  5
48A
330
272
100
AcDbEntity
  8
Dimensions
440
 16777216
370
    -2
100
AcDbLine
 10
274.011942
 20
132.894248
 30
0.0
 11
272.883829
 21
129.581038
 31
0.0
  0
SOLID
  5
48B
330
272
100
AcDbEntity
  8
Dimensions
440
 16777216
100
AcDbTrace
 10
274.587853
 20
136.395477
 30
0.0
 11
275.692256
 21
136.01944
 31
0.0
 12
274.011942
 22
132.894248
 32
0.0
 13
274.011942
 23
132.894248
 33
0.0
  0
SOLID
  5
48C
330
272
100
AcDbEntity
  8
Dimensions
440
 16777216
100
AcDbTrace
 10
271.203514
 20
126.455847
 30
0.0
 11
272.307918
 21
126.079809
 31
0.0
 12
272.883829
 22
129.581038
 32
0.0
 13
272.883829
 23
129.581038
 33
0.0
  0
POINT
  5
48D
330
272
100
AcDbEntity
  8
Defpoints
 62
     0
440
 16777216
100
AcDbPoint
 10
272.883829
 20
129.581038
 30
0.0
  0
POINT
  5
48E
330
272
100
AcDbEntity
  8
Defpoints
 62
     0
440
 16777216
100
AcDbPoint
 10
274.011942
 20
132.894248
 30
0.0
  0
ENDBLK
  5
274
330
272
100
AcDbEntity
  8
0
100
AcDbBlockEnd
  0
ENDSEC
  0
SECTION
  2
ENTITIES
  0
INSERT
  5
F3
330
70
100
AcDbEntity
  8
Border
100
AcDbBlockReference
  2
ISO_A3_SHEET
 10
0.0
 20
0.0
 30
0.0
  0
INSERT
  5
139
330
70
100
AcDbEntity
  8
TitleBlock
100
AcDbBlockReference
 66
     1
  2
ISO_TITLEBLOCK
 10
410.0
 20
10.0
 30
0.0
  0
ATTRIB
  5
166
330
139
100
AcDbEntity
  8
TitleBlock
100
AcDbText
 10
360.0
 20
11.5
 30
0.0
 40
3.5
  1

  7
FusionTitle
100
AcDbAttribute
280
     0
  2
DATE_OF_ISSUE
 70
     0
280
     1
  0
ATTRIB
  5
167
330
139
100
AcDbEntity
  8
TitleBlock
100
AcDbText
 10
354.0
 20
13.1
 30
0.0
 40
3.5
  1

  7
FusionTitle
 72
     4
 11
354.0
 21
13.1
 31
0.0
100
AcDbAttribute
280
     0
  2
REV
 70
     0
280
     1
  0
ATTRIB
  5
168
330
139
100
AcDbEntity
  8
TitleBlock
100
AcDbText
 10
289.0
 20
11.5
 30
0.0
 40
5.0
  1

  7
FusionTitle
100
AcDbAttribute
280
     0
  2
TITLE_3
 70
     0
280
     1
  0
ATTRIB
  5
169
330
139
100
AcDbEntity
  8
TitleBlock
100
AcDbText
 10
350.0
 20
38.5
 30
0.0
 40
3.5
  1

  7
FusionTitle
100
AcDbAttribute
280
     0
  2
DOCUMENT_STATUS
 70
     0
280
     1
  0
ATTRIB
  5
16A
330
139
100
AcDbEntity
  8
TitleBlock
100
AcDbText
 10
289.0
 20
38.5
 30
0.0
 40
3.5
  1

  7
FusionTitle
100
AcDbAttribute
280
     0
  2
DOCUMENT_TYPE
 70
     0
280
     1
  0
ATTRIB
  5
16B
330
139
100
AcDbEntity
  8
TitleBlock
100
AcDbText
 10
409.0
 20
48.5
 30
0.0
 40
3.5
  1

  7
FusionTitle
 72
     2
 11
409.0
 21
48.5
 31
0.0
100
AcDbAttribute
280
     0
  2
APPROVED_DATE
 70
     0
280
     1
  0
ATTRIB
  5
16C
330
139
100
AcDbEntity
  8
TitleBlock
100
AcDbText
 10
323.528649
 20
48.5
 30
0.0
 40
3.5
  1
02/11/2020
  7
FusionTitle
 72
     2
 11
348.0
 21
48.5
 31
0.0
100
AcDbAttribute
280
     0
  2
CREATED_DATE
 70
     0
280
     1
  0
ATTRIB
  5
16D
330
139
100
AcDbEntity
  8
TitleBlock
100
AcDbText
 10
396.382162
 20
11.351194
 30
0.0
 40
3.5
  1
32/39
  7
FusionTitle
 72
     4
 11
402.5
 21
13.1
 31
0.0
100
AcDbAttribute
280
     0
  2
SHEET
 70
     0
280
     1
  0
ATTRIB
  5
16E
330
139
100
AcDbEntity
  8
TitleBlock
100
AcDbText
 10
289.0
 20
19.0
 30
0.0
 40
5.0
  1

  7
FusionTitle
100
AcDbAttribute
280
     0
  2
TITLE_2
 70
     0
280
     1
  0
ATTRIB
  5
16F
330
139
100
AcDbEntity
  8
TitleBlock
100
AcDbText
 10
379.5
 20
26.6
 30
0.0
 40
5.0
  1

  7
FusionTitle
 72
     4
 11
379.5
 21
26.6
 31
0.0
100
AcDbAttribute
280
     0
  2
DRAWING_NUMBER
 70
     0
280
     1
  0
ATTRIB
  5
170
330
139
100
AcDbEntity
  8
TitleBlock
100
AcDbText
 10
289.0
 20
26.5
 30
0.0
 40
5.0
  1
Microscope-incubation-chamber
 41
0.585891
  7
FusionTitle
100
AcDbAttribute
280
     0
  2
TITLE_1
 70
     0
280
     1
  0
ATTRIB
  5
171
330
139
100
AcDbEntity
  8
TitleBlock
100
AcDbText
 10
350.0
 20
48.5
 30
0.0
 40
3.5
  1

  7
FusionTitle
100
AcDbAttribute
280
     0
  2
APPROVED_BY
 70
     0
280
     1
  0
ATTRIB
  5
172
330
139
100
AcDbEntity
  8
TitleBlock
100
AcDbText
 10
289.0
 20
48.5
 30
0.0
 40
3.5
  1
Josh Edwards
  7
FusionTitle
100
AcDbAttribute
280
     0
  2
CREATED_BY
 70
     0
280
     1
  0
ATTRIB
  5
173
330
139
100
AcDbEntity
  8
TitleBlock
100
AcDbText
 10
255.0
 20
48.5
 30
0.0
 40
3.5
  1

  7
FusionTitle
100
AcDbAttribute
280
     0
  2
TECHNICAL_REFERENCE
 70
     0
280
     1
  0
ATTRIB
  5
174
330
139
100
AcDbEntity
  8
TitleBlock
100
AcDbText
 10
231.0
 20
48.5
 30
0.0
 40
3.5
  1

  7
FusionTitle
100
AcDbAttribute
280
     0
  2
DEPT
 70
     0
280
     1
  0
SEQEND
  5
175
330
139
100
AcDbEntity
  8
TitleBlock
  0
DIMENSION
  5
176
330
70
100
AcDbEntity
  8
Dimensions
100
AcDbDimension
280
     0
  2
*D17
 10
160.947885
 20
277.100505
 30
0.0
 11
218.447885
 21
280.388704
 31
0.0
 70
    33
 71
     5
 42
230.0
 73
     0
 74
     0
 75
     0
  3
ISO-25
100
AcDbAlignedDimension
 13
275.947885
 23
273.189202
 33
0.0
 14
160.947885
 24
273.189202
 34
0.0
1001
ACAD_DIMASSOC_CALC_DIMLFAC
1040
-2.0
1001
ACAD_DIMASSOC_DIMLFAC
1040
-2.0
1001
ACAD_DIMASSOC_OVERRIDDEN_DIMLFAC
1040
0.0
1001
ACAD
1000
DSTYLE
1002
{
1070
   144
1040
2.0
1070
   176
1070
   256
1070
   177
1070
   256
1002
}
  0
DIMENSION
  5
184
330
70
100
AcDbEntity
  8
Dimensions
100
AcDbDimension
280
     0
  2
*D18
 10
138.648895
 20
205.689202
 30
0.0
 11
135.360696
 21
238.189202
 31
0.0
 70
    33
 71
     5
 42
130.0
 73
     0
 74
     0
 75
     0
  3
ISO-25
100
AcDbAlignedDimension
 13
158.447885
 23
270.689202
 33
0.0
 14
158.447885
 24
205.689202
 34
0.0
1001
ACAD_DIMASSOC_CALC_DIMLFAC
1040
-2.0
1001
ACAD_DIMASSOC_DIMLFAC
1040
-2.0
1001
ACAD_DIMASSOC_OVERRIDDEN_DIMLFAC
1040
0.0
1001
ACAD
1000
DSTYLE
1002
{
1070
   144
1040
2.0
1070
   176
1070
   256
1070
   177
1070
   256
1002
}
  0
DIMENSION
  5
191
330
70
100
AcDbEntity
  8
Dimensions
100
AcDbDimension
280
     0
  2
*D19
 10
160.947885
 20
270.689202
 30
0.0
 11
150.894989
 21
280.194419
 31
0.0
 70
   164
 71
     5
 42
5.0
 73
     0
 74
     0
 75
     0
  3
ISO-25
100
AcDbRadialDimension
 15
159.131328
 25
272.406794
 35
0.0
 40
0.0
1001
ACAD_DIMASSOC_CALC_DIMLFAC
1040
-2.0
1001
ACAD_DIMASSOC_DIMLFAC
1040
-2.0
1001
ACAD_DIMASSOC_OVERRIDDEN_DIMLFAC
1040
0.0
1001
ACAD_DSTYLE_DIMRADIAL_EXTENSION
1070
   387
1070
     1
1070
   388
1040
1.570796
1070
   390
1040
3.141593
1001
ACAD
1000
DSTYLE
1002
{
1070
    75
1070
     1
1070
   144
1040
2.0
1070
   176
1070
   256
1070
   177
1070
   256
1002
}
  0
DIMENSION
  5
19B
330
70
100
AcDbEntity
  8
Dimensions
100
AcDbDimension
280
     0
  2
*D20
 10
178.98625
 20
268.579055
 30
0.0
 11
194.902422
 21
268.866989
 31
0.0
 70
    35
 71
     5
 42
8.0
 73
     0
 74
     0
 75
     0
  3
ISO-25
100
AcDbDiametricDimension
 15
182.909521
 25
267.79935
 35
0.0
 40
0.0
1001
ACAD_DIMASSOC_CALC_DIMLFAC
1040
-2.0
1001
ACAD_DIMASSOC_DIMLFAC
1040
-2.0
1001
ACAD_DIMASSOC_OVERRIDDEN_DIMLFAC
1040
0.0
1001
ACAD_DSTYLE_DIMRADIAL_EXTENSION
1070
   387
1070
     1
1070
   388
1040
0.0
1070
   390
1040
0.0
1001
ACAD
1000
DSTYLE
1002
{
1070
   144
1040
2.0
1070
   176
1070
   256
1070
   177
1070
   256
1002
}
  0
DIMENSION
  5
1A7
330
70
100
AcDbEntity
  8
Dimensions
100
AcDbDimension
280
     0
  2
*D21
 10
164.213306
 20
264.221347
 30
0.0
 11
175.012104
 21
253.467519
 31
0.0
 70
   163
 71
     5
 42
3.3
 73
     0
 74
     0
 75
     0
  3
ISO-25
100
AcDbDiametricDimension
 15
165.382464
 25
263.057058
 35
0.0
 40
0.0
1001
ACAD_DIMASSOC_CALC_DIMLFAC
1040
-2.0
1001
ACAD_DIMASSOC_DIMLFAC
1040
-2.0
1001
ACAD_DIMASSOC_OVERRIDDEN_DIMLFAC
1040
0.0
1001
ACAD_DSTYLE_DIMRADIAL_EXTENSION
1070
   387
1070
     1
1070
   388
1040
0.0
1070
   390
1040
0.0
1001
ACAD
1000
DSTYLE
1002
{
1070
   144
1040
2.0
1070
   176
1070
   256
1070
   177
1070
   256
1002
}
  0
DIMENSION
  5
1B3
330
70
100
AcDbEntity
  8
Dimensions
100
AcDbDimension
280
     0
  2
*D22
 10
274.151514
 20
236.586889
 30
0.0
 11
271.199071
 21
251.728817
 31
0.0
 70
    35
 71
     5
 42
7.0
 73
     0
 74
     0
 75
     0
  3
ISO-25
100
AcDbDiametricDimension
 15
272.744256
 25
239.791515
 35
0.0
 40
0.0
1001
ACAD_DIMASSOC_CALC_DIMLFAC
1040
-2.0
1001
ACAD_DIMASSOC_DIMLFAC
1040
-2.0
1001
ACAD_DIMASSOC_OVERRIDDEN_DIMLFAC
1040
0.0
1001
ACAD_DSTYLE_DIMRADIAL_EXTENSION
1070
   387
1070
     1
1070
   388
1040
0.0
1070
   390
1040
0.0
1001
ACAD
1000
DSTYLE
1002
{
1070
   144
1040
2.0
1070
   176
1070
   256
1070
   177
1070
   256
1002
}
  0
DIMENSION
  5
1BF
330
70
100
AcDbEntity
  8
Dimensions
100
AcDbDimension
280
     0
  2
*D23
 10
180.947885
 20
208.189202
 30
0.0
 11
185.309111
 21
223.039342
 31
0.0
 70
    36
 71
     5
 42
3.5
 73
     0
 74
     0
 75
     0
  3
ISO-25
100
AcDbRadialDimension
 15
181.786474
 25
209.725194
 35
0.0
 40
0.0
1001
ACAD_DIMASSOC_CALC_DIMLFAC
1040
-2.0
1001
ACAD_DIMASSOC_DIMLFAC
1040
-2.0
1001
ACAD_DIMASSOC_OVERRIDDEN_DIMLFAC
1040
0.0
1001
ACAD_DSTYLE_DIMRADIAL_EXTENSION
1070
   387
1070
     1
1070
   388
1040
6.283185
1070
   390
1040
3.141593
1001
ACAD
1000
DSTYLE
1002
{
1070
    75
1070
     1
1070
   144
1040
2.0
1070
   176
1070
   256
1070
   177
1070
   256
1002
}
  0
DIMENSION
  5
1C9
330
70
100
AcDbEntity
  8
Dimensions
100
AcDbDimension
280
     0
  2
*D24
 10
293.055935
 20
203.189202
 30
0.0
 11
289.768929
 21
192.353084
 31
0.0
 70
    33
 71
     5
 42
10.0
 73
     0
 74
     0
 75
     0
  3
ISO-25
100
AcDbAlignedDimension
 13
257.697885
 23
208.189202
 33
0.0
 14
257.697885
 24
203.189202
 34
0.0
1001
ACAD_DIMASSOC_CALC_DIMLFAC
1040
-2.0
1001
ACAD_DIMASSOC_DIMLFAC
1040
-2.0
1001
ACAD_DIMASSOC_OVERRIDDEN_DIMLFAC
1040
0.0
1001
ACAD
1000
DSTYLE
1002
{
1070
   144
1040
2.0
1070
   176
1070
   256
1070
   177
1070
   256
1002
}
  0
DIMENSION
  5
1D8
330
70
100
AcDbEntity
  8
Dimensions
100
AcDbDimension
280
     0
  2
*D25
 10
148.54839
 20
188.780624
 30
0.0
 11
145.261385
 21
177.944505
 31
0.0
 70
    33
 71
     5
 42
10.0
 73
     0
 74
     0
 75
     0
  3
ISO-25
100
AcDbAlignedDimension
 13
158.447885
 23
193.780624
 33
0.0
 14
158.447885
 24
188.780624
 34
0.0
1001
ACAD_DIMASSOC_CALC_DIMLFAC
1040
-2.0
1001
ACAD_DIMASSOC_DIMLFAC
1040
-2.0
1001
ACAD_DIMASSOC_OVERRIDDEN_DIMLFAC
1040
0.0
1001
ACAD
1000
DSTYLE
1002
{
1070
   144
1040
2.0
1070
   176
1070
   256
1070
   177
1070
   256
1002
}
  0
DIMENSION
  5
1E7
330
70
100
AcDbEntity
  8
Dimensions
100
AcDbDimension
280
     0
  2
*D26
 10
274.360712
 20
128.222805
 30
0.0
 11
270.031814
 21
154.200728
 31
0.0
 70
    35
  1
<>x90%%D
 71
     5
 42
12.6
 73
     0
 74
     0
 75
     0
  3
ISO-25
100
AcDbDiametricDimension
 15
272.535059
 25
134.252481
 35
0.0
 40
0.0
1001
ACAD_DIMASSOC_CALC_DIMLFAC
1040
-2.0
1001
ACAD_DIMASSOC_DIMLFAC
1040
-2.0
1001
ACAD_DIMASSOC_OVERRIDDEN_DIMLFAC
1040
0.0
1001
ACAD_DSTYLE_DIMRADIAL_EXTENSION
1070
   387
1070
     1
1070
   388
1040
0.0
1070
   390
1040
0.0
1001
ACAD
1000
DSTYLE
1002
{
1070
   144
1040
2.0
1070
   176
1070
   256
1070
   177
1070
   256
1002
}
  0
DIMENSION
  5
1F3
330
70
100
AcDbEntity
  8
Dimensions
100
AcDbDimension
280
     0
  2
*D27
 10
274.011942
 20
132.894248
 30
0.0
 11
262.399903
 21
110.669719
 31
0.0
 70
    35
  1
<> Through
 71
     5
 42
7.0
 73
     0
 74
     0
 75
     0
  3
ISO-25
100
AcDbDiametricDimension
 15
272.883829
 25
129.581038
 35
0.0
 40
0.0
1001
ACAD_DIMASSOC_CALC_DIMLFAC
1040
-2.0
1001
ACAD_DIMASSOC_DIMLFAC
1040
-2.0
1001
ACAD_DIMASSOC_OVERRIDDEN_DIMLFAC
1040
0.0
1001
ACAD_DSTYLE_DIMRADIAL_EXTENSION
1070
   387
1070
     1
1070
   388
1040
0.0
1070
   390
1040
0.0
1001
ACAD
1000
DSTYLE
1002
{
1070
   144
1040
2.0
1070
   176
1070
   256
1070
   177
1070
   256
1002
}
  0
CIRCLE
  5
392
330
70
100
AcDbEntity
  8
Visible
100
AcDbCircle
 10
-273.447885
 20
238.189202
 30
-2.5
 40
1.75
210
0.0000000000000005
220
0.0
230
-1.0
  0
CIRCLE
  5
393
330
70
100
AcDbEntity
  8
Visible
100
AcDbCircle
 10
-180.947885
 20
268.189202
 30
-2.5
 40
2.0
210
0.0000000000000005
220
0.0
230
-1.0
  0
CIRCLE
  5
394
330
70
100
AcDbEntity
  8
Visible
100
AcDbCircle
 10
-255.947885
 20
268.189202
 30
-2.5
 40
2.0
210
0.0000000000000005
220
0.0
230
-1.0
  0
CIRCLE
  5
395
330
70
100
AcDbEntity
  8
Visible
100
AcDbCircle
 10
-164.797885
 20
212.739202
 30
-2.5
 40
0.825
210
0.0000000000000005
220
0.0
230
-1.0
  0
CIRCLE
  5
396
330
70
100
AcDbEntity
  8
Visible
100
AcDbCircle
 10
-164.797885
 20
228.639202
 30
-2.5
 40
0.825
210
0.0000000000000005
220
0.0
230
-1.0
  0
CIRCLE
  5
397
330
70
100
AcDbEntity
  8
Visible
100
AcDbCircle
 10
-164.797885
 20
247.739202
 30
-2.5
 40
0.825
210
0.0000000000000005
220
0.0
230
-1.0
  0
CIRCLE
  5
398
330
70
100
AcDbEntity
  8
Visible
100
AcDbCircle
 10
-164.797885
 20
263.639202
 30
-2.5
 40
0.825
210
0.0000000000000005
220
0.0
230
-1.0
  0
LINE
  5
399
330
70
100
AcDbEntity
  8
Visible
100
AcDbLine
 10
179.197885
 20
203.189202
 30
2.5
 11
179.197885
 21
208.189202
 31
2.5
210
0.0
220
1.0
230
0.0
  0
LINE
  5
39A
330
70
100
AcDbEntity
  8
Visible
100
AcDbLine
 10
160.947885
 20
203.189202
 30
2.5
 11
179.197885
 21
203.189202
 31
2.5
210
0.0
220
1.0
230
0.0
  0
ARC
  5
39B
330
70
100
AcDbEntity
  8
Visible
100
AcDbCircle
 10
160.947885
 20
205.689202
 30
2.5
 40
2.499999999999964
100
AcDbArc
 50
180.0
 51
270.0
  0
LINE
  5
39C
330
70
100
AcDbEntity
  8
Visible
100
AcDbLine
 10
158.447885
 20
270.689202
 30
2.5
 11
158.447885
 21
205.689202
 31
2.5
210
0.0
220
1.0
230
0.0
  0
ARC
  5
39D
330
70
100
AcDbEntity
  8
Visible
100
AcDbCircle
 10
160.947885
 20
270.689202
 30
2.5
 40
2.499999999999967
100
AcDbArc
 50
90.0
 51
180.0
  0
LINE
  5
39E
330
70
100
AcDbEntity
  8
Visible
100
AcDbLine
 10
275.947885
 20
273.189202
 30
2.5
 11
160.947885
 21
273.189202
 31
2.5
210
0.0
220
1.0
230
0.0
  0
ARC
  5
39F
330
70
100
AcDbEntity
  8
Visible
100
AcDbCircle
 10
275.947885
 20
270.689202
 30
2.5
 40
2.499999999999964
100
AcDbArc
 50
360.0
 51
90.0
  0
LINE
  5
3A0
330
70
100
AcDbEntity
  8
Visible
100
AcDbLine
 10
278.447885
 20
205.689202
 30
2.5
 11
278.447885
 21
270.689202
 31
2.5
210
0.0
220
1.0
230
0.0
  0
ARC
  5
3A1
330
70
100
AcDbEntity
  8
Visible
100
AcDbCircle
 10
275.947885
 20
205.689202
 30
2.5
 40
2.499999999999967
100
AcDbArc
 50
270.0
 51
0.0
  0
LINE
  5
3A2
330
70
100
AcDbEntity
  8
Visible
100
AcDbLine
 10
257.697885
 20
203.189202
 30
2.5
 11
275.947885
 21
203.189202
 31
2.5
210
0.0
220
1.0
230
0.0
  0
LINE
  5
3A3
330
70
100
AcDbEntity
  8
Visible
100
AcDbLine
 10
257.697885
 20
208.189202
 30
2.5
 11
257.697885
 21
203.189202
 31
2.5
210
0.0
220
1.0
230
0.0
  0
ARC
  5
3A4
330
70
100
AcDbEntity
  8
Visible
100
AcDbCircle
 10
-255.947885
 20
208.189202
 30
-2.5
 40
1.750000000000007
210
0.0000000000000005
220
0.0
230
-1.0
100
AcDbArc
 50
360.0
 51
180.0
  0
LINE
  5
3A5
330
70
100
AcDbEntity
  8
Visible
100
AcDbLine
 10
254.197885
 20
203.189202
 30
2.5
 11
254.197885
 21
208.189202
 31
2.5
210
0.0
220
1.0
230
0.0
  0
LINE
  5
3A6
330
70
100
AcDbEntity
  8
Visible
100
AcDbLine
 10
182.697885
 20
203.189202
 30
2.5
 11
254.197885
 21
203.189202
 31
2.5
210
0.0
220
1.0
230
0.0
  0
LINE
  5
3A7
330
70
100
AcDbEntity
  8
Visible
100
AcDbLine
 10
182.697885
 20
208.189202
 30
2.5
 11
182.697885
 21
203.189202
 31
2.5
210
0.0
220
1.0
230
0.0
  0
ARC
  5
3A8
330
70
100
AcDbEntity
  8
Visible
100
AcDbCircle
 10
-180.947885
 20
208.189202
 30
-2.5
 40
1.749999999999989
210
0.0000000000000005
220
0.0
230
-1.0
100
AcDbArc
 50
0.0
 51
180.0
  0
LINE
  5
3A9
330
70
100
AcDbEntity
  8
Visible
100
AcDbLine
 10
158.447885
 20
193.780624
 30
32.5
 11
158.447885
 21
188.780624
 31
32.5
  0
ARC
  5
3AA
330
70
100
AcDbEntity
  8
Visible
100
AcDbCircle
 10
160.947885
 20
32.5
 30
-193.780624
 40
2.499999999999967
210
-0.0000000000000004
220
-1.0
230
0.0
100
AcDbArc
 50
90.0
 51
180.0
  0
ARC
  5
3AB
330
70
100
AcDbEntity
  8
Visible
100
AcDbCircle
 10
160.947885
 20
32.5
 30
-188.780624
 40
2.499999999999967
210
-0.0000000000000004
220
-1.0
230
0.0
100
AcDbArc
 50
90.0
 51
180.0
  0
LINE
  5
3AC
330
70
100
AcDbEntity
  8
Visible
100
AcDbLine
 10
275.947885
 20
193.780624
 30
35.0
 11
160.947885
 21
193.780624
 31
35.0
  0
LINE
  5
3AD
330
70
100
AcDbEntity
  8
Visible
100
AcDbLine
 10
275.947885
 20
188.780624
 30
35.0
 11
160.947885
 21
188.780624
 31
35.0
  0
ARC
  5
3AE
330
70
100
AcDbEntity
  8
Visible
100
AcDbCircle
 10
275.947885
 20
32.5
 30
-193.780624
 40
2.499999999999964
210
-0.0000000000000004
220
-1.0
230
0.0
100
AcDbArc
 50
0.0
 51
90.0
  0
ARC
  5
3AF
330
70
100
AcDbEntity
  8
Visible
100
AcDbCircle
 10
275.947885
 20
32.5
 30
-188.780624
 40
2.499999999999964
210
-0.0000000000000004
220
-1.0
230
0.0
100
AcDbArc
 50
0.0
 51
90.0
  0
LINE
  5
3B0
330
70
100
AcDbEntity
  8
Visible
100
AcDbLine
 10
278.447885
 20
193.780624
 30
32.5
 11
278.447885
 21
188.780624
 31
32.5
  0
CIRCLE
  5
3B1
330
70
100
AcDbEntity
  8
Visible
100
AcDbCircle
 10
-273.447885
 20
131.237643
 30
-2.5
 40
3.15
210
-0.0000000000000004
220
-0.0000000000005933
230
-1.0
  0
CIRCLE
  5
3B2
330
70
100
AcDbEntity
  8
Visible
100
AcDbCircle
 10
273.447885
 20
131.237643
 30
1.1
 40
1.75
  0
CIRCLE
  5
3B3
330
70
100
AcDbEntity
  8
Visible
100
AcDbCircle
 10
-180.947885
 20
101.237643
 30
-2.5
 40
2.0
210
-0.0000000000000004
220
-0.0000000000005933
230
-1.0
  0
CIRCLE
  5
3B4
330
70
100
AcDbEntity
  8
Visible
100
AcDbCircle
 10
-255.947885
 20
101.237643
 30
-2.5
 40
2.0
210
-0.0000000000000004
220
-0.0000000000005933
230
-1.0
  0
CIRCLE
  5
3B5
330
70
100
AcDbEntity
  8
Visible
100
AcDbCircle
 10
-164.797885
 20
156.687643
 30
-2.5
 40
0.825
210
-0.0000000000000004
220
-0.0000000000005933
230
-1.0
  0
CIRCLE
  5
3B6
330
70
100
AcDbEntity
  8
Visible
100
AcDbCircle
 10
-164.797885
 20
140.787643
 30
-2.5
 40
0.825
210
-0.0000000000000004
220
-0.0000000000005933
230
-1.0
  0
CIRCLE
  5
3B7
330
70
100
AcDbEntity
  8
Visible
100
AcDbCircle
 10
-164.797885
 20
121.687643
 30
-2.5
 40
0.825
210
-0.0000000000000004
220
-0.0000000000005933
230
-1.0
  0
CIRCLE
  5
3B8
330
70
100
AcDbEntity
  8
Visible
100
AcDbCircle
 10
-164.797885
 20
105.787643
 30
-2.5
 40
0.825
210
-0.0000000000000004
220
-0.0000000000005933
230
-1.0
  0
LINE
  5
3B9
330
70
100
AcDbEntity
  8
Visible
100
AcDbLine
 10
179.197885
 20
166.237643
 30
2.5
 11
179.197885
 21
161.237643
 31
2.5
210
-0.0000000000000001
220
-1.0
230
0.0000000000005933
  0
LINE
  5
3BA
330
70
100
AcDbEntity
  8
Visible
100
AcDbLine
 10
160.947885
 20
166.237643
 30
2.5
 11
179.197885
 21
166.237643
 31
2.5
210
-0.0000000000000001
220
-1.0
230
0.0000000000005933
  0
ARC
  5
3BB
330
70
100
AcDbEntity
  8
Visible
100
AcDbCircle
 10
-160.947885
 20
163.737643
 30
-2.5
 40
2.499999999999964
210
-0.0000000000000004
220
-0.0000000000005933
230
-1.0
100
AcDbArc
 50
0.0
 51
90.0
  0
LINE
  5
3BC
330
70
100
AcDbEntity
  8
Visible
100
AcDbLine
 10
158.447885
 20
98.737643
 30
2.5
 11
158.447885
 21
163.737643
 31
2.5
210
-0.0000000000000001
220
-1.0
230
0.0000000000005933
  0
ARC
  5
3BD
330
70
100
AcDbEntity
  8
Visible
100
AcDbCircle
 10
-160.947885
 20
98.737643
 30
-2.5
 40
2.499999999999967
210
-0.0000000000000004
220
-0.0000000000005933
230
-1.0
100
AcDbArc
 50
270.0
 51
0.0
  0
LINE
  5
3BE
330
70
100
AcDbEntity
  8
Visible
100
AcDbLine
 10
275.947885
 20
96.237643
 30
2.5
 11
160.947885
 21
96.237643
 31
2.5
210
-0.0000000000000001
220
-1.0
230
0.0000000000005933
  0
ARC
  5
3BF
330
70
100
AcDbEntity
  8
Visible
100
AcDbCircle
 10
-275.947885
 20
98.737643
 30
-2.5
 40
2.499999999999964
210
-0.0000000000000004
220
-0.0000000000005933
230
-1.0
100
AcDbArc
 50
180.0
 51
270.0
  0
LINE
  5
3C0
330
70
100
AcDbEntity
  8
Visible
100
AcDbLine
 10
278.447885
 20
163.737643
 30
2.5
 11
278.447885
 21
98.737643
 31
2.5
210
-0.0000000000000001
220
-1.0
230
0.0000000000005933
  0
ARC
  5
3C1
330
70
100
AcDbEntity
  8
Visible
100
AcDbCircle
 10
-275.947885
 20
163.737643
 30
-2.5
 40
2.499999999999967
210
-0.0000000000000004
220
-0.0000000000005933
230
-1.0
100
AcDbArc
 50
90.0
 51
180.0
  0
LINE
  5
3C2
330
70
100
AcDbEntity
  8
Visible
100
AcDbLine
 10
257.697885
 20
166.237643
 30
2.5
 11
275.947885
 21
166.237643
 31
2.5
210
-0.0000000000000001
220
-1.0
230
0.0000000000005933
  0
LINE
  5
3C3
330
70
100
AcDbEntity
  8
Visible
100
AcDbLine
 10
257.697885
 20
161.237643
 30
2.5
 11
257.697885
 21
166.237643
 31
2.5
210
-0.0000000000000001
220
-1.0
230
0.0000000000005933
  0
ARC
  5
3C4
330
70
100
AcDbEntity
  8
Visible
100
AcDbCircle
 10
255.947885
 20
161.237643
 30
2.5
 40
1.750000000000007
100
AcDbArc
 50
180.0
 51
0.0
  0
LINE
  5
3C5
330
70
100
AcDbEntity
  8
Visible
100
AcDbLine
 10
254.197885
 20
166.237643
 30
2.5
 11
254.197885
 21
161.237643
 31
2.5
210
-0.0000000000000001
220
-1.0
230
0.0000000000005933
  0
LINE
  5
3C6
330
70
100
AcDbEntity
  8
Visible
100
AcDbLine
 10
182.697885
 20
166.237643
 30
2.5
 11
254.197885
 21
166.237643
 31
2.5
210
-0.0000000000000001
220
-1.0
230
0.0000000000005933
  0
LINE
  5
3C7
330
70
100
AcDbEntity
  8
Visible
100
AcDbLine
 10
182.697885
 20
161.237643
 30
2.5
 11
182.697885
 21
166.237643
 31
2.5
210
-0.0000000000000001
220
-1.0
230
0.0000000000005933
  0
ARC
  5
3C8
330
70
100
AcDbEntity
  8
Visible
100
AcDbCircle
 10
180.947885
 20
161.237643
 30
2.5
 40
1.749999999999989
100
AcDbArc
 50
180.0
 51
0.0
  0
ENDSEC
  0
SECTION
  2
OBJECTS
  0
DICTIONARY
  5
C
330
0
100
AcDbDictionary
281
     1
  3
ACAD_COLOR
350
63
  3
ACAD_DETAILVIEWSTYLE
350
6A
  3
ACAD_GROUP
350
D
  3
ACAD_LAYOUT
350
62
  3
ACAD_MATERIAL
350
10
  3
ACAD_MLEADERSTYLE
350
66
  3
ACAD_MLINESTYLE
350
5F
  3
ACAD_PLOTSETTINGS
350
61
  3
ACAD_PLOTSTYLENAME
350
E
  3
ACAD_SCALELIST
350
42
  3
ACAD_SECTIONVIEWSTYLE
350
68
  3
ACAD_TABLESTYLE
350
64
  3
ACAD_VISUALSTYLE
350
29
  3
ACDB_RECOMPOSE_DATA
350
42E
  3
AcDbVariableDictionary
350
425
  0
DICTIONARY
  5
AA
330
70
100
AcDbDictionary
280
     1
281
     1
  3
ACAD_SORTENTS
360
AB
  0
DICTIONARY
  5
F6
330
F5
100
AcDbDictionary
280
     1
281
     1
  0
DICTIONARY
  5
13C
330
13B
100
AcDbDictionary
280
     1
281
     1
  3
ACAD_SORTENTS
360
391
  0
DICTIONARY
  5
63
102
{ACAD_REACTORS
330
C
102
}
330
C
100
AcDbDictionary
281
     1
  0
DICTIONARY
  5
6A
102
{ACAD_REACTORS
330
C
102
}
330
C
100
AcDbDictionary
281
     1
  3
Imperial24
350
6B
  0
DICTIONARY
  5
D
102
{ACAD_REACTORS
330
C
102
}
330
C
100
AcDbDictionary
281
     1
  0
DICTIONARY
  5
62
102
{ACAD_REACTORS
330
C
102
}
330
C
100
AcDbDictionary
281
     1
  3
Model
350
73
  3
Sheet1
350
6F
  3
Sheet2
350
77
  0
DICTIONARY
  5
10
102
{ACAD_REACTORS
330
C
102
}
330
C
100
AcDbDictionary
281
     1
  3
ByBlock
350
19
  3
ByLayer
350
11
  3
Global
350
21
  0
DICTIONARY
  5
66
102
{ACAD_REACTORS
330
C
102
}
330
C
100
AcDbDictionary
281
     1
  3
Standard
350
67
  0
DICTIONARY
  5
5F
102
{ACAD_REACTORS
330
C
102
}
330
C
100
AcDbDictionary
281
     1
  3
Standard
350
60
  0
DICTIONARY
  5
61
102
{ACAD_REACTORS
330
C
102
}
330
C
100
AcDbDictionary
281
     1
  0
ACDBDICTIONARYWDFLT
  5
E
102
{ACAD_REACTORS
330
C
102
}
330
C
100
AcDbDictionary
281
     1
  3
Normal
350
F
100
AcDbDictionaryWithDefault
340
F
  0
DICTIONARY
  5
42
102
{ACAD_REACTORS
330
C
102
}
330
C
100
AcDbDictionary
281
     1
  3
A0
350
43
  3
A1
350
44
  3
A2
350
45
  3
A3
350
46
  3
A4
350
47
  3
A5
350
48
  3
A6
350
49
  3
A7
350
4A
  3
A8
350
4B
  3
A9
350
4C
  3
B0
350
4D
  3
B1
350
4E
  3
B2
350
4F
  3
B3
350
50
  3
B4
350
51
  3
B5
350
52
  3
B6
350
53
  0
DICTIONARY
  5
68
102
{ACAD_REACTORS
330
C
102
}
330
C
100
AcDbDictionary
281
     1
  3
Imperial24
350
69
  0
DICTIONARY
  5
64
102
{ACAD_REACTORS
330
C
102
}
330
C
100
AcDbDictionary
281
     1
  3
Standard
350
65
  0
DICTIONARY
  5
29
102
{ACAD_REACTORS
330
C
102
}
330
C
100
AcDbDictionary
281
     1
  3
2dWireframe
350
2F
  3
Basic
350
2E
  3
Brighten
350
35
  3
ColorChange
350
39
  3
Conceptual
350
32
  3
Dim
350
34
  3
EdgeColorOff
350
41
  3
Facepattern
350
38
  3
Flat
350
2A
  3
FlatWithEdges
350
2B
  3
Gouraud
350
2C
  3
GouraudWithEdges
350
2D
  3
Hidden
350
31
  3
JitterOff
350
3F
  3
Linepattern
350
37
  3
OverhangOff
350
40
  3
Realistic
350
33
  3
Shaded
350
3E
  3
Shaded with edges
350
3D
  3
Shades of Gray
350
3A
  3
Sketchy
350
3B
  3
Thicken
350
36
  3
Wireframe
350
30
  3
X-Ray
350
3C
  0
XRECORD
  5
42E
102
{ACAD_REACTORS
330
C
102
}
330
C
100
AcDbXrecord
280
     1
 90
        1
330
65
  0
DICTIONARY
  5
425
102
{ACAD_REACTORS
330
C
102
}
330
C
100
AcDbDictionary
281
     1
  3
ANNOALLVISIBLE
350
42A
  3
CANNOSCALE
350
42B
  3
CMLEADERSTYLE
350
427
  3
CTABLESTYLE
350
426
  3
CVIEWDETAILSTYLE
350
428
  3
CVIEWSECTIONSTYLE
350
429
  0
SORTENTSTABLE
  5
AB
102
{ACAD_REACTORS
330
AA
102
}
330
AA
100
AcDbSortentsTable
330
70
  0
SORTENTSTABLE
  5
391
102
{ACAD_REACTORS
330
13C
102
}
330
13C
100
AcDbSortentsTable
330
13B
  0
ACDBDETAILVIEWSTYLE
  5
6B
102
{ACAD_XDICTIONARY
360
431
102
}
102
{ACAD_REACTORS
330
6A
102
}
330
6A
100
AcDbModelDocViewStyle
 70
     0
  3
Imperial24
290
     0
100
AcDbDetailViewStyle
 70
     0
 71
     0
 90
        3
 71
     1
340
55
 62
   256
 40
0.24
340
0
 62
   256
 40
0.24
300

 40
0.36
280
     3
 71
     2
340
5D
 90
       25
 62
   256
 71
     3
340
55
 62
   256
 40
0.24
 90
        1
 40
0.75
 90
        1
300
%<\AcVar ViewType \f "%tc1">% %<\AcVar ViewDetailId>%\PSCALE %<\AcVar ViewScale \f "%sn">%
 71
     4
340
5D
 90
       25
 62
   256
340
5D
 90
       25
 62
   256
280
     0
  0
LAYOUT
  5
73
102
{ACAD_REACTORS
330
62
102
}
330
62
100
AcDbPlotSettings
  1

  2
AutoCAD PDF (High Quality Print).pc3
  4
ISO_full_bleed_A3_(420.00_x_297.00_MM)
  6

 40
0.0
 41
0.0
 42
0.0
 43
0.0
 44
420.0
 45
297.0
 46
0.0
 47
0.0
 48
0.0
 49
0.0
140
0.0
141
0.0
142
1.0
143
0.768765
 70
 11952
 72
     1
 73
     0
 74
     0
  7

 75
     0
147
1.300787
 76
     0
 77
     2
 78
   300
148
-118.146709
149
-75.422029
100
AcDbLayout
  1
Model
 70
     1
 71
     0
 10
0.0
 20
0.0
 11
12.0
 21
9.0
 12
0.0
 22
0.0
 32
0.0
 14
0.0
 24
0.0
 34
0.0
 15
0.0
 25
0.0
 35
0.0
146
0.0
 13
0.0
 23
0.0
 33
0.0
 16
1.0
 26
0.0
 36
0.0
 17
0.0
 27
1.0
 37
0.0
 76
     0
330
70
1001
ACAD_PSEXT
1000
AutoCAD PDF (High Quality Print).pc3
1000
DWG To PDF
1000
File
1000

1070
     0
  0
LAYOUT
  5
6F
102
{ACAD_REACTORS
330
62
102
}
330
62
100
AcDbPlotSettings
  1

  2
None
  4

  6

 40
0.0
 41
0.0
 42
0.0
 43
0.0
 44
0.0
 45
0.0
 46
0.0
 47
0.0
 48
0.0
 49
0.0
140
0.0
141
0.0
142
1.0
143
1.0
 70
   688
 72
     0
 73
     0
 74
     5
  7

 75
    16
147
1.0
 76
     0
 77
     2
 78
   300
148
0.0
149
0.0
100
AcDbLayout
  1
Sheet1
 70
     1
 71
     1
 10
0.0
 20
0.0
 11
12.0
 21
9.0
 12
0.0
 22
0.0
 32
0.0
 14
0.0
 24
0.0
 34
0.0
 15
0.0
 25
0.0
 35
0.0
146
0.0
 13
0.0
 23
0.0
 33
0.0
 16
1.0
 26
0.0
 36
0.0
 17
0.0
 27
1.0
 37
0.0
 76
     0
330
6C
  0
LAYOUT
  5
77
102
{ACAD_REACTORS
330
62
102
}
330
62
100
AcDbPlotSettings
  1

  2
None
  4

  6

 40
0.0
 41
0.0
 42
0.0
 43
0.0
 44
0.0
 45
0.0
 46
0.0
 47
0.0
 48
0.0
 49
0.0
140
0.0
141
0.0
142
1.0
143
1.0
 70
   688
 72
     0
 73
     0
 74
     5
  7

 75
    16
147
1.0
 76
     0
 77
     2
 78
   300
148
0.0
149
0.0
100
AcDbLayout
  1
Sheet2
 70
     1
 71
     2
 10
0.0
 20
0.0
 11
12.0
 21
9.0
 12
0.0
 22
0.0
 32
0.0
 14
0.0
 24
0.0
 34
0.0
 15
0.0
 25
0.0
 35
0.0
146
0.0
 13
0.0
 23
0.0
 33
0.0
 16
1.0
 26
0.0
 36
0.0
 17
0.0
 27
1.0
 37
0.0
 76
     0
330
74
  0
MATERIAL
  5
19
102
{ACAD_XDICTIONARY
360
1A
102
}
102
{ACAD_REACTORS
330
10
102
}
330
10
100
AcDbMaterial
  1
ByBlock
 72
     0
 43
0.020833
 43
0.0
 43
0.0
 43
0.0
 43
0.0
 43
0.020833
 43
0.0
 43
0.0
 43
0.0
 43
0.0
 43
1.0
 43
0.0
 43
0.0
 43
0.0
 43
0.0
 43
1.0
 77
     0
 47
0.020833
 47
0.0
 47
0.0
 47
0.0
 47
0.0
 47
0.020833
 47
0.0
 47
0.0
 47
0.0
 47
0.0
 47
1.0
 47
0.0
 47
0.0
 47
0.0
 47
0.0
 47
1.0
171
     0
 49
0.020833
 49
0.0
 49
0.0
 49
0.0
 49
0.0
 49
0.020833
 49
0.0
 49
0.0
 49
0.0
 49
0.0
 49
1.0
 49
0.0
 49
0.0
 49
0.0
 49
0.0
 49
1.0
175
     0
142
0.020833
142
0.0
142
0.0
142
0.0
142
0.0
142
0.020833
142
0.0
142
0.0
142
0.0
142
0.0
142
1.0
142
0.0
142
0.0
142
0.0
142
0.0
142
1.0
179
     0
144
0.020833
144
0.0
144
0.0
144
0.0
144
0.0
144
0.020833
144
0.0
144
0.0
144
0.0
144
0.0
144
1.0
144
0.0
144
0.0
144
0.0
144
0.0
144
1.0
147
0.020833
147
0.0
147
0.0
147
0.0
147
0.0
147
0.020833
147
0.0
147
0.0
147
0.0
147
0.0
147
1.0
147
0.0
147
0.0
147
0.0
147
0.0
147
1.0
  0
MATERIAL
  5
11
102
{ACAD_XDICTIONARY
360
12
102
}
102
{ACAD_REACTORS
330
10
102
}
330
10
100
AcDbMaterial
  1
ByLayer
 72
     0
 43
0.020833
 43
0.0
 43
0.0
 43
0.0
 43
0.0
 43
0.020833
 43
0.0
 43
0.0
 43
0.0
 43
0.0
 43
1.0
 43
0.0
 43
0.0
 43
0.0
 43
0.0
 43
1.0
 77
     0
 47
0.020833
 47
0.0
 47
0.0
 47
0.0
 47
0.0
 47
0.020833
 47
0.0
 47
0.0
 47
0.0
 47
0.0
 47
1.0
 47
0.0
 47
0.0
 47
0.0
 47
0.0
 47
1.0
171
     0
 49
0.020833
 49
0.0
 49
0.0
 49
0.0
 49
0.0
 49
0.020833
 49
0.0
 49
0.0
 49
0.0
 49
0.0
 49
1.0
 49
0.0
 49
0.0
 49
0.0
 49
0.0
 49
1.0
175
     0
142
0.020833
142
0.0
142
0.0
142
0.0
142
0.0
142
0.020833
142
0.0
142
0.0
142
0.0
142
0.0
142
1.0
142
0.0
142
0.0
142
0.0
142
0.0
142
1.0
179
     0
144
0.020833
144
0.0
144
0.0
144
0.0
144
0.0
144
0.020833
144
0.0
144
0.0
144
0.0
144
0.0
144
1.0
144
0.0
144
0.0
144
0.0
144
0.0
144
1.0
147
0.020833
147
0.0
147
0.0
147
0.0
147
0.0
147
0.020833
147
0.0
147
0.0
147
0.0
147
0.0
147
1.0
147
0.0
147
0.0
147
0.0
147
0.0
147
1.0
  0
MATERIAL
  5
21
102
{ACAD_XDICTIONARY
360
22
102
}
102
{ACAD_REACTORS
330
10
102
}
330
10
100
AcDbMaterial
  1
Global
 72
     0
 43
0.020833
 43
0.0
 43
0.0
 43
0.0
 43
0.0
 43
0.020833
 43
0.0
 43
0.0
 43
0.0
 43
0.0
 43
1.0
 43
0.0
 43
0.0
 43
0.0
 43
0.0
 43
1.0
 77
     0
 47
0.020833
 47
0.0
 47
0.0
 47
0.0
 47
0.0
 47
0.020833
 47
0.0
 47
0.0
 47
0.0
 47
0.0
 47
1.0
 47
0.0
 47
0.0
 47
0.0
 47
0.0
 47
1.0
171
     0
 49
0.020833
 49
0.0
 49
0.0
 49
0.0
 49
0.0
 49
0.020833
 49
0.0
 49
0.0
 49
0.0
 49
0.0
 49
1.0
 49
0.0
 49
0.0
 49
0.0
 49
0.0
 49
1.0
175
     0
142
0.020833
142
0.0
142
0.0
142
0.0
142
0.0
142
0.020833
142
0.0
142
0.0
142
0.0
142
0.0
142
1.0
142
0.0
142
0.0
142
0.0
142
0.0
142
1.0
179
     0
144
0.020833
144
0.0
144
0.0
144
0.0
144
0.0
144
0.020833
144
0.0
144
0.0
144
0.0
144
0.0
144
1.0
144
0.0
144
0.0
144
0.0
144
0.0
144
1.0
147
0.020833
147
0.0
147
0.0
147
0.0
147
0.0
147
0.020833
147
0.0
147
0.0
147
0.0
147
0.0
147
1.0
147
0.0
147
0.0
147
0.0
147
0.0
147
1.0
  0
MLEADERSTYLE
  5
67
102
{ACAD_REACTORS
330
66
102
}
330
66
100
AcDbMLeaderStyle
179
     2
170
     2
171
     1
172
     0
 90
        2
 40
0.0
 41
0.0
173
     1
 91
-1056964608
340
5B
 92
       -2
290
     1
 42
0.09
291
     1
 43
0.36
  3
Standard
 44
0.18
300

342
55
174
     1
178
     6
175
     1
176
     0
 93
-1056964608
 45
0.18
292
     0
297
     0
 46
0.18
 94
-1056964608
 47
1.0
 49
1.0
140
1.0
293
     1
141
0.0
294
     1
177
     0
142
1.0
295
     0
296
     0
143
0.125
271
     0
272
     9
273
     9
298
     1
  0
MLINESTYLE
  5
60
102
{ACAD_REACTORS
330
5F
102
}
330
5F
100
AcDbMlineStyle
  2
STANDARD
 70
     0
  3

 62
   256
 51
90.0
 52
90.0
 71
     0
  0
ACDBPLACEHOLDER
  5
F
102
{ACAD_REACTORS
330
E
102
}
330
E
  0
SCALE
  5
43
102
{ACAD_REACTORS
330
42
102
}
330
42
100
AcDbScale
 70
     0
300
1:1
140
1.0
141
1.0
290
     1
  0
SCALE
  5
44
102
{ACAD_REACTORS
330
42
102
}
330
42
100
AcDbScale
 70
     0
300
1:2
140
1.0
141
2.0
290
     0
  0
SCALE
  5
45
102
{ACAD_REACTORS
330
42
102
}
330
42
100
AcDbScale
 70
     0
300
1:4
140
1.0
141
4.0
290
     0
  0
SCALE
  5
46
102
{ACAD_REACTORS
330
42
102
}
330
42
100
AcDbScale
 70
     0
300
1:5
140
1.0
141
5.0
290
     0
  0
SCALE
  5
47
102
{ACAD_REACTORS
330
42
102
}
330
42
100
AcDbScale
 70
     0
300
1:8
140
1.0
141
8.0
290
     0
  0
SCALE
  5
48
102
{ACAD_REACTORS
330
42
102
}
330
42
100
AcDbScale
 70
     0
300
1:10
140
1.0
141
10.0
290
     0
  0
SCALE
  5
49
102
{ACAD_REACTORS
330
42
102
}
330
42
100
AcDbScale
 70
     0
300
1:16
140
1.0
141
16.0
290
     0
  0
SCALE
  5
4A
102
{ACAD_REACTORS
330
42
102
}
330
42
100
AcDbScale
 70
     0
300
1:20
140
1.0
141
20.0
290
     0
  0
SCALE
  5
4B
102
{ACAD_REACTORS
330
42
102
}
330
42
100
AcDbScale
 70
     0
300
1:30
140
1.0
141
30.0
290
     0
  0
SCALE
  5
4C
102
{ACAD_REACTORS
330
42
102
}
330
42
100
AcDbScale
 70
     0
300
1:40
140
1.0
141
40.0
290
     0
  0
SCALE
  5
4D
102
{ACAD_REACTORS
330
42
102
}
330
42
100
AcDbScale
 70
     0
300
1:50
140
1.0
141
50.0
290
     0
  0
SCALE
  5
4E
102
{ACAD_REACTORS
330
42
102
}
330
42
100
AcDbScale
 70
     0
300
1:100
140
1.0
141
100.0
290
     0
  0
SCALE
  5
4F
102
{ACAD_REACTORS
330
42
102
}
330
42
100
AcDbScale
 70
     0
300
2:1
140
2.0
141
1.0
290
     0
  0
SCALE
  5
50
102
{ACAD_REACTORS
330
42
102
}
330
42
100
AcDbScale
 70
     0
300
4:1
140
4.0
141
1.0
290
     0
  0
SCALE
  5
51
102
{ACAD_REACTORS
330
42
102
}
330
42
100
AcDbScale
 70
     0
300
8:1
140
8.0
141
1.0
290
     0
  0
SCALE
  5
52
102
{ACAD_REACTORS
330
42
102
}
330
42
100
AcDbScale
 70
     0
300
10:1
140
10.0
141
1.0
290
     0
  0
SCALE
  5
53
102
{ACAD_REACTORS
330
42
102
}
330
42
100
AcDbScale
 70
     0
300
100:1
140
100.0
141
1.0
290
     0
  0
ACDBSECTIONVIEWSTYLE
  5
69
102
{ACAD_XDICTIONARY
360
42F
102
}
102
{ACAD_REACTORS
330
68
102
}
330
68
100
AcDbModelDocViewStyle
 70
     0
  3
Imperial24
290
     0
100
AcDbSectionViewStyle
 70
     0
 71
     0
 90
       78
 71
     1
340
55
 62
   256
 40
0.24
340
0
340
0
 62
   256
 40
0.24
300
I, O, Q, S, X, Z
 40
0.48
 90
        3
 40
0.18
 90
        1
 71
     2
340
5D
 90
       25
 62
   256
340
5D
 90
       50
 62
   256
 40
0.24
 40
0.0
 40
0.24
 71
     3
340
55
 62
   256
 40
0.24
 90
        1
 40
0.75
 90
        1
300
%<\AcVar ViewType \f "%tc1">% %<\AcVar ViewSectionStartId>%-%<\AcVar ViewSectionEndId>%\PSCALE %<\AcVar ViewScale \f "%sn">%
 71
     4
 62
   256
 62
   257
300
ANSI31
 40
1.0
 90
        0
290
     0
290
     0
 90
        6
 40
0.0
 40
1.570796
 40
0.261799
 40
1.308997
 40
-0.261799
 40
1.832596
  0
TABLESTYLE
  5
65
102
{ACAD_XDICTIONARY
360
42C
102
}
102
{ACAD_REACTORS
330
64
102
}
330
64
100
AcDbTableStyle
280
     0
  3
Standard
 70
     0
 71
     0
 40
1.5
 41
1.5
280
     0
281
     0
  7
Standard
140
0.18
170
     2
 62
     0
 63
     7
283
     0
 90
      512
 91
        0
  1

274
    -2
284
     1
 64
     0
275
    -2
285
     1
 65
     0
276
    -2
286
     1
 66
     0
277
    -2
287
     1
 67
     0
278
    -2
288
     1
 68
     0
279
    -2
289
     1
 69
     0
  7
Standard
140
0.25
170
     5
 62
     0
 63
     7
283
     0
 90
      512
 91
        0
  1

274
    -2
284
     1
 64
     0
275
    -2
285
     1
 65
     0
276
    -2
286
     1
 66
     0
277
    -2
287
     1
 67
     0
278
    -2
288
     1
 68
     0
279
    -2
289
     1
 69
     0
  7
Standard
140
0.18
170
     5
 62
     0
 63
     7
283
     0
 90
      512
 91
        0
  1

274
    -2
284
     1
 64
     0
275
    -2
285
     1
 65
     0
276
    -2
286
     1
 66
     0
277
    -2
287
     1
 67
     0
278
    -2
288
     1
 68
     0
279
    -2
289
     1
 69
     0
  0
VISUALSTYLE
  5
2F
102
{ACAD_REACTORS
330
29
102
}
330
29
100
AcDbVisualStyle
  2
2dWireframe
 70
     4
177
     3
291
     0
 70
    58
 90
        0
176
     1
 90
        2
176
     1
 90
        0
176
     1
 90
        0
176
     1
 40
0.6
176
     1
 40
30.0
176
     1
 62
     7
420
 16777215
176
     1
 90
        1
176
     1
 90
        4
176
     1
 62
     7
176
     1
 62
   257
176
     1
 90
        1
176
     1
 90
        1
176
     1
 40
1.0
176
     1
 90
        0
176
     1
 62
   257
176
     1
 40
1.0
176
     1
 90
        1
176
     1
 90
        6
176
     1
 90
        2
176
     1
 62
     7
176
     1
 90
        5
176
     1
 90
        0
176
     1
 90
        0
176
     1
290
     0
176
     1
 90
        1
176
     1
 40
0.0
176
     1
 90
        0
176
     1
290
     1
176
     1
290
     1
176
     1
290
     0
176
     1
290
     0
176
     1
290
     0
176
     1
290
     0
176
     1
290
     0
176
     1
290
     0
176
     1
290
     0
176
     1
 90
       50
176
     1
 40
0.0
176
     1
 40
1.0
176
     1
 90
        0
176
     1
 62
    18
420
        0
176
     1
 90
       50
176
     1
 90
        3
176
     1
 62
     5
420
      255
176
     1
290
     0
176
     1
 90
       50
176
     1
 90
       50
176
     1
 90
       50
176
     1
290
     0
176
     1
 90
       50
176
     1
 62
   256
176
     0
 40
1.0
176
     0
 90
        2
176
     1
  1
strokes_ogs.tif
176
     1
290
     0
176
     1
 40
1.0
176
     1
 40
1.0
176
     1
1001
ACAD
1000
AcDbSavedByObjectVersion
1070
     0
  0
VISUALSTYLE
  5
2E
102
{ACAD_REACTORS
330
29
102
}
330
29
100
AcDbVisualStyle
  2
Basic
 70
     7
177
     3
291
     1
 70
    58
 90
        1
176
     1
 90
        0
176
     1
 90
        1
176
     1
 90
        0
176
     1
 40
0.6
176
     1
 40
30.0
176
     1
 62
     7
420
 16777215
176
     1
 90
        0
176
     1
 90
        4
176
     1
 62
     7
176
     1
 62
   257
176
     1
 90
        1
176
     1
 90
        1
176
     1
 40
1.0
176
     1
 90
        8
176
     1
 62
     7
176
     1
 40
1.0
176
     1
 90
        1
176
     1
 90
        6
176
     1
 90
        2
176
     1
 62
     7
176
     1
 90
        5
176
     1
 90
        0
176
     1
 90
        0
176
     1
290
     0
176
     1
 90
        1
176
     1
 40
0.0
176
     1
 90
        0
176
     1
290
     0
176
     1
290
     1
176
     1
290
     1
176
     1
290
     0
176
     1
290
     0
176
     1
290
     0
176
     1
290
     0
176
     1
290
     0
176
     1
290
     0
176
     1
 90
       50
176
     1
 40
0.0
176
     1
 40
1.0
176
     1
 90
        0
176
     1
 62
    18
420
        0
176
     1
 90
       50
176
     1
 90
        3
176
     1
 62
     5
420
      255
176
     1
290
     0
176
     1
 90
       50
176
     1
 90
       50
176
     1
 90
       50
176
     1
290
     0
176
     1
 90
       50
176
     1
 62
   256
176
     0
 40
1.0
176
     0
 90
        2
176
     1
  1
strokes_ogs.tif
176
     1
290
     0
176
     1
 40
1.0
176
     1
 40
1.0
176
     1
1001
ACAD
1000
AcDbSavedByObjectVersion
1070
     0
  0
VISUALSTYLE
  5
35
102
{ACAD_REACTORS
330
29
102
}
330
29
100
AcDbVisualStyle
  2
Brighten
 70
    12
177
     3
291
     1
 70
    58
 90
        2
176
     1
 90
        2
176
     1
 90
        0
176
     1
 90
        0
176
     1
 40
0.6
176
     1
 40
30.0
176
     1
 62
     7
420
 16777215
176
     1
 90
        1
176
     1
 90
        4
176
     1
 62
     7
176
     1
 62
   257
176
     1
 90
        1
176
     1
 90
        1
176
     1
 40
1.0
176
     1
 90
        8
176
     1
 62
     7
176
     1
 40
1.0
176
     1
 90
        1
176
     1
 90
        6
176
     1
 90
        2
176
     1
 62
     7
176
     1
 90
        5
176
     1
 90
        0
176
     1
 90
        0
176
     1
290
     0
176
     1
 90
        1
176
     1
 40
50.0
176
     1
 90
        0
176
     1
290
     0
176
     1
290
     1
176
     1
290
     1
176
     1
290
     0
176
     1
290
     0
176
     1
290
     0
176
     1
290
     0
176
     1
290
     0
176
     1
290
     0
176
     1
 90
       50
176
     1
 40
0.0
176
     1
 40
1.0
176
     1
 90
        0
176
     1
 62
    18
420
        0
176
     1
 90
       50
176
     1
 90
        3
176
     1
 62
     5
420
      255
176
     1
290
     0
176
     1
 90
       50
176
     1
 90
       50
176
     1
 90
       50
176
     1
290
     0
176
     1
 90
       50
176
     1
 62
   256
176
     0
 40
1.0
176
     0
 90
        2
176
     1
  1
strokes_ogs.tif
176
     1
290
     0
176
     1
 40
1.0
176
     1
 40
1.0
176
     1
1001
ACAD
1000
AcDbSavedByObjectVersion
1070
     0
  0
VISUALSTYLE
  5
39
102
{ACAD_REACTORS
330
29
102
}
330
29
100
AcDbVisualStyle
  2
ColorChange
 70
    16
177
     3
291
     1
 70
    58
 90
        2
176
     1
 90
        2
176
     1
 90
        3
176
     1
 90
        0
176
     1
 40
0.6
176
     1
 40
30.0
176
     1
 62
     8
420
  8421504
176
     1
 90
        1
176
     1
 90
        4
176
     1
 62
     7
176
     1
 62
   257
176
     1
 90
        1
176
     1
 90
        1
176
     1
 40
1.0
176
     1
 90
        8
176
     1
 62
     8
420
  8421504
176
     1
 40
1.0
176
     1
 90
        1
176
     1
 90
        6
176
     1
 90
        2
176
     1
 62
     7
176
     1
 90
        5
176
     1
 90
        0
176
     1
 90
        0
176
     1
290
     0
176
     1
 90
        1
176
     1
 40
0.0
176
     1
 90
        0
176
     1
290
     0
176
     1
290
     1
176
     1
290
     1
176
     1
290
     0
176
     1
290
     0
176
     1
290
     0
176
     1
290
     0
176
     1
290
     0
176
     1
290
     0
176
     1
 90
       50
176
     1
 40
0.0
176
     1
 40
1.0
176
     1
 90
        0
176
     1
 62
    18
420
        0
176
     1
 90
       50
176
     1
 90
        3
176
     1
 62
     5
420
      255
176
     1
290
     0
176
     1
 90
       50
176
     1
 90
       50
176
     1
 90
       50
176
     1
290
     0
176
     1
 90
       50
176
     1
 62
   256
176
     0
 40
1.0
176
     0
 90
        2
176
     1
  1
strokes_ogs.tif
176
     1
290
     0
176
     1
 40
1.0
176
     1
 40
1.0
176
     1
1001
ACAD
1000
AcDbSavedByObjectVersion
1070
     0
  0
VISUALSTYLE
  5
32
102
{ACAD_REACTORS
330
29
102
}
330
29
100
AcDbVisualStyle
  2
Conceptual
 70
     9
177
     3
291
     0
 70
    58
 90
        3
176
     1
 90
        2
176
     1
 90
        0
176
     1
 90
        0
176
     1
 40
0.6
176
     1
 40
30.0
176
     1
 62
     7
420
 16777215
176
     1
 90
        2
176
     1
 90
        2
176
     1
 62
     7
176
     1
 62
   257
176
     1
 90
        1
176
     1
 90
        1
176
     1
 40
179.0
176
     1
 90
        8
176
     1
 62
     7
176
     1
 40
1.0
176
     1
 90
        1
176
     1
 90
        6
176
     1
 90
        2
176
     1
 62
     7
176
     1
 90
        3
176
     1
 90
        0
176
     1
 90
        0
176
     1
290
     0
176
     1
 90
        1
176
     1
 40
0.0
176
     1
 90
        0
176
     1
290
     0
176
     1
290
     1
176
     1
290
     1
176
     1
290
     0
176
     1
290
     0
176
     1
290
     0
176
     1
290
     0
176
     1
290
     0
176
     1
290
     0
176
     1
 90
       50
176
     1
 40
0.0
176
     1
 40
1.0
176
     1
 90
        0
176
     1
 62
    18
420
        0
176
     1
 90
       50
176
     1
 90
        3
176
     1
 62
     5
420
      255
176
     1
290
     0
176
     1
 90
       50
176
     1
 90
       50
176
     1
 90
       50
176
     1
290
     0
176
     1
 90
       50
176
     1
 62
   256
176
     0
 40
1.0
176
     0
 90
        2
176
     1
  1
strokes_ogs.tif
176
     1
290
     0
176
     1
 40
1.0
176
     1
 40
1.0
176
     1
1001
ACAD
1000
AcDbSavedByObjectVersion
1070
     0
  0
VISUALSTYLE
  5
34
102
{ACAD_REACTORS
330
29
102
}
330
29
100
AcDbVisualStyle
  2
Dim
 70
    11
177
     3
291
     1
 70
    58
 90
        2
176
     1
 90
        2
176
     1
 90
        0
176
     1
 90
        0
176
     1
 40
0.6
176
     1
 40
30.0
176
     1
 62
     7
420
 16777215
176
     1
 90
        1
176
     1
 90
        4
176
     1
 62
     7
176
     1
 62
   257
176
     1
 90
        1
176
     1
 90
        1
176
     1
 40
1.0
176
     1
 90
        8
176
     1
 62
     7
176
     1
 40
1.0
176
     1
 90
        1
176
     1
 90
        6
176
     1
 90
        2
176
     1
 62
     7
176
     1
 90
        5
176
     1
 90
        0
176
     1
 90
        0
176
     1
290
     0
176
     1
 90
        1
176
     1
 40
-50.0
176
     1
 90
        0
176
     1
290
     0
176
     1
290
     1
176
     1
290
     1
176
     1
290
     0
176
     1
290
     0
176
     1
290
     0
176
     1
290
     0
176
     1
290
     0
176
     1
290
     0
176
     1
 90
       50
176
     1
 40
0.0
176
     1
 40
1.0
176
     1
 90
        0
176
     1
 62
    18
420
        0
176
     1
 90
       50
176
     1
 90
        3
176
     1
 62
     5
420
      255
176
     1
290
     0
176
     1
 90
       50
176
     1
 90
       50
176
     1
 90
       50
176
     1
290
     0
176
     1
 90
       50
176
     1
 62
   256
176
     0
 40
1.0
176
     0
 90
        2
176
     1
  1
strokes_ogs.tif
176
     1
290
     0
176
     1
 40
1.0
176
     1
 40
1.0
176
     1
1001
ACAD
1000
AcDbSavedByObjectVersion
1070
     0
  0
VISUALSTYLE
  5
41
102
{ACAD_REACTORS
330
29
102
}
330
29
100
AcDbVisualStyle
  2
EdgeColorOff
 70
    22
177
     3
291
     1
 70
    58
 90
        2
176
     0
 90
        2
176
     0
 90
        0
176
     0
 90
        0
176
     0
 40
0.6
176
     0
 40
30.0
176
     0
 62
     7
420
 16777215
176
     0
 90
        1
176
     0
 90
        4
176
     0
 62
     7
176
     0
 62
   257
176
     0
 90
        1
176
     0
 90
        1
176
     0
 40
1.0
176
     0
 90
        8
176
     2
 62
     7
176
     0
 40
1.0
176
     0
 90
        1
176
     0
 90
        6
176
     0
 90
        2
176
     0
 62
     7
176
     0
 90
        5
176
     0
 90
        0
176
     0
 90
        0
176
     0
290
     0
176
     0
 90
        1
176
     0
 40
0.0
176
     0
 90
        0
176
     0
290
     0
176
     0
290
     1
176
     0
290
     1
176
     0
290
     0
176
     0
290
     0
176
     0
290
     0
176
     0
290
     0
176
     0
290
     0
176
     0
290
     0
176
     0
 90
       50
176
     0
 40
0.0
176
     0
 40
1.0
176
     0
 90
        0
176
     0
 62
    18
420
        0
176
     0
 90
       50
176
     0
 90
        3
176
     0
 62
     5
420
      255
176
     0
290
     0
176
     0
 90
       50
176
     0
 90
       50
176
     0
 90
       50
176
     0
290
     0
176
     0
 90
       50
176
     0
 62
   256
176
     0
 40
1.0
176
     0
 90
        2
176
     0
  1
strokes_ogs.tif
176
     0
290
     0
176
     0
 40
1.0
176
     0
 40
1.0
176
     0
1001
ACAD
1000
AcDbSavedByObjectVersion
1070
     0
  0
VISUALSTYLE
  5
38
102
{ACAD_REACTORS
330
29
102
}
330
29
100
AcDbVisualStyle
  2
Facepattern
 70
    15
177
     3
291
     1
 70
    58
 90
        2
176
     1
 90
        2
176
     1
 90
        0
176
     1
 90
        0
176
     1
 40
0.6
176
     1
 40
30.0
176
     1
 62
     7
420
 16777215
176
     1
 90
        1
176
     1
 90
        4
176
     1
 62
     7
176
     1
 62
   257
176
     1
 90
        1
176
     1
 90
        1
176
     1
 40
1.0
176
     1
 90
        8
176
     1
 62
     7
176
     1
 40
1.0
176
     1
 90
        1
176
     1
 90
        6
176
     1
 90
        2
176
     1
 62
     7
176
     1
 90
        5
176
     1
 90
        0
176
     1
 90
        0
176
     1
290
     0
176
     1
 90
        1
176
     1
 40
0.0
176
     1
 90
        0
176
     1
290
     0
176
     1
290
     1
176
     1
290
     1
176
     1
290
     0
176
     1
290
     0
176
     1
290
     0
176
     1
290
     0
176
     1
290
     0
176
     1
290
     0
176
     1
 90
       50
176
     1
 40
0.0
176
     1
 40
1.0
176
     1
 90
        0
176
     1
 62
    18
420
        0
176
     1
 90
       50
176
     1
 90
        3
176
     1
 62
     5
420
      255
176
     1
290
     0
176
     1
 90
       50
176
     1
 90
       50
176
     1
 90
       50
176
     1
290
     0
176
     1
 90
       50
176
     1
 62
   256
176
     0
 40
1.0
176
     0
 90
        2
176
     1
  1
strokes_ogs.tif
176
     1
290
     0
176
     1
 40
1.0
176
     1
 40
1.0
176
     1
1001
ACAD
1000
AcDbSavedByObjectVersion
1070
     0
  0
VISUALSTYLE
  5
2A
102
{ACAD_REACTORS
330
29
102
}
330
29
100
AcDbVisualStyle
  2
Flat
 70
     0
177
     3
291
     1
 70
    58
 90
        2
176
     1
 90
        1
176
     1
 90
        1
176
     1
 90
        2
176
     1
 40
0.6
176
     1
 40
30.0
176
     1
 62
     7
420
 16777215
176
     1
 90
        0
176
     1
 90
        0
176
     1
 62
     7
176
     1
 62
   257
176
     1
 90
        1
176
     1
 90
        1
176
     1
 40
1.0
176
     1
 90
        8
176
     1
 62
     7
176
     1
 40
1.0
176
     1
 90
        1
176
     1
 90
        6
176
     1
 90
        2
176
     1
 62
     7
176
     1
 90
        5
176
     1
 90
        0
176
     1
 90
        0
176
     1
290
     0
176
     1
 90
       13
176
     1
 40
0.0
176
     1
 90
        0
176
     1
290
     0
176
     1
290
     1
176
     1
290
     1
176
     1
290
     0
176
     1
290
     0
176
     1
290
     0
176
     1
290
     0
176
     1
290
     0
176
     1
290
     0
176
     1
 90
       50
176
     1
 40
0.0
176
     1
 40
1.0
176
     1
 90
        0
176
     1
 62
    18
420
        0
176
     1
 90
       50
176
     1
 90
        3
176
     1
 62
     5
420
      255
176
     1
290
     0
176
     1
 90
       50
176
     1
 90
       50
176
     1
 90
       50
176
     1
290
     0
176
     1
 90
       50
176
     1
 62
   256
176
     0
 40
1.0
176
     0
 90
        2
176
     1
  1
strokes_ogs.tif
176
     1
290
     0
176
     1
 40
1.0
176
     1
 40
1.0
176
     1
1001
ACAD
1000
AcDbSavedByObjectVersion
1070
     0
  0
VISUALSTYLE
  5
2B
102
{ACAD_REACTORS
330
29
102
}
330
29
100
AcDbVisualStyle
  2
FlatWithEdges
 70
     1
177
     3
291
     1
 70
    58
 90
        2
176
     1
 90
        1
176
     1
 90
        1
176
     1
 90
        2
176
     1
 40
0.6
176
     1
 40
30.0
176
     1
 62
     7
420
 16777215
176
     1
 90
        1
176
     1
 90
        0
176
     1
 62
     7
176
     1
 62
   257
176
     1
 90
        1
176
     1
 90
        1
176
     1
 40
1.0
176
     1
 90
        0
176
     1
 62
   257
176
     1
 40
1.0
176
     1
 90
        1
176
     1
 90
        6
176
     1
 90
        2
176
     1
 62
     7
176
     1
 90
        5
176
     1
 90
        0
176
     1
 90
        0
176
     1
290
     0
176
     1
 90
       13
176
     1
 40
0.0
176
     1
 90
        0
176
     1
290
     0
176
     1
290
     1
176
     1
290
     1
176
     1
290
     0
176
     1
290
     0
176
     1
290
     0
176
     1
290
     0
176
     1
290
     0
176
     1
290
     0
176
     1
 90
       50
176
     1
 40
0.0
176
     1
 40
1.0
176
     1
 90
        0
176
     1
 62
    18
420
        0
176
     1
 90
       50
176
     1
 90
        3
176
     1
 62
     5
420
      255
176
     1
290
     0
176
     1
 90
       50
176
     1
 90
       50
176
     1
 90
       50
176
     1
290
     0
176
     1
 90
       50
176
     1
 62
   256
176
     0
 40
1.0
176
     0
 90
        2
176
     1
  1
strokes_ogs.tif
176
     1
290
     0
176
     1
 40
1.0
176
     1
 40
1.0
176
     1
1001
ACAD
1000
AcDbSavedByObjectVersion
1070
     0
  0
VISUALSTYLE
  5
2C
102
{ACAD_REACTORS
330
29
102
}
330
29
100
AcDbVisualStyle
  2
Gouraud
 70
     2
177
     3
291
     1
 70
    58
 90
        2
176
     1
 90
        2
176
     1
 90
        1
176
     1
 90
        2
176
     1
 40
0.6
176
     1
 40
30.0
176
     1
 62
     7
420
 16777215
176
     1
 90
        0
176
     1
 90
        0
176
     1
 62
     7
176
     1
 62
   257
176
     1
 90
        1
176
     1
 90
        1
176
     1
 40
1.0
176
     1
 90
        0
176
     1
 62
     7
176
     1
 40
1.0
176
     1
 90
        1
176
     1
 90
        6
176
     1
 90
        2
176
     1
 62
     7
176
     1
 90
        5
176
     1
 90
        0
176
     1
 90
        0
176
     1
290
     0
176
     1
 90
       13
176
     1
 40
0.0
176
     1
 90
        0
176
     1
290
     0
176
     1
290
     1
176
     1
290
     1
176
     1
290
     0
176
     1
290
     0
176
     1
290
     0
176
     1
290
     0
176
     1
290
     0
176
     1
290
     0
176
     1
 90
       50
176
     1
 40
0.0
176
     1
 40
1.0
176
     1
 90
        0
176
     1
 62
    18
420
        0
176
     1
 90
       50
176
     1
 90
        3
176
     1
 62
     5
420
      255
176
     1
290
     0
176
     1
 90
       50
176
     1
 90
       50
176
     1
 90
       50
176
     1
290
     0
176
     1
 90
       50
176
     1
 62
   256
176
     0
 40
1.0
176
     0
 90
        2
176
     1
  1
strokes_ogs.tif
176
     1
290
     0
176
     1
 40
1.0
176
     1
 40
1.0
176
     1
1001
ACAD
1000
AcDbSavedByObjectVersion
1070
     0
  0
VISUALSTYLE
  5
2D
102
{ACAD_REACTORS
330
29
102
}
330
29
100
AcDbVisualStyle
  2
GouraudWithEdges
 70
     3
177
     3
291
     1
 70
    58
 90
        2
176
     1
 90
        2
176
     1
 90
        1
176
     1
 90
        2
176
     1
 40
0.6
176
     1
 40
30.0
176
     1
 62
     7
420
 16777215
176
     1
 90
        1
176
     1
 90
        0
176
     1
 62
     7
176
     1
 62
   257
176
     1
 90
        1
176
     1
 90
        1
176
     1
 40
1.0
176
     1
 90
        0
176
     1
 62
   257
176
     1
 40
1.0
176
     1
 90
        1
176
     1
 90
        6
176
     1
 90
        2
176
     1
 62
     7
176
     1
 90
        5
176
     1
 90
        0
176
     1
 90
        0
176
     1
290
     0
176
     1
 90
       13
176
     1
 40
0.0
176
     1
 90
        0
176
     1
290
     0
176
     1
290
     1
176
     1
290
     1
176
     1
290
     0
176
     1
290
     0
176
     1
290
     0
176
     1
290
     0
176
     1
290
     0
176
     1
290
     0
176
     1
 90
       50
176
     1
 40
0.0
176
     1
 40
1.0
176
     1
 90
        0
176
     1
 62
    18
420
        0
176
     1
 90
       50
176
     1
 90
        3
176
     1
 62
     5
420
      255
176
     1
290
     0
176
     1
 90
       50
176
     1
 90
       50
176
     1
 90
       50
176
     1
290
     0
176
     1
 90
       50
176
     1
 62
   256
176
     0
 40
1.0
176
     0
 90
        2
176
     1
  1
strokes_ogs.tif
176
     1
290
     0
176
     1
 40
1.0
176
     1
 40
1.0
176
     1
1001
ACAD
1000
AcDbSavedByObjectVersion
1070
     0
  0
VISUALSTYLE
  5
31
102
{ACAD_REACTORS
330
29
102
}
330
29
100
AcDbVisualStyle
  2
Hidden
 70
     6
177
     3
291
     0
 70
    58
 90
        1
176
     1
 90
        2
176
     1
 90
        2
176
     1
 90
        0
176
     1
 40
0.6
176
     1
 40
30.0
176
     1
 62
     7
420
 16777215
176
     1
 90
        2
176
     1
 90
        2
176
     1
 62
     7
176
     1
 62
   257
176
     1
 90
        2
176
     1
 90
        1
176
     1
 40
40.0
176
     1
 90
        0
176
     1
 62
   257
176
     1
 40
1.0
176
     1
 90
        1
176
     1
 90
        6
176
     1
 90
        2
176
     1
 62
     7
176
     1
 90
        3
176
     1
 90
        0
176
     1
 90
        0
176
     1
290
     0
176
     1
 90
        1
176
     1
 40
0.0
176
     1
 90
        0
176
     1
290
     0
176
     1
290
     1
176
     1
290
     1
176
     1
290
     0
176
     1
290
     0
176
     1
290
     0
176
     1
290
     0
176
     1
290
     0
176
     1
290
     0
176
     1
 90
       50
176
     1
 40
0.0
176
     1
 40
1.0
176
     1
 90
        0
176
     1
 62
    18
420
        0
176
     1
 90
       50
176
     1
 90
        3
176
     1
 62
     5
420
      255
176
     1
290
     0
176
     1
 90
       50
176
     1
 90
       50
176
     1
 90
       50
176
     1
290
     0
176
     1
 90
       50
176
     1
 62
   256
176
     0
 40
1.0
176
     0
 90
        2
176
     1
  1
strokes_ogs.tif
176
     1
290
     0
176
     1
 40
1.0
176
     1
 40
1.0
176
     1
1001
ACAD
1000
AcDbSavedByObjectVersion
1070
     0
  0
VISUALSTYLE
  5
3F
102
{ACAD_REACTORS
330
29
102
}
330
29
100
AcDbVisualStyle
  2
JitterOff
 70
    20
177
     3
291
     1
 70
    58
 90
        2
176
     0
 90
        2
176
     0
 90
        0
176
     0
 90
        0
176
     0
 40
0.6
176
     0
 40
30.0
176
     0
 62
     7
420
 16777215
176
     0
 90
        1
176
     0
 90
        4
176
     0
 62
     7
176
     0
 62
   257
176
     0
 90
        1
176
     0
 90
        1
176
     0
 40
1.0
176
     0
 90
       10
176
     2
 62
     7
176
     0
 40
1.0
176
     0
 90
        1
176
     0
 90
        6
176
     0
 90
        2
176
     0
 62
     7
176
     0
 90
        5
176
     0
 90
        0
176
     0
 90
        0
176
     0
290
     0
176
     0
 90
        1
176
     0
 40
0.0
176
     0
 90
        0
176
     0
290
     0
176
     0
290
     1
176
     0
290
     1
176
     0
290
     0
176
     0
290
     0
176
     0
290
     0
176
     0
290
     0
176
     0
290
     0
176
     0
290
     0
176
     0
 90
       50
176
     0
 40
0.0
176
     0
 40
1.0
176
     0
 90
        0
176
     0
 62
    18
420
        0
176
     0
 90
       50
176
     0
 90
        3
176
     0
 62
     5
420
      255
176
     0
290
     0
176
     0
 90
       50
176
     0
 90
       50
176
     0
 90
       50
176
     0
290
     0
176
     0
 90
       50
176
     0
 62
   256
176
     0
 40
1.0
176
     0
 90
        2
176
     0
  1
strokes_ogs.tif
176
     0
290
     0
176
     0
 40
1.0
176
     0
 40
1.0
176
     0
1001
ACAD
1000
AcDbSavedByObjectVersion
1070
     0
  0
VISUALSTYLE
  5
37
102
{ACAD_REACTORS
330
29
102
}
330
29
100
AcDbVisualStyle
  2
Linepattern
 70
    14
177
     3
291
     1
 70
    58
 90
        2
176
     1
 90
        2
176
     1
 90
        0
176
     1
 90
        0
176
     1
 40
0.6
176
     1
 40
30.0
176
     1
 62
     7
420
 16777215
176
     1
 90
        1
176
     1
 90
        4
176
     1
 62
     7
176
     1
 62
   257
176
     1
 90
        7
176
     1
 90
        7
176
     1
 40
1.0
176
     1
 90
        8
176
     1
 62
     7
176
     1
 40
1.0
176
     1
 90
        1
176
     1
 90
        6
176
     1
 90
        2
176
     1
 62
     7
176
     1
 90
        5
176
     1
 90
        0
176
     1
 90
        0
176
     1
290
     0
176
     1
 90
        1
176
     1
 40
0.0
176
     1
 90
        0
176
     1
290
     0
176
     1
290
     1
176
     1
290
     1
176
     1
290
     0
176
     1
290
     0
176
     1
290
     0
176
     1
290
     0
176
     1
290
     0
176
     1
290
     0
176
     1
 90
       50
176
     1
 40
0.0
176
     1
 40
1.0
176
     1
 90
        0
176
     1
 62
    18
420
        0
176
     1
 90
       50
176
     1
 90
        3
176
     1
 62
     5
420
      255
176
     1
290
     0
176
     1
 90
       50
176
     1
 90
       50
176
     1
 90
       50
176
     1
290
     0
176
     1
 90
       50
176
     1
 62
   256
176
     0
 40
1.0
176
     0
 90
        2
176
     1
  1
strokes_ogs.tif
176
     1
290
     0
176
     1
 40
1.0
176
     1
 40
1.0
176
     1
1001
ACAD
1000
AcDbSavedByObjectVersion
1070
     0
  0
VISUALSTYLE
  5
40
102
{ACAD_REACTORS
330
29
102
}
330
29
100
AcDbVisualStyle
  2
OverhangOff
 70
    21
177
     3
291
     1
 70
    58
 90
        2
176
     0
 90
        2
176
     0
 90
        0
176
     0
 90
        0
176
     0
 40
0.6
176
     0
 40
30.0
176
     0
 62
     7
420
 16777215
176
     0
 90
        1
176
     0
 90
        4
176
     0
 62
     7
176
     0
 62
   257
176
     0
 90
        1
176
     0
 90
        1
176
     0
 40
1.0
176
     0
 90
        9
176
     2
 62
     7
176
     0
 40
1.0
176
     0
 90
        1
176
     0
 90
        6
176
     0
 90
        2
176
     0
 62
     7
176
     0
 90
        5
176
     0
 90
        0
176
     0
 90
        0
176
     0
290
     0
176
     0
 90
        1
176
     0
 40
0.0
176
     0
 90
        0
176
     0
290
     0
176
     0
290
     1
176
     0
290
     1
176
     0
290
     0
176
     0
290
     0
176
     0
290
     0
176
     0
290
     0
176
     0
290
     0
176
     0
290
     0
176
     0
 90
       50
176
     0
 40
0.0
176
     0
 40
1.0
176
     0
 90
        0
176
     0
 62
    18
420
        0
176
     0
 90
       50
176
     0
 90
        3
176
     0
 62
     5
420
      255
176
     0
290
     0
176
     0
 90
       50
176
     0
 90
       50
176
     0
 90
       50
176
     0
290
     0
176
     0
 90
       50
176
     0
 62
   256
176
     0
 40
1.0
176
     0
 90
        2
176
     0
  1
strokes_ogs.tif
176
     0
290
     0
176
     0
 40
1.0
176
     0
 40
1.0
176
     0
1001
ACAD
1000
AcDbSavedByObjectVersion
1070
     0
  0
VISUALSTYLE
  5
33
102
{ACAD_REACTORS
330
29
102
}
330
29
100
AcDbVisualStyle
  2
Realistic
 70
     8
177
     3
291
     0
 70
    58
 90
        2
176
     1
 90
        3
176
     1
 90
        0
176
     1
 90
        2
176
     1
 40
0.6
176
     1
 40
30.0
176
     1
 62
     7
420
 16777215
176
     1
 90
        0
176
     1
 90
        0
176
     1
 62
     7
176
     1
 62
   257
176
     1
 90
        1
176
     1
 90
        1
176
     1
 40
1.0
176
     1
 90
        8
176
     1
 62
   257
176
     1
 40
1.0
176
     1
 90
        1
176
     1
 90
        6
176
     1
 90
        2
176
     1
 62
     7
176
     1
 90
        3
176
     1
 90
        0
176
     1
 90
        0
176
     1
290
     0
176
     1
 90
       13
176
     1
 40
0.0
176
     1
 90
        0
176
     1
290
     0
176
     1
290
     1
176
     1
290
     1
176
     1
290
     0
176
     1
290
     0
176
     1
290
     0
176
     1
290
     0
176
     1
290
     0
176
     1
290
     0
176
     1
 90
       50
176
     1
 40
0.0
176
     1
 40
1.0
176
     1
 90
        0
176
     1
 62
    18
420
        0
176
     1
 90
       50
176
     1
 90
        3
176
     1
 62
     5
420
      255
176
     1
290
     0
176
     1
 90
       50
176
     1
 90
       50
176
     1
 90
       50
176
     1
290
     0
176
     1
 90
       50
176
     1
 62
   256
176
     0
 40
1.0
176
     0
 90
        2
176
     1
  1
strokes_ogs.tif
176
     1
290
     0
176
     1
 40
1.0
176
     1
 40
1.0
176
     1
1001
ACAD
1000
AcDbSavedByObjectVersion
1070
     0
  0
VISUALSTYLE
  5
3E
102
{ACAD_REACTORS
330
29
102
}
330
29
100
AcDbVisualStyle
  2
Shaded
 70
    27
177
     3
291
     0
 70
    58
 90
        2
176
     1
 90
        2
176
     1
 90
        1
176
     1
 90
        2
176
     1
 40
0.6
176
     1
 40
30.0
176
     1
 62
     7
420
 16777215
176
     1
 90
        0
176
     1
 90
        4
176
     1
 62
     7
176
     1
 62
   257
176
     1
 90
        1
176
     1
 90
        1
176
     1
 40
1.0
176
     1
 90
        8
176
     1
 62
   257
176
     1
 40
1.0
176
     1
 90
        1
176
     1
 90
        6
176
     1
 90
        2
176
     1
 62
     8
420
  7895160
176
     1
 90
        3
176
     1
 90
        0
176
     1
 90
        0
176
     1
290
     0
176
     1
 90
        5
176
     1
 40
0.0
176
     1
 90
        0
176
     1
290
     0
176
     1
290
     1
176
     1
290
     1
176
     1
290
     0
176
     1
290
     0
176
     1
290
     0
176
     1
290
     0
176
     1
290
     0
176
     1
290
     0
176
     1
 90
       50
176
     1
 40
0.0
176
     1
 40
1.0
176
     1
 90
        0
176
     1
 62
    18
420
        0
176
     1
 90
       50
176
     1
 90
        3
176
     1
 62
     5
420
      255
176
     1
290
     0
176
     1
 90
       50
176
     1
 90
       50
176
     1
 90
       50
176
     1
290
     0
176
     1
 90
       50
176
     1
 62
   256
176
     0
 40
1.0
176
     0
 90
        2
176
     1
  1
strokes_ogs.tif
176
     1
290
     0
176
     1
 40
1.0
176
     1
 40
1.0
176
     1
1001
ACAD
1000
AcDbSavedByObjectVersion
1070
     0
  0
VISUALSTYLE
  5
3D
102
{ACAD_REACTORS
330
29
102
}
330
29
100
AcDbVisualStyle
  2
Shaded with edges
 70
    26
177
     3
291
     0
 70
    58
 90
        2
176
     1
 90
        2
176
     1
 90
        1
176
     1
 90
        2
176
     1
 40
0.6
176
     1
 40
30.0
176
     1
 62
     7
420
 16777215
176
     1
 90
        1
176
     1
 90
        2
176
     1
 62
     7
176
     1
 62
   257
176
     1
 90
        2
176
     1
 90
        1
176
     1
 40
1.0
176
     1
 90
        8
176
     1
 62
   257
176
     1
 40
1.0
176
     1
 90
        1
176
     1
 90
        6
176
     1
 90
        2
176
     1
 62
     7
176
     1
 90
        3
176
     1
 90
        0
176
     1
 90
        0
176
     1
290
     0
176
     1
 90
        5
176
     1
 40
0.0
176
     1
 90
        0
176
     1
290
     0
176
     1
290
     1
176
     1
290
     1
176
     1
290
     0
176
     1
290
     0
176
     1
290
     0
176
     1
290
     0
176
     1
290
     0
176
     1
290
     0
176
     1
 90
       50
176
     1
 40
0.0
176
     1
 40
1.0
176
     1
 90
        0
176
     1
 62
    18
420
        0
176
     1
 90
       50
176
     1
 90
        3
176
     1
 62
     5
420
      255
176
     1
290
     0
176
     1
 90
       50
176
     1
 90
       50
176
     1
 90
       50
176
     1
290
     0
176
     1
 90
       50
176
     1
 62
   256
176
     0
 40
1.0
176
     0
 90
        2
176
     1
  1
strokes_ogs.tif
176
     1
290
     0
176
     1
 40
1.0
176
     1
 40
1.0
176
     1
1001
ACAD
1000
AcDbSavedByObjectVersion
1070
     0
  0
VISUALSTYLE
  5
3A
102
{ACAD_REACTORS
330
29
102
}
330
29
100
AcDbVisualStyle
  2
Shades of Gray
 70
    23
177
     3
291
     0
 70
    58
 90
        2
176
     1
 90
        2
176
     1
 90
        3
176
     1
 90
        0
176
     1
 40
0.6
176
     1
 40
30.0
176
     1
 62
     7
420
 16777215
176
     1
 90
        2
176
     1
 90
        2
176
     1
 62
     7
176
     1
 62
     7
176
     1
 90
        1
176
     1
 90
        1
176
     1
 40
40.0
176
     1
 90
        8
176
     1
 62
     7
176
     1
 40
1.0
176
     1
 90
        1
176
     1
 90
        6
176
     1
 90
        2
176
     1
 62
     7
176
     1
 90
        3
176
     1
 90
        0
176
     1
 90
        0
176
     1
290
     0
176
     1
 90
        1
176
     1
 40
0.0
176
     1
 90
        0
176
     1
290
     0
176
     1
290
     1
176
     1
290
     1
176
     1
290
     0
176
     1
290
     0
176
     1
290
     0
176
     1
290
     0
176
     1
290
     0
176
     1
290
     0
176
     1
 90
       50
176
     1
 40
0.0
176
     1
 40
1.0
176
     1
 90
        0
176
     1
 62
    18
420
        0
176
     1
 90
       50
176
     1
 90
        3
176
     1
 62
     5
420
      255
176
     1
290
     0
176
     1
 90
       50
176
     1
 90
       50
176
     1
 90
       50
176
     1
290
     0
176
     1
 90
       50
176
     1
 62
   256
176
     0
 40
1.0
176
     0
 90
        2
176
     1
  1
strokes_ogs.tif
176
     1
290
     0
176
     1
 40
1.0
176
     1
 40
1.0
176
     1
1001
ACAD
1000
AcDbSavedByObjectVersion
1070
     0
  0
VISUALSTYLE
  5
3B
102
{ACAD_REACTORS
330
29
102
}
330
29
100
AcDbVisualStyle
  2
Sketchy
 70
    24
177
     3
291
     0
 70
    58
 90
        1
176
     1
 90
        2
176
     1
 90
        2
176
     1
 90
        0
176
     1
 40
0.6
176
     1
 40
30.0
176
     1
 62
     7
420
 16777215
176
     1
 90
        2
176
     1
 90
        2
176
     1
 62
     7
176
     1
 62
     7
176
     1
 90
        1
176
     1
 90
        1
176
     1
 40
40.0
176
     1
 90
       11
176
     1
 62
     7
176
     1
 40
1.0
176
     1
 90
        1
176
     1
 90
        6
176
     1
 90
        2
176
     1
 62
     7
176
     1
 90
        6
176
     1
 90
        0
176
     1
 90
        0
176
     1
290
     0
176
     1
 90
        1
176
     1
 40
0.0
176
     1
 90
        0
176
     1
290
     0
176
     1
290
     1
176
     1
290
     1
176
     1
290
     0
176
     1
290
     0
176
     1
290
     0
176
     1
290
     0
176
     1
290
     0
176
     1
290
     0
176
     1
 90
       50
176
     1
 40
0.0
176
     1
 40
1.0
176
     1
 90
        0
176
     1
 62
    18
420
        0
176
     1
 90
       50
176
     1
 90
        3
176
     1
 62
     5
420
      255
176
     1
290
     0
176
     1
 90
       50
176
     1
 90
       50
176
     1
 90
       50
176
     1
290
     0
176
     1
 90
       50
176
     1
 62
   256
176
     0
 40
1.0
176
     0
 90
        2
176
     1
  1
strokes_ogs.tif
176
     1
290
     0
176
     1
 40
1.0
176
     1
 40
1.0
176
     1
1001
ACAD
1000
AcDbSavedByObjectVersion
1070
     0
  0
VISUALSTYLE
  5
36
102
{ACAD_REACTORS
330
29
102
}
330
29
100
AcDbVisualStyle
  2
Thicken
 70
    13
177
     3
291
     1
 70
    58
 90
        2
176
     1
 90
        2
176
     1
 90
        0
176
     1
 90
        0
176
     1
 40
0.6
176
     1
 40
30.0
176
     1
 62
     7
420
 16777215
176
     1
 90
        1
176
     1
 90
        4
176
     1
 62
     7
176
     1
 62
   257
176
     1
 90
        1
176
     1
 90
        1
176
     1
 40
1.0
176
     1
 90
       12
176
     1
 62
     7
176
     1
 40
1.0
176
     1
 90
        1
176
     1
 90
        6
176
     1
 90
        2
176
     1
 62
     7
176
     1
 90
        5
176
     1
 90
        0
176
     1
 90
        0
176
     1
290
     0
176
     1
 90
        1
176
     1
 40
0.0
176
     1
 90
        0
176
     1
290
     0
176
     1
290
     1
176
     1
290
     1
176
     1
290
     0
176
     1
290
     0
176
     1
290
     0
176
     1
290
     0
176
     1
290
     0
176
     1
290
     0
176
     1
 90
       50
176
     1
 40
0.0
176
     1
 40
1.0
176
     1
 90
        0
176
     1
 62
    18
420
        0
176
     1
 90
       50
176
     1
 90
        3
176
     1
 62
     5
420
      255
176
     1
290
     0
176
     1
 90
       50
176
     1
 90
       50
176
     1
 90
       50
176
     1
290
     0
176
     1
 90
       50
176
     1
 62
   256
176
     0
 40
1.0
176
     0
 90
        2
176
     1
  1
strokes_ogs.tif
176
     1
290
     0
176
     1
 40
1.0
176
     1
 40
1.0
176
     1
1001
ACAD
1000
AcDbSavedByObjectVersion
1070
     0
  0
VISUALSTYLE
  5
30
102
{ACAD_REACTORS
330
29
102
}
330
29
100
AcDbVisualStyle
  2
Wireframe
 70
     5
177
     3
291
     0
 70
    58
 90
        0
176
     1
 90
        2
176
     1
 90
        0
176
     1
 90
        0
176
     1
 40
0.6
176
     1
 40
30.0
176
     1
 62
     7
420
 16777215
176
     1
 90
        1
176
     1
 90
        4
176
     1
 62
     7
176
     1
 62
   257
176
     1
 90
        1
176
     1
 90
        1
176
     1
 40
1.0
176
     1
 90
        0
176
     1
 62
   257
176
     1
 40
1.0
176
     1
 90
        1
176
     1
 90
        6
176
     1
 90
        2
176
     1
 62
     7
176
     1
 90
        3
176
     1
 90
        0
176
     1
 90
        0
176
     1
290
     0
176
     1
 90
        1
176
     1
 40
0.0
176
     1
 90
        0
176
     1
290
     0
176
     1
290
     1
176
     1
290
     1
176
     1
290
     0
176
     1
290
     0
176
     1
290
     0
176
     1
290
     0
176
     1
290
     0
176
     1
290
     0
176
     1
 90
       50
176
     1
 40
0.0
176
     1
 40
1.0
176
     1
 90
        0
176
     1
 62
    18
420
        0
176
     1
 90
       50
176
     1
 90
        3
176
     1
 62
     5
420
      255
176
     1
290
     0
176
     1
 90
       50
176
     1
 90
       50
176
     1
 90
       50
176
     1
290
     0
176
     1
 90
       50
176
     1
 62
   256
176
     0
 40
1.0
176
     0
 90
        2
176
     1
  1
strokes_ogs.tif
176
     1
290
     0
176
     1
 40
1.0
176
     1
 40
1.0
176
     1
1001
ACAD
1000
AcDbSavedByObjectVersion
1070
     0
  0
VISUALSTYLE
  5
3C
102
{ACAD_REACTORS
330
29
102
}
330
29
100
AcDbVisualStyle
  2
X-Ray
 70
    25
177
     3
291
     0
 70
    58
 90
        2
176
     1
 90
        2
176
     1
 90
        1
176
     1
 90
        1
176
     1
 40
0.5
176
     1
 40
30.0
176
     1
 62
     7
420
 16777215
176
     1
 90
        1
176
     1
 90
        0
176
     1
 62
     7
176
     1
 62
   257
176
     1
 90
        1
176
     1
 90
        1
176
     1
 40
1.0
176
     1
 90
        8
176
     1
 62
     7
176
     1
 40
1.0
176
     1
 90
        1
176
     1
 90
        6
176
     1
 90
        2
176
     1
 62
     7
176
     1
 90
        3
176
     1
 90
        0
176
     1
 90
        0
176
     1
290
     0
176
     1
 90
       13
176
     1
 40
0.0
176
     1
 90
        0
176
     1
290
     0
176
     1
290
     1
176
     1
290
     1
176
     1
290
     0
176
     1
290
     0
176
     1
290
     0
176
     1
290
     0
176
     1
290
     0
176
     1
290
     0
176
     1
 90
       50
176
     1
 40
0.0
176
     1
 40
1.0
176
     1
 90
        0
176
     1
 62
    18
420
        0
176
     1
 90
       50
176
     1
 90
        3
176
     1
 62
     5
420
      255
176
     1
290
     0
176
     1
 90
       50
176
     1
 90
       50
176
     1
 90
       50
176
     1
290
     0
176
     1
 90
       50
176
     1
 62
   256
176
     0
 40
1.0
176
     0
 90
        2
176
     1
  1
strokes_ogs.tif
176
     1
290
     0
176
     1
 40
1.0
176
     1
 40
1.0
176
     1
1001
ACAD
1000
AcDbSavedByObjectVersion
1070
     0
  0
DICTIONARYVAR
  5
42A
102
{ACAD_REACTORS
330
425
102
}
330
425
100
DictionaryVariables
280
     0
  1
0
  0
DICTIONARYVAR
  5
42B
102
{ACAD_REACTORS
330
425
102
}
330
425
100
DictionaryVariables
280
     0
  1
1:1
  0
DICTIONARYVAR
  5
427
102
{ACAD_REACTORS
330
425
102
}
330
425
100
DictionaryVariables
280
     0
  1
STANDARD
  0
DICTIONARYVAR
  5
426
102
{ACAD_REACTORS
330
425
102
}
330
425
100
DictionaryVariables
280
     0
  1
STANDARD
  0
DICTIONARYVAR
  5
428
102
{ACAD_REACTORS
330
425
102
}
330
425
100
DictionaryVariables
280
     0
  1
Imperial24
  0
DICTIONARYVAR
  5
429
102
{ACAD_REACTORS
330
425
102
}
330
425
100
DictionaryVariables
280
     0
  1
Imperial24
  0
DICTIONARY
  5
431
330
6B
100
AcDbDictionary
280
     1
281
     1
  3
ACAD_XREC_ROUNDTRIP
360
432
  0
DICTIONARY
  5
1A
330
19
100
AcDbDictionary
280
     1
281
     1
  3
BUMPTILE
360
1C
  3
DIFFUSETILE
360
1B
  3
OPACITYTILE
360
1F
  3
REFLECTIONTILE
360
1E
  3
REFRACTIONTILE
360
20
  3
SPECULARTILE
360
1D
  0
DICTIONARY
  5
12
330
11
100
AcDbDictionary
280
     1
281
     1
  3
BUMPTILE
360
14
  3
DIFFUSETILE
360
13
  3
OPACITYTILE
360
17
  3
REFLECTIONTILE
360
16
  3
REFRACTIONTILE
360
18
  3
SPECULARTILE
360
15
  0
DICTIONARY
  5
22
330
21
100
AcDbDictionary
280
     1
281
     1
  3
BUMPTILE
360
24
  3
DIFFUSETILE
360
23
  3
OPACITYTILE
360
27
  3
REFLECTIONTILE
360
26
  3
REFRACTIONTILE
360
28
  3
SPECULARTILE
360
25
  0
DICTIONARY
  5
42F
330
69
100
AcDbDictionary
280
     1
281
     1
  3
ACAD_XREC_ROUNDTRIP
360
430
  0
DICTIONARY
  5
42C
330
65
100
AcDbDictionary
280
     1
281
     1
  3
ACAD_ROUNDTRIP_2008_TABLESTYLE_CELLSTYLEMAP
360
42D
  0
XRECORD
  5
432
102
{ACAD_REACTORS
330
431
102
}
330
431
100
AcDbXrecord
280
     1
102
DISPLAYNAME
  1
Imperial24
102
FLAGS
 90
        0
  0
XRECORD
  5
1C
102
{ACAD_REACTORS
330
1A
102
}
330
1A
100
AcDbXrecord
280
     1
270
     1
271
     1
  0
XRECORD
  5
1B
102
{ACAD_REACTORS
330
1A
102
}
330
1A
100
AcDbXrecord
280
     1
270
     1
271
     1
  0
XRECORD
  5
1F
102
{ACAD_REACTORS
330
1A
102
}
330
1A
100
AcDbXrecord
280
     1
270
     1
271
     1
  0
XRECORD
  5
1E
102
{ACAD_REACTORS
330
1A
102
}
330
1A
100
AcDbXrecord
280
     1
270
     1
271
     1
  0
XRECORD
  5
20
102
{ACAD_REACTORS
330
1A
102
}
330
1A
100
AcDbXrecord
280
     1
270
     1
271
     1
  0
XRECORD
  5
1D
102
{ACAD_REACTORS
330
1A
102
}
330
1A
100
AcDbXrecord
280
     1
270
     1
271
     1
  0
XRECORD
  5
14
102
{ACAD_REACTORS
330
12
102
}
330
12
100
AcDbXrecord
280
     1
270
     1
271
     1
  0
XRECORD
  5
13
102
{ACAD_REACTORS
330
12
102
}
330
12
100
AcDbXrecord
280
     1
270
     1
271
     1
  0
XRECORD
  5
17
102
{ACAD_REACTORS
330
12
102
}
330
12
100
AcDbXrecord
280
     1
270
     1
271
     1
  0
XRECORD
  5
16
102
{ACAD_REACTORS
330
12
102
}
330
12
100
AcDbXrecord
280
     1
270
     1
271
     1
  0
XRECORD
  5
18
102
{ACAD_REACTORS
330
12
102
}
330
12
100
AcDbXrecord
280
     1
270
     1
271
     1
  0
XRECORD
  5
15
102
{ACAD_REACTORS
330
12
102
}
330
12
100
AcDbXrecord
280
     1
270
     1
271
     1
  0
XRECORD
  5
24
102
{ACAD_REACTORS
330
22
102
}
330
22
100
AcDbXrecord
280
     1
270
     1
271
     1
  0
XRECORD
  5
23
102
{ACAD_REACTORS
330
22
102
}
330
22
100
AcDbXrecord
280
     1
270
     1
271
     1
  0
XRECORD
  5
27
102
{ACAD_REACTORS
330
22
102
}
330
22
100
AcDbXrecord
280
     1
270
     1
271
     1
  0
XRECORD
  5
26
102
{ACAD_REACTORS
330
22
102
}
330
22
100
AcDbXrecord
280
     1
270
     1
271
     1
  0
XRECORD
  5
28
102
{ACAD_REACTORS
330
22
102
}
330
22
100
AcDbXrecord
280
     1
270
     1
271
     1
  0
XRECORD
  5
25
102
{ACAD_REACTORS
330
22
102
}
330
22
100
AcDbXrecord
280
     1
270
     1
271
     1
  0
XRECORD
  5
430
102
{ACAD_REACTORS
330
42F
102
}
330
42F
100
AcDbXrecord
280
     1
102
DISPLAYNAME
  1
Imperial24
102
FLAGS
 90
        0
  0
CELLSTYLEMAP
  5
42D
102
{ACAD_REACTORS
330
42C
102
}
330
42C
100
AcDbCellStyleMap
 90
        3
300
CELLSTYLE
  1
TABLEFORMAT_BEGIN
 90
        5
170
     1
 91
        0
 92
    32768
 62
   257
 93
        1
300
CONTENTFORMAT
  1
CONTENTFORMAT_BEGIN
 90
        0
 91
        0
 92
      512
 93
        0
300

 40
0.0
140
1.0
 94
        5
 62
     0
340
55
144
0.25
309
CONTENTFORMAT_END
171
     1
301
MARGIN
  1
CELLMARGIN_BEGIN
 40
1.5
 40
1.5
 40
1.5
 40
1.5
 40
0.18
 40
0.18
309
CELLMARGIN_END
 94
        0
309
TABLEFORMAT_END
  1
CELLSTYLE_BEGIN
 90
        1
 91
        1
300
_TITLE
309
CELLSTYLE_END
300
CELLSTYLE
  1
TABLEFORMAT_BEGIN
 90
        5
170
     1
 91
        0
 92
        0
 62
   257
 93
        1
300
CONTENTFORMAT
  1
CONTENTFORMAT_BEGIN
 90
        0
 91
        0
 92
      512
 93
        0
300

 40
0.0
140
1.0
 94
        5
 62
     0
340
55
144
0.18
309
CONTENTFORMAT_END
171
     1
301
MARGIN
  1
CELLMARGIN_BEGIN
 40
1.5
 40
1.5
 40
1.5
 40
1.5
 40
0.18
 40
0.18
309
CELLMARGIN_END
 94
        0
309
TABLEFORMAT_END
  1
CELLSTYLE_BEGIN
 90
        2
 91
        1
300
_HEADER
309
CELLSTYLE_END
300
CELLSTYLE
  1
TABLEFORMAT_BEGIN
 90
        5
170
     1
 91
        0
 92
        0
 62
   257
 93
        1
300
CONTENTFORMAT
  1
CONTENTFORMAT_BEGIN
 90
        0
 91
        0
 92
      512
 93
        0
300

 40
0.0
140
1.0
 94
        2
 62
     0
340
55
144
0.18
309
CONTENTFORMAT_END
171
     1
301
MARGIN
  1
CELLMARGIN_BEGIN
 40
1.5
 40
1.5
 40
1.5
 40
1.5
 40
0.18
 40
0.18
309
CELLMARGIN_END
 94
        0
309
TABLEFORMAT_END
  1
CELLSTYLE_BEGIN
 90
        3
 91
        2
300
_DATA
309
CELLSTYLE_END
  0
ENDSEC
  0
EOF
